<?xml version="1.0" encoding="UTF-8" standalone="no"?>
<!-- Created with Inkscape (http://www.inkscape.org/) -->

<svg
   version="1.1"
   id="svg1"
   width="896"
   height="1200"
   viewBox="0 0 896 1200"
   sodipodi:docname="bored-fox-mascot.svg"
   inkscape:version="1.4.3 (0d15f75, 2025-12-25)"
   xmlns:inkscape="http://www.inkscape.org/namespaces/inkscape"
   xmlns:sodipodi="http://sodipodi.sourceforge.net/DTD/sodipodi-0.dtd"
   xmlns="http://www.w3.org/2000/svg"
   xmlns:svg="http://www.w3.org/2000/svg">
  <defs
     id="defs1" />
  <sodipodi:namedview
     id="namedview1"
     pagecolor="#ffffff"
     bordercolor="#cccccc"
     borderopacity="1"
     inkscape:showpageshadow="0"
     inkscape:pageopacity="1"
     inkscape:pagecheckerboard="0"
     inkscape:deskcolor="#d1d1d1"
     showgrid="false"
     inkscape:zoom="0.6725"
     inkscape:cx="685.50186"
     inkscape:cy="600"
     inkscape:window-width="1920"
     inkscape:window-height="1009"
     inkscape:window-x="-8"
     inkscape:window-y="-8"
     inkscape:window-maximized="1"
     inkscape:current-layer="g1" />
  <g
     inkscape:groupmode="layer"
     inkscape:label="Image"
     id="g1">
    <path
       style="fill:#ffffff;fill-opacity:1"
       d="m 188,1023.2725 c -2.01237,-0.7641 -74.2412,-39.3106 -90,-48.03047 l -12.5,-6.91666 v -5.82755 -5.82756 l 22,-8.89095 c 12.1,-4.89002 37.38363,-15.16583 56.18585,-22.83513 C 182.48807,917.27488 198.72439,911 199.76657,911 c 1.59718,0 33.66962,14.87787 94.48343,43.82928 l 12.75,6.06984 v 4.39545 c 0,2.94245 -0.5785,4.89617 -1.75,5.91016 -0.9625,0.83309 -18.4,9.18346 -38.75,18.55637 -82.28652,37.9 -75.06328,34.8164 -78.5,33.5114 z m 0.33466,-8.2955 c -0.95034,-0.9022 -22.45134,-12.7871 -38.83466,-21.46625 -24.6326,-13.04929 -52.256837,-27.89209 -56.295172,-30.248 -4.709457,-2.74743 -5.766848,-2.54113 -4.821433,0.94068 0.493532,1.8176 10.998699,7.86008 50.370095,28.97246 43.89837,23.53991 49.78585,26.43591 50.08117,24.63471 0.18407,-1.1227 -0.0409,-2.3978 -0.5,-2.8336 z M 221.5,1006.5306 c 22.39991,-10.31279 49.84078,-22.89076 68,-31.16889 10.42768,-4.7536 13.06323,-6.36505 13.31955,-8.14397 C 302.9953,965.99798 302.92532,965 302.66404,965 c -0.70213,0 -22.06315,9.57647 -68.66404,30.78312 -38.68648,17.60508 -41.52157,19.06728 -41.81811,21.56868 l -0.31811,2.6832 5.31811,-2.3784 c 2.92496,-1.3082 13.86811,-6.3148 24.31811,-11.126 z m -18.38456,-0.6773 c 6.26151,-2.8306 11.60284,-5.3364 11.86962,-5.5684 0.90852,-0.78987 -4.47878,-4.30127 -5.98506,-3.90096 -0.825,0.21925 -3.14361,1.11026 -5.15247,1.98002 -3.49385,1.5127 -3.84819,1.47731 -8.15955,-0.81507 -2.4789,-1.31804 -4.84449,-2.09324 -5.25687,-1.72267 -0.41237,0.37058 -0.46719,-0.11372 -0.12182,-1.07622 0.42858,-1.19441 0.12506,-1.75 -0.95602,-1.75 -0.87118,0 -5.01956,-1.61758 -9.21862,-3.59462 -6.88925,-3.24367 -8.04704,-3.50188 -11.85845,-2.64473 -5.09668,1.1462 -8.62346,-0.24496 -9.10296,-3.59072 -0.46499,-3.24447 1.54336,-5.16993 5.3925,-5.16993 2.20368,0 3.79922,0.68297 4.74284,2.03017 1.64528,2.34897 17.41643,10.25782 18.77765,9.41654 0.50257,-0.31061 0.91377,-1.58154 0.91377,-2.8243 0,-1.54656 0.98252,-2.72487 3.11369,-3.73418 l 3.1137,-1.47462 -3.60686,-2.4568 c -3.23315,-2.20226 -3.60981,-2.92306 -3.63534,-6.95681 -0.0258,-4.0828 -0.32778,-4.63907 -3.25683,-6 -3.92723,-1.82472 -4.53758,-4.19078 -1.78984,-6.93852 2.45446,-2.45446 5.78394,-2.6446 8.83897,-0.50478 2.76041,1.93347 2.85311,4.92294 0.22251,7.17533 -2.74586,2.35108 -2.62039,7.35428 0.25,9.96869 3.84292,3.50022 6.35428,4.40023 9.22876,3.30736 2.14146,-0.81419 3.67831,-0.45278 8.56547,2.01425 5.92744,2.99216 5.95577,3.02756 5.95577,7.44238 0,2.88253 -0.5198,4.72681 -1.48438,5.26661 -1.15988,0.6491 -0.72813,1.23797 1.97498,2.69368 l 3.45935,1.86299 8.51581,-3.894 c 4.6837,-2.14169 8.50185,-4.11899 8.48477,-4.39399 -0.0814,-1.31128 -18.53494,-11 -20.95103,-11 -5.8735,0 -6.90805,-6.74552 -1.28098,-8.35226 4.08092,-1.16525 8.37568,1.26132 8.01726,4.5298 -0.18888,1.72235 1.59551,3.29762 8.96976,7.91853 l 9.20553,5.76846 17.29447,-7.99286 C 267.71749,976.4756 280.675,970.60371 287,967.82302 c 6.325,-2.78069 11.85046,-5.37638 12.27879,-5.7682 0.42834,-0.39182 -2.94666,-2.44338 -7.5,-4.55901 -4.55333,-2.11564 -13.56601,-6.42516 -20.02817,-9.57672 -6.46216,-3.15155 -12.00122,-5.32262 -12.30902,-4.8246 -1.00429,1.62498 -3.4416,0.95177 -3.4416,-0.95059 0,-1.37686 -2.62221,-3.07317 -10.15598,-6.56988 l -10.15599,-4.71379 -17.00444,7.78462 c -14.32838,6.55953 -17.30948,8.30164 -18.94279,11.06989 C 198.38255,952.0168 197.06415,953 195.33548,953 191.58981,953 189,951.19617 189,948.58726 c 0,-3.50706 2.36896,-4.94378 6.94506,-4.21204 2.16383,0.34601 4.1657,0.25459 4.4486,-0.20316 0.28291,-0.45775 7.28507,-3.9008 15.56036,-7.65122 8.27529,-3.75042 15.04598,-7.1282 15.04598,-7.50617 0,-0.37797 -2.72057,-1.86109 -6.04571,-3.29581 l -6.04572,-2.6086 -4.45428,1.90933 c -4.84524,2.07692 -4.93677,2.21037 -3.43738,5.01202 1.33135,2.48765 -1.92439,4.71728 -8.65679,5.92843 -2.67306,0.48088 -7.00401,1.69785 -9.62432,2.70437 -4.33579,1.66548 -5.0102,1.6926 -7.5,0.30162 -1.86667,-1.04286 -2.83,-2.47931 -3.03233,-4.52157 -0.22811,-2.30256 -1.3207,-3.6411 -4.73549,-5.80145 -5.02989,-3.18215 -7.22237,-3.05471 -15.79757,0.91823 l -5.05502,2.34203 2.9423,1.20027 c 1.61827,0.66015 5.79756,1.52823 9.2873,1.92907 9.77266,1.1225 12.14072,5.69296 4.18469,8.07664 -4.50794,1.35062 -9.62703,-0.53703 -9.38121,-3.45929 0.10396,-1.2358 -1.48681,-2.48818 -5.30571,-4.17708 -5.26921,-2.33029 -5.59644,-2.35716 -9.64847,-0.79211 -2.30686,0.891 -4.59727,1.9778 -5.08979,2.41512 -0.49253,0.43731 3.33247,2.86173 8.5,5.3876 5.16752,2.52587 10.0705,5.41015 10.8955,6.40952 0.825,0.99937 2.29771,2.09707 3.27268,2.43933 2.91342,1.02275 3.17311,3.56424 0.63973,6.26089 -1.99723,2.12596 -2.15844,2.78316 -1.09889,4.47978 1.10164,1.764 0.88781,2.18227 -1.89541,3.70765 -1.72543,0.94564 -4.09645,2.46392 -5.26894,3.37395 -2.03457,1.57915 -2.05238,1.74237 -0.39048,3.57874 0.95772,1.05827 1.74131,2.17491 1.74131,2.48142 0,0.30652 -3.16034,2.43482 -7.02298,4.72957 -3.86264,2.29476 -6.78702,4.55407 -6.49862,5.02071 0.2884,0.46664 -0.48876,0.61407 -1.72702,0.32763 -4.62155,-1.06908 -2.29696,0.28183 36.74862,21.35602 4.4,2.3748 8.50195,4.3254 9.11544,4.3346 0.61349,0.01 6.23849,-2.2993 12.5,-5.13 z m 34.55687,-29.51433 c -0.37363,-0.37362 -0.003,-1.71191 0.82418,-2.97396 1.38602,-2.11533 1.33985,-2.38223 -0.59084,-3.4155 -1.71829,-0.9196 -2.49474,-0.74472 -4.32419,0.97396 -2.7036,2.5399 -4.2941,1.52146 -1.84692,-1.18264 1.65561,-1.82943 1.64656,-1.98899 -0.18894,-3.33115 -2.47177,-1.8074 -3.99117,-1.78265 -5.5456,0.0903 -1.29593,1.5615 -4,2.06212 -4,0.74055 0,-0.4177 0.95005,-1.35278 2.11123,-2.07794 l 2.11123,-1.31849 -2.11929,-1.48441 c -1.91421,-1.34077 -2.39958,-1.28484 -5.0156,0.57794 -4.04316,2.87898 -6.23619,2.5205 -2.62665,-0.42936 3.36485,-2.74989 3.36536,-2.74847 -1.71092,-4.85217 -4.17306,-1.72939 -4.75884,-3.545 -1.75,-5.42405 1.1,-0.68696 2,-1.94257 2,-2.79023 0,-1.13564 0.43211,-1.2994 1.64203,-0.62229 2.20717,1.23519 5.60369,0.26317 4.9582,-1.41895 -0.61154,-1.59365 0.99947,-2.85731 1.8625,-1.46091 0.818,1.32356 5.03727,-0.32112 5.03727,-1.96354 0,-2.24467 10.21425,-2.16258 14.68461,0.11803 2.96441,1.51233 4.29814,1.71783 5.82961,0.89821 1.35109,-0.72308 1.98578,-0.73189 1.98578,-0.0276 0,0.56935 -0.5625,1.04276 -1.25,1.05203 -0.6875,0.009 0.15855,0.9193 1.88011,2.02229 3.01706,1.93301 3.24048,1.94211 6.18545,0.25193 3.47931,-1.99685 5.7207,-0.88758 2.68774,1.33018 -1.70921,1.2498 -1.7803,1.59254 -0.49843,2.40292 2.01717,1.27523 3.64623,1.21067 5.96322,-0.23632 2.55382,-1.59488 3.92871,-0.16409 1.52869,1.59085 -1.79778,1.31456 -1.79234,1.39275 0.1698,2.44286 1.49312,0.79909 2.36942,0.76791 3.32693,-0.11836 1.01715,-0.94149 1.14639,-0.93131 0.59418,0.0468 -0.46509,0.82377 -0.004,1.25 1.35329,1.25 1.36251,0 2.05902,0.64835 2.05902,1.91667 0,1.05416 0.5625,2.14888 1.25,2.4327 0.75864,0.31318 0.36933,0.78388 -0.99041,1.19745 -1.76476,0.53676 -2.11328,1.18796 -1.64159,3.0673 0.59601,2.37472 -0.90134,3.35448 -2.118,1.38588 -1.10817,-1.79305 -2.74678,-1.05168 -2.21025,1 0.33992,1.29986 0.0307,2 -0.88337,2 C 267.63287,970 267,969.55 267,969 c 0,-0.55 -0.90857,-1 -2.01905,-1 -1.65431,0 -1.9057,0.45162 -1.39159,2.5 0.62128,2.47541 -0.83872,3.52358 -2.08936,1.5 -0.33992,-0.55 -1.50005,-1 -2.57807,-1 -1.59136,0 -1.84201,0.47024 -1.33257,2.5 0.69278,2.76026 -0.66165,3.32275 -2.54285,1.05604 -0.93338,-1.12466 -1.72446,-1.20427 -3.57739,-0.36002 -1.7663,0.80478 -3.17332,0.75493 -5.46321,-0.19357 -2.76772,-1.14643 -3.31868,-1.05724 -5.36925,0.86916 -1.25677,1.18068 -2.59073,1.84099 -2.96435,1.46736 z m 22.32228,-9.98287 c 5.50297,-2.55415 9.98614,-4.91665 9.9626,-5.25 -0.0236,-0.33336 -7.38906,-4.14644 -16.36782,-8.47351 l -16.325,-7.86742 -10.72871,4.7889 -10.72871,4.78889 2.84653,1.48469 c 1.56558,0.81658 8.69652,4.55729 15.84652,8.31269 7.15,3.75539 13.56006,6.83512 14.24459,6.84382 0.68452,0.009 5.74702,-2.07392 11.25,-4.62806 z m -60.63095,28.13865 c 0.38371,-0.99993 -0.76215,-2.39186 -3.41334,-4.14634 -4.13766,-2.73817 -5.79842,-2.68633 -4.22133,0.13177 0.69046,1.23379 4.42029,4.17206 6.91404,5.44672 0.0787,0.0402 0.40294,-0.60426 0.72063,-1.43215 z m 13.16573,-4.54227 c 1.29844,-2.10092 -0.38644,-2.06956 -5.43227,0.1011 -3.56313,1.53281 -5.0971,2.76262 -5.0971,4.08641 0,1.77656 0.30491,1.73919 4.92923,-0.60413 2.71108,-1.37381 5.23114,-2.98632 5.60014,-3.58338 z m -5.14217,-7.00999 c -2.46506,-1.25676 -4.24292,-1.55996 -5.73051,-0.97731 -1.18618,0.46459 -3.48007,1.35901 -5.09754,1.98758 l -2.94085,1.14286 3.75618,2.26695 3.75618,2.26695 4.91518,-2.4325 4.91518,-2.43249 z m -40.50908,1.154 C 168.80196,982.87795 167.35969,981 164.5,981 c -1.31008,0 -2.69118,0.50031 -3.0691,1.1118 -0.68763,1.11261 1.18651,2.85757 3.0691,2.85757 0.55,0 1.62015,-0.39279 2.37812,-0.87288 z m -21.10316,-3.51476 c 9.72626,-4.94376 10.95722,-5.99459 9.32542,-7.96078 -1.90591,-2.29648 -0.76923,-4.23908 3.86327,-6.6024 3.60253,-1.83788 3.98609,-2.37064 3.39687,-4.71824 -0.53848,-2.1455 -0.12233,-3.0785 2.19856,-4.92912 3.84576,-3.0665 2.23802,-4.31558 -2.3685,-1.84012 -2.53674,1.36319 -3.69945,2.68191 -3.71896,4.21795 -0.0156,1.22909 -0.35311,2.23837 -0.75,2.24284 C 157.32473,960.99634 156.55,961 156,961 c -2.42771,0 -0.73556,-4.00032 2.55149,-6.03182 2.14554,-1.32602 3.43214,-2.84284 3.25,-3.83156 -0.58513,-3.17633 -22.07585,-11.98374 -24.44449,-10.01794 -0.77468,0.64293 -1.40116,0.61888 -1.82699,-0.0701 C 134.71005,939.72184 133,939.68052 133,940.98743 c 0,0.54308 3.15,2.57374 7,4.51257 9.49224,4.78022 9.40872,6.41858 -0.51167,10.03675 -5.65577,2.06277 -7.81948,3.38496 -8.75747,5.35146 -1.01371,2.12521 -2.04995,2.66975 -5.56223,2.9229 C 120.49617,964.14788 118,962.80306 118,959.94898 c 0,-3.46233 2.78361,-4.96905 8.82563,-4.77715 4.21891,0.134 7.0851,-0.46524 11.17437,-2.33625 l 5.5,-2.51647 -7.34196,-3.71844 -7.34195,-3.71843 -14.65805,5.99654 c -8.06192,3.2981 -16.410223,6.73266 -18.551781,7.63236 l -3.89374,1.63582 3.329672,2.02489 c 1.83132,1.11369 9.560059,5.31609 17.174979,9.33867 l 13.8453,7.31377 4.46877,-2.49764 c 2.45782,-1.3737 4.46876,-3.21123 4.46876,-4.0834 0,-0.87217 0.74474,-2.4087 1.65499,-3.41451 C 139.74835,963.41062 147,965.16758 147,969.33518 147,972.46635 145.1678,974 141.42712,974 c -1.74509,0 -5.31609,0.94804 -7.93556,2.10676 l -4.76268,2.10676 4.88556,2.87619 c 2.68706,1.5819 5.00929,2.88386 5.16052,2.89324 0.15123,0.009 3.30123,-1.52117 7,-3.40122 z m 73.09392,-4.92374 c 0.61257,-0.7381 0.81767,-1.6381 0.45578,-2 C 218.12223,972.45556 214,972.9784 214,974.33333 c 0,2.81014 2.96627,3.61716 4.86888,1.32466 z M 144,969.39301 c 0,-1.56598 -4.54152,-1.94386 -5.46202,-0.45447 -0.74639,1.20769 2.43532,3.00894 4.15162,2.35033 0.72072,-0.27657 1.3104,-1.1297 1.3104,-1.89586 z M 190.5,962 c 0,-1.754 -4.27208,-2.62792 -5.7282,-1.1718 -1.59381,1.59381 0.18022,3.31383 3.07264,2.97911 C 189.40169,963.6271 190.5,962.87962 190.5,962 Z m -63.41609,-2.5 c 0.0119,-0.55 -0.70332,-1.15056 -1.5895,-1.33457 -2.34292,-0.48651 -4.72793,0.64771 -3.96336,1.88482 0.80659,1.30509 5.5227,0.83775 5.55286,-0.55025 z m 70.62865,-11.12268 c 0.4616,-1.40357 -3.86241,-2.62747 -5.05818,-1.4317 -0.48406,0.48406 -0.56186,1.39506 -0.17289,2.02443 0.86362,1.39737 4.7203,0.96037 5.23107,-0.59273 z m -25.2105,-8.01648 c 1.32869,-0.50987 1.39581,-0.81021 0.33179,-1.48469 C 171.1088,937.78265 167,937.75249 167,938.83333 c 0,2.05494 2.39492,2.71983 5.50206,1.52751 z m 20.34872,-4.45867 c 1.73207,-0.6038 3.14922,-1.44852 3.14922,-1.87716 0,-0.42863 1.9125,-0.59641 4.25,-0.37285 5.73175,0.54822 8.57293,-1.55061 6.94266,-5.12865 -1.07961,-2.3695 -0.88611,-2.64097 3.4551,-4.84723 l 4.59876,-2.33716 -7.70688,-3.65998 -7.70688,-3.65998 -11.16638,4.56126 c -6.14151,2.5087 -11.54015,4.92566 -11.99699,5.37103 -0.45683,0.44537 1.11817,1.88276 3.5,3.19419 3.00069,1.65217 4.43681,3.14754 4.67643,4.86939 0.67968,4.88407 2.54577,5.79023 8.00496,3.88714 z m 381.53813,84.66893 c -0.51354,-1.3383 -2.03549,-1.4732 -10.4175,-0.9239 l -9.81611,0.6433 -1.05712,-3.9259 c -0.58142,-2.1592 -1.17886,-7.2626 -1.32765,-11.3409 -0.25629,-7.02489 -0.13897,-7.48297 2.22947,-8.70466 1.375,-0.70926 5.54864,-1.29619 9.27475,-1.3043 6.30008,-0.0137 6.84135,-0.1899 7.72525,-2.51474 0.78783,-2.07214 1.61269,-2.5 4.81969,-2.5 2.12805,0 8.61902,-0.29062 14.42438,-0.64583 l 10.55519,-0.64582 2.85037,2.86242 c 3.0986,3.11169 5.37809,3.55046 18.35037,3.53218 17.34925,-0.0244 31.55938,-3.129 44.95919,-9.82248 l 9.4592,-4.72505 -9.32685,-1.24933 c -30.19905,-4.04517 -45.33102,-13.82741 -46.82185,-30.26856 -1.53178,-16.89266 14.97703,-29.01691 45.73031,-33.58486 5.95697,-0.88482 10.68005,-2.07663 10.91614,-2.75456 1.19861,-3.44182 12.012,-13.0241 18.17905,-16.10934 16.02949,-8.01923 31.48582,-7.10159 54.15735,3.2153 6.67344,3.03681 6.80815,3.0545 11.5,1.51049 2.6111,-0.85928 5.19746,-2.11232 5.74746,-2.78454 0.55,-0.67223 2.63125,-1.81154 4.625,-2.53181 2.81927,-1.0185 3.625,-1.85227 3.625,-3.75112 0,-4.06686 3.1661,-5.99045 16.74778,-10.17523 10.82989,-3.3369 13.22011,-3.78254 14.33079,-2.67186 1.11067,1.11067 2.61215,0.93462 9.00222,-1.05552 5.32167,-1.65739 8.28141,-2.11465 9.66921,-1.49384 2.0145,0.90117 8.5,16.19691 8.5,20.04683 0,1.85148 -4.56031,4.28095 -13.25,7.05884 -2.0625,0.65934 -3.75,1.82734 -3.75,2.59556 0,1.93937 -4.46446,4.05256 -11.73376,5.55401 -6.77288,1.39892 -7.20276,2.30825 -1.58905,3.36138 5.2064,0.97673 14.66801,5.94637 19.31611,10.14565 5.99679,5.41774 10.0067,14.25676 10.0067,22.05771 0,13.71101 -9.16221,23.70768 -26.5301,28.94636 -6.29952,1.90013 -25.51072,2.32289 -59.9699,1.31971 -12.92181,-0.37619 -16.62791,-0.10994 -26.75,1.92172 -6.4625,1.29712 -11.75,2.75962 -11.75,3.25 0,0.49037 0.1281,0.89159 0.28466,0.89159 0.15656,0 2.75657,0.86881 5.7778,1.93069 10.76744,3.78445 22.21784,5.01363 48.48339,5.2046 l 25.04584,0.18211 2.6587,-2.6587 c 3.13678,-3.13678 4.86244,-3.23965 19.00619,-1.13296 12.74525,1.89838 13.41471,2.10926 14.01786,4.41573 0.38652,1.47805 2.12043,2.13818 8.18639,3.11673 10.34182,1.66831 10.59047,1.98796 8.93809,11.4901 -1.66589,9.5799 -2.16277,11.1471 -3.72406,11.7462 -0.68695,0.2636 -4.78029,-0.075 -9.09631,-0.7517 -7.48991,-1.175 -7.87061,-1.142 -8.35902,0.7257 -0.46341,1.7721 -1.08782,1.8922 -6.61562,1.2721 -3.35715,-0.3765 -9.70391,-1.3073 -14.10391,-2.0683 -8.18986,-1.4165 -7.89531,-1.238 -13.56427,-8.2223 -0.55802,-0.6875 -2.0897,-1.25 -3.40373,-1.25 -1.31403,0 -3.17584,-0.7875 -4.13736,-1.75 -1.53066,-1.5322 -4.74388,-1.8267 -25.82143,-2.3664 -30.69513,-0.7859 -40.94505,-2.9425 -54.15835,-11.39491 C 693.41533,990.56991 690.52018,989 689.98119,989 c -0.53898,0 -6.26774,2.65386 -12.73058,5.89747 -14.65958,7.35743 -22.26404,9.70983 -37.63053,11.64063 -6.66604,0.8375 -14.82008,1.9803 -18.12008,2.5395 -3.3,0.5592 -7.6875,1.2678 -9.75,1.5746 -2.18883,0.3256 -3.75,1.1154 -3.75,1.8971 0,0.7365 -1.0125,2.5023 -2.25,3.9238 -2.43605,2.7984 -6.77,3.7634 -22.50485,5.0108 -6.97355,0.5528 -8.3482,0.4111 -8.85624,-0.9128 z m 16.4005,-3.6498 c 12.73646,-1.4148 13.6319,-2.1903 12.88766,-11.1622 -0.30754,-3.7074 -1.15195,-7.98243 -1.87646,-9.49996 -1.16606,-2.44238 -1.94776,-2.79673 -6.80895,-3.08657 -3.02041,-0.18009 -8.79849,-0.025 -12.84016,0.34455 -7.30818,0.66829 -7.3454,0.68655 -6.78307,3.32743 0.31098,1.4605 1.10245,6.81795 1.7588,11.90545 0.85385,6.6183 1.58574,9.25 2.57249,9.25 0.75851,0 5.74887,-0.4854 11.08969,-1.0787 z m -17.24071,-2.1367 c 0.38927,-0.3892 0.13646,-4.3802 -0.56179,-8.8687 l -1.26954,-8.16101 -5.10868,0.61386 c -2.80978,0.33763 -6.62933,0.61778 -8.4879,0.62256 l -3.37921,0.009 0.69984,7.1023 c 1.03986,10.5529 0.6429,10.1511 9.62414,9.7432 4.27646,-0.1942 8.09387,-0.6716 8.48314,-1.0609 z M 562,1011.5 c 0,-2 0.5,-2.5 2.5,-2.5 2,0 2.5,0.5 2.5,2.5 0,2 -0.5,2.5 -2.5,2.5 -2,0 -2.5,-0.5 -2.5,-2.5 z m -1,-9 c 0,-2 0.5,-2.5 2.5,-2.5 2,0 2.5,0.5 2.5,2.5 0,2 -0.5,2.5 -2.5,2.5 -2,0 -2.5,-0.5 -2.5,-2.5 z m 255.61229,2.0654 1.95947,-11.43466 -6.03588,-1.03132 c -12.45466,-2.12805 -19.02165,-2.42395 -20.27516,-0.91357 -1.5928,1.91921 -3.67757,15.01715 -2.88981,18.15585 0.7243,2.8858 1.78502,3.3229 12.40979,5.1135 13.93129,2.3479 12.5801,3.2489 14.83159,-9.8898 z m 17.73522,8.9714 c 0.61812,-1.6108 -2.54156,-2.4861 -10.23995,-2.8367 -6.67146,-0.3039 -6.24262,1.8806 0.59909,3.0516 8.32554,1.425 9.01749,1.4096 9.64086,-0.2149 z m 1.0102,-6.0266 c 0.68571,-1.7869 -2.21165,-2.6781 -9.34434,-2.8743 -7.00813,-0.1927 -6.27148,1.6541 1.19344,2.992 3.46126,0.6204 6.58255,1.1829 6.9362,1.25 0.35366,0.067 0.90027,-0.5483 1.2147,-1.3677 z m -222.52483,-2.3619 C 613.45473,1000.7551 612.16284,998 609.48095,998 607.32355,998 607,998.44579 607,1001.4182 c 0,4.9668 0.93439,6.7332 3.37728,6.3847 1.35179,-0.1929 2.24362,-1.157 2.4556,-2.6546 z m 29.70893,-2.6992 c 12.87563,-1.973 21.44382,-4.82296 33.45819,-11.12881 5.775,-3.03106 10.68474,-5.69034 10.91054,-5.90952 0.22579,-0.21918 -0.37549,-1.26705 -1.33618,-2.32861 -1.7121,-1.89185 -2.00761,-1.80314 -14.91054,4.47573 -14.76668,7.18583 -26.10814,10.06547 -43.9156,11.15034 -10.13666,0.61756 -11.70586,1.35387 -10.36006,4.86087 0.50885,1.3261 1.88108,1.4682 8.85699,0.9173 4.54017,-0.3585 12.32366,-1.2753 17.29666,-2.0373 z m 142.93914,0.051 c 0.28548,-1.375 0.75262,-3.625 1.0381,-5 0.46284,-2.22923 0.19207,-2.5 -2.5,-2.5 -1.89495,0 -3.01905,0.51196 -3.01905,1.375 0,0.75625 -0.27281,2.73905 -0.60624,4.4062 -0.59294,2.9647 -0.11515,3.4756 3.83719,4.1028 0.40202,0.064 0.96452,-1.009 1.25,-2.384 z m 50.57583,-2.4649 c -2.37827,-1.46986 -13.12068,-2.3712 -14.29265,-1.19923 -1.17316,1.17313 0.49869,1.75383 8.74954,3.03893 5.129,0.7989 8.17613,-0.2124 5.54311,-1.8397 z M 777,998.56127 c 0,-3.07539 -1.48752,-3.28377 -28.50733,-3.99346 -22.37131,-0.58759 -31.07853,-2.1755 -42.45989,-7.74325 -20.39988,-9.9796 -25.13411,-29.88776 -10.19486,-42.87089 5.55632,-4.82878 49.62188,-27.16453 63.11301,-31.99043 5.01308,-1.79322 9.35397,-3.64757 9.64643,-4.12077 0.29245,-0.4732 0.24708,-1.75723 -0.10083,-2.8534 -0.49931,-1.5732 -1.19752,-1.8616 -3.31455,-1.36911 -6.13123,1.42633 -17.07266,6.24028 -41.18198,18.11903 -24.35413,11.99936 -25.82194,12.88522 -32.66434,19.71391 -6.04252,6.03041 -7.43066,8.06606 -8.86511,13.00041 -5.24058,18.02696 9.13376,35.96256 34.2155,42.69242 6.03843,1.62021 12.35844,2.25713 27.81395,2.80303 35.77117,1.26344 32.5,1.40314 32.5,-1.38749 z m -64.09032,-21.0152 c 4.07533,-0.90164 19.37533,-3.64695 34,-6.10069 31.86034,-5.34556 39.71817,-7.70239 49.39145,-14.81415 9.23397,-6.78878 8.60636,-19.85846 -1.3029,-27.13253 -4.12066,-3.02485 -7.00359,-4.00508 -20.61008,-7.00773 C 765.68754,920.57093 757.21841,919 755.56786,919 752.05624,919 744,921.88035 744,923.13586 c 0,0.47528 2.3625,0.86541 5.25,0.86696 7.30855,0.004 22.10033,1.85182 29.19002,3.64664 8.0796,2.04543 12.95619,4.69238 16.00205,8.6857 4.68354,6.14044 3.01395,12.88956 -4.35178,17.59163 -9.51291,6.07277 -16.92283,8.01131 -50.03959,13.09106 -16.76522,2.57161 -40.71426,7.48056 -41.96124,8.60101 -1.09858,0.98711 3.54995,4.48303 5.38261,4.04797 1.11536,-0.26478 5.36229,-1.21912 9.43761,-2.12076 z M 681,976.22251 c 0,-0.42763 -0.65388,-1.71104 -1.45307,-2.85204 -1.12818,-1.6107 -2.97278,-2.22148 -8.25,-2.73168 -26.93628,-2.60424 -44.13013,-13.22277 -41.63244,-25.71126 0.86112,-4.30558 6.48588,-10.18698 12.61057,-13.18595 5.7219,-2.80174 23.17956,-7.74158 27.35917,-7.74158 1.6725,0 2.71519,-0.78884 3.39052,-2.5651 0.53639,-1.4108 0.97525,-2.73251 0.97525,-2.93713 0,-0.20462 -1.6875,-0.14068 -3.75,0.14208 -30.47653,4.17819 -46.25,14.01825 -46.25,28.85243 0,6.31633 1.911,10.27834 7.38268,15.30625 7.02525,6.45547 16.14906,9.80558 34.48682,12.66296 10.17899,1.58609 15.1305,1.83513 15.1305,0.76102 z M 802.17227,973.4642 C 819.63252,968.96419 828,960.71698 828,948.00772 c 0,-7.53329 -1.64473,-11.58211 -7.11622,-17.51798 -7.41985,-8.04958 -16.16337,-11.73405 -36.88378,-15.54259 -14.36445,-2.64027 -12.83844,-2.50385 -17.25,-1.5421 -7.45546,1.62535 -5.51584,2.37424 19.76685,7.63201 8.11789,1.68819 16.93094,4.16964 19.58456,5.51433 16.6828,8.45381 21.03172,24.10044 9.51032,34.21637 -6.44498,5.65876 -13.93158,7.83975 -31.99193,9.31987 -17.14806,1.40535 -29.79206,3.42028 -26.6198,4.24209 7.90302,2.04737 35.95565,1.50987 45.17227,-0.86552 z M 698.5,971 c 0.36155,-0.585 -0.67595,-1 -2.5,-1 -1.82405,0 -2.86155,0.415 -2.5,1 0.33992,0.55 1.46492,1 2.5,1 1.03508,0 2.16008,-0.45 2.5,-1 z M 677,962.58216 c 0,-3.79827 -0.75423,-6.91947 -2.52308,-10.44117 -3.10135,-6.17465 -4.83699,-15.0503 -3.95915,-20.24618 0.7608,-4.50311 1.09735,-4.4113 -8.70239,-2.37399 -17.2252,3.58102 -26.60928,8.8255 -28.3742,15.8575 -2.27236,9.05383 11.38368,17.81117 33.01842,21.17402 4.42222,0.68738 8.6029,1.2943 9.2904,1.34872 0.85836,0.0679 1.25,-1.59853 1.25,-5.3189 z M 693.5,967 c -0.33992,-0.55 -1.06803,-1 -1.61803,-1 -0.55,0 -0.72189,0.45 -0.38197,1 0.33992,0.55 1.06803,1 1.61803,1 0.55,0 0.72189,-0.45 0.38197,-1 z m 29.22696,-0.68536 c 4.55181,-0.62476 4.88699,-2.30618 0.46402,-2.32778 -5.18944,-0.0253 -20.95493,-3.79616 -26.03383,-6.22683 -2.82103,-1.35009 -5.36044,-2.22341 -5.64314,-1.9407 -1.35523,1.35523 -0.28618,5.28385 1.81194,6.65858 3.86596,2.53308 16.7695,5.55477 21.17405,4.95845 2.2,-0.29786 5.90213,-0.80263 8.22696,-1.12172 z m 79.83587,-2.85579 c 16.20181,-4.49908 20.93287,-19.1324 9.33956,-28.88753 C 809.05991,932.17953 801.8593,928 800.58114,928 c -0.27419,0 0.82783,2.1375 2.44893,4.75 6.71928,10.82852 3.9395,20.8636 -8.05375,29.07417 L 788.5,966.25786 793,965.5613 c 2.475,-0.3831 6.77827,-1.32921 9.56283,-2.10245 z M 756.303,960.44688 c 17.0857,-2.44303 31.65187,-7.68896 35.12739,-12.65096 4.78239,-6.82782 -2.50385,-14.24193 -16.97105,-17.26886 -3.48075,-0.72827 -13.50942,-1.90085 -22.28595,-2.60573 l -15.95731,-1.28161 -16.67342,8.21981 c -17.58196,8.66771 -26.58606,15.17832 -24.48788,17.70647 2.01892,2.43266 13.2894,5.4204 28.37062,7.5209 8.29103,1.15477 15.26742,2.28795 15.50309,2.51817 0.23568,0.23022 1.81068,0.18636 3.5,-0.0975 1.68933,-0.28383 7.93286,-1.21116 13.87451,-2.06073 z m -75.85306,-11.98132 c 1.10668,-2.64865 1.25486,-4.71623 0.59127,-8.25 -1.8369,-9.78193 2.39946,-21.50493 10.56044,-29.22325 8.12528,-7.68455 12.80677,-9.4579 24.89835,-9.43147 8.48087,0.0185 11.32306,0.47841 18.70933,3.02722 8.43097,2.90931 8.81242,2.95205 11.93502,1.33729 l 3.2257,-1.66807 -4.88305,-2.16 c -15.96781,-7.06333 -32.05575,-8.64903 -43.84717,-4.32179 -16.12796,5.91868 -26.97935,21.29011 -27.03147,38.29115 -0.0173,5.63278 2.54339,15.93336 3.96093,15.93336 0.22213,0 1.06842,-1.5905 1.88065,-3.53444 z m 19.19296,-18.54732 c 2.92316,-1.67246 5.56926,-3.45251 5.88022,-3.95566 0.54327,-0.87902 -18.47581,-0.1665 -19.49346,0.73029 -0.25869,0.22797 -0.65191,3.62761 -0.87381,7.55477 l -0.40346,7.14029 4.78784,-4.21442 c 2.63331,-2.31794 7.17951,-5.58281 10.10267,-7.25527 z M 719.5,919 l 5,-2.9659 -15.31574,-0.017 c -15.66575,-0.0174 -18.32567,0.51014 -20.19653,4.00587 -1.02952,1.92369 -0.69935,1.97662 12.22709,1.96003 12.92261,-0.0166 13.42164,-0.098 18.28518,-2.98295 z m 16.48354,-7.91017 c 2.47559,-1.40566 2.46599,-1.41656 -3,-3.40756 -4.0113,-1.46112 -8.16838,-2.02221 -15.48354,-2.08983 -9.05039,-0.0837 -10.54602,0.17569 -15.75,2.73111 -3.1625,1.55295 -5.74733,3.12795 -5.74406,3.5 0.003,0.37205 8.44076,0.67645 18.75,0.67645 14.28993,0 19.33422,-0.3351 21.2276,-1.41017 z M 801.75,908.81927 c 5.2371,-1.2529 9.25,-2.72855 9.25,-3.40149 0,-1.46696 -7.06678,-20.61213 -8.0175,-21.72084 -0.77842,-0.90779 -20.5711,4.71674 -22.63979,6.4336 -1.83264,1.52096 -1.69201,3.44778 0.71357,9.77698 3.74359,9.84956 4.66201,11.09082 8.2194,11.10858 1.77338,0.009 7.38682,-0.97972 12.47432,-2.19683 z M 779,906.46788 c 0,-0.84266 -0.63843,-3.0601 -1.41874,-4.92763 -1.12966,-2.70366 -1.84598,-3.28379 -3.51558,-2.84717 -2.97866,0.77893 -3.36464,1.87104 -2.05923,5.82647 0.96301,2.91795 1.62097,3.48045 4.0711,3.48045 1.9583,0 2.92245,-0.50547 2.92245,-1.53212 z m 42.24602,-6.59117 c 3.43969,-1.16781 6.60823,-2.44456 7.0412,-2.83722 0.77139,-0.69957 -3.74922,-14.73701 -5.27115,-16.36801 C 822.08196,879.67042 808,883.70941 808,884.97839 808,886.12863 814.20294,902 814.65248,902 c 0.18675,0 3.15385,-0.95548 6.59354,-2.12329 z m -2.66101,-1.62503 c -1.25408,-1.25408 -0.4444,-2.14298 2.98199,-3.27379 3.63161,-1.19854 5.11119,-0.88425 4.03497,0.85711 -0.78958,1.27758 -6.26894,3.16469 -7.01696,2.41668 z m -1,-4 c -1.20519,-1.2052 -0.49477,-2.08749 2.52986,-3.14188 3.14925,-1.09783 5.34812,-0.66796 4.40328,0.86083 -0.72643,1.17538 -6.22856,2.98562 -6.93314,2.28105 z M 816,889.59783 c 0,-0.7712 1.41715,-1.8962 3.14922,-2.5 3.9253,-1.36837 3.85078,-1.37305 3.85078,0.24165 0,0.73672 -1.14617,1.86172 -2.54705,2.5 C 817.10721,891.36391 816,891.30382 816,889.59783 Z m -1,-4 c 0,-1.46663 5.39946,-3.86504 6.41499,-2.84951 1.10542,1.10542 0.58025,1.93282 -1.96204,3.09116 C 816.10721,887.36391 815,887.30382 815,885.59783 Z M 360.5567,1017.7775 c -5.10203,-7.2842 4.88064,-15.1221 10.37072,-8.1426 1.13992,1.4491 2.07258,3.1884 2.07258,3.8651 0,0.6767 -0.93266,2.416 -2.07258,3.8651 -2.71439,3.4508 -8.09273,3.6647 -10.37072,0.4124 z M 368.5,1013.5 c 0,-2.28 -0.501,-3.0716 -2.08751,-3.2983 -2.72043,-0.3886 -4.76183,2.1223 -3.90927,4.8085 0.49823,1.5697 1.34693,2.0276 3.33262,1.7979 2.22504,-0.2573 2.66416,-0.8026 2.66416,-3.3081 z m -64.3811,3.1433 c -0.64305,-0.7749 -4.23398,-1.6402 -8.37244,-2.0176 -4.33477,-0.3953 -7.66504,-1.2189 -8.28819,-2.0496 -0.73273,-0.9768 -1.54844,-1.1051 -2.75,-0.4327 -1.25001,0.6995 -1.70827,0.5833 -1.70827,-0.4332 0,-0.764 1.13266,-1.9052 2.51702,-2.536 2.19504,-1.0001 2.35978,-1.3986 1.28785,-3.115 -1.45393,-2.3281 -0.43723,-3.8289 1.50301,-2.2186 1.01962,0.8462 1.83222,0.7653 3.27416,-0.3257 1.74555,-1.3208 1.76065,-1.4542 0.16796,-1.4831 -2.60074,-0.047 -2.12216,-2.0259 0.5,-2.06724 1.2375,-0.0195 3.31796,-0.6275 4.62324,-1.35114 l 2.37324,-1.3157 -2.37324,-0.75387 c -2.1696,-0.68919 -2.04959,-0.81747 1.39851,-1.49498 2.07446,-0.40761 4.80346,-1.71035 6.06445,-2.89499 3.05498,-2.87 5.16461,-2.70814 11.4138,0.87573 4.39477,2.52037 5.23376,3.45553 5.15032,5.74062 -0.19397,5.31197 -1.40291,7.74517 -3.7222,7.49157 -1.19796,-0.131 -2.17812,0.2065 -2.17812,0.75 0,0.5435 1.6125,0.9882 3.58333,0.9882 2.43589,0 3.44171,0.4003 3.14105,1.25 -0.62424,1.7643 -7.94778,1.1362 -9.37838,-0.8044 -1.53936,-2.088 -2.73857,-0.1459 -1.92109,3.1112 0.80837,3.2208 -2.12442,3.3896 -3.35697,0.1932 -0.77341,-2.0057 -0.94473,-2.0591 -1.57773,-0.4923 -0.41906,1.0373 -0.0408,2.7793 0.92289,4.25 1.32758,2.0262 1.37104,2.4923 0.2324,2.4923 -0.77034,0 -1.9073,-0.6105 -2.5266,-1.3567 z M 301,1012.0191 c 0,-1.7578 -9.82816,-3.2945 -9.9697,-1.5589 -0.0431,0.5282 1.39499,1.1284 3.19569,1.3339 1.80071,0.2055 3.46151,0.5609 3.69068,0.7897 0.81586,0.8149 3.08333,0.3996 3.08333,-0.5647 z m 6.82932,-6.1001 c 2.54992,-2.2445 5.88148,-4.8165 7.40345,-5.7156 1.52198,-0.89903 2.76723,-1.93803 2.76723,-2.30888 0,-0.90001 -8.95667,-5.07865 -10.06432,-4.6954 -1.42135,0.49178 -14.80519,12.23578 -14.87315,13.05088 -0.0344,0.4125 0.94997,0.7566 2.18747,0.7647 1.2375,0.01 3.375,0.639 4.75,1.402 1.375,0.763 2.65595,1.4313 2.84655,1.4853 0.1906,0.054 2.43285,-1.7384 4.98277,-3.983 z M 316.5,1004 c 0.33992,-0.55 0.16803,-1 -0.38197,-1 -0.55,0 -1.27811,0.45 -1.61803,1 -0.33992,0.55 -0.16803,1 0.38197,1 0.55,0 1.27811,-0.45 1.61803,-1 z m 38.84603,-16.54065 c -0.44762,-1.16647 -1.73487,-1.44897 -5.30013,-1.16315 -2.58991,0.20763 -5.17198,0.66369 -5.73793,1.01346 -1.35348,0.8365 -2.30797,-0.1955 -2.30797,-2.49538 0,-1.47653 0.50725,-1.72507 2.5,-1.22492 4.51178,1.13238 7.16667,-0.18885 7.16667,-3.56658 0,-3.26618 -1.6508,-3.95176 -3.66667,-1.52278 -1.78459,2.15029 -4.5317,1.85875 -9.40694,-0.99833 -4.31664,-2.52972 -5.90818,-2.48644 -4.90288,0.13334 0.77804,2.02755 -2.54707,5.36499 -5.34517,5.36499 -3.13387,0 -2.99231,-1.62072 0.2118,-2.4249 2.01866,-0.50665 2.42065,-1.07076 1.90987,-2.68008 -0.88846,-2.79931 1.98091,-5.84316 4.84014,-5.13444 1.20625,0.299 3.38765,1.37518 4.84755,2.39152 3.27441,2.27956 3.91416,2.28764 7.74544,0.0979 3.93336,-2.24808 6.47165,-0.8588 6.92779,3.79177 0.18018,1.83704 1.18655,4.43205 2.23637,5.76669 1.86368,2.36928 1.79656,4.19154 -0.15437,4.19154 -0.5348,0 -1.23841,-0.69329 -1.56357,-1.54065 z m 20.38844,-34.5474 c -5.70912,-1.34505 -11.50124,-4.62636 -13.46985,-7.63083 -2.5569,-3.90234 -2.311,-13.56596 0.48078,-18.89369 2.63499,-5.02852 11.14748,-12.85764 15.81509,-14.54546 1.89173,-0.68406 3.43808,-1.71585 3.43634,-2.29286 -0.005,-1.62474 -6.32528,-25.1829 -13.35382,-49.77429 -3.50154,-12.25115 -7.15261,-25.53924 -8.11349,-29.52908 l -1.74705,-7.25426 -6.56746,7.09347 c -16.75878,18.10103 -40.81165,31.5269 -67.20095,37.51034 -31.45945,7.13304 -72.59777,1.84773 -102.32953,-13.14694 -26.15736,-13.19198 -48.11218,-35.60671 -60.6914,-61.96275 -9.70096,-20.32549 -13.88348,-38.58209 -14.65889,-63.9856 -0.57179,-18.73288 0.12247,-26.219 5.61276,-60.52189 3.12655,-19.53446 4.05816,-33.32786 3.00373,-44.47299 -2.30628,-24.37683 -10.20442,-39.62147 -28.70073,-55.3969 -8.1316,-6.9354 -8.112036,-8.38936 0.163372,-12.14161 18.587188,-8.42784 47.101098,-11.81707 71.586628,-8.50897 20.1104,2.71701 40.40672,10.48213 56.52855,21.62715 18.58066,12.8448 36.34913,36.84544 43.8091,59.17484 6.06123,18.14266 9.08922,38.59422 10.17745,68.74037 1.34998,37.39718 6.70438,55.44143 20.67081,69.66037 4.77347,4.85976 11.54108,9.27527 16.5243,10.78121 l 2.21021,0.66794 -2.39374,-4.30476 c -7.25859,-13.05346 -10.68412,-34.08561 -8.64109,-53.05476 5.70808,-52.99849 33.05402,-106.64418 70.83176,-138.9537 7.74932,-6.62762 21.43232,-16.98377 26.19554,-19.82641 1.31804,-0.78659 0.65467,-1.74736 -3.91289,-5.66714 -19.07911,-16.37326 -38.88097,-38.241 -54.15309,-59.80275 -13.41925,-18.94579 -30.73444,-47.95242 -33.93546,-56.8491 -1.28602,-3.57429 -1.23924,-3.96706 0.65527,-5.50114 1.1221,-0.90862 6.12489,-2.76225 11.11732,-4.11918 l 9.07714,-2.46715 -9.15266,-9.03171 c -5.03396,-4.96745 -10.03868,-10.73059 -11.1216,-12.80698 -1.78901,-3.43027 -1.83269,-4.01494 -0.47793,-6.39801 0.89835,-1.58023 4.86966,-4.40686 9.99101,-7.11122 17.24129,-9.10439 29.80546,-19.45479 53.67244,-44.21551 11.05437,-11.46833 12.15472,-12.95394 13.33207,-18 13.48324,-57.78856 49.35867,-104.9109 107.49549,-141.19522 22.8738,-14.27598 45.94799,-25.48321 54.5,-26.47087 8.28508,-0.95683 14.54979,5.90785 17.03468,18.66609 5.12607,26.31883 1.60463,68.54307 -8.59731,103.08705 -0.37605,1.2733 0.96767,1.83969 6.79696,2.86503 9.72982,1.71142 28.41524,7.39549 38.26567,11.64035 4.4,1.8961 13.49216,6.60321 20.2048,10.46025 l 12.2048,7.01279 8.88631,-4.46297 c 26.00706,-13.06153 57.49549,-19.6115 94.19796,-19.5943 33.65135,0.0158 50.62527,3.48705 54.59579,11.16518 2.81352,5.44075 1.52339,11.84204 -5.00358,24.82662 -20.51913,40.82017 -51.16957,80.6225 -76.91817,99.8851 l -4.8321,3.6149 0.65309,7.5 c 2.12189,24.36766 11.93765,53.20384 24.63643,72.3755 4.06754,6.14087 3.45307,8.66231 -2.8308,11.61608 -2.59873,1.22154 -9.16944,3.21775 -14.6016,4.43602 l -9.87664,2.21504 7.09185,6.56597 c 4.46657,4.13536 7.09186,7.34574 7.09186,8.67241 0,2.64102 -4.37699,5.81165 -18.7086,13.55225 l -10.98535,5.93326 1.39095,4.56674 c 4.28824,14.07902 -6.6803,32.04383 -25.697,42.08779 l -8.5,4.48941 0.0846,3.99476 c 0.0465,2.19712 0.42888,10.06977 0.84965,17.49477 1.59428,28.1328 -4.66483,47.87038 -18.11506,57.12438 -13.67764,9.41047 -33.27844,9.22534 -57.66333,-0.54464 l -10.84412,-4.34477 0.56906,2.63252 c 1.85977,8.60349 6.75541,37.3546 8.02555,47.13251 6.01383,46.29589 4.36108,94.4759 -4.99116,145.5 -1.41134,7.7 -2.79778,15.3502 -3.08099,17.00044 -0.48746,2.84049 -0.19808,3.14588 5.42813,5.72836 11.42723,5.24522 18.34173,16.60304 16.84701,27.67307 -1.72242,12.75643 -12.06884,16.83401 -40.07795,15.79495 -23.35753,-0.86651 -36.26493,-4.6805 -39.72768,-11.73909 -0.93295,-1.90175 -4.63278,-19.88392 -8.22184,-39.96037 -7.00188,-39.16699 -9.42522,-51.0022 -10.44039,-50.98905 -0.35283,0.005 -5.5915,0.67078 -11.6415,1.48047 -6.05,0.8097 -13.52543,1.48096 -16.61207,1.4917 l -5.61207,0.0195 -0.70207,7.75 c -1.20917,13.34784 -11.59145,73.22218 -13.65159,78.7284 -1.08026,2.88726 -2.75439,5.96475 -3.72028,6.83887 -3.38458,3.06299 -12.78224,6.60624 -21.58291,8.1375 -9.59786,1.66996 -31.60938,1.93559 -37.88454,0.45718 z m 39.44826,-9.49483 c 11.41716,-2.55485 14.32115,-4.58093 16.19322,-11.29781 1.42701,-5.12 6.62405,-33.08893 6.62405,-35.64863 0,-0.73648 -3.78767,-0.94482 -11.91128,-0.65518 -6.55121,0.23357 -17.85474,-0.10083 -25.11897,-0.74311 -7.26422,-0.64229 -13.36195,-1.01352 -13.55051,-0.82496 -0.18856,0.18856 0.76294,4.36197 2.11445,9.27425 1.3515,4.91228 2.21854,9.68361 1.92675,10.60295 -0.29178,0.91934 -3.07067,2.7025 -6.17531,3.96258 -13.69991,5.56039 -21.41828,21.12972 -12.33921,24.89039 7.90491,3.27432 28.60594,3.48974 42.23681,0.43952 z m 146.15758,-1.44635 C 574.38649,940.4761 577,938.70958 577,931.38609 c 0,-8.33743 -5.82426,-14.83343 -16.47835,-18.37888 -3.66594,-1.21995 -6.87864,-2.77393 -7.13933,-3.45329 -0.2607,-0.67936 0.39091,-5.46941 1.44802,-10.64456 1.0571,-5.17515 1.80313,-9.54645 1.65785,-9.71401 -0.14529,-0.16756 -5.21791,0.38627 -11.2725,1.23074 -6.05458,0.84447 -17.35498,1.83836 -25.11201,2.20866 C 507.58554,893.23232 506,893.50507 506,895.06088 c 0,2.63615 5.91095,33.95458 7.11662,37.70651 1.60736,5.00197 8.84859,7.69924 24.76014,9.22289 11.37229,1.08898 13.80587,1.08695 23.46355,-0.0195 z M 439.18913,886.14971 C 439.74431,885.62628 445,852.76001 445,849.81164 445,849.36524 443.63555,849 441.96788,849 c -3.45809,0 -9.37828,-2.23699 -10.43189,-3.94177 -0.38949,-0.63021 -0.18859,-1.7719 0.44646,-2.53708 0.93966,-1.13223 4.44656,-1.28758 18.83609,-0.8344 21.02188,0.66206 29.49267,-0.52455 49.25683,-6.9 10.7901,-3.48063 13.19639,-3.96506 13.91556,-2.80143 0.47823,0.7738 0.49474,2.1072 0.0367,2.9631 -0.62,1.15848 -10.72619,6.62646 -17.78388,9.62201 -0.14095,0.0598 1.45345,8.84345 3.5431,19.51917 l 3.79937,19.4104 11.4569,0.32886 c 12.64623,0.36299 41.43544,-2.49561 42.89948,-4.25967 1.07096,-1.29043 5.56993,-31.41347 7.02993,-47.06919 1.47731,-15.84138 1.23344,-59.46742 -0.42763,-76.5 -0.77775,-7.975 -2.3252,-20.575 -3.43877,-28 -1.86643,-12.44485 -3.48003,-20.78519 -12.05151,-62.29149 -3.23782,-15.67872 -3.61535,-19.24392 -2.13467,-20.15902 1.85796,-1.14828 4.9681,4.75306 8.54125,16.20662 5.36611,17.20078 4.30502,15.77731 15.88395,21.30844 13.05245,6.23502 23.65328,9.04806 34.65487,9.19602 18.85942,0.25365 28.3334,-7.61208 32.97342,-27.37604 2.04217,-8.69852 2.81156,-29.50539 1.40541,-38.00711 l -0.59916,-3.62259 -10.13984,0.0196 c -10.26218,0.0199 -22.03359,-2.35824 -28.67625,-5.79329 -1.56754,-0.81061 -3.05557,-1.13799 -3.30672,-0.7275 -0.25115,0.41048 -1.20246,5.47133 -2.11402,11.24633 -2.43938,15.45413 -2.89565,17.19045 -4.8351,18.39972 -2.76849,1.72616 -3.67523,-0.846 -3.69243,-10.47428 L 587,627.35088 l -9.58157,-5.92544 c -5.26986,-3.25899 -12.35736,-8.18608 -15.75,-10.94909 -6.15275,-5.01088 -6.18241,-5.02193 -11.66843,-4.34889 -3.025,0.37111 -9.4375,0.71925 -14.25,0.77364 -9.63644,0.10892 -9.34086,-0.16503 -7.65952,7.0989 2.40185,10.37686 8.09783,42.72456 11.06967,62.86518 2.85499,19.34871 3.19975,24.11802 3.26271,45.13482 0.0943,31.46413 -2.32533,43.99703 -12.25923,63.5 -5.56599,10.92756 -17.18611,23.2056 -26.66363,28.1733 -11.18769,5.86411 -19.56372,7.83438 -33,7.76252 -13.72246,-0.0734 -21.11413,-1.70558 -31.5702,-6.97117 -21.99873,-11.07839 -36.75999,-35.2559 -41.01821,-67.18386 -1.69659,-12.72097 -0.63363,-43.68388 2.01794,-58.78079 5.79266,-32.98083 16.63105,-66.51075 30.58271,-94.61143 l 4.27547,-8.61143 -7.14385,-4.06478 c -3.92912,-2.23563 -10.94827,-6.53963 -15.5981,-9.56445 -6.79029,-4.41723 -8.82009,-5.30387 -10.31309,-4.50484 -3.45844,1.8509 -23.18633,17.19773 -30.59159,23.79798 -9.17093,8.17399 -22.4364,23.73469 -30.31395,35.55895 -11.51915,17.29033 -23.93398,45.14323 -28.84701,64.71877 -1.14312,4.55468 -2.29052,9.00228 -2.54978,9.88357 -0.41429,1.40826 0.95426,1.59435 11.29914,1.53638 13.56672,-0.076 22.6607,2.01467 34.33427,7.89338 4.90052,2.46787 7.08335,3.13588 7.32501,2.24168 0.18934,-0.70058 1.59422,-6.67378 3.12197,-13.27378 4.89925,-21.16512 15.76772,-49.89672 22.78854,-60.24317 2.4703,-3.64043 5.70073,-4.3726 5.70073,-1.29207 0,1.08062 -3.37916,11.31812 -7.50926,22.75 -4.13009,11.43188 -9.26631,27.76024 -11.41382,36.28524 -3.71248,14.73746 -4.60864,20.65948 -7.07218,46.73457 -0.63095,6.67815 -2.13399,14.58678 -3.70599,19.5 -2.1277,6.65002 -2.60367,9.92668 -2.43535,16.76543 0.45169,18.35222 6.00962,46.19308 16.46401,82.47176 l 6.33159,21.97175 3.78251,0.78589 c 11.13524,2.31356 48.55016,2.99208 50.74762,0.92031 z M 274,860.54543 c 31.23669,-4.74397 59.62773,-20.26492 76.95593,-42.07064 l 5.72435,-7.20349 -1.28592,-8.88565 c -0.70726,-4.88711 -1.56128,-11.01235 -1.89782,-13.61165 l -0.61189,-4.726 -5.69232,3.21347 c -4.90583,2.76948 -6.65951,3.21357 -12.69233,3.21416 -3.85,3.7e-4 -9.925,-0.75965 -13.5,-1.68894 -3.575,-0.92928 -9.19143,-2.15949 -12.48096,-2.73379 -9.26729,-1.61794 -16.13517,-5.51355 -24.6343,-13.9731 C 268.27908,756.54681 262.84702,739.19458 261.00733,699 c -1.02626,-22.4224 -1.41255,-27.14872 -3.11507,-38.1134 -1.02393,-6.59442 -1.05208,-6.63772 -9.80398,-15.08308 C 240.7261,638.6992 228.90823,630 226.61919,630 226.27864,630 226,633.16897 226,637.04216 c 0,9.74013 -2.4695,20.90441 -6.84777,30.95784 -3.1301,7.18739 -4.09566,8.54626 -6.25261,8.7996 -2.1317,0.25036 -3.39241,-0.83211 -7.67205,-6.58735 -4.51926,-6.07749 -10.03242,-11.0925 -18.21156,-16.56603 l -2.48399,-1.66231 -1.65438,9.37614 c -2.21241,12.5387 -5.15739,21.51378 -10.19608,31.0734 -4.83066,9.16495 -6.45049,10.56336 -10.02195,8.65197 -4.2386,-2.26843 -12.26784,-10.56422 -16.88227,-17.44273 l -4.42334,-6.59364 -2.75673,7.05794 c -3.89899,9.98242 -8.8806,18.08041 -16.50224,26.82569 L 115.5,718.5 l 0.24574,10.12569 c 0.13515,5.56913 1.14814,15.40422 2.25109,21.85575 9.90819,57.95674 49.71622,98.57431 106.32149,108.48369 6.14993,1.07661 12.75668,2.12787 14.68168,2.33614 8.69987,0.94122 26.33303,0.56043 35,-0.75584 z m 206.78661,-47.58072 c 13.95609,-2.26477 25.90063,-9.00183 34.54896,-19.4866 24.61959,-29.84748 25.72991,-79.32121 4.13141,-184.08873 -0.3821,-1.85343 -1.38149,-2.1933 -8.20105,-2.78903 -19.88902,-1.73744 -44.49907,-7.4155 -59.48115,-13.72356 -11.82565,-4.97908 -10.55504,-5.57524 -16.6733,7.823 -14.21369,31.12627 -25.08921,69.36664 -29.15909,102.52888 -1.80859,14.73674 -0.73942,44.96867 1.97238,55.77133 6.19934,24.69546 22.07264,44.6207 40.65596,51.03407 10.9497,3.77891 21.21973,4.71345 32.20588,2.93064 z M 342.54137,780.12034 c 10.57198,-4.80219 15.82131,-17.95145 17.24434,-43.19611 0.62156,-11.02645 0.50149,-13.25297 -0.77511,-14.37361 -3.11035,-2.73034 -14.4814,-7.75285 -21.77704,-9.61876 -9.52399,-2.43583 -26.32108,-2.70149 -28.5707,-0.45187 -3.32476,3.32477 -3.38655,31.71614 -0.0957,43.96556 1.87955,6.99615 5.30662,14.0626 8.87906,18.30821 5.73388,6.81432 16.73073,9.16599 25.09512,5.36658 z M 127.06289,689.71392 c 2.24174,-4.28234 5.06994,-11.70734 6.28487,-16.5 C 135.98765,662.80016 136.42567,662 139.48644,662 c 2.65167,0 4.38319,2.01257 9.45922,10.99454 1.89511,3.35338 5.89824,8.80725 8.89584,12.1197 6.31703,6.98054 6.51049,6.92567 10.64949,-3.02049 3.06847,-7.37364 6.10365,-20.46415 7.0935,-30.59375 1.0725,-10.97551 2.21004,-11.46948 13.45615,-5.84328 4.83319,2.41795 9.96609,6.19495 15.15174,11.14929 4.31331,4.12091 8.00912,7.31289 8.21292,7.09328 0.2038,-0.21961 1.41455,-4.44929 2.69056,-9.39929 1.77756,-6.89568 2.32984,-11.80576 2.36207,-21 0.0442,-12.60716 0.50102,-14.5 3.49944,-14.5 3.73928,0 19.65144,8.95442 25.80047,14.51898 4.21194,3.81158 6.24216,5.10916 6.24216,3.98956 0,-3.80722 -8.37649,-22.6538 -13.78381,-31.01272 C 217.64439,573.14899 181.87314,554.66209 139,554.7032 c -14.1643,0.0136 -26.1415,1.72484 -38.15697,5.45174 l -6.656977,2.06482 7.698357,7.64012 c 9.45785,9.38631 16.00748,21.31768 19.70623,35.89859 4.66458,18.38831 4.28662,35.51657 -1.62721,73.74153 -1.61673,10.45 -3.14645,20.575 -3.39939,22.5 l -0.45987,3.5 3.44141,-4 c 1.89277,-2.2 5.27556,-7.50374 7.51731,-11.78608 z M 589,616.1133 c 0,-1.03769 1.05747,-5.53769 2.34994,-10 1.29247,-4.46232 1.99614,-8.1133 1.56371,-8.1133 -0.43243,0 -5.42741,1.12442 -11.09994,2.49871 -5.67254,1.37428 -11.32621,2.49928 -12.56371,2.5 -1.2375,7.1e-4 -2.25,0.36975 -2.25,0.82009 0,0.75652 13.92823,10.57513 18.5,13.04145 2.84516,1.53487 3.5,1.39512 3.5,-0.74695 z m 47.69381,-0.72889 c 1.23535,-0.33127 2.32758,-1.52675 2.5,-2.73635 0.22746,-1.59577 2.97207,-3.54429 10.67478,-7.57849 12.01449,-6.29246 19.08497,-12.62383 22.65066,-20.28291 4.67277,-10.03706 2.67724,-18.24659 -5.05562,-20.79866 -5.06868,-1.67282 -10.21197,-0.44395 -18.9259,4.5219 -4.21611,2.40265 -11.34937,5.5757 -15.85169,7.05121 -11.14379,3.65206 -17.46712,6.88393 -22.02368,11.25634 -4.29938,4.12563 -9.14675,12.91721 -10.19091,18.48305 -0.67969,3.62308 -0.62192,3.70608 3.94123,5.66207 9.06648,3.88635 25.75385,6.17217 32.28113,4.42184 z M 558.5,596.48164 c 5.5,-0.82204 16.72482,-3.13027 24.94405,-5.12941 14.93705,-3.6331 14.94617,-3.63706 19.5,-8.48268 5.76617,-6.13564 14.05326,-11.04467 24.42855,-14.47077 4.47007,-1.47609 12.74698,-5.09467 18.39314,-8.04129 C 655.1215,555.4749 656.61066,555 662.5654,555 c 3.95799,0 7.72077,0.61375 9.5444,1.55678 2.95955,1.53044 3.20825,1.45258 14.70034,-4.60249 6.42942,-3.38759 12.12302,-6.5688 12.65244,-7.06936 0.60168,-0.56887 -0.39927,-2.03264 -2.66966,-3.9041 C 692.08573,537.10078 686,528.78809 686,526.23847 c 0,-3.04904 1.95046,-4.06456 10.0551,-5.23524 8.29916,-1.19878 20.9449,-3.9947 20.9449,-4.63082 0,-0.22669 -1.17134,-2.26768 -2.60298,-4.53555 -5.18978,-8.22114 -11.55777,-22.61089 -15.63786,-35.33686 -4.74025,-14.78505 -7.2327,-19.40735 -17.16798,-31.83834 -7.8992,-9.88345 -13.13277,-14.14028 -23.21856,-18.88532 -6.11847,-2.87854 -8.03885,-3.27482 -17.50055,-3.61129 -12.28836,-0.43699 -18.41493,0.94242 -29.14995,6.56316 -8.08347,4.23242 -19.15737,14.20771 -25.15548,22.65987 -4.96966,7.00293 -13.52112,23.74221 -15.89389,31.11192 -0.8854,2.75 -2.68035,9.18073 -3.98878,14.2905 l -2.37895,9.2905 2.7242,1.93981 c 1.49832,1.06689 3.50652,3.5884 4.46268,5.60336 1.44907,3.0537 1.54951,4.29425 0.60335,7.45226 -1.94362,6.48721 -11.70943,13.78401 -22.03198,16.46182 -4.17918,1.08413 -4.54324,1.4643 -6.27163,6.54914 -1.35356,3.9821 -1.52057,5.50297 -0.63665,5.79761 0.65904,0.21968 3.2117,2.24792 5.67258,4.50721 4.96005,4.55372 8.117,10.46086 8.15047,15.2508 0.0372,5.32761 -5.32611,5.60172 -6.48367,0.33136 -0.34531,-1.5722 -1.94178,-4.67238 -3.5477,-6.8893 -8.05176,-11.11513 -26.8887,-12.12205 -46.76678,-2.49991 -5.81921,2.81683 -7.61329,3.30004 -8.75,2.35665 -3.71179,-3.08051 -1.01227,-6.45766 8.61577,-10.77847 9.28762,-4.16804 16.21437,-5.61924 26.51502,-5.55505 l 9.06068,0.0565 1.46325,-5.08238 1.46324,-5.08238 -5.22256,-4.8034 c -9.90903,-9.11372 -14.30494,-22.80786 -9.01847,-28.09433 1.26875,-1.26875 2.89415,-2.50259 3.61201,-2.74188 3.02633,-1.00878 3.92681,-28.29791 1.53635,-46.55917 -3.70711,-28.31932 -11.69047,-46.04539 -27.20789,-60.41179 -11.30468,-10.46614 -21.52356,-16.00645 -36.94674,-20.03121 -7.42059,-1.93644 -11.3094,-2.29482 -24.80055,-2.28555 -20.76801,0.0143 -30.98251,1.99051 -67.5,13.05947 C 361.08087,388.24499 341.67619,392 334.92525,392 c -2.74589,0 -6.65309,1.48383 -13.40063,5.08913 -5.23854,2.79903 -9.52462,5.53797 -9.52462,6.08656 0,1.85767 11.85621,13.30073 17.94981,17.32431 6.97563,4.60599 8.58053,7.84238 5.23313,10.55295 -1.16521,0.94353 -6.74555,3.1848 -12.40075,4.9806 -5.65521,1.79579 -10.42454,3.37774 -10.59853,3.51543 -0.44593,0.35293 9.02643,17.23359 15.68435,27.95102 16.70605,26.89217 31.56577,46.03893 50.08267,64.53157 39.65291,39.60098 83.6597,61.51313 132.54932,65.99983 11.83192,1.08584 35.47283,0.32255 48,-1.54976 z m 56.42935,-58.84901 c -10.59679,-2.8572 -19.92297,-11.12054 -25.14472,-22.27917 -6.19032,-13.2284 -4.56685,-31.30981 3.96535,-44.16411 4.43293,-6.67849 12.73098,-13.09252 17.90339,-13.83852 l 3.84663,-0.55479 -6.244,4.17636 c -5.88386,3.93548 -13.256,11.55899 -13.256,13.708 0,0.53593 14.2875,7.2647 31.75,14.95282 l 31.75,13.9784 0.75329,-4.88581 c 0.91696,-5.9474 -1.09655,-15.50958 -4.8082,-22.83418 -1.41876,-2.79977 -2.3803,-5.28976 -2.13675,-5.5333 0.94457,-0.94458 5.64673,5.88824 7.82869,11.37607 3.27356,8.23327 3.27597,23.2922 0.005,31.51769 -7.52294,18.91823 -27.46045,29.4367 -46.21274,24.38054 z m 23.28788,-6.39231 c 8.02307,-3.56976 20.85767,-17.51561 19.59795,-21.29478 -0.31437,-0.9431 -15.9659,-8.34989 -16.26157,-7.69547 -0.0621,0.13746 -0.83227,1.83777 -1.71148,3.77847 -7.28987,16.09111 -27.21975,18.87831 -37.50088,5.24451 -4.61915,-6.12546 -6.05431,-13.48756 -4.14933,-21.2853 l 1.49038,-6.10068 -2.79149,-1.44353 C 595.35549,481.64959 593.86941,481 593.5884,481 592.46989,481 590,491.66864 590,496.5 c 0,5.5435 2.14363,13.89075 5.00773,19.5 3.51134,6.87683 12.75165,14.41425 20.99227,17.1236 4.43721,1.45887 17.12242,0.38359 22.21723,-1.88328 z m -21.56254,-36.3687 C 617.39461,494.25754 618,493.33199 618,492.81484 618,492.02167 606.09064,486 604.52196,486 604.23488,486 604,487.37045 604,489.04545 c 0,4.51158 4.19149,8.36625 8.22098,7.56035 1.69862,-0.33972 3.69379,-1.1201 4.43371,-1.73418 z M 445.74592,493.91433 C 436.26807,491.68057 424.46066,483.43038 419.04916,475.2605 414.7924,468.83396 412,459.21717 412,450.98376 c 0,-25.27127 21.70121,-46.06859 45.31136,-43.42406 3.19625,0.358 5.67125,0.7841 5.5,0.94687 -0.17125,0.16277 -4.26925,0.77657 -9.10668,1.36398 -14.99795,1.82122 -27.05024,9.82354 -32.61037,21.6522 -2.31664,4.92844 -2.66006,7.47725 -1.00747,7.47725 0.59776,0 6.56026,0.66345 13.25,1.47433 6.68974,0.81088 19.58816,2.18115 28.66316,3.04505 9.075,0.86389 20.8875,2.14527 26.25,2.84749 l 9.75,1.27678 v -3.78431 c 0,-4.74509 -2.95775,-12.74617 -7.50085,-20.29074 -3.82555,-6.35295 -4.25165,-7.79459 -2.05465,-6.95152 2.78262,1.06779 9.4045,10.94049 11.47035,17.10137 2.57756,7.68696 2.79762,20.4971 0.48701,28.35005 -4.51282,15.33748 -17.00881,27.24987 -32.93682,31.39859 -6.3793,1.6616 -15.74803,1.85452 -21.71912,0.44724 z m 19.56078,-5.406 c 3.1498,-0.82042 7.85776,-2.57145 10.46214,-3.89119 5.00622,-2.53684 13.3804,-10.75945 16.92347,-16.61714 2.42122,-4.00297 5.4382,-13.53616 4.5613,-14.41305 -0.9801,-0.98011 -7.25361,-0.65531 -7.25361,0.37554 0,2.97987 -4.74076,12.85169 -7.79565,16.23308 -11.53836,12.77159 -30.51318,10.52446 -38.87196,-4.60347 -2.31085,-4.18225 -2.80551,-6.27476 -2.7684,-11.71105 l 0.0452,-6.61894 -10.05458,-1.18234 c -5.53003,-0.65029 -10.9011,-1.43332 -11.93571,-1.74006 -1.7594,-0.52163 -1.8526,-0.0168 -1.44029,7.80129 0.94063,17.83624 12.22628,31.51675 29.92604,36.27648 7.03411,1.89158 11.20862,1.91242 18.20207,0.0908 z m 17.10455,-32.74027 c 1.60119,-1.73831 2.50119,-3.29234 2,-3.4534 -0.50119,-0.16107 -4.44391,-0.66688 -8.7616,-1.12403 -8.80739,-0.93251 -10.14447,-0.12096 -7.2013,4.37088 3.45493,5.2729 9.21766,5.35815 13.9629,0.20655 z m 70.85272,72.23437 c 6.65723,-2.49079 12.22534,-7.88539 11.26432,-10.91331 -2.09808,-6.61045 -32.05442,-13.09354 -34.2357,-7.40922 -1.78159,4.64275 9.95902,20.3201 15.21752,20.3201 1.32817,0 4.81741,-0.89891 7.75386,-1.99757 z M 559.00071,500.25 c 9.6e-4,-3.68305 4.30371,-19.18708 7.56255,-27.25 11.91306,-29.47491 29.85306,-48.15308 53.93674,-56.15604 9.88547,-3.28493 26.13918,-3.26799 35.5,0.037 11.82993,4.17675 20.46589,10.5507 31.32359,23.11904 l 4.75141,5.5 -0.65098,-5 c -1.42384,-10.93606 -8.38485,-42.3917 -10.79176,-48.76617 -4.23077,-11.20481 -11.173,-23.70059 -18.60508,-33.48852 C 658.16223,353.15523 655,348.35039 655,347.56789 c 0,-2.15454 4.54256,-5.29566 14.5,-10.02655 20.64124,-9.80688 44.47396,-15.68279 64.5943,-15.92557 14.7703,-0.17823 15.3878,1.15892 7.90712,17.12227 -8.31702,17.74806 -19.50349,32.86188 -37.71655,50.9581 l -12.27489,12.19613 2.10865,9.30387 c 1.15976,5.11712 2.43419,9.65804 2.83207,10.09092 0.88783,0.96593 15.21602,-11.47888 24.0493,-20.88811 14.22074,-15.14796 26.24929,-31.48858 39.93078,-54.24541 13.65995,-22.72099 18.88133,-34.01944 17.59478,-38.07301 -1.37149,-4.32119 -13.93085,-6.80496 -39.02556,-7.71779 -36.2584,-1.31891 -71.57352,5.14578 -96.65132,17.69273 -4.59177,2.29736 -8.51303,4.32655 -8.71389,4.50932 -0.20087,0.18277 1.03663,2.03299 2.75,4.1116 3.49818,4.24391 4.05285,7.32361 1.319,7.32361 -0.98791,0 -5.37541,-2.74548 -9.75,-6.10107 -21.05526,-16.15074 -47.45611,-28.05752 -71.9025,-32.42803 -7.64137,-1.36612 -10.04311,-1.49545 -10.35571,-0.55763 -1.00262,3.00786 -4.9304,6.40247 -6.64622,5.74405 -2.22414,-0.85349 -1.83943,-3.60046 2.40284,-17.15732 8.9413,-28.57338 13.15544,-67.97998 10.00169,-93.52623 -2.00552,-16.24533 -4.33313,-20.65707 -10.26904,-19.46385 -4.65364,0.93546 -30.17674,13.46121 -43.05654,21.13049 -44.79522,26.67331 -75.41296,58.01076 -94.6351,96.85959 -8.04363,16.25656 -17.68251,44.54015 -16.35657,47.99549 0.38651,1.00723 -7.0585,9.13131 -22.90045,24.98925 -28.14301,28.1714 -30.6218,27.00188 23.76381,11.21212 25.40053,-7.37453 36.69394,-9.07306 55.9502,-8.41489 18.58274,0.63515 28.25289,2.87218 42.0498,9.72753 22.31952,11.09004 36.58367,28.00317 44.51035,52.77632 5.73116,17.91151 7.32299,30.55972 6.79165,53.96418 l -0.43702,19.25 4.56751,0.096 c 2.51213,0.0528 6.81751,0.67434 9.56751,1.3812 7.25418,1.86463 7.49992,1.82443 7.50071,-1.2272 z M 426.28538,321.30131 c -0.89736,-2.33849 3.80057,-15.60798 10.19682,-28.80131 15.88348,-32.7623 43.74038,-62.56614 76.21806,-81.54501 11.33004,-6.62089 12.92191,-5.54428 14.36565,9.71574 1.54282,16.30733 -2.49754,48.58289 -8.69368,69.44756 -1.77893,5.9903 -2.53897,6.36936 -15.87223,7.91593 -19.9992,2.31979 -43.70409,10.01537 -63.2405,20.53048 -8.85661,4.76691 -11.94504,5.41835 -12.97412,2.73661 z m 34.9866,-20.69864 c 11.93854,-4.4615 27.06812,-8.11696 39.69818,-9.59148 5.20859,-0.60809 9.8077,-1.64687 10.22025,-2.3084 1.20933,-1.93922 4.57936,-17.21157 6.77493,-30.70279 1.41105,-8.67047 2.03433,-17.17826 2.03446,-27.77032 l 2e-4,-15.27033 -3.89428,1.98672 c -7.40812,3.77934 -27.99329,19.9705 -37.81456,29.74285 -16.45775,16.37578 -31.43133,38.196 -39.25111,57.19862 -1.67203,4.06314 -3.04005,7.52606 -3.04005,7.69537 0,0.1693 3.4875,-1.41032 7.75,-3.51028 4.2625,-2.09996 12.14739,-5.46144 17.52198,-7.46996 z M 699.95927,384.25 c 14.68588,-14.88372 27.31212,-31.87857 34.90787,-46.98575 2.27307,-4.52092 4.13286,-8.43792 4.13286,-8.70445 0,-0.26653 -2.8125,-0.26047 -6.25,0.0135 -23.70382,1.88895 -40.12297,6.09483 -60.52366,15.50359 l -8.27367,3.8158 4.97594,6.81986 c 7.44805,10.20806 14.52498,22.54987 17.70238,30.87206 1.55716,4.07849 3.25046,7.41543 3.76289,7.41543 0.51244,0 4.81686,-3.9375 9.56539,-8.75 z m -64.09355,486.76956 -2.98044,-2.98044 0.30736,-20.49402 c 0.29678,-19.78854 0.38573,-20.57235 2.58414,-22.76956 l 2.27678,-2.27554 37.95647,-0.28434 c 42.88483,-0.32126 43.03974,-0.29873 44.93783,6.53594 0.57254,2.06162 1.0435,4.7609 1.04656,5.9984 0.004,1.79629 0.5702,2.25 2.80558,2.25 4.51085,0 5.2,1.54592 5.2,11.66482 0,8.13639 -0.23559,9.39089 -1.93426,10.3 -1.06384,0.56935 -2.86384,1.03518 -4,1.03518 -1.63608,0 -2.06574,0.63432 -2.06574,3.04966 0,3.77037 -2.38179,8.54912 -4.94461,9.9207 C 715.83232,873.62493 701.23702,874 676.98882,874 h -38.14267 z m 79.30554,-2.67455 C 716.81887,866.85395 717,864.83558 717,847.96746 c 0,-16.19556 -0.2232,-18.90781 -1.65367,-20.09502 -1.33052,-1.10425 -8.68068,-1.38567 -37.61432,-1.44016 -32.398,-0.061 -36.16836,0.10047 -38.05709,1.62987 -1.99053,1.61183 -2.0984,2.64208 -2.13567,20.39695 -0.0365,17.38081 0.0976,18.79956 1.90188,20.12014 1.59222,1.16539 8.40831,1.42076 37.92126,1.42076 32.07656,0 36.17853,-0.17955 37.80887,-1.65499 z m -69.41882,-3.06103 c -3.63636,-0.55104 -3.8837,-1.89859 -3.53951,-19.28398 l 0.28707,-14.5 7.41189,-0.29708 c 5.25379,-0.21058 7.65146,0.0806 8.23468,1 0.45254,0.7134 0.8297,8.14375 0.83812,16.5119 0.0141,14.02763 -0.13562,15.29559 -1.91895,16.25 -1.90677,1.02047 -5.9353,1.13412 -11.3133,0.31916 z M 654.77988,848.25 654.5,835.5 650.25,835.1925 646,834.885 V 847.9425 861 h 4.52988 4.52987 z m 71.01581,0.0103 c -0.24056,-5.483 -0.62199,-6.80188 -2.04569,-7.07333 -1.53318,-0.29232 -1.75,0.54272 -1.75,6.73967 0,6.45931 0.17758,7.07332 2.04569,7.07332 1.88782,0 2.02287,-0.52013 1.75,-6.73966 z"
       id="path1" />
  </g>
</svg>
