<?xml version="1.0" encoding="UTF-8" standalone="no"?>
<!-- Created with Inkscape (http://www.inkscape.org/) -->

<svg
   version="1.1"
   id="svg1"
   width="1024"
   height="1024"
   viewBox="0 0 1024 1024"
   xmlns="http://www.w3.org/2000/svg"
   xmlns:svg="http://www.w3.org/2000/svg">
  <defs
     id="defs1" />
  <g
     id="g1">
    <path
       style="fill:#ffffff;fill-opacity:1"
       d="m 440.81627,849.36998 c -37.23639,-17.95178 -56.45673,-64.3829 -43.31568,-104.63888 10.92849,-33.47804 43.12534,-58.91152 74.67082,-58.98522 5.66941,-0.0132 6.63069,0.289 9.25,2.9083 4.07941,4.07941 4.14602,10.67666 0.15291,15.14572 -2.4373,2.72782 -3.66892,3.20134 -10.25,3.94088 -22.27292,2.50289 -39.77674,15.406 -49.50124,36.49032 -4.63307,10.04526 -5.9729,16.55033 -5.87007,28.5 0.0751,8.72974 0.568,11.91641 2.92338,18.9012 5.42729,16.0944 16.59711,29.37032 31.64007,37.60591 9.12009,4.99299 11.81631,9.25093 9.90258,15.63839 -1.30614,4.3595 -5.79067,7.84439 -10.10277,7.85076 -1.39051,0.002 -5.66551,-1.50876 -9.5,-3.35738 z m 162.52822,1.321 c -12.57309,-1.2138 -16.3412,-2.38822 -19.42631,-6.05466 -3.08707,-3.66878 -3.18148,-6.17342 -0.62263,-16.51784 6.42974,-25.99294 8.57244,-58.87559 5.53081,-84.87772 -3.99702,-34.16951 -14.20799,-59.41807 -33.65669,-83.2226 -10.34695,-12.66431 -28.2452,-27.80795 -56.82518,-48.07956 -29.43146,-20.87555 -40.174,-29.28327 -49.93559,-39.0824 -22.10654,-22.19155 -32.32879,-42.41163 -34.56697,-68.3751 -0.36744,-4.2625 -0.84877,-7.75 -1.06961,-7.75 -0.22083,0 -3.62338,1.9125 -7.56122,4.25 -9.54073,5.66339 -24.1496,20.11203 -31.22304,30.88059 -19.39378,29.525 -28.64357,63.81238 -28.64357,106.17676 0,26.26816 2.07251,42.26872 10.00955,77.27744 8.81859,38.89704 11.57833,61.50672 10.66989,87.41521 -0.62799,17.9104 -3.12883,37.94825 -5.2562,42.11516 -0.73433,1.43833 -2.9947,3.40267 -5.02306,4.36518 -3.08249,1.46274 -4.31214,1.56301 -7.4904,0.61078 -4.67212,-1.3998 -7.90978,-5.30878 -7.90978,-9.54984 0,-1.75395 0.74013,-7.88077 1.64473,-13.61514 1.1277,-7.14858 1.65001,-16.8705 1.66151,-30.92614 0.0197,-24.05559 -1.39861,-34.90109 -9.26613,-70.85727 -9.39914,-42.95602 -11.46276,-59.07822 -11.34616,-88.64273 0.14947,-37.90057 6.95043,-68.807 21.56487,-98 12.82489,-25.6183 30.28168,-45.0802 51.80902,-57.75988 18.92917,-11.14935 37.85561,-17.1529 81.1901,-25.75386 16.36688,-3.24846 33.01688,-6.84667 37,-7.996 9.39844,-2.71192 27.88843,-9.17721 27.46287,-9.60278 -0.18153,-0.18153 -4.58048,0.19671 -9.77544,0.84053 -10.30436,1.27704 -54.32342,1.54862 -123.44537,0.76159 -52.57399,-0.59861 -63.47407,0.5011 -90.02374,9.08252 -60.91202,19.68806 -101.38135,72.49687 -109.53088,142.92788 -1.62453,14.03979 -0.64778,43.10966 1.91521,57 2.75439,14.92764 4.58436,21.43381 9.03942,32.13824 19.12072,45.94241 51.98546,99.39516 86.79576,141.16869 4.6717,5.60619 9.1703,11.74644 9.9969,13.645 4.11256,9.44587 -6.73195,18.81417 -15.53838,13.42322 -6.24945,-3.82567 -31.41662,-36.20481 -51.20243,-65.87515 -27.56862,-41.34124 -50.46872,-87.38918 -64.15299,-129 -17.17059,-52.21193 -23.60211,-92.94261 -22.50127,-142.5 0.70958,-31.9434 4.33473,-56.5736 12.24796,-83.21571 7.53305,-25.36215 20.74007,-53.91698 34.6987,-75.02187 8.38189,-12.6731 8.43302,-12.7896 10.09853,-23.0113 6.49986,-39.8916 17.46328,-94.45118 26.3665,-131.21323 4.80887,-19.85617 5.93818,-23.3392 8.34897,-25.75 2.19686,-2.19686 3.71102,-2.78789 7.14231,-2.78789 2.39493,0 5.30658,0.66693 6.47034,1.48205 2.18619,1.53127 29.93814,39.79402 51.14663,70.51795 6.64406,9.625 12.70003,18.36635 13.45772,19.42522 1.27936,1.78789 1.8769,1.84275 8.37776,0.76916 3.85008,-0.63583 10.96246,-1.46062 15.80529,-1.83287 l 8.80515,-0.67681 3.11827,-4.51124 c 14.83918,-21.468 30.13198,-39.51632 54.97803,-64.8842 20.51821,-20.94914 22.80367,-22.50129 29.19795,-19.82959 6.90048,2.8832 6.87162,2.71182 7.57708,44.99385 0.34914,20.92556 0.71176,46.14648 0.80582,56.04648 l 0.17101,18 5.32029,4.19688 c 6.91705,5.45647 16.54908,17.48779 20.61914,25.75527 1.77293,3.60132 3.44469,6.54785 3.71502,6.54785 0.27034,0 2.29098,-1.6257 4.49032,-3.61267 5.59786,-5.05733 12.00037,-7.63121 20.32299,-8.17008 17.02466,-1.10229 30.57409,8.50883 36.4646,25.86568 2.75687,8.12335 2.34829,19.98118 -0.94502,27.42626 -1.59458,3.6048 -1.83676,5.03483 -0.94593,5.58539 1.12374,0.69451 21.72455,4.79572 42.6056,8.48192 17.14111,3.02598 20.9412,8.53245 16.26469,23.56817 -2.60295,8.36886 -8.24052,16.72649 -17.2131,25.51819 -12.78935,12.53153 -25.62471,20.71779 -44.81022,28.57951 -16.60208,6.80309 -29.27126,10.19607 -62.5,16.73837 -24.16039,4.75686 -45.32347,9.66523 -47.5,11.01673 -1.20931,0.7509 -1.49412,3.40922 -1.46965,13.71697 0.0289,12.18854 0.19377,13.20744 3.52999,21.82013 4.80531,12.40528 11.51467,22.08538 23.91578,34.5051 10.94888,10.9653 17.79893,16.3609 46.93217,36.96719 23.43066,16.57279 40.85697,30.52609 50.99099,40.82866 27.58274,28.04149 44.26399,64.39948 49.16766,107.16448 1.1488,10.01872 0.73246,50.3235 -0.62495,60.5 l -0.53355,4 3.11609,-3.5 c 4.95801,-5.56884 14.62289,-20.42306 18.4025,-28.28328 9.3425,-19.42904 12.90727,-36.94502 12.96731,-63.71672 0.0434,-19.32346 -0.30379,-23.74335 -4.90864,-62.5 -4.10248,-34.52844 -4.74934,-43.41976 -4.72885,-65 0.0208,-21.90518 1.51838,-36.91722 5.3371,-53.5 21.67561,-94.12629 106.7008,-143.95586 215.62356,-126.3676 12.26863,1.98108 15.7402,3.82558 17.35704,9.2221 1.01858,3.39971 0.92166,4.48454 -0.69553,7.78514 -1.6356,3.33816 -3.31411,4.54915 -12.95652,9.34767 -12.64167,6.2911 -18.5272,10.42486 -26.61485,18.69318 -12.21847,12.49142 -17.74467,26.29489 -18.55216,46.33999 -0.63376,15.73222 0.28962,22.7453 8.22635,62.47952 10.31499,51.64071 11.0203,57.37653 11.00543,89.5 -0.0103,22.20742 -0.36263,29.42458 -1.83077,37.5 -4.51329,24.82505 -10.02158,41.5199 -20.29128,61.5 -8.97402,17.45931 -17.76552,29.37499 -32.86522,44.54429 -32.68712,32.83779 -71.37085,51.85707 -119.88351,58.94203 -13.28328,1.93993 -42.70957,2.71958 -55.61649,1.47356 z m 50.95001,-23.58884 c 12.97752,-1.69514 34.79577,-7.03167 44.81953,-10.9624 20.50167,-8.03957 41.24551,-20.54673 56.73046,-34.2047 27.47004,-24.22902 46.59134,-59.27203 53.67454,-98.36769 2.95452,-16.3074 3.19358,-50.11848 0.5044,-71.33625 -1.41955,-11.20033 -9.25064,-53.57755 -9.99646,-54.09496 -0.10037,-0.0696 -4.74479,1.60073 -10.32095,3.71192 -31.78555,12.03431 -64.33167,7.80303 -94.01678,-12.22299 -7.0009,-4.72291 -22.93562,-19.53354 -27.21659,-25.29663 -1.1859,-1.59646 -2.41167,-2.64716 -2.72395,-2.33488 -1.40565,1.40565 -5.42758,19.84083 -6.96686,31.93379 -2.37286,18.64173 -1.55412,52.40287 1.99594,82.30375 1.43661,12.1 3.34865,28.3 4.24899,36 2.38629,20.40828 2.35694,57.78675 -0.0557,71 -5.25537,28.78147 -19.42477,57.90575 -38.0068,78.12051 -3.59996,3.91629 -6.23862,7.42728 -5.86368,7.80222 0.91597,0.91597 19.06013,-0.2055 33.19395,-2.05169 z M 197.98707,539.7311 c 4.32445,-12.19166 13.79164,-31.36593 20.63082,-41.78439 27.29335,-41.57732 67.2018,-67.86719 117.94241,-77.69509 21.679,-4.19899 36.13322,-4.89932 80.78419,-3.91412 65.00095,1.4342 101.15468,1.13083 116.97515,-0.98155 12.34634,-1.64851 30.32123,-5.58789 31.6753,-6.94197 0.8089,-0.8089 -2.792,-9.81879 -4.07369,-10.19286 -0.59222,-0.17284 -6.64883,-1.51066 -13.45914,-2.97292 -19.3142,-4.14701 -28.71227,-7.15056 -40.82304,-13.04673 -13.26493,-6.45808 -22.42292,-14.30352 -26.92197,-23.06343 l -2.87261,-5.59316 -5.5,0.487 c -9.29741,0.82325 -10.66314,1.9163 -11.96087,9.57277 -6.56142,38.71158 -56.72073,48.98887 -78.04798,15.99148 -3.33157,-5.1546 -4.72316,-8.84499 -6.45378,-17.11503 l -0.57548,-2.75 -41.33306,0 c -41.22058,0 -41.34204,0.006 -44.62934,2.25 -5.24024,3.57693 -7.12224,8.09562 -6.3818,15.32271 0.59384,5.79621 0.49037,6.19713 -2.13164,8.2596 -3.13558,2.46645 -4.37698,2.63015 -7.87141,1.03797 -5.37651,-2.4497 -6.70152,-14.24283 -2.65127,-23.59733 2.64133,-6.10045 9.15683,-12.5137 15.86096,-15.61206 4.52818,-2.09273 6.03399,-2.17002 47.73907,-2.45042 l 43.06341,-0.28954 1.2379,-3.42334 c 2.60923,-7.2157 9.00544,-15.19768 15.90681,-19.8505 8.88633,-5.99104 16.14873,-8.00705 26.82556,-7.44666 7.024,0.36867 9.41273,0.9945 15.74941,4.12626 8.26852,4.08652 15.46868,11.05481 19.67419,19.04062 2.19863,4.17496 2.76234,4.63121 4.97932,4.03009 1.375,-0.37283 4.41681,-0.99408 6.75958,-1.38055 2.34277,-0.38648 4.49005,-0.93315 4.77172,-1.21482 0.96654,-0.96654 -6.67908,-14.4909 -11.56413,-20.45584 -19.11065,-23.33523 -67.18277,-39.65674 -104.35503,-35.43077 -34.47018,3.91879 -62.27108,16.0282 -90.19728,39.28778 -41.41963,34.4982 -71.53076,95.31819 -79.60825,160.7968 -2.55833,20.73861 -1.38526,74.10444 1.8774,85.40715 0.3307,1.14564 1.69804,-2.64764 3.4244,-9.5 1.58064,-6.27393 4.07102,-14.78215 5.53417,-18.90715 z m 569.47643,5.51974 c 8.48075,-1.49789 15.73929,-3.89682 23.25579,-7.686 2.26886,-1.14377 4.26597,-2.20254 4.43803,-2.35282 0.17206,-0.15029 -0.17417,-2.95888 -0.76939,-6.24132 -3.21345,-17.72114 -2.96342,-43.02081 0.55992,-56.65518 4.00756,-15.50817 13.70013,-31.91172 25.34956,-42.9012 6.93507,-6.54219 7.0034,-6.65607 4.38771,-7.31257 -4.39651,-1.10346 -30.31856,0.48945 -42.98357,2.64133 -45.99231,7.81444 -81.995,31.31135 -102.64116,66.98802 l -2.60415,4.5 5.3741,8.03993 c 13.79012,20.63073 37.38144,36.92774 59.14779,40.85962 10.39771,1.87824 16.37793,1.90538 26.48537,0.12019 z M 429.07332,383.16786 c 1.77586,-0.72436 5.47407,-3.41717 8.21823,-5.98401 8.55101,-7.99847 11.22288,-19.58207 7.07324,-30.66523 -2.63134,-7.02797 -6.66293,-11.71989 -13.16475,-15.32098 -4.60333,-2.5496 -6.40898,-2.9659 -12.85555,-2.96386 -9.11589,0.003 -15.2684,2.72322 -21.0728,9.31737 -5.15082,5.85163 -7.30731,12.62944 -6.70184,21.06372 0.94229,13.12615 9.83997,23.62675 22.10104,26.08255 4.88837,0.9791 11.84182,0.33068 16.40243,-1.52956 z m 108.93143,-19.21655 c 2.76639,-5.48064 3.77768,-12.8801 2.43951,-17.84966 -4.03362,-14.97973 -18.12671,-22.1573 -30.78873,-15.68061 -4.45349,2.27798 -10.31104,10.33965 -10.31104,14.19094 0,3.73912 4.19288,9.46773 9.70575,13.26069 5.13506,3.53301 22.89441,10.97127 25.29425,10.59415 0.825,-0.12964 2.47211,-2.16162 3.66026,-4.51551 z M 253.79291,303.31182 c 13.0898,-11.10442 33.68949,-23.52932 50.78459,-30.6312 l 7.73301,-3.21255 -8.65412,-12.61848 c -19.70198,-28.72724 -35.13804,-49.62569 -36.01033,-48.7534 -0.84121,0.84122 -7.44703,30.65399 -11.86776,53.56054 -2.50229,12.9659 -5.58651,28.86187 -6.85382,35.32437 -1.26731,6.4625 -2.1277,11.75 -1.91198,11.75 0.21571,0 3.2669,-2.43867 6.78041,-5.41928 z M 439.90628,241.9811 c -0.40194,-18.5625 -0.92995,-33.94967 -1.17336,-34.19372 -1.63458,-1.63891 -45.38843,49.76156 -45.38843,53.32071 0,0.34266 0.84577,0.62301 1.87948,0.62301 4.13128,0 26.69501,6.33448 35.38386,9.93356 5.08016,2.1043 9.41499,3.8801 9.63296,3.94622 0.21796,0.0661 0.0674,-15.06728 -0.33451,-33.62978 z"
       id="path1" />
  </g>
</svg>
