<?xml version="1.0" encoding="UTF-8" standalone="no"?>
<!-- Created with Inkscape (http://www.inkscape.org/) -->

<svg
   version="1.1"
   id="svg1"
   width="896"
   height="1200"
   viewBox="0 0 896 1200"
   xmlns="http://www.w3.org/2000/svg"
   xmlns:svg="http://www.w3.org/2000/svg">
  <defs
     id="defs1" />
  <g
     id="g1">
    <path
       style="fill:#ffffff;fill-opacity:1"
       d="m 377,983.07088 c -9.86932,-1.44471 -14.31511,-3.12524 -17.66539,-6.67757 -7.91072,-8.38781 -3.98683,-25.30093 7.6577,-33.00692 2.20423,-1.45869 4.00769,-3.07331 4.00769,-3.58806 0,-3.12064 -6.2945,-24.7519 -13.4724,-46.29833 -4.58062,-13.75 -10.00369,-31.075 -12.05125,-38.5 -2.04756,-7.425 -3.83619,-13.6313 -3.97472,-13.79179 -0.13853,-0.16048 -3.07022,1.36 -6.51487,3.37885 -16.91431,9.91321 -42.88243,19.74596 -62.31628,23.59588 -16.38865,3.24665 -36.7086,3.0559 -53.77203,-0.50479 -26.52842,-5.53577 -47.71474,-15.21742 -68.53895,-31.32069 -29.17217,-22.5587 -53.88399,-68.59562 -61.038863,-113.71242 -2.424646,-15.2892 -2.396262,-47.51909 0.06089,-69.14504 2.135753,-18.79721 2.459673,-48.37602 0.657066,-60 -2.526723,-16.2934 -8.167655,-30.27986 -16.825764,-41.71881 -5.877218,-7.76488 -6.46031,-9.14393 -5.114831,-12.09694 1.587999,-3.48527 3.922935,-4.4788 13.558971,-5.76938 19.100917,-2.55824 46.357287,0.37996 66.843027,7.20559 44.07262,14.68453 79.10258,47.46963 96.19017,90.02592 7.38665,18.39631 9.80642,29.06209 15.36734,67.73571 2.86007,19.8904 6.14923,31.89013 11.98343,43.71864 4.80281,9.73744 4.97259,10.37374 4.72053,17.69161 l -0.26147,7.59089 -2.855,-2.69162 c -7.15925,-6.74953 -14.53877,-20.46467 -19.10586,-35.50899 -3.40676,-11.22214 -4.96468,-19.11638 -8.02868,-40.68262 -3.29715,-23.20724 -6.79411,-38.21566 -10.29397,-44.18012 -1.49407,-2.54619 -5.13181,-6.6693 -8.08386,-9.16246 C 223.15989,631.45767 210.44386,624 208.25563,624 c -0.52354,0 -1.69355,5.5125 -2.60001,12.25 -1.90056,14.12643 -2.86909,17.99537 -5.63249,22.5 -1.68321,2.74382 -2.58008,3.24795 -5.75843,3.23685 -3.14299,-0.011 -4.9207,-1.00011 -10.7647,-5.98954 -7.17913,-6.12933 -16.88128,-11.94936 -18.02062,-10.81002 -0.35158,0.35158 -1.52456,4.09514 -2.60662,8.31904 -2.58637,10.09605 -7.42491,22.18884 -10.4952,26.23024 -5.50195,7.24217 -9.34492,6.72144 -20.32883,-2.75461 -7.78751,-6.71846 -11.83438,-9.52965 -12.60669,-8.75733 -0.21267,0.21266 -2.00823,4.41162 -3.99015,9.33102 -4.21682,10.46676 -6.32477,14.19741 -11.74755,20.79076 l -3.985985,4.84642 0.672515,9.56731 c 1.97142,28.04577 16.93647,67.12477 34.93972,91.23986 22.92961,30.71389 61.71944,50.80902 105.16941,54.48317 22.5687,1.90842 54.50164,-6.43783 84.44855,-22.07216 15.65207,-8.17145 14.33528,-5.54511 11.52049,-22.9775 -1.32621,-8.21343 -2.68049,-17.09519 -3.0095,-19.73724 l -0.5982,-4.80372 -4.05826,3.66639 c -14.21738,12.84455 -33.89564,10.08385 -43.37098,-6.0846 -1.35148,-2.30611 -3.41325,-7.96875 -4.58173,-12.58364 -2.6215,-10.35363 -2.22319,-21.82694 1.65906,-47.7885 6.12187,-40.93846 17.31062,-71.59309 42.71928,-117.04104 8.41153,-15.04554 29.8912,-47.73795 35.56043,-54.12355 l 4.05056,-4.5624 -6.66985,-2.85737 C 320.22296,531.26137 279.9721,506.23217 238.78827,473.2828 225.85943,462.939 222.76603,459.62249 223.20553,456.57615 c 0.16605,-1.15093 3.1292,-4.14916 6.79447,-6.87491 3.575,-2.65862 6.6041,-5.14151 6.73133,-5.51754 0.12723,-0.37604 -2.25893,-1.76225 -5.30257,-3.08047 -11.00114,-4.76467 -16.33728,-10.34724 -14.99656,-15.68911 0.29871,-1.19018 3.96551,-6.15774 8.14843,-11.03904 C 244.18815,391.49392 267,355.03692 267,346.58212 c 0,-1.2689 -1.0821,-7.65647 -2.40466,-14.1946 -4.72816,-23.37377 -6.0404,-37.20688 -6.01311,-63.38752 0.0293,-28.08834 1.87261,-43.37255 7.87009,-65.2556 7.3243,-26.72423 15.16619,-35.70764 28.64663,-32.8166 9.96224,2.13652 35.16813,17.03116 53.44568,31.58207 16.16426,12.8685 39.5485,36.68652 44.22814,45.04857 0.87299,1.55996 1.94661,1.45065 13.83683,-1.40876 25.66305,-6.17155 45.21009,-7.99879 66.31394,-6.19896 14.57672,1.24318 16.94808,1.6424 36.96971,6.22394 11.60992,2.65669 13.50462,2.86577 14.22964,1.57023 4.60308,-8.22525 27.89769,-32.18406 42.58558,-43.79983 19.8725,-15.71596 46.24046,-31.07922 56.64116,-33.00189 11.75289,-2.17265 17.06534,3.20774 23.72708,24.03053 8.30203,25.94988 11.30525,46.47513 11.27035,77.0263 -0.0279,24.38845 -1.35773,37.25147 -6.36975,61.61027 C 650.88979,338.89571 650,344.48724 650,346.03589 c 0,3.67391 10.23443,24.05453 18.09571,36.03542 6.86131,10.45689 16.66369,23.62178 25.85973,34.73037 4.78732,5.78297 6.04456,8.01198 6.04456,10.71667 0,4.7689 -4.96018,9.43766 -14.06529,13.23891 l -7.28114,3.03977 4.83188,3.35149 c 11.54217,8.00588 12.35345,9.51263 7.94363,14.75339 -8.94884,10.63509 -59.38167,47.1993 -85.92908,62.29927 -11.31746,6.43729 -40.47095,20.82983 -50.25,24.80749 -4.5375,1.84565 -8.23578,3.61124 -8.2184,3.92353 0.1571,2.82267 20.6552,20.27942 34.29767,29.20885 24.43638,15.99437 47.11018,25.17144 72.71578,29.43124 15.43449,2.56772 18.9316,3.74996 18.98536,6.41826 0.027,1.33881 0.12907,1.33988 0.90322,0.009 0.48004,-0.825 6.94681,-17.74871 14.3706,-37.60824 7.42379,-19.85953 14.20835,-37.4823 15.0768,-39.1617 3.26881,-6.32118 10.53317,-9.33056 17.55274,-7.2715 1.88857,0.55398 3.60572,0.83528 3.81588,0.62512 0.43874,-0.43874 4.678,-11.61708 13.84762,-36.5143 3.53082,-9.58685 7.16061,-18.24935 8.06619,-19.25 0.90558,-1.00066 2.72091,-1.81938 4.03405,-1.81938 4.02859,0 68.61096,24.85325 70.55249,27.15073 0.9625,1.13896 1.72843,3.25849 1.70206,4.71005 -0.0264,1.45157 -4.48014,14.33922 -9.89727,28.63922 l -9.84933,26 3.84406,4 c 4.82382,5.01951 7.90005,11.72867 7.92852,17.29184 0.0157,3.0726 -3.49259,13.72571 -12.34959,37.5 C 795.8241,640.55633 786.0922,666.75 781.00201,680.5 c -16.70866,45.13465 -26.16065,69.89063 -28.24508,73.97746 -1.12841,2.2124 -5.02283,6.98869 -8.65429,10.61399 -4.9849,4.97645 -8.07273,7.14191 -12.60264,8.8381 -8.6568,3.24145 -16.22039,4.26135 -22.6124,3.04913 -7.81753,-1.48256 -48.56661,-16.66553 -54.08482,-20.15183 -9.33793,-5.89951 -15.73924,-15.44712 -17.73471,-26.45146 -1.44057,-7.94426 -0.51682,-12.26408 6.81619,-31.87539 l 5.98268,-16 -8.68347,-0.66446 c -15.21275,-1.16407 -47.21519,-8.86522 -66.06497,-15.89804 -2.95983,-1.10431 -5.55316,-1.83617 -5.76296,-1.62637 -0.2098,0.2098 1.16498,6.86313 3.05507,14.78516 9.88346,41.42501 12.9696,63.60607 12.92608,92.90371 -0.0306,20.58959 -0.29568,23.99504 -3.12216,40.10791 -4.85446,27.67379 -11.02683,50.61103 -23.24796,86.39209 -4.56779,13.37357 -12.45637,41.54502 -11.74179,41.93189 4.71961,2.55522 10.99247,8.56689 13.26848,12.71601 6.93201,12.63694 1.58314,25.93733 -11.57762,28.78864 -8.87599,1.923 -20.80888,2.37135 -30.91564,1.16159 -14.54058,-1.74048 -19.63873,-3.64946 -25.59723,-9.58476 -8.4528,-8.4199 -9.0955,-11.66053 -13.0442,-65.77146 l -2.75537,-37.7581 -3.5516,0.70321 c -4.61695,0.91413 -24.76855,0.9222 -28.2398,0.0113 -2.5588,-0.67146 -2.71292,-0.50067 -3.202,3.54813 -0.68723,5.68919 -3.4616,43.55004 -4.56548,62.30349 -1.83767,31.21949 -7.22268,40.44054 -26.24474,44.94034 -7.65751,1.81144 -26.27506,2.68206 -33.79958,1.58059 z m 32.74362,-13.55761 c 7.56081,-2.14733 10.75992,-5.1226 12.79759,-11.90213 1.46845,-4.88569 3.36792,-24.39904 3.42962,-35.23265 L 426,917.25698 414.02768,916.54241 c -12.36199,-0.73783 -32.86151,0.11883 -35.0384,1.46421 -0.95028,0.58731 -0.61625,3.11377 1.44478,10.92766 3.78305,14.34256 3.42624,16.55964 -3.43406,21.33795 -8.91255,6.20774 -13.07145,16.01361 -7.95346,18.75268 6.26826,3.35467 29.61819,3.63487 40.69708,0.48836 z m 139.12629,0.0732 c 3.16939,-1.65704 3.33738,-2.00439 2.82323,-5.83761 -0.70623,-5.2654 -3.04057,-8.33772 -10.01114,-13.17607 -7.30122,-5.06786 -7.61311,-6.76917 -3.91962,-21.38098 1.57213,-6.21949 2.60624,-11.45617 2.29802,-11.63706 -3.04238,-1.78554 -43.89171,-1.51314 -46.84548,0.31239 -0.71657,0.44286 -0.60999,6.09551 0.34198,18.1381 2.22989,28.20851 3.83435,31.15647 18.81166,34.56348 8.8851,2.02116 31.94358,1.40066 36.50135,-0.98225 z M 395.5,905.45866 c 8.25,-0.3316 18.69683,-0.21191 23.21519,0.26596 l 8.21519,0.86886 0.49136,-2.54674 c 0.27024,-1.40071 0.98507,-10.19674 1.58851,-19.54674 1.47325,-22.82761 1.55031,-23.22802 4.7846,-24.86008 2.09299,-1.05616 4.40237,-1.15917 10.20515,-0.4552 4.125,0.50043 15.00425,0.62868 24.17612,0.28501 l 16.67612,-0.62487 1.45201,2.32757 c 0.98044,1.57164 1.99612,9.30049 3.12737,23.79772 0.92144,11.80859 1.78836,21.58317 1.92649,21.72129 0.13812,0.13813 4.50156,-0.23742 9.69651,-0.83455 8.96699,-1.0307 35.99486,-0.57087 40.46938,0.68851 1.83968,0.51778 2.6327,-1.23421 8.70786,-19.23787 21.09708,-62.52103 27.04324,-101.49881 22.21174,-145.60072 -1.941,-17.71746 -8.8109,-52.52336 -15.04152,-76.20681 -5.21606,-19.82701 -5.92666,-26.1114 -3.15208,-27.87648 2.62218,-1.66814 4.82642,0.13816 8.10927,6.64525 l 2.85926,5.66751 10.14074,3.91658 c 12.17554,4.70247 28.16684,9.33469 43.20185,12.51432 l 11.06111,2.33923 -0.0242,-11.60321 c -0.0262,-12.55665 2.13336,-22.71479 6.7675,-31.83326 l 2.33389,-4.59234 -12.97673,-4.34459 c -29.95477,-10.02883 -58.50544,-27.28738 -80.09959,-48.41927 -5.56772,-5.44853 -10.46785,-9.90807 -10.88918,-9.91008 -0.62859,-0.003 -21.73915,7.01088 -22.44996,7.45889 -0.1188,0.0749 2.21825,7.53894 5.19345,16.5868 24.45732,74.37682 31.7684,143.24604 20.09293,189.27214 -10.09006,39.7762 -33.70432,63.02882 -68.74457,67.69181 -15.7636,2.09774 -35.65354,-1.89574 -48.68399,-9.77473 C 393.85368,813.3432 380.3871,786.15855 375.93529,740 c -3.90609,-40.50034 7.331,-109.43553 26.41014,-162.01588 2.40327,-6.62321 4.09621,-12.19352 3.76208,-12.37845 -0.33413,-0.18494 -7.00326,-2.4536 -14.82029,-5.04148 -9.89174,-3.27472 -14.70596,-4.42923 -15.83494,-3.79742 -0.89219,0.49929 -4.31463,4.01853 -7.60542,7.82052 -16.07264,18.5694 -49.68528,78.54726 -59.07513,105.41271 -3.88752,11.12266 -10.09732,31.40854 -11.20439,36.602 l -0.66124,3.102 9.82626,0.54146 c 7.42929,0.40937 12.01452,1.30635 18.79695,3.6771 4.93388,1.72461 9.66015,3.3744 10.50282,3.66621 1.25508,0.43461 2.04893,-2.14747 4.39007,-14.27911 5.56532,-28.83917 12.26183,-52.85276 17.74158,-63.6211 1.59673,-3.13775 2.39866,-3.75639 4.53702,-3.5 4.35473,0.52213 5.0131,2.89906 2.92147,10.5474 C 354.5885,687.08269 347.5879,721.6987 344.94082,749 c -3.47018,35.79047 3.11774,78.12188 20.21452,129.89076 9.55245,28.92473 9.33745,28.45324 12.65219,27.7456 1.48086,-0.31614 9.44247,-0.8461 17.69247,-1.1777 z m 81.63703,-78.98719 c 10.77741,-2.7809 19.49244,-7.98622 28.53632,-17.04419 6.91125,-6.92203 8.95291,-9.78748 13.22178,-18.55669 9.27996,-19.06308 13.24238,-39.96459 13.24578,-69.87059 0.004,-39.51796 -7.81566,-81.99499 -25.24382,-137.11794 l -4.93791,-15.61794 -7.72959,1.79827 c -27.73266,6.45192 -41.73002,6.20878 -76.40038,-1.32713 -1.41489,-0.30753 -8.75236,21.14854 -14.89542,43.55687 C 387.31447,669.2675 382.52886,718.98161 389.00382,757 c 4.95177,29.07485 15.10483,48.00148 32.18443,59.99602 15.42622,10.83342 36.71376,14.43866 55.94878,9.47545 z M 317.98014,786.75 c 9.49402,-4.85057 13.51834,-13.92497 15.09019,-34.02672 0.5687,-7.2728 1.39373,-15.59427 1.8334,-18.49214 l 0.79941,-5.26887 -4.60157,-2.06219 c -7.71151,-3.45591 -19.19165,-6.08627 -27.2661,-6.24726 -4.21549,-0.0841 -7.98057,0.16225 -8.36683,0.54734 -0.98368,0.98069 -3.27125,19.17385 -4.06132,32.29984 -0.95185,15.81373 1.65188,26.61228 7.74536,32.12272 3.04039,2.74948 4.39933,3.20289 9.88543,3.29833 2.86647,0.0499 6.16032,-0.74985 8.94203,-2.17105 z M 722.5399,766.45605 c 9.94802,-2.57701 17.05468,-8.4202 22.26928,-18.31011 1.6373,-3.10527 5.91043,-13.74594 9.49586,-23.64594 3.58543,-9.9 12.82888,-34.89772 20.54101,-55.55049 26.9015,-72.04115 30.15384,-81.13665 30.1375,-84.28259 -0.009,-1.74181 -1.02155,-4.91264 -2.25,-7.0463 -2.58672,-4.49278 -0.26128,-3.46028 -50.08714,-22.23872 C 734.57694,548.57186 718.76429,543 717.5072,543 c -3.65323,0 -6.1726,2.99903 -8.82065,10.5 -1.35916,3.85 -12.69732,34.225 -25.19592,67.5 -12.4986,33.275 -26.04705,69.354 -30.10768,80.17555 C 649.32233,711.99711 646,722.37793 646,724.24405 c 0,8.95846 6.18254,19.6176 14.27894,24.61792 6.09372,3.76348 49.20016,19.09686 53.76096,19.1233 1.39695,0.008 5.22195,-0.68005 8.5,-1.52922 z M 712,762.16898 c 0,-0.45706 1.1764,-1.46061 2.61422,-2.23011 3.3525,-1.7942 10.47995,-9.71748 13.72962,-15.26261 1.38907,-2.37027 6.42415,-15.07958 11.18907,-28.24292 18.85647,-52.09196 49.01578,-131.88562 51.09474,-135.18334 1.82284,-2.89145 3.14274,-2.84804 4.50795,0.14826 1.36587,2.99777 1.30692,3.18031 -15.37395,47.60174 -7.12537,18.975 -16.68816,44.625 -21.25064,57 -22.8399,61.94961 -23.00767,62.3356 -30.23817,69.5681 C 723.36205,760.48024 712,765.08912 712,762.16898 Z m -10.63296,-66.94122 c -5.48127,-4.44 -5.87705,-10.91775 -0.96704,-15.82776 1.87,-1.87 4.30778,-3.4 5.41729,-3.4 1.45514,0 2.4741,-1.19614 3.65655,-4.29234 l 1.63926,-4.29233 -4.08544,-6.95767 c -6.07075,-10.33873 -7.39274,-15.64193 -5.60375,-22.47963 0.78828,-3.01292 1.72106,-6.22001 2.07284,-7.12688 0.35178,-0.90687 0.15892,-1.94592 -0.42858,-2.30902 -1.97869,-1.2229 -1.16867,-6.53254 1.38638,-9.08758 2.72984,-2.72985 4.27912,-2.98865 7.93081,-1.32483 5.52057,2.51534 5.45561,10.3498 -0.10967,13.22772 -2.78553,1.44045 -5.27569,7.47468 -5.27569,12.7842 0,2.17333 5.99156,15.20013 6.67625,14.51544 C 714.27032,658.06301 733,606.94413 733,605.9168 c 0,-0.50108 -1.42462,-1.49237 -3.16583,-2.20286 l -3.16584,-1.29179 6.74396,-5.96108 c 9.74984,-8.61801 9.16711,-8.66251 10.55738,0.80615 0.66484,4.52803 1.44279,9.07958 1.72878,10.11456 0.46001,1.66475 0.11559,1.80591 -2.98637,1.22398 -3.41092,-0.63989 -3.54792,-0.54142 -5.03381,3.61822 -0.84011,2.35181 -4.0364,11.16487 -7.10287,19.58458 -3.06647,8.4197 -5.5754,15.46397 -5.5754,15.65392 0,0.73613 10.52684,-3.70143 13.06071,-5.50571 1.47133,-1.04768 3.26417,-3.32689 3.98408,-5.06491 1.15888,-2.79778 1.10397,-3.30992 -0.47902,-4.46742 -1.70505,-1.24677 -1.67889,-1.61146 0.5642,-7.86591 1.29368,-3.60719 2.83851,-6.55853 3.43295,-6.55853 1.96771,0 10.91626,3.23563 12.10735,4.3778 0.88937,0.85283 0.55618,2.64174 -1.38807,7.45273 -2.04422,5.05838 -2.92503,6.23463 -4.38312,5.85333 -1.38002,-0.36088 -2.57132,0.84558 -4.88759,4.94977 -3.42184,6.06317 -6.31929,8.16825 -16.51149,11.99607 -3.85,1.44591 -7.51245,3.13324 -8.13878,3.74962 -0.62632,0.61637 -2.82181,5.75496 -4.87885,11.41908 l -3.74007,10.29839 2.12885,2.26606 c 3.25506,3.46485 2.90518,9.59458 -0.77236,13.53139 -2.39552,2.56442 -3.65921,3.10188 -7.25,3.08352 -2.60195,-0.0133 -5.20557,-0.71625 -6.48175,-1.75 z M 794.60842,577.1198 c -1.45829,-1.61139 -1.47975,-1.9817 -0.17745,-3.06251 C 796.25961,572.53966 798,573.48699 798,576 c 0,2.73462 -1.48613,3.2253 -3.39158,1.1198 z M 105.4755,672.51775 c 2.52743,-6.04023 5.78858,-12.22773 7.24701,-13.75 4.84184,-5.05379 10.5504,-3.30283 23.35608,7.1639 4.08178,3.33625 7.71106,6.06646 8.06507,6.06713 1.06022,0.002 5.60486,-12.17891 7.88386,-21.131 1.17164,-4.60228 2.83043,-9.8501 3.68621,-11.66183 1.66837,-3.53203 5.75708,-6.20644 9.48661,-6.20516 3.35633,0.001 13.37603,5.04408 20.46686,10.30099 7.23164,5.36132 6.75314,5.85077 8.8444,-9.04689 2.00715,-14.29851 3.12298,-17.96935 6.04393,-19.88323 3.74639,-2.45473 11.27665,-1.3374 19.53199,2.89814 3.80186,1.95061 6.91248,3.21801 6.91248,2.81644 0,-0.82934 -7.87515,-12.40433 -13.411,-19.71165 -5.66724,-7.48075 -18.31125,-19.9775 -26.089,-25.78516 -17.52129,-13.08316 -37.33349,-21.95827 -59.5,-26.65373 -10.44913,-2.2134 -39.610374,-3.82151 -42.237932,-2.32923 -1.349127,0.76622 -0.967617,1.89089 2.677634,7.89353 5.362581,8.83057 9.112279,18.22013 11.706818,29.31489 2.97036,12.70178 3.63614,45.64037 1.45375,71.92171 -2.553439,30.74963 -2.545876,30.60969 -1.602632,29.65585 0.485392,-0.49085 2.950432,-5.83446 5.477862,-11.8747 z m 557.17181,-24.00861 c 4.51237,-12.09497 8.0947,-22.10046 7.96073,-22.23443 -0.23988,-0.23989 -12.12097,-2.61688 -18.2454,-3.65028 -3.04986,-0.51461 -3.22272,-0.33849 -6.1976,6.31471 -4.2026,9.39891 -6.44692,21.20583 -6.01563,31.64688 0.41096,9.94851 0.9302,10.54727 8.82209,10.17328 L 654.44299,670.5 Z M 489.76862,559.08921 c 26.06543,-5.88135 54.54132,-16.72673 88.34183,-33.64602 20.07403,-10.04832 29.72261,-15.67093 49.38955,-28.78121 21.23335,-14.15448 50.57156,-36.53644 50.46341,-38.49827 -0.0201,-0.36504 -2.98236,-2.91371 -6.58277,-5.66371 -13.43487,-10.26161 -13.82999,-14.48321 -1.68598,-18.01357 3.13134,-0.9103 8.52737,-3.03691 11.99117,-4.72579 l 6.29782,-3.0707 -4.26807,-4.59497 c -11.67699,-12.57134 -26.99564,-34.80233 -35.68363,-51.78542 l -5.2131,-10.19044 -6.87878,-1.56455 c -44.68588,-10.16359 -88.4802,6.17828 -118.8452,44.34713 -12.6157,15.85796 -22.60205,33.59001 -30.15767,53.54885 -3.75574,9.92111 -3.76121,9.95773 -1.85204,12.38486 2.38624,3.03361 2.53678,10.06121 0.30787,14.37146 -2.37238,4.58768 -9.88902,12.26122 -15.60078,15.92646 l -5.01098,3.21553 0.44347,5.3477 c 0.34379,4.14557 1.07983,6.01191 3.27431,8.30246 7.54874,7.87919 21.84873,5.68443 26.1258,-4.00978 1.94689,-4.41271 3.64257,-5.45166 6.44759,-3.95046 2.9429,1.57499 2.49654,6.8757 -0.98352,11.67978 -5.60822,7.74192 -12.6091,10.8346 -22.69379,10.0251 -6.56429,-0.52692 -14.38033,-4.10789 -16.24718,-7.44375 -0.82754,-1.47874 -1.29889,-1.34971 -4.28883,1.17401 -5.42672,4.58054 -10.65746,6.47981 -17.91278,6.50413 -10.89416,0.0365 -19.60381,-5.61579 -22.73791,-14.75622 -1.33316,-3.88807 -0.74774,-5.91588 1.95561,-6.77389 2.08437,-0.66155 5.83596,1.92265 5.83596,4.01997 0,1.69494 5.05784,6.2378 8.3151,7.46848 7.44195,2.81176 17.22769,-0.34576 20.14868,-6.50129 0.84492,-1.78054 1.53622,-5.07269 1.53622,-7.3159 0,-3.71617 -0.33782,-4.25089 -3.80224,-6.0183 -6.06976,-3.09656 -13.82498,-10.71182 -16.61937,-16.31942 -3.00045,-6.02112 -3.19002,-8.69029 -0.95217,-13.40621 1.54226,-3.25007 1.50962,-3.77414 -0.63212,-10.15113 -8.03803,-23.933 -22.59565,-48.79282 -38.90068,-66.43007 -7.04848,-7.62439 -19.2383,-17.4387 -28.69752,-23.10507 -8.36347,-5.00997 -24.25563,-11.20647 -33.8959,-13.21632 -13.42718,-2.79936 -37.91634,-2.05573 -51.58787,1.56651 -3.27067,0.86655 -4.23142,2.07824 -10.86733,13.70571 -8.84136,15.49187 -19.71009,31.18236 -30.72227,44.35177 l -8.23186,9.84445 6.34763,3.02944 c 3.4912,1.6662 6.60392,3.02945 6.91715,3.02945 2.39309,0 11.85804,4.53039 12.68218,6.07031 1.75869,3.28614 -2.58912,8.60857 -13.56129,16.60124 -1.63498,1.19099 -2.7485,2.33694 -2.47451,2.54655 0.27399,0.2096 3.42317,2.85468 6.99817,5.87794 8.92047,7.54377 23.99357,18.84048 39.5,29.60375 48.1983,33.45525 107.23987,59.23182 155.5,67.88872 12.1344,2.17667 32.72107,1.12164 48.76862,-2.4993 z M 362.5,458.62188 c -10.25814,-4.67389 -14.13377,-20.67442 -8.02973,-33.15065 3.17709,-6.49374 7.19932,-9.46195 12.82939,-9.46749 5.47555,-0.005 9.22995,2.3395 12.41145,7.75183 2.49383,4.24248 2.78889,5.69662 2.78889,13.74443 0,7.98448 -0.30567,9.51996 -2.70902,13.60814 -1.48996,2.53447 -3.78667,5.31424 -5.1038,6.17726 -3.55773,2.33111 -8.75362,2.90091 -12.18718,1.33648 z M 544.95717,456.75 c -7.1391,-4.81129 -10.50935,-16.89885 -7.55004,-27.07853 3.98085,-13.69365 15.60015,-18.59753 24.04822,-10.14946 C 573.53929,431.60596 567.37449,459 552.57116,459 c -2.77786,0 -5.4448,-0.7881 -7.61399,-2.25 z m 250.33525,102.5 c 0.28913,-0.9625 4.59875,-12.53037 9.57693,-25.70637 4.97818,-13.17601 8.82013,-24.18748 8.53767,-24.46994 -1.4122,-1.4122 -60.0161,-22.8283 -60.68468,-22.1765 -0.89157,0.86918 -18.70723,49.08485 -18.69771,50.60281 0.005,0.87094 56.60878,23.07558 59.60874,23.38362 0.62335,0.064 1.36993,-0.67112 1.65905,-1.63362 z M 786.5,536.89292 c -7.67796,-3.10559 -8.0447,-3.72165 -5.97828,-10.04239 3.14712,-9.62634 4.24571,-11.14704 7.57229,-10.48173 3.73683,0.74737 12.92108,4.67891 12.85836,5.50434 -0.21229,2.79418 -6.76194,16.65038 -7.95237,16.82374 -0.825,0.12015 -3.75,-0.69163 -6.5,-1.80396 z m 6.85973,-8.43526 c 1.54699,-4.54016 1.54652,-4.54281 -0.9711,-5.5 -3.64634,-1.38634 -4.34141,-1.21621 -5.27985,1.29234 -2.31964,6.20062 -2.29432,6.51798 0.6042,7.57538 1.53286,0.5592 3.08222,1.05225 3.44302,1.09567 0.3608,0.0434 1.35248,-1.9651 2.20373,-4.46339 z m -38.87439,-3.24126 c -7.70906,-3.29588 -7.84878,-3.78955 -3.879,-13.70588 2.94114,-7.34684 4.0153,-7.79646 11.62342,-4.86538 7.26367,2.79838 7.35986,3.07986 4.09811,11.99302 -3.26341,8.91768 -4.6148,9.66835 -11.84253,6.57824 z m 6.40588,-6.4664 c 2.35158,-6.28601 2.32586,-6.47868 -1.02066,-7.64528 -1.75718,-0.61255 -3.2801,-0.99921 -3.38426,-0.85923 -0.54718,0.73534 -2.4863,7.2324 -2.4863,8.33041 0,1.18927 1.74398,2.0323 4.77475,2.3081 0.70111,0.0638 1.65353,-0.8965 2.11647,-2.134 z M 467.16085,487.70783 c 4.7557,-3.6273 8.83915,-9.04827 8.83915,-11.73439 0,-3.06722 -5.63019,-4.47784 -17.62995,-4.41711 -8.76483,0.0444 -11.68672,0.42114 -13.75,1.77306 -3.59126,2.35308 -3.31053,3.96285 1.62995,9.34668 8.45993,9.21909 13.75147,10.49239 20.91085,5.03176 z m -3.58707,-27.32793 10.07377,0.5795 1.79466,-5.7297 c 4.72148,-15.07404 15.64332,-35.91958 27.59835,-52.67451 20.51386,-28.75011 50.70917,-49.36661 82.23414,-56.14714 13.7177,-2.95046 37.73052,-2.85582 50.23725,0.19801 2.19892,0.53692 2.10225,0.86986 6.56386,-22.60606 4.56732,-24.03213 6.17412,-56.16946 3.89983,-78 -2.33409,-22.40452 -7.95873,-47.28173 -13.05705,-57.75 -2.84969,-5.8512 -3.26168,-6.25 -6.45678,-6.25 -6.73814,0 -33.20544,15.86876 -53.18237,31.88607 -13.95732,11.19085 -28.30474,25.63482 -37.3625,37.61393 -6.67296,8.82515 -7.90527,9.98673 -10.48912,9.88707 -1.6103,-0.0621 -9.67782,-1.71814 -17.92782,-3.68005 -20.71893,-4.92713 -30.36287,-6.11934 -49.5,-6.11934 -19.60737,0 -29.04878,1.19701 -50.74395,6.43347 -8.93418,2.15639 -16.86801,3.68125 -17.63073,3.38857 -0.76273,-0.29269 -4.47376,-4.66711 -8.24674,-9.72094 -13.06878,-17.50535 -36.32681,-38.54605 -59.89661,-54.1863 -14.5991,-9.68755 -24.19576,-14.60318 -29.72641,-15.22656 -4.48122,-0.5051 -4.56252,-0.46064 -7.05155,3.85654 -6.59276,11.43508 -12.75085,39.98557 -14.7303,68.29348 -1.2403,17.73738 -0.1931,38.19059 3.07578,60.07406 1.6749,11.21258 5.70504,31.44116 6.43052,32.27684 0.13219,0.15226 4.46576,-0.40843 9.63016,-1.24598 43.9769,-7.13206 86.48152,9.96034 118.04417,47.46914 13.54318,16.09461 25.33489,36.41214 33.06518,56.97249 2.1656,5.75986 4.1245,10.77512 4.3531,11.14502 0.22861,0.36989 2.33079,0.22486 4.67152,-0.32229 2.34072,-0.54715 8.78906,-0.73404 14.32964,-0.41532 z M 296.72459,317.24817 C 292.28184,312.33898 289.0178,296.3323 288.31338,276 c -0.63244,-18.25485 0.32804,-28.39371 4.26298,-45 3.18541,-13.44315 5.84555,-18.38977 10.11385,-18.80706 6.79889,-0.66468 24.82349,11.13012 39.31938,25.72955 9.02978,9.09427 18.09514,21.24541 20.39414,27.33616 1.47746,3.91424 0.25948,5.44705 -8.53521,10.74135 -12.99334,7.82185 -20.67897,13.86901 -36.39447,28.63567 C 308.65381,312.92339 301.36674,319 300.24836,319 c -1.06611,0 -2.65181,-0.78832 -3.52377,-1.75183 z m 22.594,-28.30636 c 6.82884,-6.35023 17.83093,-14.66132 25.93141,-19.58887 3.1625,-1.92376 5.75,-3.86566 5.75,-4.31533 0,-1.77106 -9.72151,-13.88004 -16.91126,-21.06443 -7.06161,-7.05634 -18.27514,-15.45866 -25.79855,-19.33091 l -3.2098,-1.65206 -1.54498,5.20252 c -3.97196,13.37503 -5.01879,22.09275 -5.02023,41.80727 -0.001,15.41319 0.38397,21.15022 1.83747,27.37392 l 1.83891,7.87391 5.65422,-5.44762 c 3.10982,-2.9962 8.27258,-7.88248 11.47281,-10.8584 z m 280.77004,15.71039 c -13.93732,-13.58364 -22.13777,-19.81937 -42.30039,-32.16571 -5.30486,-3.24837 -4.96227,-6.27829 1.85241,-16.38334 10.97045,-16.26733 31.05057,-34.3487 47.25864,-42.55457 6.49615,-3.2889 9.00119,-2.62414 11.95894,3.17353 5.74908,11.26913 9.34026,31.30945 9.36806,52.27789 0.0233,17.53391 -1.36774,28.95204 -4.9091,40.29693 -1.95554,6.26462 -2.9265,7.98423 -4.94062,8.75 -1.37872,0.52419 -2.74523,0.95307 -3.03667,0.95307 -0.29145,0 -7.15452,-6.45651 -15.25127,-14.3478 z m 15.8191,-7.4022 c 3.9901,-21.4875 2.93533,-46.99477 -2.80157,-67.75 -2.04041,-7.38188 -2.05593,-7.38322 -11.64582,-1.00232 -9.96214,6.62857 -24.01682,20.01566 -30.82658,29.36233 -2.54857,3.498 -4.63376,6.72748 -4.63376,7.17661 0,0.44913 2.57719,2.29112 5.72708,4.0933 9.23732,5.28506 24.12521,17.05678 33.25084,26.29115 4.66286,4.71841 8.74758,8.57893 9.07715,8.57893 0.32957,0 1.16327,-3.0375 1.85266,-6.75 z"
       id="path1" />
  </g>
</svg>
