<?xml version="1.0" encoding="UTF-8" standalone="no"?>
<!-- Created with Inkscape (http://www.inkscape.org/) -->

<svg
   version="1.1"
   id="svg1"
   width="896"
   height="1200"
   viewBox="0 0 896 1200"
   xmlns="http://www.w3.org/2000/svg"
   xmlns:svg="http://www.w3.org/2000/svg">
  <defs
     id="defs1" />
  <g
     id="g1">
    <path
       style="fill:#ffffff;fill-opacity:1"
       d="m 328.42732,918.60403 c -13.94762,-2.66929 -22.15746,-8.13018 -24.84871,-16.52845 -0.80644,-2.51657 -2.42252,-11.981 -3.5913,-21.03207 -1.16877,-9.05107 -3.43186,-21.87607 -5.02909,-28.5 -3.14771,-13.05401 -7.11051,-34.01029 -8.99041,-47.54351 -1.68267,-12.11344 -1.30952,-11.78109 -7.22091,-6.43162 -27.32229,24.7251 -72.2601,35.14701 -109.96668,25.50329 C 130.70669,814.3341 97.195204,786.10496 81.883308,750.87214 66.521533,715.52455 63.471831,693.35905 67.522974,646.5 72.489257,589.05564 66.647576,559.85813 47.426375,546.05451 c -4.650019,-3.33939 -5.577254,-6.09833 -3.160394,-9.40358 3.248832,-4.44305 43.925127,-6.92269 61.734019,-3.76333 40.97213,7.26859 75.63923,34.58295 92.49116,72.87417 8.1037,18.41336 11.31054,31.12497 16.45805,65.23823 5.11233,33.88007 11.46975,50.41021 24.40865,63.46571 9.64318,9.73007 16.01013,12.7925 27.76474,13.35449 8.88868,0.42498 13.8774,-0.17929 13.8774,-1.68093 0,-0.45244 -2.8125,-1.66635 -6.25,-2.69758 -4.88062,-1.46415 -7.35763,-2.97777 -11.30536,-6.90832 -8.25736,-8.22144 -9.37607,-16.49414 -3.61833,-26.75716 l 2.65013,-4.7238 -4.60608,-4.7762 C 244.81798,686.74175 237.50446,673.97786 234.50622,659.5 c -5.51577,-26.6344 10.12339,-52.02273 54.79908,-88.95984 8.62126,-7.12791 15.34195,-13.27944 14.93486,-13.67007 -0.40709,-0.39062 -4.97887,-2.39892 -10.15952,-4.46289 -19.42425,-7.73861 -48.16591,-23.35766 -69.57658,-37.80991 -20.32651,-13.72045 -21.68367,-15.71808 -14.82623,-21.82304 5.89202,-5.24548 7.32217,-6.72367 7.32217,-7.56813 0,-0.43664 -3.7125,-2.01473 -8.25,-3.50687 -19.4916,-6.40974 -20.1829,-8.2298 -9.65385,-25.41689 12.75248,-20.81649 16.33376,-29.37187 21.3797,-51.07439 l 4.48549,-19.29203 -4.45519,-13.00686 C 210.51872,343.75096 206.54189,321.34441 206.58971,294.5 c 0.036,-20.21068 1.18789,-29.365 5.97696,-47.5 3.21307,-12.16711 5.92677,-17.72006 9.81984,-20.09398 3.98288,-2.42868 6.80386,-2.39415 15.25815,0.18678 21.8082,6.65761 49.2842,24.59773 76.49146,49.94417 l 10.7904,10.05239 3.02513,-1.56436 c 5.14136,-2.6587 25.98915,-8.24125 37.54835,-10.05457 12.93735,-2.02952 39.3476,-1.54476 51,0.9361 6.88436,1.46572 7.02788,1.45402 8.68774,-0.70809 0.92826,-1.20914 5.005,-6.69844 9.05942,-12.19844 15.30549,-20.76255 33.12269,-38.41363 50.25284,-49.78431 16.52204,-10.96701 25.05407,-13.81761 30.31917,-10.12979 7.29142,5.1071 16.78228,30.55824 21.41003,57.4141 3.34648,19.42036 3.11303,48.34197 -0.5915,73.27809 l -2.78969,18.77809 8.17496,13.98312 c 10.5798,18.09654 18.6276,29.39972 28.18951,39.59233 11.54478,12.30626 11.47674,14.41142 -0.75405,23.33217 -4.10214,2.99198 -7.45843,5.55514 -7.45843,5.69592 0,0.14079 2.1375,1.47608 4.75,2.96732 6.58368,3.75804 8.25,5.34174 8.25,7.84094 0,2.5504 -13.52856,21.15107 -27.66131,38.03202 -20.53228,24.52492 -50.08332,50.15946 -74.64226,64.74965 l -6.80521,4.04291 3.30439,3.42933 c 8.21231,8.52283 26.53769,20.08909 40.17216,25.35508 8.57954,3.31365 22.27335,6.44398 32.88223,7.51669 l 6.75,0.68253 0.006,-22.3881 c 0.009,-33.41095 2.99507,-48.95362 13.38677,-69.67408 18.06997,-36.03049 50.18426,-59.89234 89.97164,-66.85154 11.75798,-2.05658 32.57364,-1.33289 44.22489,1.53757 30.11765,7.41991 55.82386,25.35978 72.73257,50.75865 8.71705,13.09403 14.24286,25.23667 17.90325,39.34131 2.74714,10.58565 3.05021,13.48771 3.81178,36.5 0.45504,13.75 0.85791,34.09516 0.89527,45.21146 l 0.0679,20.21145 4.25,1.06967 c 18.41399,4.63457 30.73637,19.20702 32.79663,38.78531 1.35346,12.86181 1.22666,209.37154 -0.1399,216.78845 -2.20812,11.98449 -8.80892,21.82874 -19.09406,28.47634 -11.55184,7.46632 -3.63476,7.09046 -142.31267,6.7562 l -124,-0.29888 -5.75209,-2.32263 c -12.12666,-4.89662 -21.84957,-15.86366 -25.17688,-28.39851 -1.51679,-5.71414 -1.63991,-16.26226 -1.36886,-117.27886 0.16381,-61.05 0.6601,-111.72657 1.10286,-112.61461 0.67958,-1.36297 -0.10629,-1.71771 -5.04255,-2.27618 -3.21617,-0.36387 -9.42648,-1.51425 -13.80069,-2.5564 -4.37421,-1.04215 -8.10233,-1.7456 -8.28472,-1.56322 -0.18238,0.18239 0.36732,4.08434 1.22156,8.67101 11.45325,61.49605 7.48632,117.81463 -12.98797,184.39058 -3.64988,11.86827 -4.72254,16.61423 -5.80185,25.67018 l -0.5627,4.72136 4.46165,2.6147 c 2.45391,1.43808 6.42839,4.80219 8.83219,7.47578 10.59704,11.78647 7.7335,25.49425 -6.19611,29.66081 -7.37254,2.20524 -25.12168,2.1824 -34.39386,-0.0443 -9.77896,-2.34836 -18.24013,-6.90926 -21.16843,-11.41061 -3.35045,-5.15025 -4.25212,-9.27165 -6.06872,-27.73914 -2.74682,-27.92411 -5.85585,-52.37926 -6.73261,-52.9578 -0.15412,-0.1017 -8.17028,0.009 -17.81369,0.24515 l -17.53348,0.43006 -3.36896,13.14129 c -1.85293,7.22772 -4.61595,17.54191 -6.14005,22.92043 -1.5241,5.37853 -3.05991,12.57853 -3.41291,16 -0.63627,6.16712 -0.61453,6.23815 2.51673,8.22087 6.88083,4.35695 12.97854,15.60949 12.9684,23.9315 -0.0108,8.85115 -8.50217,13.46607 -25.99626,14.1285 -6.38153,0.24164 -13.27416,-0.13333 -17.57268,-0.95597 z M 359.25,907.98812 c 6.05883,-2.88434 1.34534,-14.33773 -8.4811,-20.60838 -4.65708,-2.97187 -5.29706,-5.46329 -3.86928,-15.06302 0.62313,-4.18961 1.01313,-7.73409 0.86667,-7.87662 -0.14646,-0.14254 -5.66629,0.13463 -12.26629,0.61592 -6.6,0.48129 -15.4875,0.53178 -19.75,0.11219 -4.2625,-0.41958 -7.7447,-0.51658 -7.73822,-0.21555 0.0951,4.41783 4.28207,33.28585 5.12713,35.35005 1.38705,3.3881 6.88017,6.36634 15.24984,8.26811 7.45237,1.69334 26.84954,1.3271 30.86125,-0.5827 z m 437.79836,-3.9145 c 9.81774,-3.73044 16.4014,-10.93316 19.38984,-21.21305 1.43758,-4.9451 1.57687,-16.84682 1.33353,-113.94123 L 817.5,660.5 l -2.60111,-5.54563 c -3.44012,-7.3344 -7.60394,-11.9205 -14.08004,-15.50797 L 795.5,636.5 671.05429,636.23464 c -139.00261,-0.29641 -129.4065,-0.76654 -138.99093,6.80951 -3.48595,2.75549 -5.85567,5.81965 -8.22952,10.64116 L 520.5,660.45666 v 110.54038 110.54039 l 3.292,6.68931 c 3.81352,7.74905 9.23215,12.86925 16.63232,15.7163 4.93317,1.89792 8.53584,1.95421 128.31495,2.00485 119.31617,0.0504 123.40067,-0.009 128.30909,-1.87427 z M 638.27992,837.97991 c -1.22105,-0.49133 -2.49447,-1.98655 -2.82982,-3.32271 -0.34379,-1.36976 1.8161,-14.5247 4.95199,-30.16039 l 5.56172,-27.73102 -4.08606,-4.6329 c -7.65263,-8.67677 -10.99728,-17.67011 -11.04445,-29.69713 -0.13824,-35.24553 39.33691,-53.30317 64.49992,-29.50505 16.17856,15.30101 16.96288,43.11041 1.66928,59.18733 -2.20138,2.31412 -4.0025,4.98861 -4.0025,5.94331 0,0.9547 2.49666,13.58952 5.54814,28.07738 3.05147,14.48786 5.2889,27.37441 4.97207,28.63679 -0.31684,1.26237 -1.7178,2.7293 -3.11324,3.25985 -3.19157,1.21343 -59.09763,1.16352 -62.12705,-0.0555 z M 692.38975,826.25 c -0.64233,-2.65729 -9.36462,-44.13259 -10.33253,-49.13215 l -0.84839,-4.38215 6.24352,-6.15199 c 4.74268,-4.67315 6.68298,-7.46589 8.07167,-11.61785 2.30496,-6.89145 2.33751,-15.94344 0.0816,-22.6861 -2.18464,-6.5296 -9.09143,-14.36835 -15.31439,-17.38083 -10.69852,-5.17907 -24.46016,-1.68674 -32.26583,8.18818 -5.13859,6.50081 -6.51309,10.83979 -6.46635,20.41289 0.051,10.43951 2.55588,16.15044 10.21503,23.28914 l 5.67476,5.28915 -5.56865,27.96085 L 646.31152,828 h 23.25062 c 21.63793,0 23.22128,-0.12138 22.82761,-1.75 z M 472.3137,902.64229 c 3.00712,-1.25646 3.68536,-2.05631 3.68118,-4.34126 -0.0104,-5.66277 -4.6996,-11.16952 -14.12016,-16.58183 -2.5439,-1.46153 -4.84052,-3.4804 -5.10359,-4.48639 -0.26307,-1.00598 -0.14943,-5.8574 0.25253,-10.78094 0.40196,-4.92353 0.58997,-9.11047 0.41781,-9.30431 -0.17216,-0.19385 -4.05442,0.13935 -8.62725,0.74043 -4.57282,0.60108 -12.7164,1.16391 -18.09685,1.25072 -5.38044,0.0868 -9.95657,0.4393 -10.16917,0.78329 -0.68203,1.10356 2.28165,29.03241 3.45952,32.60138 2.62161,7.94356 16.80375,12.73368 35.55598,12.00927 5.10252,-0.19711 10.67476,-1.02327 12.75,-1.89036 z M 347.68214,855.41357 c 2.77428,-0.55485 2.93808,-0.97476 7.70061,-19.74024 2.67633,-10.54533 5.49662,-20.41083 6.26733,-21.92333 l 1.40128,-2.75 h 16.03277 c 16.22994,0 25.60317,-0.94038 36.31431,-3.64326 5.16075,-1.30227 6.08033,-1.30654 7.35278,-0.0341 2.28595,2.28595 0.55287,5.5556 -4.15784,7.84425 l -4.23752,2.05874 1.25006,6.63718 c 0.68754,3.65045 1.79794,11.24968 2.46757,16.88718 l 1.2175,10.25 7.10451,-0.008 c 7.95178,-0.008 21.43647,-1.40528 29.30092,-3.03507 5.19014,-1.07559 5.19832,-1.08342 6.76882,-6.48576 C 476.47457,793.28116 481.4439,762.88037 481.42199,725.5 481.40386,694.55598 479.0454,674.6073 470.9778,637.15941 466.84447,617.97346 466.84456,615 470.97848,615 c 2.7729,0 4.42314,2.92696 7.58605,13.45508 l 2.81374,9.36587 7.06087,2.04307 c 8.90383,2.57633 17.67857,4.13598 23.26945,4.13598 3.96719,0 4.8346,-0.50088 10.06634,-5.81277 6.13168,-6.2256 12.59106,-9.88039 20.68362,-11.70299 L 547.5,625.34881 V 612.5448 599.7408 L 542,599.35859 C 512.5953,597.31517 482.05056,583.9816 462.89706,564.8281 l -6.92953,-6.92953 -8.48376,3.22258 C 442.81769,562.89358 439,564.63006 439,564.98 c 0,0.34994 2.47716,8.13976 5.5048,17.3107 5.55822,16.83625 15.05287,52.46306 17.91149,67.2093 5.6622,29.20862 6.30046,62.95294 1.58842,83.97899 -3.76429,16.797 -13.37901,32.8868 -25.30458,42.34606 -23.13912,18.35376 -52.48812,19.79524 -76.49347,3.75698 -12.43552,-8.30831 -20.57109,-19.9851 -25.85489,-37.10892 -2.66926,-8.65057 -2.76878,-9.76391 -2.76863,-30.97311 1.3e-4,-17.91647 0.42608,-24.78422 2.29482,-37 4.33298,-28.32444 12.80699,-69.48057 18.7061,-90.85094 1.95107,-7.06801 3.35636,-13.04198 3.12286,-13.27548 -0.2335,-0.2335 -4.42558,-1.1113 -9.31573,-1.95066 -4.89016,-0.83937 -14.18455,-2.89079 -20.65421,-4.55871 l -11.76303,-3.03258 -17.45652,14.58322 c -42.11811,35.18556 -57.65022,57.35933 -55.00557,78.52641 1.27362,10.19364 7.03013,22.94993 14.44924,32.01912 l 2.83078,3.46037 4.23068,-3.82217 c 4.11569,-3.71827 8.1453,-5.81331 24.26089,-12.61349 4.2809,-1.80637 7.98127,-3.6044 8.22305,-3.99561 0.24178,-0.3912 -1.12189,-3.81138 -3.03037,-7.60038 -5.90325,-11.72001 -5.31012,-13.19755 12.24391,-30.50072 11.84286,-11.67363 15.49094,-14.49406 17.30063,-13.37561 2.46748,1.52499 0.0929,5.34127 -11.88264,19.09727 l -12.86198,14.77418 3.90483,7.05789 c 12.03149,21.74668 15.41564,29.65134 16.76075,39.14954 2.84105,20.06143 -5.21288,36.33832 -21.83867,44.13565 l -7.39704,3.46914 0.68381,14.47229 c 1.14137,24.15589 5.10851,52.9857 11.19164,81.33127 3.38821,15.78806 2.90299,14.82358 7.71854,15.34234 5.15671,0.55552 33.47919,-0.14816 37.38223,-0.92877 z M 220.80741,815.47705 c 22.70542,-4.30714 41.83381,-14.20529 56.34291,-29.1551 L 282.80064,780.5 281.78939,769 c -0.55619,-6.325 -1.07383,-11.56712 -1.15032,-11.64915 -0.0765,-0.082 -2.58657,0.24178 -5.57797,0.7196 -18.17131,2.90249 -38.86647,-7.975 -51.5921,-27.11708 -9.71965,-14.62044 -13.84649,-27.82635 -18.44698,-59.03036 -3.47191,-23.54917 -7.53814,-42.33578 -10.04792,-46.42301 -3.68422,-5.99983 -14.8967,-14.43853 -21.32973,-16.05312 -2.30674,-0.57896 -2.31503,-0.54444 -2.35192,9.79081 -0.0452,12.6704 -2.08579,20.77857 -5.71864,22.72281 -2.26411,1.21171 -3.07901,0.9673 -9.50698,-2.85149 -7.86759,-4.67405 -18.98222,-10.10702 -20.67915,-10.10822 -0.61177,-4.3e-4 -1.41627,2.58671 -1.78777,5.74921 -0.99457,8.46658 -3.37285,16.93118 -6.75929,24.05714 -5.32838,11.21228 -9.54718,10.71098 -22.58425,-2.68355 -4.533993,-4.65832 -8.420236,-8.2793 -8.636094,-8.04663 -0.966949,1.04227 -13.022803,25.81247 -14.234126,29.24573 -0.743014,2.10592 -2.046542,7.83815 -2.896728,12.73828 -1.511951,8.71427 -1.489746,9.18615 1.01423,21.55285 3.928947,19.4044 11.862377,38.89887 22.241848,54.65391 16.59251,25.18584 51.30339,46.44013 82.7545,50.67253 8.78756,1.18255 26.02138,0.48801 36.30741,-1.46321 z M 411.4477,780.47161 c 9.39833,-2.44796 19.34332,-8.24476 26.67241,-15.54701 25.51365,-25.42018 27.31607,-78.95533 5.30018,-157.4246 -5.46494,-19.4782 -12.34493,-40.50109 -13.25311,-40.49697 -0.36695,0.002 -5.39218,0.98244 -11.16718,2.1795 -8.72594,1.80874 -14.01329,2.18839 -31.29388,2.24697 l -20.79387,0.0705 -2.41942,8 c -4.65771,15.40114 -15.53047,67.7535 -19.52231,94 -3.09335,20.33885 -3.83573,51.51297 -1.47904,62.10769 5.16946,23.2398 19.37012,38.99632 40.50852,44.94673 6.31632,1.77804 20.46735,1.73534 27.4477,-0.0828 z M 298.31613,730.75345 c 6.50847,-4.32138 9.98421,-9.70004 11.67694,-18.06992 1.80377,-8.91895 -0.44477,-21.72119 -5.60283,-31.90014 l -2.43338,-4.80203 -4.22843,2.16651 c -2.32564,1.19159 -7.99703,3.64986 -12.6031,5.46282 C 275.64416,687.34252 266,692.86196 266,694.5563 c 0,0.62355 0.94607,1.98991 2.10238,3.03635 2.80288,2.53657 4.62029,6.20763 5.89987,11.9174 1.28386,5.72885 0.17007,7.57323 -4.36515,7.22845 -2.94482,-0.22388 -3.1559,-0.0124 -3.44388,3.45136 -0.74427,8.95185 7.75294,15.16689 19.93211,14.57878 5.68072,-0.27432 7.41883,-0.84678 12.1908,-4.01519 z M 84.011605,651.5 c 7.422273,-14.33126 7.547439,-14.5 10.755809,-14.5 1.853886,0 5.262176,2.69596 12.858206,10.17086 l 10.33568,10.17086 1.94915,-4.42086 c 1.74095,-3.94865 4.109,-14.51691 5.65258,-25.22664 1.47912,-10.26244 11.31272,-10.04639 28.90956,0.63515 4.04644,2.45626 6.30041,3.29763 6.98911,2.60893 0.59106,-0.59106 1.02108,-6.89345 1.02741,-15.0578 0.01,-12.73797 0.19106,-14.17304 1.95202,-15.46089 1.06762,-0.78078 2.96985,-1.41961 4.22717,-1.41961 2.61991,0 15.00118,4.4808 17.02704,6.16212 2.92769,2.42976 2.00144,-0.13743 -3.14208,-8.70858 -18.35789,-30.59156 -49.35225,-50.28325 -85.844876,-54.53995 -9.200885,-1.07324 -35.223404,-0.7319 -36.433199,0.47789 -0.243816,0.24382 1.80941,3.65105 4.562726,7.57163 14.406603,20.51426 17.64011,51.29135 11.560712,110.03689 -0.732999,7.08301 -0.07997,6.35389 7.612982,-8.5 z M 579.37013,622.04012 c -0.81212,-1.62793 -1.96854,-5.60524 -2.56982,-8.83847 -0.96218,-5.17386 -0.82654,-6.75665 1.13154,-13.2032 1.87825,-6.18373 3.0494,-8.1297 7.51883,-12.49326 l 5.29404,-5.16864 0.50161,-20.91827 c 0.45233,-18.86366 0.76074,-21.78336 3.13991,-29.72575 4.61555,-15.40808 11.63535,-26.84866 22.84991,-37.23983 14.45735,-13.39587 32.2522,-20.39596 51.94847,-20.43534 12.56194,-0.0251 21.6819,2.17047 33.81538,8.14087 9.17602,4.51515 11.63484,6.31336 19.5,14.26087 9.2749,9.37202 13.97519,16.23029 18.06822,26.36361 5.44568,13.48213 5.64033,15.20208 6.47541,57.21729 0.43181,21.725 0.82363,40.7375 0.87073,42.25 L 748,625 h 16.07544 16.07544 l -0.41741,-42.75 c -0.38648,-39.58169 -0.58176,-43.49112 -2.63486,-52.75 -9.95013,-44.87223 -46.70943,-80.48443 -90.34236,-87.52318 -10.94232,-1.76519 -34.06683,-0.78802 -43.96012,1.85762 -42.71979,11.42399 -75.0553,46.94225 -82.12844,90.21228 -1.57834,9.65549 -2.1735,32.69727 -1.83917,71.20328 L 559,625 h 10.92336 10.92335 z m 30.1809,-0.508 c 1.92667,-4.61118 1.86817,-16.59283 -0.10408,-21.31424 -3.59331,-8.60211 -9.51655,-11.30221 -16.05172,-7.31716 -9.0431,5.51435 -10.82555,19.33548 -3.72057,28.84928 2.38499,3.19358 2.566,3.25 10.42726,3.25 h 8.00013 z M 736.7472,584.75 c -0.54316,-45.14897 -0.98475,-48.48619 -8.40211,-63.49778 C 721.32732,507.04936 705.41037,493.21279 690,487.91891 c -8.99743,-3.09086 -27.77009,-3.82691 -37,-1.45072 -11.793,3.03604 -20.63965,8.18415 -30.12717,17.53181 -7.32454,7.21656 -9.31982,9.93443 -13.21446,18 -6.62216,13.7141 -7.6304,19.13901 -7.62002,41 l 0.009,18.5 4.95064,2.17461 c 9.01794,3.96121 14.64982,16.34994 13.74721,30.24041 -0.27109,4.17174 -0.82275,8.37248 -1.22592,9.33498 -0.69335,1.65522 2.47449,1.75 58.48965,1.75 h 59.2227 z M 407.39272,560.49312 c 13.08367,-1.71512 32.18603,-6.92422 43.71785,-11.92159 13.6895,-5.93241 32.10726,-18.4576 53.88943,-36.64805 16.77495,-14.00888 28.72923,-26.87315 47.23055,-50.82584 9.50095,-12.30039 9.68176,-12.63303 7.66285,-14.09764 -5.10189,-3.70114 -9.85995,-8.31925 -10.43363,-10.12675 -0.96242,-3.03233 1.82854,-6.33206 10.04576,-11.87698 4.12196,-2.78147 7.49447,-5.39981 7.49447,-5.81854 0,-0.41872 -2.06329,-2.76751 -4.58509,-5.21952 -5.48482,-5.33305 -16.26463,-19.58214 -22.66416,-29.95821 -8.72873,-14.15258 -9.16678,-14.63575 -15.41807,-17.00552 -20.03984,-7.59684 -47.19093,4.13199 -63.95788,27.62877 -11.43746,16.02816 -21.25034,45.9852 -21.41516,65.37675 -0.0257,3.025 -0.41414,7.39839 -0.86318,9.71865 -0.80438,4.15632 -0.76684,4.23503 2.54044,5.32653 4.46627,1.474 6.36509,4.4408 6.35372,9.92733 -0.0159,7.66759 -6.88142,17.27669 -15.61006,21.8481 -1.62121,0.84908 -2.2445,2.35229 -2.65148,6.3947 -0.47303,4.69845 -0.24489,5.58975 2.05653,8.03469 4.92712,5.23438 10.39468,3.37661 16.51107,-5.61015 3.91922,-5.75846 8.96635,-1.59917 6.17323,5.08731 -2.16211,5.17594 -5.99673,8.92672 -11.13078,10.88743 -5.60856,2.14192 -10.59621,1.31717 -15.40514,-2.5474 -3.30567,-2.65651 -3.88886,-2.8265 -5.02018,-1.46334 -4.86517,5.86218 -18.69902,7.77642 -26.50849,3.66808 -4.16788,-2.19261 -10.30893,-8.35287 -10.5238,-10.55673 -0.32256,-3.30826 1.07286,-5.65393 3.39082,-5.69989 0.42479,-0.008 2.70203,1.76341 5.06054,3.93741 4.88098,4.49913 8.28124,6.04728 13.28188,6.04728 7.24199,0 12.08474,-4.33664 13.27896,-11.89118 l 0.81328,-5.14484 -4.52384,-2.00111 c -6.53797,-2.89205 -12.68081,-8.29371 -15.08902,-13.2684 -2.4966,-5.1573 -2.63187,-7.94415 -0.54052,-11.13595 1.48281,-2.26306 1.22647,-3.02481 -5.62474,-16.71482 -9.47921,-18.94127 -17.31583,-30.29537 -28.8973,-41.86795 -21.20285,-21.18654 -44.6563,-31.91474 -70.53158,-32.26292 -24.01268,-0.32312 -43.57613,8.14538 -61.07417,26.43739 -4.43344,4.63461 -7.91768,9.86128 -12.8991,19.34978 -3.75372,7.15 -9.4627,17.45764 -12.68663,22.90587 -3.22393,5.44823 -5.74433,10.01348 -5.60089,10.145 0.14343,0.13152 3.63579,1.23095 7.76079,2.44319 11.85892,3.48503 16.94961,5.95698 17.59939,8.54594 0.76727,3.05701 -2.58004,10.24745 -6.46939,13.89709 -1.7215,1.6154 -3.13,3.26149 -3.13,3.65799 0,2.47593 43.95476,28.77744 63.49979,37.9968 44.12119,20.81189 87.54869,29.29664 124.89293,24.40124 z M 334.29034,481.03549 C 326.63362,476.36695 323.87479,461.22538 329,452 c 8.14405,-14.65929 24,-6.63079 24,12.15216 0,14.06536 -9.40789,22.55491 -18.70966,16.88333 z M 477.08699,463.8314 c -5.2069,-3.55678 -7.58888,-9.00523 -7.57703,-17.3314 0.0218,-15.32997 10.80765,-23.85248 19.84462,-15.6804 3.7387,3.38089 5.93954,9.37638 5.93954,16.1804 0,14.16187 -9.39742,22.84922 -18.20713,16.8314 z m -47.44812,33.31524 c 7.39811,-5.35916 10.21261,-12.82785 5.36113,-14.22653 -7.45969,-2.15063 -25.66622,0.37271 -26.72535,3.704 -0.85973,2.70415 12.11901,13.33062 16.32531,13.36651 0.60498,0.005 2.87249,-1.27463 5.03891,-2.84398 z M 422.25,473.34512 430,472.71421 v -7.97877 c 0,-17.36691 5.36817,-41.14118 12.95044,-57.35427 3.94316,-8.4316 9.85437,-17.75862 15.98448,-25.22115 4.9133,-5.98125 17.07195,-15.6299 24.28278,-19.26991 12.16472,-6.14073 29.28441,-8.58471 38.10346,-5.43959 3.35262,1.19564 3.7506,1.17886 3.24573,-0.1368 -1.57193,-4.09638 -1.60484,-6.76384 -0.17835,-14.45446 C 526.70199,330.38673 529,306.42379 529,294.77231 c 0,-12.53288 -2.33271,-33.24995 -5.0395,-44.75653 -4.09833,-17.42192 -11.49574,-36.51647 -14.60979,-37.71144 -2.27071,-0.87135 -12.53442,4.5817 -22.79222,12.10938 -17.41899,12.78291 -33.44704,29.55973 -49.38481,51.69186 -9.58513,13.31049 -7.77889,12.5474 -23.39317,9.88296 -26.92184,-4.59399 -48.38641,-2.71143 -75.28051,6.60249 -7.15,2.47618 -13.75374,4.74983 -14.67498,5.05257 -1.16393,0.38249 -5.13031,-2.72253 -13,-10.17684 -14.03467,-13.29388 -28.35535,-24.88075 -40.99993,-33.17303 -14.78849,-9.69826 -38.50173,-20.39926 -42.12411,-19.00923 -0.72702,0.27899 -2.52903,4.4916 -4.00448,9.36137 -10.99262,36.28161 -9.76412,74.62351 3.7601,117.35413 2.35001,7.425 5.09372,15.60517 6.09714,18.17815 1.81138,4.64477 1.80577,4.75892 -0.78607,15.99526 -1.43577,6.22441 -2.53335,11.38525 -2.43908,11.46854 0.0943,0.0833 3.77141,-2.75947 8.17141,-6.31723 16.33368,-13.2071 34.83349,-19.67942 56,-19.59207 17.42951,0.0719 31.89712,3.76426 48.5,12.37788 26.3437,13.66719 50.78637,42.82826 64.3308,76.7492 1.58489,3.96922 1.98393,4.30404 4.45501,3.73801 1.4928,-0.34194 6.20169,-0.90562 10.46419,-1.25262 z M 246.78378,357.93881 c -2.16713,-1.26322 -6.03669,-13.43892 -9.46487,-29.78158 -5.42321,-25.85323 -2.40466,-64.88468 5.24497,-67.82012 2.43652,-0.93498 11.9721,3.56011 22.99351,10.83916 C 281.65038,281.80484 301,301.34063 301,306.95989 c 0,0.88935 -4.763,5.39507 -10.58445,10.01272 -11.51413,9.13315 -22.30128,20.15889 -31.56054,32.2586 -4.96069,6.48246 -8.47273,9.88925 -10.03927,9.73838 -0.17366,-0.0167 -1.08804,-0.48058 -2.03196,-1.03078 z m 11.2028,-20.92199 c 7.80036,-9.7815 20.44966,-22.03295 28.11404,-27.22977 2.6663,-1.80788 4.85941,-3.80344 4.87359,-4.43458 C 291.0172,303.43966 276.98721,289.73544 269,283.88848 260.33452,277.545 248.46229,270 247.14615,270 c -3.53599,0 -5.42467,35.35758 -2.72424,51 1.5592,9.03172 5.45486,25 6.09907,25 0.16603,0 3.52556,-4.04243 7.4656,-8.98318 z m 238.74858,-13.50013 c -10.38645,-9.90094 -23.06913,-18.92717 -35.22691,-25.0709 -6.24003,-3.15329 -10.13133,-5.72712 -10.3463,-6.84338 -1.02913,-5.34381 14.74582,-27.24617 27.89469,-38.72971 8.45153,-7.38114 17.8295,-13.8727 20.04105,-13.8727 6.99343,0 14.93723,30.41016 14.88279,56.97377 -0.0221,10.78179 -2.32076,29.92501 -3.96142,32.99061 -1.94033,3.62555 -5.14396,2.31175 -13.2839,-5.44769 z M 505.13636,295 c 0.0524,-7.975 -0.45229,-18.1 -1.12155,-22.5 -1.22137,-8.02988 -5.60996,-23.5 -6.66652,-23.5 -1.45218,0 -13.91849,10.82212 -20.13832,17.48225 -6.67797,7.15071 -17.0035,21.13768 -16.13249,21.85309 0.23239,0.19087 3.79752,2.18845 7.92252,4.43907 10.181,5.55479 20.74411,13.09322 28.25434,20.16387 l 6.24566,5.8801 0.77054,-4.65919 c 0.4238,-2.56255 0.81342,-11.18419 0.86582,-19.15919 z"
       id="path1" />
  </g>
</svg>
