<?xml version="1.0" encoding="UTF-8" standalone="no"?>
<!-- Created with Inkscape (http://www.inkscape.org/) -->

<svg
   version="1.1"
   id="svg1"
   width="896"
   height="1200"
   viewBox="0 0 896 1200"
   xmlns="http://www.w3.org/2000/svg"
   xmlns:svg="http://www.w3.org/2000/svg">
  <defs
     id="defs1" />
  <g
     id="g1">
    <path
       style="fill:#ffffff;fill-opacity:1"
       d="m 335.07519,896.91274 c -12.9239,-2.53562 -22.1924,-7.25363 -24.96059,-12.70588 -2.58689,-5.09514 -4.85909,-16.43039 -6.15534,-30.70686 -0.59925,-6.6 -1.50926,-15.15 -2.02225,-19 -0.94102,-7.06246 -7.0055,-38.68347 -7.55073,-39.37055 -0.16173,-0.20381 -2.0023,0.9518 -4.09017,2.56801 -9.51191,7.36316 -24.94141,14.81558 -38.08847,18.39665 -9.92537,2.70353 -30.22568,3.65978 -40.98028,1.93039 -51.46373,-8.27561 -86.7453,-44.9228 -94.67727,-98.34185 -2.6781,-18.03611 -1.89169,-34.21082 3.50953,-72.18265 1.73851,-12.22216 2.03742,-17.96303 1.61405,-31 -0.61285,-18.87206 -2.64556,-27.89338 -8.96671,-39.79493 -3.27125,-6.15915 -3.91485,-8.15275 -3.06695,-9.5 1.77397,-2.8187 9.64444,-3.65773 22.35999,-2.38368 42.67873,4.27624 79.3751,28.51749 98.26841,64.9151 9.52857,18.35661 13.37307,33.04783 16.18581,61.8519 1.79541,18.38613 3.34893,25.36255 7.58822,34.07661 6.04232,12.42029 16.48033,20.6621 27.87745,22.01192 l 4.81939,0.57078 0.61789,-19.87385 c 0.33984,-10.93062 0.88551,-21.45663 1.2126,-23.39115 0.58069,-3.43436 0.42958,-3.63012 -6.40836,-8.30228 -3.85169,-2.63174 -8.81055,-6.74586 -11.01968,-9.14249 -10.88398,-11.80772 -14.80517,-30.80406 -10.13099,-49.07991 4.79637,-18.75363 26.46077,-54.42986 45.9697,-75.7014 6.02653,-6.57102 6.12499,-6.76672 3.85208,-7.65687 -28.92743,-11.32894 -55.92048,-27.14712 -89.90071,-52.68265 -14.15335,-10.63599 -19.23674,-15.59523 -18.72253,-18.26528 0.30134,-1.56473 3.42228,-3.92178 9.92486,-7.49561 l 3.35478,-1.84379 -5.66952,-2.30661 c -6.68942,-2.72155 -14.32334,-7.77072 -15.19908,-10.05286 -1.2466,-3.24857 -0.44435,-4.63433 9.12968,-15.77008 13.3014,-15.47113 22.26516,-28.24225 28.37045,-40.42082 l 5.13243,-10.23795 -2.55769,-10.26205 c -3.87412,-15.54383 -5.0103,-25.59885 -5.00143,-44.26205 0.006,-13.04256 0.51031,-19.76983 2.16554,-28.8984 3.92091,-21.62379 11.72498,-40.98827 18.46582,-45.81984 4.09596,-2.93581 10.05836,-1.92929 21.13012,3.56702 16.93207,8.40551 37.76771,25.16277 55.0856,44.30308 6.87241,7.59563 10.43645,10.80782 11.8872,10.71364 1.13958,-0.074 7.47196,-1.55718 14.07196,-3.29603 20.03818,-5.2793 44.05113,-5.32941 64.24876,-0.1341 l 7.16622,1.84333 1.70508,-2.60227 c 3.17272,-4.84219 19.82751,-21.35975 28.89956,-28.66145 22.53092,-18.13416 42.89849,-28.38374 51.90907,-26.12223 8.47466,2.127 17.76846,36.64274 17.80021,66.10725 0.0176,16.36952 -1.49735,27.77304 -6.1197,46.06361 l -2.82601,11.18248 2.19773,5.37695 c 3.85502,9.43166 19.59955,33.66741 31.17514,47.98828 6.79796,8.41018 6.84091,10.21476 0.38678,16.25184 -2.72644,2.55026 -5.42644,4.63684 -6,4.63684 -2.31069,0 -0.81773,2.07419 2.83383,3.93708 7.74877,3.95313 6.83694,5.93999 -11.42475,24.89448 -25.07049,26.02158 -50.88238,46.05636 -75.67639,58.7388 l -10.89784,5.57439 3.75276,4.67762 C 463.34384,576.42253 479.54222,592 483.01092,592 c 1.11051,0 12.33182,-8.38272 19.51602,-14.57916 5.4904,-4.73552 6.1367,-5.72009 7.25991,-11.05957 3.13226,-14.89013 13.89383,-22.70806 21.93932,-15.93823 2.53255,2.131 3.59643,2.36444 8.82673,1.93681 4.8113,-0.39337 6.56015,-0.0996 9.15708,1.53792 7.01164,4.42141 10.9907,15.11483 9.71275,26.10223 -0.89163,7.66586 -3.42323,12.95271 -8.00594,16.7191 -6.30219,5.1796 -8.19072,7.22873 -16.38735,17.7809 -14.48165,18.64337 -27.84186,30.28408 -39.01788,33.99616 -6.17084,2.04962 -18.17692,2.07671 -23.88729,0.0539 C 469.71762,647.69752 467.42773,647 467.03562,647 c -0.39212,0 0.12209,3.85064 1.14267,8.55697 6.22517,28.70691 8.38375,63.57826 5.47473,88.44303 -2.38605,20.39469 -4.15283,28.63585 -15.6501,73 -3.46743,13.37965 -6.99776,30.28452 -6.99598,33.5 3.1e-4,0.55 2.06015,1.84708 4.57743,2.8824 6.42512,2.64256 9.99879,5.95925 11.96317,11.1029 3.05821,8.00782 0.14526,16.03272 -7.09132,19.53589 -9.54093,4.61869 -36.66934,3.4427 -48.08707,-2.08453 -3.52028,-1.70414 -5.04526,-3.21088 -6.43924,-6.36221 -1.75917,-3.97689 -4.01559,-22.10824 -7.13057,-57.29731 l -1.17051,-13.22286 -14.06441,0.61188 c -7.73543,0.33654 -14.21376,0.73616 -14.39629,0.88806 -0.18252,0.1519 -2.74839,9.82131 -5.70192,21.48759 C 358.07536,849.33534 355.83316,863 357.73,863 c 1.92514,0 10.38175,8.29873 12.31181,12.08195 2.42104,4.74564 2.51811,11.1616 0.22752,15.03926 -0.95187,1.61138 -3.96523,4.04332 -6.69635,5.40429 -4.30973,2.14763 -6.22765,2.46003 -14.51932,2.36493 -5.25451,-0.0603 -11.54483,-0.50022 -13.97847,-0.97769 z M 360,888.24845 c 2.91954,-1.45848 3.55072,-2.3578 3.80584,-5.42261 0.31758,-3.81513 -0.85193,-5.30325 -11.90245,-15.145 -3.11917,-2.77797 -3.15579,-2.91674 -2.50656,-9.5 0.36236,-3.67446 0.93472,-8.21433 1.2719,-10.0886 l 0.61304,-3.40776 -6.89088,0.65065 c -3.78999,0.35786 -12.62839,0.65385 -19.64089,0.65776 L 312,846 v 4.42764 c 0,6.76565 1.92365,19.11449 4.04996,25.99869 1.65512,5.35867 2.44512,6.48364 5.92742,8.4408 8.54042,4.79998 31.1567,6.81123 38.02262,3.38132 z m 92.11351,-10.2594 C 458.15318,876.85551 460,875.08858 460,870.44373 c 0,-4.71842 -3.28958,-8.18134 -9.48185,-9.98148 -7.80049,-2.26766 -8.11773,-2.91403 -6.7497,-13.75219 0.63337,-5.01785 1.05707,-9.18303 0.94156,-9.25595 -0.1155,-0.0729 -4.93501,0.43569 -10.71001,1.13025 -5.775,0.69455 -13.778,1.29721 -17.78444,1.33923 l -7.28445,0.0764 0.53002,4.75 c 0.29151,2.6125 0.99055,9.025 1.55344,14.25 1.23829,11.49449 2.33729,14.49722 5.82122,15.90491 9.18265,3.71029 24.70912,5.06768 35.27772,3.08414 z M 353.38952,836.25 c 0.28836,-0.9625 2.36547,-9.4 4.6158,-18.75 2.58748,-10.75084 4.69537,-17.4595 5.73422,-18.25 1.04569,-0.7957 5.07341,-1.25 11.08226,-1.25 10.93773,0 26.89692,-2.32285 34.91691,-5.08213 6.54405,-2.25148 9.26129,-2.42523 9.26129,-0.59218 0,2.04329 -4.01948,5.35304 -9.38131,7.72483 l -4.85639,2.14822 0.57009,4.65063 c 0.31355,2.55785 1.1216,9.54535 1.79568,15.5278 l 1.22558,10.87716 7.07318,-0.61979 c 16.08693,-1.40962 29.4961,-2.97138 30.34575,-3.53435 1.39103,-0.92168 15.82194,-59.86316 18.38712,-75.10019 3.02942,-17.99464 3.29234,-56.30703 0.5044,-73.5 -2.8091,-17.32344 -6.57558,-36.87814 -9.80212,-50.8904 C 451.82252,616.40979 451.76728,614 454.50415,614 c 1.73347,0 4.01129,4.74869 7.55376,15.7477 2.24103,6.9582 2.45188,7.22859 7.37454,9.45764 4.0801,1.84753 6.82126,2.29466 14.06755,2.29466 7.76295,0 9.7588,-0.37267 14.52057,-2.7113 C 503.23603,636.22725 519,622.83416 519,620.96455 c 0,-0.47766 -1.94914,-2.20952 -4.33143,-3.84857 -5.91257,-4.06796 -11.69256,-12.76627 -13.64988,-20.54172 l -1.59951,-6.35407 -7.28442,4.8899 C 488.12832,597.79954 484.07211,600 483.12095,600 c -2.34754,0 -10.31017,-5.15746 -17.15735,-11.11296 -3.10222,-2.69822 -10.02608,-10.23253 -15.38637,-16.74291 l -9.74597,-11.83704 -6.94723,2.59645 c -5.0967,1.90484 -6.8139,2.99601 -6.4467,4.09646 0.27529,0.825 4.07673,12.075 8.44764,25 11.33724,33.52477 16.21955,57.4874 18.05588,88.61925 1.59996,27.12466 -1.47779,48.71072 -9.17944,64.38075 -9.83561,20.01186 -30.75605,33.53042 -53.76586,34.74291 -17.14297,0.90334 -28.27708,-3.15925 -38.85838,-14.17858 -8.29152,-8.63476 -11.58953,-15.79564 -15.56018,-33.78547 -0.33033,-1.49662 -1.47129,-3.18711 -2.53546,-3.75663 -1.06417,-0.56953 -3.95303,-3.65828 -6.4197,-6.8639 -4.34188,-5.6426 -4.8616,-5.97229 -16.30334,-10.34215 -6.50017,-2.48256 -12.55657,-4.83597 -13.45867,-5.22981 -1.4166,-0.61845 -1.74154,0.41737 -2.3838,7.59878 -1.09661,12.26182 -0.85704,33.91115 0.50144,45.31485 0.6552,5.5 3.35838,20.35 6.00707,33 2.6487,12.65 5.54815,27.05 6.44324,32 0.89508,4.95 1.87576,10.2375 2.17928,11.75 l 0.55186,2.75 h 20.85316 c 18.99375,0 20.8999,-0.15604 21.37745,-1.75 z M 253,807.02763 c 4.125,-1.19334 11.20236,-3.90379 15.72746,-6.02323 C 278.26067,796.53928 292,787.35087 292,785.44048 c 0,-0.72035 -0.636,-4.37665 -1.41333,-8.1251 -0.77733,-3.74846 -1.72975,-9.85288 -2.11649,-13.56538 L 287.76701,757 H 284.565 c -4.51927,0 -13.27876,-2.71618 -18.5019,-5.73715 -10.30461,-5.96 -17.85073,-15.34952 -22.31227,-27.76285 -3.31418,-9.22102 -4.38132,-14.92534 -6.26187,-33.47242 -0.86284,-8.50982 -2.45194,-19.5188 -3.53133,-24.46438 -2.2122,-10.13597 -3.20497,-11.36501 -13.36735,-16.54872 -7.9001,-4.02975 -9.59028,-3.96366 -9.59028,0.37496 0,4.62013 -4.32115,20.92556 -6.37709,24.06332 -0.91796,1.40098 -2.31663,2.54724 -3.10816,2.54724 -0.79153,0 -4.20474,-2.46769 -7.5849,-5.48375 -3.38017,-3.01606 -8.35615,-7.07176 -11.05774,-9.01266 l -4.91198,-3.52891 -0.87227,2.29422 c -1.76666,4.64668 -5.24415,11.41135 -9.372,18.2311 -3.60479,5.9556 -4.69401,7.04479 -7.30041,7.30023 -2.57139,0.25201 -4.17828,-0.73191 -10.00384,-6.12549 -3.81721,-3.53415 -7.57245,-7.60675 -8.34497,-9.05023 C 141.29411,669.18103 140.35904,668 139.98871,668 c -0.70865,0 -4.95617,8.90663 -12.09142,25.35452 l -4.27498,9.85452 1.18875,10.64548 c 3.15826,28.28288 13.70487,51.17596 31.62424,68.64548 12.33137,12.02179 28.71533,20.84993 46.0647,24.82095 3.85,0.88121 7.9,1.82044 9,2.08719 1.1,0.26674 9.2,0.32843 18,0.13709 12.68941,-0.27592 17.55184,-0.79684 23.5,-2.5176 z M 406.13504,770.72687 C 435.46928,759.44994 448,736.70508 448,694.73663 c 0,-32.89083 -5.55601,-63.08118 -19.69519,-107.02011 -5.44949,-16.93485 -6.97653,-20.66886 -8.24638,-20.16455 -0.85714,0.34041 -4.93343,1.57179 -9.05843,2.73641 -6.31544,1.78305 -10.26398,2.12208 -25,2.14654 -15.75699,0.0261 -18.68244,-0.25078 -29.37178,-2.78043 -6.52949,-1.5452 -17.18158,-4.50993 -23.67132,-6.58828 l -11.79952,-3.77881 -5.93625,6.1063 c -17.74927,18.25775 -37.89269,50.12066 -45.26877,71.6063 -4.53883,13.22105 -3.42962,28.13674 2.9371,39.49558 2.94966,5.26247 10.31399,11.8382 19.26929,17.20588 8.36722,5.01519 8.54302,5.02324 9.31961,0.42661 1.72573,-10.21452 10.94806,-23.7339 19.01252,-27.87122 l 3.58764,-1.84057 -8.45087,-5.79961 c -10.45427,-7.17448 -13.46263,-10.18169 -11.82442,-11.8199 0.90233,-0.90233 2.0027,-0.78287 4.71854,0.51222 2.69978,1.28744 3.64422,1.39204 3.97266,0.43999 3.17985,-9.21735 6.12987,-16.01506 9.00171,-20.74263 4.32327,-7.11686 5.83894,-8.51245 7.31428,-6.73478 0.9687,1.16721 -3.46318,12.63323 -10.81596,27.98266 -0.72564,1.51482 -1.13374,2.9154 -0.9069,3.1124 0.22684,0.197 4.79575,3.10263 10.15313,6.45696 11.15383,6.98358 9.86531,7.73185 11.75011,-6.82359 1.7935,-13.85044 6.83891,-42.09023 8.54229,-47.8123 1.19904,-4.02789 1.99067,-5.22753 3.27415,-4.96169 2.05946,0.42657 2.2831,-1.80521 -3.18396,31.77399 -6.24316,38.34604 -6.15295,36.33103 -1.73824,38.82876 6.58621,3.72631 16.69731,12.83502 20.34097,18.32442 13.89901,20.93975 4.08412,45.04682 -18.34024,45.04682 -5.85074,0 -5.87114,0.0103 -5.22381,2.65 2.67635,10.91355 7.25022,19.92967 13.61099,26.83029 8.50789,9.22997 17.45962,12.5031 32.72705,11.9664 8.23078,-0.28935 11.93394,-0.92036 17.13504,-2.91982 z m -53.03426,-46.86539 c 7.06101,-2.36499 11.90586,-9.52528 11.88945,-17.57164 -0.0144,-7.0436 -3.8814,-14.44954 -11.31719,-21.67409 -5.3707,-5.21813 -18.64325,-14.23182 -23.70172,-16.0964 -0.9379,-0.34571 -4.10173,1.5589 -8.18651,4.92821 -5.56392,4.58938 -7.32551,6.85219 -10.72148,13.77206 -6.24646,12.72826 -6.34314,12.41986 5.27935,16.84028 10.04937,3.82212 13.59961,6.36332 18.23519,13.05247 2.6891,3.88037 9.30235,7.88544 13.02291,7.88684 1.15542,4.4e-4 3.63042,-0.51155 5.5,-1.13773 z M 136.29222,659.17244 c 3.00987,-2.49797 5.99195,-0.91073 11.19006,5.956 2.75975,3.64564 6.63463,8.01778 8.61086,9.71587 l 3.59314,3.08743 4.56988,-9.21587 c 2.51344,-5.06873 5.33354,-11.38558 6.26691,-14.03745 1.08571,-3.08474 2.54902,-5.20978 4.06225,-5.89925 2.75398,-1.2548 5.51324,0.31876 16.79183,9.57613 3.78244,3.10458 7.21064,5.6447 7.61823,5.6447 1.18453,0 3.83824,-10.85604 4.5793,-18.73344 0.38739,-4.11793 1.26687,-7.72009 2.04194,-8.36334 1.86157,-1.54497 6.60691,-0.50737 14.27536,3.12141 3.51559,1.66361 6.60316,2.81356 6.86127,2.55545 0.99336,-0.99335 -9.03873,-18.15827 -15.2963,-26.172 -17.32084,-22.18184 -42.34404,-36.71606 -72.167,-41.91675 C 131.40641,573.11656 121,572.48376 121,573.37916 c 0,0.20853 1.12496,2.83639 2.49991,5.83967 5.56299,12.15117 6.80383,19.61598 6.862,41.28117 0.0456,16.98809 -0.35409,22.61027 -2.65411,37.33299 -3.71261,23.76494 -3.61424,24.34327 2.13946,12.57756 2.666,-5.45168 5.56623,-10.50883 6.44496,-11.23811 z M 526.9682,611.70951 c 0.0175,-0.43477 -0.94873,-2.11674 -2.14717,-3.7377 -2.85762,-3.86514 -1.67901,-4.9207 1.71012,-1.53157 1.9739,1.97391 2.98178,2.37896 3.94022,1.58352 1.69067,-1.40313 6.94066,-8.99312 6.42718,-9.29187 -0.2192,-0.12754 -2.19855,-1.18268 -4.39855,-2.34476 -2.5769,-1.36117 -5.10671,-3.93081 -7.11069,-7.22264 -1.71089,-2.81038 -3.39199,-4.82848 -3.73578,-4.48468 -0.3438,0.34379 -0.90682,2.74886 -1.25115,5.34459 -0.66884,5.04194 -1.88252,7.82879 -2.94622,6.76509 -0.56664,-0.56664 1.42152,-12.00074 4.65815,-26.78949 0.54168,-2.475 2.36913,-6.45235 4.06101,-8.83855 2.83157,-3.99362 2.94775,-4.46695 1.46131,-5.95339 -1.48644,-1.48645 -1.83434,-1.4525 -4.37573,0.42701 -3.65116,2.70024 -5.86068,7.41557 -7.25349,15.47968 -1.06048,6.13997 -1.46063,6.85312 -5.57495,9.93585 -3.81905,2.8615 -4.4267,3.81435 -4.39087,6.88525 0.0951,8.14615 6.49687,19.54408 14.05059,25.01596 3.9135,2.83493 4.2832,2.92156 5.51933,1.29332 0.72869,-0.95982 1.33919,-2.10085 1.35669,-2.53562 z m 20.91493,-20.3402 c 3.41728,-2.39356 5.11687,-7.4175 5.11687,-15.1253 0,-12.04156 -5.53493,-19.38496 -12.99778,-17.24465 -8.47743,2.4313 -13.0421,11.55593 -10.56267,21.1144 1.52781,5.88985 3.72068,8.55348 9.06045,11.00551 4.95554,2.27559 6.43496,2.31502 9.38313,0.25004 z M 410,561.7147 c 29.21171,-7.63598 60.25389,-23.38564 86.16057,-43.7147 9.75783,-7.65701 43.84739,-40.92318 43.84268,-42.78373 -0.002,-0.70604 -1.5947,-2.2227 -3.5398,-3.37034 -3.80377,-2.24428 -6.78478,-6.84499 -5.91084,-9.12244 0.29616,-0.77176 3.46669,-2.92024 7.04563,-4.77438 3.57894,-1.85415 6.96269,-3.92006 7.51945,-4.59092 0.73087,-0.88065 -0.70616,-3.25447 -5.16922,-8.53896 -5.49414,-6.50536 -18.71631,-25.85626 -26.12168,-38.22959 -2.27607,-3.80299 -3.45438,-4.69853 -7.9315,-6.02809 -15.95961,-4.7395 -34.09416,2.10997 -49.44259,18.6746 -13.37776,14.43781 -22.12682,35.88387 -25.44451,62.37067 l -1.1407,9.10682 3.06625,3.06626 c 3.5338,3.53379 3.71918,5.19144 1.19892,10.7201 -2.50134,5.48715 -6.51748,10.02628 -11.19917,12.65753 -3.71144,2.08595 -3.93349,2.4776 -3.93349,6.93772 0,4.05075 0.44014,5.09732 3.07673,7.31586 2.21608,1.86471 4.22454,2.58889 7.18011,2.58889 3.59797,0 4.6391,-0.57527 8.45277,-4.67051 2.97268,-3.19217 4.67409,-4.34579 5.37524,-3.64464 3.08351,3.08351 -5.12326,13.66893 -11.52907,14.87066 -5.03071,0.94377 -10.0056,-0.22169 -13.50095,-3.16283 l -3.00405,-2.52774 -3.77539,3.02787 c -8.01871,6.43101 -17.27048,7.44617 -25.5748,2.80624 -6.22025,-3.47549 -10.04646,-11.86162 -6.10244,-13.37509 1.08154,-0.41502 2.77863,0.75583 5.25,3.62206 2.72822,3.16411 4.66353,4.41613 7.65185,4.95021 9.97964,1.78359 17.46163,-3.12488 18.95629,-12.43604 0.62174,-3.87323 0.50382,-4.10879 -2.85988,-5.71282 -4.90648,-2.33974 -11.08548,-8.1509 -13.03484,-12.25886 -0.9042,-1.90547 -1.5663,-5.1574 -1.47132,-7.2265 0.12182,-2.65382 -1.31843,-7.02826 -4.88925,-14.85007 -18.32184,-40.13362 -44.19837,-64.677 -76.98015,-73.01417 -23.82307,-6.05875 -43.66308,-3.57642 -68.84467,8.61366 -10.9505,5.301 -11.31254,5.62091 -23.18644,20.48857 -4.39252,5.5 -10.05715,12.1454 -12.58807,14.76756 -2.53092,2.62216 -4.60167,5.14788 -4.60167,5.61272 0,1.17221 11.49453,6.58176 17.231,8.10925 9.18476,2.44569 8.95641,6.63493 -0.73876,13.55326 -3.57073,2.54802 -6.49224,4.82035 -6.49224,5.04963 0,0.7066 23.93366,18.31551 34.5,25.38297 11.42667,7.6429 32.68848,20.1349 43,25.26388 22.07472,10.98003 63.26924,24.50952 82.5,27.09542 8.74445,1.17583 27.58174,-0.15804 37,-2.61999 z m -72.99583,-70.55668 c -6.02778,-6.02778 -6.35995,-17.66288 -0.67828,-23.75822 4.06548,-4.36147 8.1038,-5.14374 12.48225,-2.41795 8.10844,5.04788 9.44972,18.96446 2.52446,26.19287 -3.8498,4.01834 -10.30091,4.01081 -14.32843,-0.0167 z m 129.50951,-7.32592 c -7.69091,-6.04967 -7.28803,-21.3232 0.71726,-27.19204 3.83875,-2.81426 9.35331,-1.40262 12.43514,3.1832 8.61627,12.82119 -2.22237,32.60641 -13.1524,24.00884 z m -42.82028,22.68914 c 2.91863,-3.01332 5.3066,-5.94946 5.3066,-6.52475 0,-3.58145 -23.29023,-4.03959 -26.80259,-0.52723 -1.15643,1.15642 2.24363,5.88401 6.64745,9.24292 6.16434,4.7017 8.50735,4.35598 14.84854,-2.19094 z m -8.29627,-16.63123 7.50269,-0.0392 0.4811,-4.17541 c 0.26461,-2.29648 0.97095,-8.34257 1.56966,-13.43575 1.77204,-15.07465 9.17267,-35.64065 16.94239,-47.08206 11.73287,-17.27742 28.15835,-29.39245 44.48094,-32.80806 6.55222,-1.37109 10.86499,-1.30991 18.87609,0.26778 2.64508,0.52092 2.75,0.38332 2.75,-3.60665 0,-2.28153 1.10592,-8.51106 2.4576,-13.8434 7.30925,-28.83482 7.44951,-55.09586 0.44097,-82.56032 C 508.86685,284.64524 503.67,273 502.14869,273 c -2.65826,0 -26.05039,13.01873 -33.64869,18.72694 -8.37712,6.29331 -25.77232,22.81949 -36.8647,35.02306 -2.62458,2.8875 -5.32651,5.25 -6.00429,5.25 -0.67778,0 -5.25953,-0.92946 -10.18167,-2.06548 -11.42646,-2.63718 -35.47652,-3.651 -47.77761,-2.01403 -4.84949,0.64535 -13.93533,2.50225 -20.19075,4.12644 C 341.22556,333.67112 335.88029,335 335.6026,335 c -0.2777,0 -9.63939,-9.12384 -20.80375,-20.2752 -12.23333,-12.21907 -23.65591,-22.64623 -28.7477,-26.24248 C 276.45796,281.70681 259.75901,273 256.35732,273 c -4.92147,0 -12.671,19.64619 -16.36987,41.5 -1.88831,11.15655 -2.13555,15.62337 -1.74354,31.5 0.39301,15.91703 0.91056,20.6562 3.7068,33.94333 3.58148,17.01837 3.51306,18.24399 -1.58018,28.30667 -1.32232,2.6125 -2.15881,4.75 -1.85886,4.75 0.29995,0 3.12003,-1.29268 6.26685,-2.87263 14.63403,-7.34742 28.82755,-10.59939 45.72148,-10.47555 10.55821,0.0774 14.83648,0.57911 22.77735,2.67108 11.68041,3.07712 26.06916,9.701 35.41888,16.3051 19.21638,13.57335 37.58678,38.09263 49.62094,66.22988 2.71249,6.34211 2.72773,6.35628 6.14825,5.71459 1.88596,-0.35381 6.80523,-0.66092 10.93171,-0.68246 z M 260.61947,375.71037 c -5.78672,-5.78671 -8.4573,-44.83341 -4.22067,-61.71037 2.05588,-8.18974 4.57622,-13.90445 7.03059,-15.9414 6.42444,-5.33181 33.79551,17.17156 45.44184,37.36041 3.27378,5.67508 2.36065,7.48218 -6.25884,12.3863 -10.37446,5.90262 -18.51045,12.06699 -28.8128,21.83052 -4.85418,4.60029 -9.29034,8.36417 -9.85814,8.36417 -0.5678,0 -2.06269,-1.03033 -3.32198,-2.28963 z M 283,352.73164 c 2.475,-1.85746 8.20617,-5.64539 12.73592,-8.41763 l 8.23593,-5.04044 -4.86185,-6.88678 c -2.67401,-3.78774 -7.69386,-9.70348 -11.15523,-13.1461 -7.62983,-7.58852 -19.6053,-16.00278 -20.88844,-14.67674 -3.95999,4.09242 -6.51511,38.10133 -4.10233,54.60244 0.66876,4.57364 1.44353,8.68399 1.72172,9.13411 0.27819,0.45012 3.50021,-2.10887 7.16004,-5.68664 3.65983,-3.57777 8.67924,-8.02477 11.15424,-9.88222 z m 200.57871,11.81165 c -9.78034,-9.28566 -17.18342,-14.76076 -27.79391,-20.55557 -4.66354,-2.54694 -8.40824,-5.27091 -8.59757,-6.25405 -1.12402,-5.83656 24.41264,-33.94987 36.03599,-39.67203 8.15561,-4.01499 10.75998,-3.68387 13.11025,1.66686 3.49687,7.96113 4.91881,17.4 4.93697,32.7715 0.0239,20.21864 -2.70916,36.08987 -6.67014,38.73469 -2.09832,1.40108 -3.20684,0.72808 -11.02159,-6.6914 z M 494.41811,333 c 0.0646,-13.01378 -0.31062,-18.03183 -1.77583,-23.75 -1.02174,-3.9875 -2.37174,-7.24567 -3,-7.24039 -3.87714,0.0326 -24.6584,19.33966 -31.46528,29.23313 l -3.15646,4.58776 7.38312,4.05209 c 7.84199,4.30393 19.80171,13.4394 25.59634,19.55184 l 3.5,3.69195 1.41811,-6.81319 c 0.86377,-4.14992 1.45012,-13.26303 1.5,-23.31319 z m 90.53384,355.7466 c -1.8391,-1.23937 -4.15384,-3.64035 -5.14387,-5.33552 -1.69684,-2.90539 -1.83847,-10.15028 -2.46989,-126.34532 l -0.66983,-123.26319 -2.25035,6.21489 c -1.2377,3.41819 -2.79759,6.72511 -3.46642,7.34872 -1.96215,1.82945 -0.3517,-4.80445 2.99108,-12.3211 1.78371,-4.0109 3.09367,-8.93968 3.38326,-12.72965 0.59887,-7.83786 3.80199,-13.72597 9.16332,-16.84442 4.40452,-2.56192 15.50739,-4.84207 68.01075,-13.96708 17.6,-3.05886 38.975,-6.87727 47.5,-8.48537 37.32954,-7.04157 72.09282,-13.01742 75.6471,-13.00382 5.15854,0.0197 8.32329,1.77457 10.79816,5.9875 2.04035,3.47327 2.05646,4.38997 2.30053,130.90654 0.16283,84.40516 -0.0992,128.68994 -0.7763,131.20453 -1.36349,5.06361 -5.10177,9.32234 -9.85118,11.22267 -2.13903,0.85587 -15.0782,4.03114 -28.75372,7.05616 C 682.8913,671.53839 656.49346,677.32309 635,681.89177 c -12.925,2.74735 -27.325,5.91747 -32,7.0447 -10.85736,2.61792 -13.92953,2.5856 -18.04805,-0.18987 z M 658,669.67818 c 33.825,-7.48217 72.75,-16.08447 86.5,-19.11622 13.75,-3.03175 27.475,-6.31096 30.5,-7.28712 9.81256,-3.1665 8.99666,8.08878 8.99845,-124.13325 L 784,403.78318 l -2.25,0.55353 c -1.2375,0.30444 -12.375,2.39133 -24.75,4.63754 -12.375,2.2462 -30.375,5.62154 -40,7.50075 -9.625,1.87922 -42.25,7.95768 -72.5,13.5077 -30.25,5.55003 -56.2375,10.33514 -57.75,10.63358 l -2.75,0.54263 v 87.25747 c 0,47.99161 0.29967,101.60097 0.66592,119.13192 0.66588,31.8722 0.66609,31.87462 3.05727,34.2658 1.81773,1.81773 3.15718,2.2806 5.58408,1.92968 1.756,-0.25391 30.86773,-6.58343 64.69273,-14.0656 z m -57.33333,-4.34485 c -1.10895,-1.10895 -0.74678,-9.16578 0.44513,-9.90243 1.46046,-0.90261 2.8537,1.39483 2.87289,4.73731 0.0264,4.60507 -1.50075,6.9824 -3.31802,5.16512 z m 27.24265,-12.44485 c -1.18196,-0.77702 -1.12865,-1.14166 0.33045,-2.26025 2.05853,-1.57813 39.50966,-9.90112 40.84334,-9.07687 1.53363,0.94784 1.0252,3.28222 -0.83311,3.82511 -0.9625,0.28118 -9.625,2.13903 -19.25,4.12856 -9.625,1.98952 -17.99081,3.77315 -18.59068,3.96362 -0.59988,0.19047 -1.72488,-0.0706 -2.5,-0.58017 z m -27.24265,-6.55515 C 600.3,645.96667 600,639.63367 600,632.26001 c 0,-12.22858 0.15378,-13.37736 1.75,-13.07329 1.41059,0.26871 1.81285,1.59207 2.07405,6.82332 0.39079,7.82642 -0.70212,20.98996 -1.7427,20.98996 -0.41141,0 -1.04802,-0.3 -1.41468,-0.66667 z M 637,631.51905 c 0,-1.82569 4.75991,-3.15914 6.18608,-1.73297 1.61494,1.61494 4.4e-4,3.21392 -3.2451,3.21392 C 638.01026,633 637,632.49128 637,631.51905 Z m 12.53618,-1.4605 c -1.03099,-1.66819 0.17966,-2.78985 3.54421,-3.28366 2.05805,-0.30205 3.28386,0.0108 3.63578,0.92784 0.67131,1.7494 0.46368,1.9181 -3.37097,2.739 -1.87467,0.40132 -3.42026,0.24583 -3.80902,-0.38318 z m 14.90997,-3.14568 c -1.32722,-2.14748 1.67076,-3.21195 20.07799,-7.12893 13.54658,-2.88265 18.98528,-3.67452 19.7799,-2.8799 0.71225,0.71225 0.75444,1.43748 0.12051,2.07141 C 703.68911,619.71089 668.00226,628 665.57142,628 c -0.24936,0 -0.75573,-0.48921 -1.12527,-1.08713 z m 45.74446,-11.00938 C 711.18789,612.85813 724,610.52895 724,613.39301 c 0,1.77209 -1.81196,2.44989 -8.71958,3.26174 -4.51361,0.53049 -5.46363,0.39026 -5.08981,-0.75126 z M 637,614.55902 c 0,-0.79254 0.36662,-1.66757 0.81472,-1.94451 C 638.85805,611.9697 670.67097,605 672.57086,605 c 1.62301,0 1.94274,2.56455 0.43583,3.49586 C 671.81998,609.22929 640.70449,616 638.52066,616 637.6843,616 637,615.35156 637,614.55902 Z m -36.33333,-2.22569 c -1.00027,-1.00027 -0.80303,-15.13102 0.22002,-15.7633 1.59667,-0.98679 2.78908,1.83488 3.02648,7.16175 0.32666,7.32939 -1.00102,10.84704 -3.2465,8.60155 z m 129.08333,0.0863 c -0.4125,-0.41414 -0.75,-1.10682 -0.75,-1.5393 0,-0.86062 6.45213,-2.86585 9.25,-2.87476 1.78416,-0.006 2.43805,2.45115 0.90462,3.39886 -1.62207,1.00249 -8.6605,1.76227 -9.40462,1.0152 z m -48.1085,-6.9115 c -0.31934,-0.83219 0.18113,-1.85784 1.14574,-2.34806 2.93207,-1.49009 30.05438,-6.6518 30.83743,-5.86874 1.56292,1.56291 -1.75098,2.90038 -14.22121,5.73956 -7.0969,1.6158 -13.86904,3.16666 -15.0492,3.44635 -1.33831,0.31716 -2.35911,-0.0475 -2.71276,-0.96911 z m -63.91308,-4.11305 C 616.63925,600.30592 617.95544,599 620.14235,599 c 1.17476,0 1.84965,0.52459 1.60812,1.25 -0.47547,1.428 -3.01588,2.15126 -4.02205,1.14509 z M 628,598.56739 c 0,-1.71157 -0.23748,-1.63813 17.79715,-5.50326 C 661.98126,589.59559 664,589.41558 664,591.44098 c 0,2.13698 -0.59984,2.33863 -16.59003,5.57725 C 630.73698,600.39515 628,600.61359 628,598.56739 Z m 91.01531,-1.18734 c 0.0363,-2.08744 1.81285,-3.32894 5.63906,-3.94077 4.24618,-0.67899 6.5724,0.73395 4.54546,2.76089 -1.31538,1.31538 -10.20479,2.34523 -10.18452,1.17988 z M 734,593.27267 c 0,-1.55247 1.12801,-2.20685 5.48491,-3.18188 5.33348,-1.19358 7.51509,-0.92272 7.51509,0.93304 0,1.41569 -3.06827,2.71404 -8.25,3.49102 -4.28935,0.64317 -4.75,0.5227 -4.75,-1.24218 z m -64.53488,-2.3291 c -0.77747,-1.25798 1.39425,-3.11419 3.03488,-2.59398 0.55,0.17439 1,0.94841 1,1.72005 0,1.76941 -3.07043,2.43444 -4.03488,0.87393 z M 600.68333,589.35 c -1.04366,-1.04367 -0.81377,-23.15135 0.24757,-23.80729 1.77869,-1.09929 2.30372,1.70518 2.2768,12.16142 -0.025,9.71202 -0.81476,13.35547 -2.52437,11.64587 z m 56.04509,-16.95491 C 655.63925,571.30592 656.95544,570 659.14235,570 c 1.17476,0 1.84965,0.52459 1.60812,1.25 -0.47547,1.428 -3.01588,2.15126 -4.02205,1.14509 z M 668,569.10446 c 0,-1.80071 4.51315,-3.08208 11.81607,-3.35483 7.03448,-0.26272 9.70166,1.06685 4.7804,2.383 C 678.77678,569.68905 668,570.3201 668,569.10446 Z m -32,-9.99605 c 0,-2.14856 -0.75569,-1.9187 18.76565,-5.708 11.26354,-2.18638 14.52364,-2.51112 15.49164,-1.54312 0.96799,0.96799 0.94086,1.40222 -0.12894,2.06339 -1.15004,0.71076 -31.18687,7.08198 -33.37835,7.08 -0.4125,-3.8e-4 -0.75,-0.8519 -0.75,-1.89227 z m -35.58286,-0.46374 c -1.00306,-2.61394 0.0486,-13.97461 1.33286,-14.39863 0.93094,-0.30737 1.25,1.65052 1.25,7.67063 0,4.8862 -0.40793,8.08333 -1.03138,8.08333 -0.56727,0 -1.26543,-0.6099 -1.55148,-1.35533 z m 76.96864,-7.08173 c -0.34807,-0.90706 -0.4043,-1.87776 -0.12495,-2.15711 0.27935,-0.27935 9.67244,-2.44832 20.87354,-4.81995 14.57554,-3.08609 20.89634,-4.0389 22.23229,-3.35134 3.70477,1.9067 -0.74621,3.57486 -19.36666,7.25836 -10.175,2.01282 -19.50831,3.89807 -20.74068,4.18945 -1.50775,0.35649 -2.4477,-0.01 -2.87354,-1.11941 z m -41.16199,-8.73915 C 634.72548,541.32548 636.45244,539 639.06343,539 c 2.69854,0 3.50649,2.1101 1.39822,3.6517 -2.25492,1.64884 -2.74136,1.66859 -4.23786,0.17209 z m 90.74983,-0.84009 c -1.11001,-0.68603 -1.11645,-1.10667 -0.0369,-2.40748 2.18386,-2.6314 7.05315,-1.66216 5.24727,1.04447 -1.0586,1.58661 -3.72148,2.28321 -5.2104,1.36301 z m -80.8108,-2.59066 c 0.45775,-2.3769 8.27934,-4.35088 10.08501,-2.54521 1.80144,1.80144 -0.41439,3.3039 -5.76142,3.90659 -4.19996,0.4734 -4.64966,0.3318 -4.32359,-1.36138 z m -45.52334,-0.0869 C 600.28777,538.95443 600,535.14167 600,530.83333 600,524.53704 600.29433,523 601.5,523 c 1.2074,0 1.5,1.549 1.5,7.94098 0,7.32083 -0.74935,9.97634 -2.36052,8.36517 z m 63.4824,-2.19612 c -0.75796,-0.48753 -1.07646,-1.37451 -0.70777,-1.97105 0.87194,-1.41083 8.38695,-3.4293 10.1907,-2.73713 1.9695,0.75576 1.73525,3.36763 -0.35481,3.95611 -4.57602,1.28842 -7.87205,1.55998 -9.12812,0.75207 z m 17.0644,-4.83877 c 0.47851,-2.48471 10.25948,-4.644 11.9282,-2.63332 1.49764,1.80455 0.91062,2.33581 -3.78526,3.42565 -6.13822,1.42458 -8.52515,1.19232 -8.14294,-0.79233 z M 701,528.47525 c 0,-2.0866 1.53947,-2.53973 25.31275,-7.45051 15.62585,-3.2278 21.09795,-4.01404 21.95714,-3.15485 2.3505,2.3505 -2.03162,3.97949 -21.59521,8.02772 C 704.80497,530.42304 701,530.80504 701,528.47525 Z m -82,-1.50663 c 0,-0.56727 0.5625,-1.17969 1.25,-1.36095 13.91861,-3.66964 15.75,-3.79158 15.75,-1.04865 0,1.07808 -1.37026,1.44098 -5.44098,1.44098 -2.99254,0 -5.7191,0.45 -6.05902,1 -0.81582,1.32002 -5.5,1.29329 -5.5,-0.0314 z m 24.17473,-4.63741 C 643.59864,520.13002 647.5,519.83127 647.5,522 c 0,0.825 -1.05253,1.64904 -2.33896,1.83121 -1.81382,0.25684 -2.25979,-0.0799 -1.98631,-1.5 z m 11.1611,-1.89843 c -0.90852,-2.36756 0.52465,-3.11646 7.93502,-4.1464 5.01722,-0.69733 7.02764,-0.63165 7.76233,0.2536 1.43668,1.73109 -0.60936,3.03172 -6.8324,4.34322 -6.98784,1.47267 -8.14964,1.41365 -8.86495,-0.45042 z m 100.00925,-1.97591 c -0.84706,-2.2074 0.0977,-2.7723 4.80039,-2.87032 5.41982,-0.11298 6.14358,1.96168 1.16649,3.34376 -4.95894,1.37704 -5.26614,1.35266 -5.96688,-0.47344 z m -77.16413,-3.15795 c 0.44821,-2.32737 24.18339,-7.33458 26.02722,-5.49075 2.00385,2.00385 -0.17959,3.00602 -11.2186,5.14924 -13.0775,2.53898 -15.24143,2.58889 -14.80862,0.34151 z M 600,503 c 0,-10.88889 0.24359,-13 1.5,-13 1.25641,0 1.5,2.11111 1.5,13 0,10.88889 -0.24359,13 -1.5,13 -1.25641,0 -1.5,-2.11111 -1.5,-13 z m 108.13112,7.65799 C 706.73088,508.9708 707.65695,508 710.66667,508 c 2.5749,0 2.96631,0.96702 1.13333,2.8 -1.54161,1.54161 -2.29583,1.51242 -3.66888,-0.14201 z M 618.5,510 c -0.83704,-1.35436 0.29243,-3 2.05902,-3 0.79254,0 1.44098,0.9 1.44098,2 0,2.07031 -2.41251,2.7596 -3.5,1 z m 8.94615,-2.08713 c -0.99849,-1.61558 0.772,-2.91173 4.89016,-3.58002 3.19818,-0.51899 3.66369,-0.33967 3.66369,1.41131 0,1.44654 -0.87136,2.18011 -3.125,2.63084 -4.19769,0.83954 -4.64807,0.8012 -5.42885,-0.46213 z m 14.73809,-3.63104 c 0.26464,-1.37416 3.93333,-2.46216 18.32332,-5.43404 9.89584,-2.04373 19.00494,-3.74555 20.24244,-3.78183 2.37006,-0.0695 3.11647,2.2805 1.11687,3.51632 C 680.581,499.37699 646.48705,506 643.68191,506 c -1.1903,0 -1.71306,-0.59973 -1.49767,-1.71817 z m 47.92934,-8.21164 c -1.94528,-1.20224 -0.61163,-2.80189 2.99672,-3.59442 3.27431,-0.71916 6.05985,0.81821 4.3397,2.39512 -1.53707,1.40908 -5.85491,2.11493 -7.33642,1.1993 z M 635,487.5 c 0,-0.825 0.14881,-1.5 0.33069,-1.5 0.18187,0 8.13306,-1.575 17.66931,-3.5 20.03378,-4.04405 22.28684,-4.22795 21.81553,-1.78064 -0.26548,1.37852 -3.60045,2.35718 -16.82332,4.93688 C 639.02017,489.35757 635,489.67995 635,487.5 Z m -34.51869,-3.68811 C 599.55091,481.3873 600.39702,469.5 601.5,469.5 c 1.34116,0 1.87239,13.52761 0.58191,14.81809 -0.68846,0.68846 -1.20483,0.52516 -1.6006,-0.5062 z m 81.89023,-4.28607 c -0.87937,-2.29158 -0.34891,-2.5718 7.81608,-4.12893 9.3442,-1.78202 11.81238,-1.76853 11.81238,0.0646 0,1.47126 -3.81185,2.81861 -11.5,4.0648 -2.2,0.35661 -4.78972,0.86511 -5.75493,1.13001 -1.02891,0.28238 -2.01084,-0.18528 -2.37353,-1.13045 z m -64.38896,-5.53658 c -0.68134,-0.4211 -0.9296,-1.26594 -0.55168,-1.87744 0.99523,-1.61032 5.5691,-1.38728 5.5691,0.27157 0,1.64631 -3.26246,2.69049 -5.01742,1.60587 z M 708,473.60699 C 708,471.92357 710.15457,471 714.08179,471 c 3.11928,0 3.65127,0.86694 1.71821,2.8 -1.7092,1.7092 -7.8,1.55848 -7.8,-0.19301 z m -78.55385,-1.69412 c -1.19435,-1.93251 1.20585,-3.10407 10.21784,-4.98744 11.594,-2.42297 14.58495,-2.46006 14.14783,-0.17543 -0.25903,1.35383 -2.70924,2.25131 -10.82333,3.96443 -12.2668,2.58989 -12.66083,2.62476 -13.54234,1.19844 z m 92.96236,-0.0609 c -0.39273,-0.63546 -0.005,-1.67365 0.86101,-2.3071 1.8413,-1.34639 29.62166,-6.98702 30.43005,-6.17863 1.10344,1.10344 -0.69277,3.63376 -2.57952,3.63376 -1.0685,0 -6.82012,1.12854 -12.78139,2.50786 -5.96126,1.37932 -11.82358,2.73097 -13.02737,3.00367 -1.2038,0.27269 -2.51005,-0.0241 -2.90278,-0.65956 z m -61.76428,-6.33672 c -0.82363,-2.14633 1.46671,-3.02749 14.14137,-5.44061 11.40959,-2.17227 13.2144,-2.10872 13.2144,0.46532 0,1.55677 -0.0946,1.5862 -14.36008,4.46811 -11.80635,2.38511 -12.26815,2.40314 -12.99569,0.50718 z m -60.00475,-3.2091 C 600.28777,461.95443 600,459.49167 600,456.83333 600,453.2037 600.37356,452 601.5,452 c 1.13094,0 1.5,1.21566 1.5,4.94098 0,4.66988 -0.93368,6.79201 -2.36052,5.36517 z M 693.25,460.33772 c -0.6875,-0.27741 -1.25,-0.90105 -1.25,-1.38587 0,-1.49163 3.51347,-2.87058 4.98958,-1.95829 1.14243,0.70606 1.15519,1.12707 0.0737,2.43022 -1.36763,1.64791 -1.76077,1.74213 -3.81325,0.91394 z M 616,456.47525 c 0,-2.05673 2.26366,-2.75311 17.83254,-5.48591 11.35487,-1.99312 13.46246,-2.13006 14.20836,-0.92316 0.49826,0.80619 0.49985,1.79307 0.004,2.28921 -0.90781,0.90781 -25.85619,5.62978 -29.79461,5.63922 -1.35192,0.003 -2.25,-0.60321 -2.25,-1.51936 z m 87,0.79079 c 0,-1.76116 2.31713,-2.99389 7.79922,-4.14924 7.50777,-1.58225 11.20078,-1.44774 11.20078,0.40795 0,2.06302 -3.75779,3.34584 -12.06186,4.11762 C 705.46258,458.05833 703,457.92476 703,457.26604 Z m 24.97853,-4.79191 c -1.65268,-1.99136 0.46205,-2.68197 18.03648,-5.89018 7.96675,-1.45433 15.23462,-2.87398 16.15083,-3.15477 2.14105,-0.65617 3.34005,1.25634 1.88601,3.00834 -0.61618,0.74245 -7.51742,2.53425 -15.33609,3.98177 -20.14331,3.72926 -19.40805,3.6564 -20.73723,2.05484 z m -74.03241,-1.50774 c -1.24021,-0.76676 -1.20798,-1.13226 0.22634,-2.56697 1.6784,-1.67885 4.82754,-1.3305 4.82754,0.53401 0,1.63002 -3.45662,3.02047 -5.05388,2.03296 z M 630.67759,425.94033 C 654.77992,421.50752 688.225,415.26295 705,412.06351 c 16.775,-3.19943 41.4125,-7.7768 54.75,-10.17193 L 784,397.53681 v -8.0459 c 0,-5.85516 -0.4488,-8.68665 -1.64829,-10.39916 -1.51582,-2.16413 -2.13868,-2.30588 -7.75,-1.76362 -3.35594,0.3243 -16.67671,2.60273 -29.60171,5.06317 -12.925,2.46044 -38.8,7.20053 -57.5,10.53353 -18.7,3.33301 -44.00846,7.85871 -56.24101,10.05713 -12.23256,2.19841 -25.50756,4.49874 -29.5,5.11185 -14.64966,2.24968 -17.74911,5.41912 -17.75525,18.15619 -0.003,6.04926 0.30955,7.75 1.42385,7.75 0.78517,0 21.14767,-3.62685 45.25,-8.05967 z m 107.91857,-28.24636 c -3.74977,-2.74189 0.23634,-9.54247 4.15384,-7.08673 2.36167,1.48045 2.71857,4.78133 0.73179,6.76811 -1.96494,1.96494 -2.57935,2.00501 -4.88563,0.31862 z m 14.05883,-3.52271 C 751.74474,393.16545 751,391.8852 751,391.32625 751,390.02075 754.32174,387 755.75731,387 c 1.53776,0 4.24269,2.86898 4.24269,4.5 0,1.71329 -2.73497,4.5 -4.41644,4.5 -0.70047,0 -2.01833,-0.82293 -2.92857,-1.82874 z m 13.30912,-3.23832 c -0.86054,-1.60793 -0.75218,-2.60745 0.48787,-4.5 0.87677,-1.33812 2.22661,-2.43294 2.99964,-2.43294 1.94581,0 4.54838,2.78742 4.54838,4.87143 0,4.16284 -6.07695,5.72182 -8.03589,2.06151 z M 568.30897,665.71918 c -3.46799,-3.88348 -6.54843,-8.81305 -5.90763,-9.45385 0.81745,-0.81745 5.65281,3.86346 7.87243,7.62098 2.14182,3.62581 0.77497,4.90088 -1.9648,1.83287 z M 547.03867,637.75 c -5.74008,-6.92622 -7.20361,-9.75 -5.05329,-9.75 1.13868,0 9.42568,10.18221 11.59764,14.25 2.67259,5.0054 -0.44121,2.86429 -6.54435,-4.5 z M 532,544.58291 C 532,542.22144 535.8567,534 536.96446,534 c 1.54946,0 1.26011,2.31028 -0.92892,7.41709 -1.89369,4.4178 -4.03554,6.09805 -4.03554,3.16582 z m 8.79013,-20.12612 c -0.34356,-0.34356 0.1919,-2.94938 1.18992,-5.79072 2.83799,-8.07974 3.14804,-8.66607 4.58258,-8.66607 1.12851,0 1.12565,0.63206 -0.0176,3.87224 -2.02914,5.75118 -5.04378,11.29573 -5.75495,10.58455 z m 8.89057,-25.16442 c -0.96158,-1.55585 4.80119,-14.76149 6.59223,-15.10642 2.28594,-0.44023 2.09752,1.05761 -1.09919,8.7379 -2.52821,6.0742 -4.3614,8.19956 -5.49304,6.36852 z M 560,473.48945 C 560,470.98462 564.27099,460 565.24491,460 c 1.27836,0 0.84695,2.69152 -1.31643,8.21298 C 561.55962,474.2589 560,476.35367 560,473.48945 Z"
       id="path1" />
  </g>
</svg>
