<?xml version="1.0" encoding="UTF-8" standalone="no"?>
<!-- Created with Inkscape (http://www.inkscape.org/) -->

<svg
   version="1.1"
   id="svg1"
   width="896"
   height="1200"
   viewBox="0 0 896 1200"
   xmlns="http://www.w3.org/2000/svg"
   xmlns:svg="http://www.w3.org/2000/svg">
  <defs
     id="defs1" />
  <g
     id="g1">
    <path
       style="fill:#ffffff;fill-opacity:1"
       d="m 320.2697,947.00745 c -10.33981,-2.19108 -20.13152,-8.99176 -22.23814,-15.44516 -0.5498,-1.68426 -1.69894,-8.46229 -2.55366,-15.06229 -0.85471,-6.6 -3.33689,-18.22886 -5.51596,-25.84191 -2.17907,-7.61306 -3.96445,-14.36306 -3.96752,-15 -0.003,-0.63695 -0.45684,-2.78266 -1.00839,-4.76825 l -1.00282,-3.61016 -3.7416,3.53841 C 260.85485,889.15203 230.58845,899.99582 202.5,898.67122 160.71775,896.70085 124.51746,871.49805 107.78141,832.72772 97.105658,807.99652 94.350756,781.95395 98.448281,744.5 c 2.336559,-21.35758 2.402069,-42.57955 0.163622,-53 -2.169627,-10.10006 -6.981907,-20.37874 -12.960448,-27.68255 -5.164533,-6.30937 -5.753946,-9.06264 -2.401455,-11.21769 8.34544,-5.36463 41.06106,-4.51075 59.75,1.55949 26.4618,8.59488 49.48816,27.95726 62.83993,52.84075 7.91717,14.75513 11.70858,27.57072 16.2714,55 3.92642,23.60357 6.33724,32.99151 10.95129,42.64516 7.47516,15.63978 19.38907,24.97924 33.28804,26.09492 3.55193,0.28511 8.10352,0.2097 10.11465,-0.16759 3.20829,-0.60188 3.61846,-1.00342 3.34564,-3.27521 -0.25097,-2.08978 -1.13619,-2.83167 -4.58916,-3.84608 -12.42806,-3.65112 -18.46705,-14.92587 -13.22913,-24.6987 l 1.99267,-3.71787 -7.60696,-8.26732 c -4.18383,-4.54702 -9.36217,-10.93485 -11.50742,-14.19518 -10.36668,-15.75513 -10.42236,-34.40566 -0.15327,-51.33993 8.42913,-13.90007 26.45392,-31.93645 43.40766,-43.43557 4.295,-2.91315 7.78948,-5.52163 7.76552,-5.79663 -0.024,-0.275 -4.88725,-2.87643 -10.80732,-5.78097 C 262.65051,655.21284 224,629.62727 224,625.78342 c 0,-1.09954 2.28777,-4.09341 5.14811,-6.73705 4.77383,-4.41215 5.71391,-7.04637 2.51466,-7.04637 -2.07213,0 -15.03575,-6.64117 -17.41277,-8.92044 -1.2375,-1.18661 -2.24932,-2.92744 -2.24849,-3.86852 8.4e-4,-0.94107 2.97679,-6.66104 6.61324,-12.71104 3.63645,-6.05 8.53233,-14.825 10.87974,-19.5 4.24203,-8.44825 12.75076,-33.55519 12.75388,-37.63319 9e-4,-1.17325 -2.28183,-7.47325 -5.07273,-14 -5.93454,-13.87841 -10.29329,-28.82195 -12.8375,-44.01208 -2.55794,-15.27212 -2.32718,-42.56876 0.4935,-58.37501 2.30746,-12.93027 6.40774,-26.9012 9.27773,-31.61206 4.32257,-7.09515 11.31322,-6.71858 28.50803,1.53565 18.30025,8.7849 37.67547,23.43329 56.06875,42.39008 l 11.18615,11.52886 7.81385,-2.46117 c 16.28753,-5.13017 24.21498,-6.46403 41.81385,-7.0355 13.059,-0.42406 19.10983,-0.18403 26.10101,1.03541 5.00555,0.87309 9.78507,1.84993 10.62116,2.17077 1.05705,0.40563 2.98032,-1.46291 6.31331,-6.13369 18.49338,-25.91614 44.11147,-50.02485 63.26319,-59.53579 14.22522,-7.06438 18.95856,-5.4733 25.69653,8.63772 13.85586,29.01766 17.28612,75.07703 8.52171,114.42407 -1.1093,4.98012 -2.01691,9.64412 -2.01691,10.36445 0,0.72034 1.4625,1.83874 3.25,2.48534 10.64376,3.85023 30.386,21.45327 37.58052,33.50843 16.23923,27.21049 18.41169,57.65595 6.20619,86.97489 -6.57022,15.78238 -20.38529,32.56122 -34.19804,41.5346 l -6.60635,4.29177 3.04555,8.01617 c 2.34666,6.17663 3.693,8.35097 5.86691,9.47515 3.24234,1.67668 4.69757,4.23074 7.81307,13.71268 1.94554,5.92119 2.48597,6.70636 4.23409,6.15153 3.49394,-1.10893 10.47412,2.39564 15.16653,7.61473 11.7534,13.07261 13.3787,33.38012 3.48938,43.59849 l -3.05079,3.15229 4.28971,12.99774 c 4.00738,12.1423 4.20853,13.26867 3.05636,17.11429 -2.73801,9.13864 -12.99799,15.85289 -22.50421,14.72702 -5.81559,-0.68877 -11.90263,-4.38457 -14.64288,-8.89056 -1.05924,-1.74178 -3.58409,-7.82104 -5.61077,-13.50948 -2.95633,-8.29772 -4.00126,-10.2198 -5.28508,-9.72148 -3.57915,1.38926 -18.01497,4.35074 -24.12772,4.94976 -8.54754,0.83761 -21.85867,-0.87208 -31.00193,-3.9819 C 460.94407,771.12049 457.57799,770 457.49036,770 c -0.0876,0 0.27862,2.8125 0.8139,6.25 0.53528,3.4375 0.99049,14.8 1.01156,25.25 0.054,26.7547 -3.56111,48.43098 -14.67625,88 -1.85397,6.6 -3.67829,14.1002 -4.05405,16.66711 -0.59959,4.0959 -0.44197,4.74368 1.28785,5.2927 3.09552,0.98248 8.88992,8.01808 10.19725,12.38156 1.71215,5.71466 0.50705,10.44424 -3.57427,14.02769 -4.40906,3.8712 -9.04535,5.12027 -18.99635,5.11781 -11.41179,-0.003 -20.08718,-1.59898 -27.04411,-4.97576 -7.09552,-3.44405 -9.8711,-7.51027 -10.92908,-16.01111 -1.40822,-11.315 -5.59068,-41.59387 -6.08445,-44.04826 l -0.51265,-2.54825 -15.21485,0.12355 -15.21486,0.12354 -4.85985,19.70194 -4.85986,19.70194 4.49474,3.95643 c 10.37615,9.13345 9.67996,20.38465 -1.61956,26.17397 -4.70409,2.41015 -19.85474,3.41846 -27.38577,1.82259 z m 25.45283,-9.68156 c 2.15864,-1.63647 2.73891,-2.85103 2.60442,-5.45119 -0.1687,-3.26131 -1.67341,-5.07924 -9.29162,-11.22577 -2.0159,-1.62648 -2.22789,-2.4758 -1.74716,-7 0.30091,-2.83191 0.84314,-5.89949 1.20496,-6.81685 0.59684,-1.51324 -1.04168,-1.6998 -17.66764,-2.01166 -10.07902,-0.18906 -18.46079,-0.27819 -18.62616,-0.19808 -0.55803,0.27035 2.96793,23.82178 3.79623,25.35667 3.56334,6.60309 13.46112,10.14329 27.22697,9.73844 8.05824,-0.23699 10.19798,-0.64637 12.5,-2.39156 z m 93.53776,-2.96053 c 6.38089,-1.2224 7.65367,-7.11589 2.74431,-12.70734 -1.64747,-1.87636 -4.35319,-3.97398 -6.01272,-4.66138 -3.76382,-1.55903 -4.52987,-4.3691 -3.28995,-12.06832 L 433.65666,899 l -2.57833,0.0128 c -4.26326,0.0212 -33.23668,2.81223 -33.66774,3.24328 -1.06534,1.06535 2.84464,23.45125 4.49651,25.74393 4.28492,5.94717 22.94094,9.12635 37.35319,6.36536 z M 341,897.41055 c 0,-2.99567 6.40633,-27.23918 7.48322,-28.31879 1.08027,-1.08301 5.28616,-1.45189 18.21074,-1.5972 14.03428,-0.15778 18.02898,-0.55212 24.22108,-2.391 6.52778,-1.93856 7.59114,-2.02595 8.88675,-0.73034 2.06975,2.06975 0.8671,4.34016 -3.36903,6.36024 -3.61882,1.72569 -3.62711,1.74439 -2.98972,6.74851 1.44961,11.38082 2.82306,17.51503 3.90961,17.46139 0.63104,-0.0312 9.4342,-0.82868 19.56258,-1.77228 l 18.41522,-1.71565 1.85876,-6.47771 c 16.50111,-57.50587 18.33527,-92.5798 7.26276,-138.88295 -2.55164,-10.67051 -2.52103,-13.47056 0.15854,-14.4988 3.60414,-1.38304 4.95903,1.09265 8.29589,15.15848 l 3.29573,13.89244 7.10461,2.76409 c 3.90753,1.52025 10.42664,3.3997 14.4869,4.17655 7.58834,1.45189 16.20636,1.88093 16.20636,0.80681 0,-0.33311 -0.75288,-3.37061 -1.67307,-6.75 -1.75855,-6.45829 -2.42292,-24.9508 -1.07111,-29.81432 0.69457,-2.49893 0.43789,-2.77123 -4.00685,-4.25055 -5.99359,-1.99482 -19.85226,-10.29745 -27.973,-16.75843 -3.42322,-2.72356 -10.65061,-9.69187 -16.06087,-15.48515 l -9.83684,-10.53323 -7.28706,2.17018 c -5.88793,1.7535 -7.18097,2.49245 -6.73452,3.84867 12.81035,38.91442 18.49582,70.18228 17.3064,95.17849 -1.04971,22.06046 -6.86127,38.13414 -17.98509,49.7434 -7.40321,7.72629 -13.23173,11.52622 -22.77986,14.85145 -30.08318,10.47677 -59.85358,-3.69723 -70.21447,-33.42984 -2.65616,-7.62239 -3.0738,-10.35316 -3.4709,-22.69493 -0.65343,-20.30833 2.91957,-41.60279 13.80773,-82.29167 C 339.30922,699.88848 342,689.26379 342,688.568 c 0,-0.74906 -3.56904,-2.20008 -8.75,-3.55737 -4.8125,-1.26077 -13.17631,-3.82394 -18.58625,-5.69594 l -9.83624,-3.40365 -4.4195,2.59 c -7.51193,4.40228 -23.47014,17.77246 -32.95773,27.61278 -10.55673,10.94921 -15.42218,17.42427 -19.18576,25.5329 -2.37662,5.12042 -2.71967,7.10533 -2.73988,15.85328 -0.021,9.09728 0.23649,10.4965 2.85249,15.5 1.58157,3.025 5.13127,8.29274 7.8882,11.70608 l 5.01262,6.20609 6.11103,-5.49149 c 5.01151,-4.50345 18.68666,-12.61256 24.58586,-14.57896 0.98576,-0.32859 0.22385,-2.13144 -2.75395,-6.51645 -4.56921,-6.72845 -5.72778,-10.07945 -4.26135,-12.32527 0.82711,-1.26672 1.31037,-1.29482 3.10733,-0.18071 1.17034,0.72561 2.22026,1.17561 2.33317,1 0.1129,-0.17561 1.04947,-1.66929 2.08126,-3.31929 2.34613,-3.75187 12.3836,-14.35733 14.82502,-15.66394 1.81102,-0.96923 4.69368,0.38941 4.69368,2.2122 0,0.44185 -3.825,5.42242 -8.5,11.06793 -4.675,5.64551 -8.49791,10.74139 -8.49536,11.32419 0.003,0.58279 2.90129,4.61687 6.44166,8.96462 3.54036,4.34775 8.13142,11.24323 10.20235,15.32329 3.37621,6.65167 3.80541,8.36662 4.15319,16.595 0.48138,11.38916 -1.7485,18.17659 -8.40323,25.57826 C 302.84988,819.96083 294.12275,825 289.90952,825 c -2.19424,0 -2.20843,0.10335 -1.56383,11.38949 1.02956,18.02631 6.38929,45.32841 11.55502,58.86051 l 1.04979,2.75 h 20.02475 C 331.98886,898 341,897.73475 341,897.41055 Z m -123.5,-7.51911 c 22.7746,-2.79095 42.8275,-11.84785 58.3208,-26.3406 l 6.35988,-5.94917 -0.63026,-5.55083 C 281.20378,848.99788 280.67841,844.7 280.38293,842.5 l -0.53723,-4 h -10.72734 c -10.4343,0 -10.9405,-0.10539 -18.53085,-3.858 -19.92633,-9.85145 -29.26682,-27.48576 -36.10231,-68.15913 -4.86538,-28.9506 -6.54518,-35.02936 -10.663,-38.5866 -5.77501,-4.98883 -13.58852,-9.89953 -16.76084,-10.534 L 184,716.75 l -0.006,8.375 c -0.008,12.61974 -2.34607,18.875 -7.05381,18.875 -1.0541,0 -5.85946,-2.26111 -10.67858,-5.02469 -4.81911,-2.76358 -9.41298,-4.89955 -10.20859,-4.7466 -0.96235,0.18501 -2.02067,3.19495 -3.16169,8.99211 -0.94333,4.7927 -2.24355,10.3151 -2.88938,12.272 -1.75169,5.30769 -5.68099,9.50718 -8.89548,9.50718 -3.37012,0 -10.33701,-4.42072 -15.55984,-9.87322 C 123.37293,752.85705 121.24145,751 120.81043,751 c -0.43102,0 -2.9983,4.6125 -5.70507,10.25 -2.70677,5.6375 -6.08779,11.95748 -7.51338,14.04441 -3.04898,4.46341 -3.23035,7.9246 -1.13741,21.70559 2.76084,18.17877 9.0986,36.05538 16.97649,47.88474 16.71016,25.09181 43.12967,41.69487 71.58987,44.98989 10.72967,1.24224 12.46879,1.24354 22.47907,0.0168 z m 172.77569,-44.46288 c 18.90646,-4.89915 31.04058,-17.7556 36.92971,-39.12808 1.85483,-6.73142 2.152,-10.47296 2.16834,-27.30048 0.0141,-14.50104 -0.42804,-21.80721 -1.72463,-28.5 -2.20024,-11.35723 -8.5714,-35.80252 -12.89948,-49.49355 l -3.31727,-10.49355 -3.96618,0.49355 c -8.10172,1.00817 -43.07358,0.42565 -49.8332,-0.83008 -3.77686,-0.70162 -7.07277,-1.06991 -7.32425,-0.81843 -0.84523,0.84523 -14.12496,53.98383 -17.40406,69.64206 -2.81461,13.44018 -3.25652,17.55982 -3.32532,31 -0.0694,13.5613 0.21219,16.43808 2.2515,23 5.25334,16.90374 14.15542,26.27185 30.14606,31.72418 7.9346,2.70547 19.46843,2.99256 28.29878,0.70438 z m -95.75855,-30.54162 c 5.07202,-2.38413 8.93228,-6.50077 11.61552,-12.38694 2.2845,-5.01148 2.44611,-15.60122 0.32999,-21.62427 C 304.33683,774.82506 298.85902,766 297.22912,766 c -3.19491,0 -18.28077,8.33288 -24.51388,13.54058 l -6.78476,5.6686 3.53476,4.3137 c 4.1971,5.12201 4.35195,6.71723 1.03476,10.65949 -3.69428,4.3904 -3.39807,9.03086 0.77988,12.21754 1.80394,1.37593 4.39144,2.9453 5.75,3.4875 4.36826,1.74336 12.65911,1.26903 17.48726,-1.00047 z m 260.93089,-21.85482 c 1.74758,-1.08007 3.81283,-3.15102 4.58943,-4.60212 1.30263,-2.43398 1.02666,-3.76303 -3.56273,-17.15758 -3.50422,-10.2274 -6.10802,-16.03462 -8.80863,-19.64582 -9.1944,-12.29453 -14.03733,-27.67711 -11.8104,-37.51335 0.8706,-3.84543 0.62478,-5.38789 -1.99213,-12.5 -1.64191,-4.46229 -3.2954,-8.40993 -3.67443,-8.77254 -0.63901,-0.61133 -22.35288,6.9897 -23.63763,8.27445 -0.31683,0.31683 3.29092,11.55803 8.01722,24.98045 4.7263,13.42241 11.7314,33.3961 15.56687,44.38598 3.83548,10.98987 7.69992,20.78417 8.58766,21.76511 3.61601,3.99565 10.9716,4.34108 16.72477,0.78542 z M 510.33339,765.9155 c 4.49163,-1.14647 8.2808,-2.19817 8.42037,-2.33709 0.13957,-0.13893 -2.39281,-7.85044 -5.6275,-17.13669 l -5.88127,-16.88409 -4.37249,0.31196 c -2.40488,0.17158 -4.52558,0.46169 -4.71267,0.64469 -0.18709,0.183 -0.586,4.79414 -0.88647,10.24699 -0.40836,7.4108 -0.1049,11.9122 1.20176,17.8265 1.77928,8.05348 2.23651,9.41223 3.16728,9.41223 0.28841,0 4.19935,-0.93802 8.69099,-2.0845 z M 116.76414,742.75 c 0.85021,-0.9625 2.19797,-1.75 2.99503,-1.75 0.79706,0 5.45979,3.6 10.36163,8 4.90184,4.4 9.37792,8 9.94685,8 1.5537,0 3.52911,-5.50648 5.38113,-15 3.51568,-18.02158 5.95991,-19.34958 21.18983,-11.51282 4.7962,2.46795 8.91766,4.28988 9.1588,4.04874 0.24114,-0.24114 0.66796,-5.52287 0.94849,-11.73718 0.28053,-6.21431 0.95757,-11.86124 1.50452,-12.54874 2.14416,-2.6951 13.91364,-0.37858 19.99958,3.93641 1.5125,1.07238 2.75,1.57223 2.75,1.11078 0,-0.46146 -1.98392,-4.2046 -4.40871,-8.3181 -19.02791,-32.2796 -55.95804,-51.83125 -93.55322,-49.52918 -5.754058,0.35233 -10.619935,0.79862 -10.813059,0.99175 -0.193124,0.19312 1.474083,2.76025 3.704905,5.70473 4.469594,5.89947 9.056824,17.55122 11.162644,28.35361 1.65112,8.46984 1.67448,30.07344 0.0519,48 -0.64716,7.15 -1.39685,15.475 -1.66598,18.5 l -0.48933,5.5 5.11458,-10 c 2.81301,-5.5 5.8102,-10.7875 6.66041,-11.75 z m 443.06105,5.96063 c 0.58855,-0.70915 1.51367,-3.26364 2.05584,-5.67665 2.50923,-11.16778 -5.06731,-27.73661 -13.9763,-30.56422 -3.10346,-0.985 -4.19044,0.77499 -4.19044,6.78496 0,8.70278 4.5123,20.51694 10.39544,27.21748 3.39929,3.87157 4.12439,4.15555 5.71546,2.23843 z M 504,721.1914 c 0,-0.44472 -1.35,-4.50768 -3,-9.02879 -3.34995,-9.17907 -3.69282,-12.72846 -1.52812,-15.81901 1.32751,-1.89528 1.19196,-2.92253 -1.3819,-10.4725 -1.92823,-5.65615 -3.29749,-8.26099 -4.22188,-8.0316 -5.628,1.39659 -20.6655,1.24792 -29.8963,-0.29558 l -10.35039,-1.73071 -6.0607,2.81303 c -3.33339,1.54717 -6.26203,2.95302 -6.50808,3.1241 -0.80292,0.55829 16.26282,17.3271 23.83304,23.41838 7.92754,6.37879 18.25515,12.06973 27.11433,14.9411 5.80694,1.88211 12,2.4403 12,1.08158 z m 12.33543,-32.73607 6.35647,-2.54467 -2.51814,-7.20533 c -1.38498,-3.96293 -2.63461,-7.36178 -2.77695,-7.553 -0.14235,-0.19121 -2.87736,0.61175 -6.07781,1.78437 -3.20045,1.17262 -6.3596,2.31904 -7.02033,2.54761 -0.88319,0.30552 -0.66234,2.08398 0.83396,6.71563 1.11941,3.46503 2.20839,6.86256 2.41995,7.55006 0.53791,1.74804 1.55786,1.59769 8.78285,-1.29467 z m -112.81954,-5.44028 c 10.73997,-1.132 26.05548,-4.9654 34.14718,-8.54686 l 5.83693,-2.58348 -7,-3.7027 c -10.00834,-5.29398 -15.07532,-9.01217 -22.76846,-16.70766 -16.15909,-16.16403 -25.3308,-36.6516 -26.40118,-58.97435 -0.52601,-10.97002 -0.5395,-11.01844 -4.94879,-17.76792 -5.64352,-8.63876 -17.11949,-20.73042 -25.03693,-26.3802 -22.84134,-16.29924 -53.09679,-19.79952 -80.33765,-9.29433 -9.98554,3.85083 -21.98252,11.34488 -30.15166,18.83458 -5.08575,4.66276 -7.70901,8.14672 -11.18132,14.84994 -2.49515,4.81686 -6.78211,12.48328 -9.52656,17.03649 l -4.98992,8.27855 2.40767,1.57757 c 3.53288,2.31483 13.61364,6.31413 15.9848,6.34158 2.85823,0.0331 4.45,1.92305 4.45,5.2836 0,2.07532 -1.42803,4.36979 -5.20554,8.36395 -3.03771,3.21193 -4.77815,5.7898 -4.17927,6.19014 0.56445,0.37733 7.06944,4.78316 14.45554,9.79074 53.59246,36.33427 106.22948,52.49237 154.44516,47.41036 z m -9.48427,-24.26599 C 390.04016,657.40992 381,649.12511 381,646.80628 c 0,-0.85876 0.67626,-2.12264 1.50281,-2.80861 1.25027,-1.03763 2.24328,-0.56466 5.90936,2.81461 5.34354,4.9255 10.96718,6.69534 17.11086,5.38502 4.38037,-0.93424 6.47697,-0.17429 6.47697,2.34771 0,4.02935 -10.89276,6.57792 -17.96838,4.20405 z M 342.51368,609.8321 C 338.81077,606.91939 337,602.21252 337,595.5 c 0,-9.91965 4.67997,-16.5 11.73486,-16.5 6.13908,0 12.23972,8.40185 12.25956,16.88398 0.0103,4.38275 -2.35165,10.3194 -5.26444,13.23219 -3.63234,3.63234 -9.13007,3.93016 -13.2163,0.71593 z M 499.5,668.02465 c 29.9582,-7.70095 53.04701,-30.28106 62.0962,-60.72806 2.17767,-7.32701 2.63861,-10.9684 2.75912,-21.79659 0.18252,-16.39998 -1.76121,-25.44092 -8.38467,-39 -13.71667,-28.0798 -39.27503,-44.70806 -71.02911,-46.21151 -42.76964,-2.02499 -79.52182,27.05924 -88.35331,69.91935 -8.74177,42.42468 17.07563,84.59812 59.64562,97.43281 12.52876,3.77737 29.48002,3.92782 43.26615,0.384 z m -38.27649,-10.98437 c -10.38125,-2.80115 -19.14007,-7.26415 -27.57827,-14.05233 -19.42216,-15.62433 -28.88345,-38.641 -26.58007,-64.66188 2.04628,-23.11636 16.91838,-45.69185 37.93483,-57.58416 33.40736,-18.90379 75.89498,-8.27418 96.91381,24.24603 9.62815,14.89663 13.28694,35.38041 9.6765,54.17409 -2.86758,14.9268 -9.03928,26.31256 -20.56069,37.93102 -8.62558,8.69825 -18.04288,14.6035 -29.52962,18.51698 -10.94953,3.73044 -29.33249,4.38324 -40.27649,1.43025 z m 38.61109,-9.30906 c 10.38722,-3.66744 17.49648,-8.17119 25.62136,-16.23122 8.08122,-8.01671 13.63508,-16.92871 16.82612,-27 1.86354,-5.88154 2.21144,-9.23692 2.17737,-21 -0.0365,-12.58869 -0.30087,-14.6796 -2.62282,-20.74155 -6.46278,-16.87246 -16.96959,-28.77195 -31.93173,-36.16429 -16.73593,-8.26871 -33.23559,-9.41308 -50.68043,-3.51504 -19.79224,6.69168 -37.16495,26.12631 -42.83672,47.92088 -2.17211,8.34662 -2.16184,22.50065 0.0225,31 1.90938,7.42955 7.41295,19.082 11.09928,23.5 l 2.50317,3 3.54084,-3.97119 c 2.84977,-3.19613 3.48284,-4.64939 3.24366,-7.44613 -0.27729,-3.2424 -0.6972,-3.62947 -6.27476,-5.78417 C 419.94889,607.2138 418.12464,603 426.92981,603 h 4.81177 l 0.68977,-7.25 c 2.44802,-25.73055 11.42572,-48.20613 24.60271,-61.59261 6.08974,-6.18656 11.35018,-9.06026 18.03433,-9.8519 5.81223,-0.68837 6.43998,0.59551 1.68161,3.43926 -20.09707,12.01066 -32.20103,33.8222 -36.31426,65.43894 l -1.54918,11.90792 3.05672,2.85541 c 2.67947,2.503 3.05672,3.52221 3.05672,8.25841 0,4.24219 -0.62212,6.384 -2.89567,9.96901 -1.59262,2.5113 -3.83756,5.22572 -4.98874,6.03205 l -2.09307,1.46604 2.23874,2.0933 c 3.4353,3.21213 13.48991,8.99646 19.6785,11.32087 8.6531,3.25008 12.72278,3.83385 24.56024,3.52302 8.76691,-0.23021 12.48899,-0.81456 18.3346,-2.8785 z m -32.65487,-1.50464 c -2.48999,-0.83 -0.97438,-2.14436 4.21092,-3.65177 13.64048,-3.96539 33.56504,-16.46769 44.16416,-27.7122 6.1599,-6.53498 12.78039,-16.1688 16.11119,-23.44424 1.36434,-2.9801 2.95488,-5.41837 3.53454,-5.41837 2.09463,0 0.0905,9.85481 -3.57302,17.56906 -6.57595,13.84708 -26.23803,30.91915 -44.24211,38.41427 -6.86164,2.8565 -17.6004,5.11167 -20.20568,4.24325 z m 3.76102,-47.92989 C 460.31368,589.3546 464.78045,568 477.27795,568 c 3.25879,0 4.58717,0.63754 7.28202,3.49491 12.14788,12.88051 -0.52495,37.81988 -13.61922,26.80178 z m 58.35367,-23.4965 C 528.72584,574.08508 527.69057,571.7 526.9938,569.5 c -3.25804,-10.28714 -10.93625,-20.82918 -18.63732,-25.5887 -3.48961,-2.1567 -4.32626,-4.32518 -2.01147,-5.21345 2.42302,-0.9298 9.20363,2.94603 14.60707,8.34947 5.73076,5.73075 9.32317,12.38642 11.19865,20.74775 1.00601,4.48506 0.95746,5.52531 -0.31742,6.80019 -1.22308,1.22308 -1.69883,1.26149 -2.53889,0.20493 z M 390.24654,561.74294 c 0.96059,-3.98362 3.56587,-11.03571 5.7895,-15.67132 12.10828,-25.24208 33.68366,-43.49147 60.66181,-51.31037 10.51804,-3.04838 37.41016,-3.30892 46.65964,-0.45207 3.22161,0.99505 6.0413,1.62536 6.26597,1.40069 1.28148,-1.28148 5.46263,-26.04805 6.43804,-38.13503 2.3274,-28.84024 -3.2694,-64.5147 -12.86306,-81.99024 -4.05664,-7.38947 -4.8137,-7.57313 -13.50699,-3.27667 -18.71988,9.25187 -39.51411,28.68205 -59.4599,55.55949 l -8.43578,11.36741 -4.64789,-0.52597 C 414.59155,438.41958 407.775,437.42175 402,436.49147 c -17.60833,-2.83649 -41.51863,-0.54592 -62.5,5.98742 -12.58133,3.91767 -11.74607,4.24542 -25.71305,-10.08966 C 300.04202,418.28206 290.55034,410.08965 278,401.501 c -10.67239,-7.3035 -27.52072,-15.456 -32.58227,-15.76578 -3.52571,-0.21578 -3.98766,0.0661 -5.58965,3.41123 -2.56554,5.35708 -5.57303,17.5899 -7.43265,30.23195 -1.25811,8.55282 -1.5109,15.39459 -1.09447,29.6216 0.74633,25.49814 3.38157,37.45998 14.41772,65.44481 l 5.49931,13.94482 -2.21206,8.05518 c -1.21663,4.43036 -2.45528,8.88903 -2.75255,9.90817 -0.40721,1.39603 0.61611,0.97011 4.14974,-1.72716 10.53234,-8.03952 26.55183,-15.17135 40.81918,-18.17258 9.05414,-1.9046 27.70579,-1.86158 36.9607,0.0853 8.08519,1.70077 19.92795,6.5164 28.60332,11.63098 6.83149,4.02752 22.81222,19.12755 27.39499,25.88525 1.82528,2.69153 3.54369,4.90213 3.81869,4.91243 0.275,0.0103 1.28594,-3.2406 2.24654,-7.22422 z M 260.38953,499.23469 c -3.0191,-1.99745 -8.17294,-17.94409 -10.86433,-33.61568 -2.84617,-16.57278 -1.45379,-43.70868 2.68825,-52.39118 2.67758,-5.61273 9.56556,-3.88633 24.20101,6.06572 C 287.31275,426.70435 311,449.6463 311,452.79089 c 0,2.22938 -2.24417,4.26001 -15.76548,14.26535 -7.24872,5.36384 -12.18169,10.39003 -28.16154,28.69376 -3.76607,4.31375 -4.69683,4.79904 -6.68345,3.48469 z m 18.07413,-27.1044 c 4.41999,-4.60334 11.53518,-10.83625 15.81154,-13.85091 l 7.7752,-5.48119 -3.45814,-3.82775 c -5.21262,-5.76975 -18.17933,-17.6023 -24.00853,-21.90859 C 270.13418,423.77478 259.96339,418 258.6236,418 c -0.2436,0 -1.03018,3.2625 -1.74798,7.25 -2.78472,15.46972 -0.88268,40.77519 4.3364,57.69318 l 1.98767,6.44318 3.61382,-4.44318 c 1.98759,-2.44375 7.23016,-8.20955 11.65015,-12.81289 z m 205.29049,-0.80319 c -10.63789,-9.78552 -17.95825,-14.89796 -29.96217,-20.92517 -5.88941,-2.95709 -11.16215,-6.22508 -11.7172,-7.2622 -2.96998,-5.54946 26.68785,-40.83562 40.71222,-48.43841 7.69666,-4.17246 9.70184,-2.61431 13.28758,10.32524 5.86596,21.16803 6.67443,51.30878 1.85679,69.22344 -0.87686,3.26063 -1.39438,3.75 -3.96577,3.75 -2.25621,0 -4.67704,-1.58195 -10.21145,-6.6729 z M 493.58229,449.5 c 0.40642,-7.34675 0.2102,-15.68383 -0.50602,-21.5 -1.25283,-10.17386 -4.65972,-24.9229 -6.09784,-26.39865 -1.36503,-1.40075 -5.6966,1.87406 -14.71198,11.12273 -7.35361,7.5439 -22.9692,27.08304 -22.10432,27.65821 0.18583,0.12358 2.36287,1.066 4.83787,2.09427 6.84737,2.84484 22.71759,13.58419 30,20.30094 l 6.5,5.99511 0.70922,-3.6363 C 492.5993,463.13634 493.21717,456.1 493.58229,449.5 Z m 268.58703,433.42435 c -4.39603,-0.93017 -8.95805,-5.42602 -10.20505,-10.05704 C 749.80398,864.84462 756.44355,856 764.62639,856 c 8.38655,0 14.36223,5.53063 14.36987,13.29966 0.009,9.33548 -7.67877,15.56038 -16.82694,13.62469 z m 7.88656,-7.76852 c 3.33303,-2.69892 3.08585,-7.77701 -0.52995,-10.88718 -6.93102,-5.96182 -15.548,3.80019 -9.07138,10.2768 2.91996,2.91997 6.47037,3.14568 9.60133,0.61038 z M 716.5,870.88073 C 689.6296,867.55541 666.14056,851.89099 653.69918,829 c -1.94304,-3.575 -5.65065,-13.25 -8.23915,-21.5 -5.74965,-18.32515 -10.1145,-27.24971 -16.40297,-33.53818 -4.57047,-4.57046 -12.02906,-9.08585 -18.54785,-11.22876 -1.65507,-0.54406 -8.5871,-1.26907 -15.40452,-1.61113 -10.23034,-0.5133 -12.58529,-0.92431 -13.48305,-2.35317 -0.83582,-1.33028 -0.70442,-2.11455 0.56738,-3.38635 1.30442,-1.30442 3.63153,-1.65403 10.98304,-1.65002 16.40392,0.009 29.51164,4.47006 39.22922,13.35138 9.19239,8.40132 14.21999,18.06158 20.50583,39.40078 4.73221,16.06491 9.92032,25.37379 19.56983,35.11357 15.06473,15.20567 31.39151,21.65985 58.81818,23.25159 10.83406,0.62877 11.21605,0.72928 11.54237,3.0372 0.18562,1.3128 -0.26438,2.76841 -1,3.23469 -1.66151,1.05316 -15.98101,0.91703 -25.33749,-0.24087 z m 66.74086,-45.81592 c -8.67296,-5.44606 -9.50181,-17.2199 -1.604,-22.78496 6.31978,-4.45312 12.29012,-4.10065 17.74911,1.04784 5.9671,5.6277 6.07053,13.02117 0.27069,19.34989 -4.2329,4.6189 -11.23923,5.63777 -16.4158,2.38723 z m 11.9304,-6.7198 C 797.64547,816.10588 797.55355,810.55355 795,808 c -1.11111,-1.11111 -3.33333,-2 -5,-2 -1.66667,0 -3.88889,0.88889 -5,2 -4.40119,4.40119 -1.12657,12 5.17126,12 1.74419,0 3.99419,-0.74474 5,-1.65499 z m -84.05929,4.6746 c -9.68036,-2.61974 -16.94071,-6.00826 -24.62992,-11.49517 C 675.67261,803.81099 668.4947,793.99645 660.50107,776 c -8.45771,-19.04128 -16.34379,-29.35291 -26.31106,-34.40372 -9.74134,-4.93631 -30.0755,-9.01867 -42.01626,-8.43534 C 585.81757,733.47146 584,732.76327 584,729.97617 c 0,-3.50062 3.55722,-4.30862 15.95119,-3.62324 26.95658,1.49069 45.36674,9.88922 55.95655,25.52681 2.09333,3.09114 7.53488,13.27026 12.09233,22.62026 7.66878,15.73315 8.85315,17.5675 15.89311,24.61526 17.85629,17.8761 38.09478,22.27969 68.73738,14.95624 7.7718,-1.85743 14.8593,-3.0975 15.75,-2.75571 0.89069,0.34179 1.61944,1.72567 1.61944,3.07527 0,2.81687 -0.73109,3.12505 -17,7.16596 -14.66757,3.64317 -31.64057,4.23581 -41.88803,1.46259 z m 92.0042,-50.67543 c -2.15948,-1.09997 -4.05112,-3.19273 -5.22804,-5.7839 -2.32955,-5.12884 -2.31354,-7.02617 0.10426,-12.35343 2.38326,-5.25115 9.01387,-8.7971 14.30695,-7.65113 7.86532,1.70287 13.06192,9.95743 10.87141,17.26872 -2.53487,8.46063 -12.15074,12.54571 -20.05458,8.51974 z M 815.25,764.80232 c 2.61614,-3.02558 2.22921,-7.28022 -0.88486,-9.72974 C 812.91597,753.93266 810.95166,753 810,753 c -2.87413,0 -7,3.9127 -7,6.63832 0,7.37404 7.57714,10.56819 12.25,5.164 z m -78.65306,1.11508 C 725.80315,764.44452 718.2532,762.20561 708.37739,757.54901 695.62518,751.53613 688.20258,746.22432 675.5,734.02112 661.2952,720.37475 657.98408,717.85766 647.87156,713.01814 633.75517,706.26251 613.94251,702.22018 590.5,701.31276 c -8.25,-0.31934 -15.7875,-0.98619 -16.75,-1.48188 -2.37422,-1.22272 -2.276,-5.52916 0.14363,-6.29712 2.57871,-0.81845 31.40184,1.21164 43.10637,3.0361 17.89961,2.79013 32.33392,7.74414 43.64389,14.97904 3.17518,2.03113 10.74174,8.48041 16.81458,14.33173 6.07284,5.85132 13.06653,12.28162 15.54153,14.28957 6.39942,5.1918 17.95583,11.17835 29,15.02284 l 9.5,3.30696 21.5,-0.0972 c 11.825,-0.0535 24.05053,-0.54205 27.16784,-1.08573 3.33615,-0.58184 6.31873,-0.62425 7.25,-0.10308 2.13135,1.19276 2.00536,4.48918 -0.21704,5.67857 -4.42625,2.36886 -39.8804,4.48815 -50.60386,3.02487 z m 18.82402,-38.33638 c -4.74853,-2.06765 -6.92254,-7.47429 -6.86826,-17.08102 0.0792,-14.02308 6.49522,-20.6247 15.88622,-16.34587 5.48076,2.4972 8.2539,11.73077 6.45145,21.48109 -1.29509,7.00578 -3.32804,10.23188 -7.56265,12.00121 -3.92181,1.63864 -4.01776,1.63796 -7.90676,-0.0554 z m 7.50696,-6.50894 c 3.45698,-3.45698 3.89969,-15.17274 0.76312,-20.19519 -1.19868,-1.9194 -4.25398,-2.4421 -6.37848,-1.09123 -4.58551,2.91573 -4.28713,18.38715 0.4236,21.96434 2.21086,1.67886 2.92872,1.58512 5.19176,-0.67792 z m -55.26125,6.26125 C 707.3,726.96667 707,721.17155 707,714.45531 c 0,-11.54082 -0.12355,-12.2959 -2.25,-13.75087 l -2.25,-1.5395 3.25866,-3.3219 c 2.66901,-2.7208 3.57374,-3.12314 5,-2.22349 1.502,0.94744 1.77737,3.07636 2.00351,15.48943 0.14419,7.91506 0.0231,15.40352 -0.26905,16.64102 -0.50629,2.14441 -3.33681,3.07297 -4.82645,1.58333 z m 17,0 C 724.3,726.96667 724,721.3592 724,714.87229 c 0,-10.65413 -0.20089,-11.98154 -2.07797,-13.7303 l -2.07796,-1.93592 3.02096,-3.35303 c 2.51309,-2.78933 3.32476,-3.16687 4.82797,-2.24568 1.58429,0.97087 1.84238,2.8812 2.09407,15.5 0.15788,7.91595 0.0368,15.40514 -0.26905,16.64264 -0.52953,2.14239 -3.36642,3.06827 -4.85135,1.58333 z m 13.4008,-1.20726 c -1.13642,-2.12342 -1.47696,-26.99528 -0.42346,-30.92854 0.43795,-1.63513 1.23104,-2.2148 2.73634,-2 2.06447,0.2946 2.11965,0.74466 2.11965,17.28877 0,15.12289 -0.18458,17.02186 -1.68253,17.31034 -0.92539,0.17821 -2.16289,-0.57354 -2.75,-1.67057 z M 796.48098,675.75 c -0.25093,-0.6875 -0.57431,-6.875 -0.71861,-13.75 -0.18454,-8.79176 -0.60505,-12.43522 -1.41751,-12.28162 -2.35379,0.44499 -2.14204,-2.64847 0.352,-5.14251 3.36983,-3.36983 6.07342,-3.33934 6.93116,0.0782 1.14854,4.57615 -0.36142,30.56039 -1.83002,31.49198 -1.83263,1.1625 -2.78988,1.04822 -3.31702,-0.39601 z m 14.18569,0.58333 C 810.3,675.96667 810,669.66667 810,662.33333 810,651.14815 809.75833,649 808.5,649 c -2.12364,0 -1.8596,-2.6404 0.5,-5 2.39816,-2.39816 5.55401,-2.60461 6.39301,-0.41821 0.33385,0.86998 0.60699,8.03784 0.60699,15.92857 0,11.7092 -0.2889,14.63568 -1.57143,15.91821 -1.70193,1.70193 -2.7199,1.94676 -3.7619,0.90476 z M 826.2,675.8 c -0.80891,-0.80891 -1.2,-5.39089 -1.2,-14.05902 0,-7.22256 -0.38866,-12.61881 -0.88669,-12.31101 -0.48768,0.30141 -1.42707,-0.1031 -2.08753,-0.89891 -1.65576,-1.99507 3.07078,-6.79904 6.24552,-6.34782 2.18443,0.31047 2.23418,0.63189 2.50468,16.18299 0.18875,10.85079 -0.087,16.30365 -0.87244,17.25 -1.40797,1.6965 -2.1538,1.73351 -3.70354,0.18377 z m -165.2577,-0.18838 c -0.24327,-0.2418 -21.25138,-1.0131 -46.6847,-1.71401 -44.6745,-1.23117 -46.26377,-1.3417 -46.87255,-3.2598 -0.41631,-1.31165 0.005,-2.47334 1.2424,-3.42319 1.57652,-1.21047 6.91034,-1.34455 33.73893,-0.84809 52.58976,0.97316 86.8936,2.62256 88.61667,4.26089 1.12629,1.0709 1.22073,1.82656 0.39256,3.14134 -0.93785,1.48891 -3.11318,1.76982 -15.54075,2.00687 -7.94765,0.1516 -14.6493,0.0778 -14.89256,-0.16401 z m 48.76655,-0.2361 C 709.31898,674.98565 709,668.87194 709,661.7895 c 0,-11.70925 -0.15872,-12.85052 -1.75,-12.58334 -1.1469,0.19258 -1.85527,-0.4445 -2.05545,-1.84858 -0.4151,-2.91143 5.33395,-7.14477 7.6871,-5.66043 1.38379,0.87287 1.61835,3.39651 1.61835,17.41184 0,15.73906 -0.0812,16.40263 -2.04115,16.68319 -1.12263,0.1607 -2.36013,-0.0268 -2.75,-0.41666 z M 726.48158,674.75 c -0.25061,-0.6875 -0.57399,-6.60782 -0.71862,-13.15627 -0.23608,-10.68914 -0.45122,-11.93374 -2.10459,-12.17496 -3.94122,-0.57503 -3.3134,-3.09397 1.705,-6.84074 2.09539,-1.56444 3.09678,-1.77792 4.42266,-0.94283 1.46564,0.9231 1.75556,3.16483 2.00104,15.47216 0.15788,7.91595 0.0368,15.40514 -0.26905,16.64264 -0.60319,2.44044 -4.2476,3.16405 -5.03644,1 z m 17.61321,-1.3237 c -3.98293,-3.35141 -5.41467,-8.42068 -4.95412,-17.54079 0.45548,-9.01985 2.93499,-13.22868 8.8346,-14.99625 3.34689,-1.00275 4.32782,-0.89935 7.19977,0.75893 4.85066,2.80079 6.82156,7.46096 6.82341,16.13393 8.5e-4,4.00516 -0.61892,8.76711 -1.37727,10.5821 -3.11394,7.45271 -10.86408,9.82661 -16.52639,5.06208 z M 754.71023,667 c 1.5822,-3.13857 1.66877,-14.07407 0.13801,-17.43373 -1.76596,-3.87586 -4.79209,-4.33287 -7.53965,-1.13864 -3.76699,4.37938 -3.05446,17.98075 1.09111,20.8281 1.99504,1.37027 5.02939,0.28563 6.31053,-2.25573 z m 16.9487,6.94635 c -3.73833,-2.94057 -4.91007,-8.0611 -4.50874,-19.7032 0.3713,-10.77068 1.46586,-13.63662 4.30743,-11.27832 C 772.67878,643.9783 773,646.56806 773,655.39994 773,666.88685 774.19535,671 777.53365,671 c 3.01828,0 4.48646,-4.53303 5.13405,-15.85141 0.662,-11.57014 1.83725,-14.65494 4.40468,-11.56138 0.88767,1.06958 1.34104,4.52217 1.34756,10.26233 0.0126,11.09635 -0.89225,15.36989 -4.04862,19.12102 -3.14791,3.74108 -8.6591,4.16411 -12.71239,0.97579 z M 571.32477,645.18191 c -1.54957,-1.54957 -1.6111,-2.18119 -0.39902,-4.09601 0.73721,-1.16463 5.10065,-1.37508 24.73468,-1.19294 40.46159,0.37535 53.38946,-1.89264 76.33843,-13.39239 C 679.13378,622.92526 685.63703,620 686.45054,620 c 0.8135,0 1.94403,0.86875 2.51229,1.93055 1.43085,2.67357 -0.0373,3.92777 -12.29392,10.50212 -23.20712,12.44816 -31.2948,14.00202 -73.09414,14.0434 -24.36981,0.0241 -31.20605,-0.25021 -32.25,-1.29416 z M 709.25,623.28154 C 708.33765,622.9544 708,619.34429 708,609.91667 708,599.33697 707.73929,597 706.55902,597 c -2.5705,0 -2.51765,-1.58191 0.17951,-5.37266 1.82647,-2.56703 3.28081,-3.62522 4.70283,-3.42181 1.97151,0.28201 2.07023,1.00134 2.3326,16.99646 0.24844,15.14596 0.10869,16.78704 -1.5,17.61487 -0.97568,0.50209 -2.33646,0.71119 -3.02396,0.46468 z M 725.2,622.8 c -0.80066,-0.80066 -1.2,-5.21321 -1.2,-13.25945 0,-11.024 -0.17378,-12.16798 -2.02394,-13.32343 -1.99606,-1.24656 -1.98573,-1.31223 0.75,-4.76688 1.795,-2.26671 3.47975,-3.40538 4.77394,-3.22657 1.89427,0.26172 2.01456,1.14158 2.27533,16.64334 0.18877,11.22105 -0.0855,16.80184 -0.87244,17.75 -1.40732,1.69572 -2.1533,1.73258 -3.70289,0.18299 z m 68.3,0.48417 c -5.49482,-1.32928 -8.85335,-8.01452 -8.76451,-17.44596 C 784.84177,594.55508 789.39355,588 797.12218,588 c 7.54126,0 11.5218,7.54763 10.62949,20.15492 -0.56373,7.96479 -3.35642,13.16304 -7.92779,14.75663 -1.71728,0.59865 -3.39268,1.03625 -3.7231,0.97245 -0.33043,-0.0638 -1.50078,-0.33373 -2.60078,-0.59983 z m 5.6143,-7.17564 c 1.99786,-1.61777 2.38128,-2.9563 2.64964,-9.25 0.36939,-8.6629 -1.02282,-12.20854 -4.9745,-12.66891 -4.08062,-0.47539 -6.16748,3.49156 -6.23475,11.85175 -0.0472,5.85876 0.27973,7.1523 2.36962,9.37744 2.89779,3.0853 3.1912,3.118 6.18999,0.68972 z M 740.29928,620.75 c -3.76602,-4.13475 -4.71365,-7.10158 -4.71124,-14.75 0.004,-11.91833 4.36395,-18.51112 12.09753,-18.29191 6.73133,0.19081 10.42554,6.47722 10.42554,17.74105 0,8.04469 -2.3846,14.55649 -6.04863,16.51742 -3.49502,1.87048 -9.5189,1.24748 -11.7632,-1.21656 z m 10.42767,-6.45602 c 2.19912,-3.35629 2.40878,-13.80332 0.35407,-17.64259 -1.94958,-3.64283 -6.21516,-3.63988 -8.16204,0.006 -2.19045,4.1016 -1.88123,15.62221 0.48962,18.24198 2.58389,2.85516 5.19244,2.63951 7.31835,-0.60503 z m 19.9819,8.08154 C 770.31898,621.98565 770,615.92156 770,608.89976 v -12.76692 l -2.75,-0.31642 c -4.48749,-0.51634 -3.66993,-3.99837 1.34597,-5.73252 7.38824,-2.55433 7.49088,-2.32353 7.17891,16.14426 -0.26208,15.51437 -0.3699,16.28544 -2.31603,16.56402 -1.12263,0.1607 -2.36013,-0.0268 -2.75,-0.41666 z m -181.06759,-5.59787 c -1.02389,-0.77661 -1.69237,-2.27846 -1.48832,-3.34375 0.34812,-1.81747 1.69427,-1.97388 22.35874,-2.59798 28.72094,-0.86741 39.02356,-3.21162 52.55677,-11.95856 8.29196,-5.35935 15.10601,-12.59746 24.04439,-25.54076 11.57954,-16.76785 20.33066,-24.21031 34.28512,-29.15805 9.45642,-3.3529 30.30516,-4.44613 32.5774,-1.70823 1.03007,1.24115 1.12722,2.14512 0.36148,3.3635 -0.83405,1.32706 -3.3664,1.79659 -12.44201,2.30691 -12.0903,0.67983 -20.79351,2.95747 -28.45283,7.44613 -5.95776,3.49148 -15.17634,13.53031 -21.95926,23.91314 -9.56327,14.63882 -22.14702,25.82042 -35.30722,31.37311 -10.95153,4.62079 -21.32476,6.23367 -43.67552,6.79086 -17.12905,0.42702 -21.34262,0.26364 -22.85874,-0.88632 z m 1.28917,-30.36147 c -0.95224,-1.14739 -1.02565,-2.04296 -0.2664,-3.25 0.90042,-1.43146 3.92098,-1.75189 21.44201,-2.2746 26.31841,-0.78516 33.63565,-2.8929 44.13396,-12.71284 4.63138,-4.33212 7.40336,-8.24002 23.7088,-33.42441 8.66924,-13.38999 18.1642,-22.24527 30.21154,-28.1762 15.12207,-7.44462 22.23215,-8.93281 43.05316,-9.01133 15.1363,-0.0571 17.95201,0.17159 19.35278,1.57169 0.95444,0.95399 1.39095,2.4209 1.04487,3.51131 -0.551,1.73604 -1.89141,1.87535 -18.35278,1.90737 -15.12852,0.0294 -18.94309,0.3601 -25.75837,2.23285 -22.34187,6.13925 -34.85657,16.51777 -49.39921,40.96708 -9.95016,16.72836 -14.75134,22.82039 -22.70086,28.8042 -11.55875,8.70058 -22.77915,11.39696 -47.52749,11.42134 -14.87798,0.0147 -17.83258,-0.22969 -18.94201,-1.56646 z M 771.3516,558.86774 c -1.73161,-0.47975 -4.54411,-2.46191 -6.25,-4.4048 -5.6934,-6.48443 -3.55415,-17.12218 4.18147,-20.79298 6.8677,-3.25893 14.48083,-0.96444 17.88966,5.3917 5.86233,10.93095 -3.87166,23.11669 -15.82113,19.80608 z m 7.76201,-6.92854 c 2.89275,-1.54815 4.22065,-5.71801 2.86396,-8.99335 -3.06056,-7.38884 -13.41917,-4.77263 -13.18876,3.331 0.1517,5.33537 5.47785,8.25635 10.3248,5.66235 z m -181.35907,5.20106 c -5.36546,-0.82672 -7.10351,-2.08948 -6.58471,-4.78404 0.32698,-1.69827 1.611,-1.87135 15.0897,-2.03408 20.10961,-0.24277 27.53804,-2.40728 36.44815,-10.62033 5.15402,-4.75082 7.8423,-9.74215 15.72776,-29.20181 7.03381,-17.35798 12.13453,-26.08879 19.48963,-33.36002 9.98332,-9.86949 24.37047,-16.77132 37.21445,-17.85259 6.2404,-0.52534 6.68239,-0.42385 7.35278,1.68834 1.04078,3.27923 -0.94259,4.50669 -9.4923,5.87453 -15.38626,2.46161 -29.94291,12.47098 -38.09672,26.19588 -2.20593,3.71313 -6.93542,13.88426 -10.50998,22.60251 -7.73178,18.85761 -9.93432,22.80231 -16.24152,29.08815 -5.23851,5.22076 -11.53235,8.73585 -19.48818,10.88408 -6.14711,1.65983 -24.22886,2.54867 -30.90906,1.51938 z m 191.88801,-41.16847 c -7.97978,-2.39132 -11.85456,-11.6229 -8.10947,-19.32066 2.49094,-5.11996 6.12481,-7.15113 12.79376,-7.15113 5.45154,0 6.04732,0.24058 9.25,3.73531 2.95521,3.2247 3.42316,4.42762 3.42316,8.79966 0,6.80392 -2.18436,10.69167 -7.31632,13.02165 -4.58336,2.08092 -5.78547,2.19048 -10.04113,0.91517 z m 9.28487,-8.60665 C 802.97523,502.21918 800.18515,496 793.82874,496 789.58072,496 787,498.51506 787,502.65499 c 0,6.87863 7.79908,9.95849 11.92742,4.71015 z m -62.8934,-36.11669 c -12.87061,-6.4927 -6.94341,-27.65273 7.25408,-25.897 14.22688,1.75937 17.29276,19.59351 4.51156,26.24356 -3.62155,1.8843 -7.57416,1.76787 -11.76564,-0.34656 z m 11.13724,-6.90344 c 1.07734,-0.97498 1.82874,-3.0294 1.82874,-5 0,-6.87863 -7.79908,-9.95849 -11.92742,-4.71015 C 735.93266,456.08403 735,458.04834 735,459 c 0,0.95166 0.93266,2.91597 2.07258,4.36514 2.43298,3.09303 7.24747,3.56018 10.09868,0.97987 z"
       id="path1" />
  </g>
</svg>
