<?xml version="1.0" encoding="UTF-8" standalone="no"?>
<!-- Created with Inkscape (http://www.inkscape.org/) -->

<svg
   version="1.1"
   id="svg1"
   width="896"
   height="1200"
   viewBox="0 0 896 1200"
   xmlns="http://www.w3.org/2000/svg"
   xmlns:svg="http://www.w3.org/2000/svg">
  <defs
     id="defs1" />
  <g
     id="g1">
    <path
       style="fill:#ffffff;fill-opacity:1"
       d="M 388.85823,926.84311 C 377.78286,925.74771 374,922.93499 374,915.79535 c 0,-6.0726 1.76034,-9.5784 7.10787,-14.15569 3.97957,-3.40636 4.13255,-3.74742 3.52121,-7.85037 -0.48751,-3.27186 -13.55846,-57.4389 -14.11844,-58.50789 -0.063,-0.12023 -4.36614,3.9488 -9.56257,9.04229 -19.891,19.49693 -40.77626,28.95634 -67.0066,30.34879 -32.41371,1.72071 -61.11043,-9.83101 -86.03335,-34.63229 -16.63869,-16.55749 -25.29855,-31.44194 -35.26598,-60.61468 -17.09435,-50.03187 -25.62217,-63.57098 -44.03472,-69.91132 -5.87307,-2.02239 -6.10742,-2.23407 -6.10742,-5.51668 0,-2.92353 0.71781,-3.95853 5,-7.20944 7.00126,-5.31514 20.02941,-11.49204 29.22076,-13.85412 25.35749,-6.51661 50.78543,-4.12257 73.69247,6.93814 26.14578,12.62455 43.17062,30.20856 63.05685,65.12791 7.68572,13.49579 13.97587,22.31652 19.37713,27.17272 11.17149,10.04413 27.54088,15.58954 42.23867,14.30906 4.17224,-0.36349 8.04201,-0.95809 8.59949,-1.32133 0.55748,-0.36325 1.31739,-6.47155 1.6887,-13.57401 1.04247,-19.94066 5.11992,-41.18814 13.9581,-72.73531 l 2.42305,-8.64888 -9.62761,0.50367 c -5.29519,0.27702 -13.67761,0.0456 -18.62761,-0.51418 -4.95,-0.55982 -9.1003,-0.91918 -9.2229,-0.79857 -0.12259,0.12061 0.22251,1.83239 0.76689,3.80397 0.82736,2.99645 1.90064,4.03032 6.54059,6.30044 12.5311,6.1309 17.97415,22.18906 11.86435,35.00242 -2.42466,5.08495 -9.78013,12.5 -12.39956,12.5 -2.61116,0 -4.5376,-3.19394 -6.03153,-10 -0.66399,-3.025 -1.64611,-7.23998 -2.18249,-9.36662 l -0.97524,-3.86663 -4.18006,0.66781 c -2.29903,0.3673 -4.54845,1.03568 -4.99873,1.4853 -0.45027,0.44962 -0.0317,5.64769 0.93027,11.55126 1.89053,11.60273 1.50106,13.7604 -2.59298,14.36537 -3.5017,0.51744 -10.88751,-2.72414 -15.32912,-6.72786 -7.68185,-6.92449 -10.69615,-18.67895 -7.51382,-29.30064 C 309.39421,721.74087 316.21845,714 318.58542,714 c 1.45749,0 1.42876,0.0953 -2.56318,8.5 -3.49249,7.35318 -3.42609,16.46256 0.16453,22.57018 2.58866,4.40328 10.23024,10.84614 11.4351,9.64128 0.3221,-0.3221 -0.17979,-4.83679 -1.11533,-10.03265 -1.94517,-10.80326 -1.50987,-12.50028 3.86001,-15.04846 3.81453,-1.81011 12.74723,-2.17501 15.61911,-0.63803 2.07444,1.11021 3.34627,4.54882 5.09312,13.77012 1.02996,5.43701 1.38745,6.09604 2.71225,5 2.67118,-2.20994 5.16505,-9.09634 5.16505,-14.26244 0,-9.34171 -6.1392,-17.74025 -14.88275,-20.35988 -4.43971,-1.33017 -4.15071,-0.53987 -9.5589,-26.14012 -4.01331,-18.99741 -7.5518,-27.30326 -15.50268,-36.38917 -2.79982,-3.19951 -6.64187,-8.89775 -8.53789,-12.66274 C 306.72141,630.49673 303.63532,627 300.81144,627 c -2.98238,0 -2.1404,3.89348 1.78053,8.23348 7.11296,7.8732 11.76755,21.64711 7.82624,23.15953 -3.26352,1.25233 -4.36442,0.51945 -5.47235,-3.64301 -2.48693,-9.3433 -9.77405,-17.33666 -15.11522,-16.58012 -1.93878,0.27462 -2.37801,1.00266 -2.61236,4.33012 -0.39461,5.60276 5.31459,15.02135 14.49962,23.92033 6.92464,6.70899 7.14827,7.07007 5.50402,8.88695 -1.645,1.8177 -1.42164,2.16106 5.55739,8.54327 3.9992,3.6572 7.25989,7.43695 7.24598,8.39945 -0.0139,0.9625 -0.28447,1.75 -0.60125,1.75 -0.82977,0 -12.32567,-8.765 -16.27465,-12.40854 -4.12361,-3.80467 -9.19344,-11.20754 -16.00474,-23.36985 -7.22622,-12.90318 -9.21926,-18.43383 -10.10894,-28.05208 -0.65105,-7.03851 -1.48313,-9.75257 -5.36516,-17.5 -6.97322,-13.91657 -7.97912,-15.24005 -13.05691,-17.17928 l -4.55567,-1.73983 -7.63278,3.62479 C 235.94638,602.35158 235,602.24444 235,596.08179 235,589.8925 234.27845,588 231.91869,588 c -3.79804,0 -6.34684,9.46295 -3.82033,14.18378 0.97539,1.82254 1.73106,1.98416 6.75,1.44368 7.21393,-0.77686 7.85138,-0.24551 16.64258,13.87254 9.40063,15.09677 15.06333,23.14583 20.24759,28.78033 6.97679,7.58269 9.45999,14.22028 10.18321,27.21967 0.33659,6.05 1.1365,11.92612 1.77757,13.05804 0.64108,1.13192 3.31606,3.15692 5.94441,4.5 2.62835,1.34308 8.20137,5.59196 12.3845,9.44196 4.18313,3.85 8.47556,7.51607 9.53873,8.14682 1.55805,0.92433 1.71949,1.50632 0.83219,3 -0.60548,1.01925 -2.27428,1.99377 -3.70845,2.16559 -2.09361,0.25084 -4.24192,-1.25117 -10.89914,-7.62022 -4.56035,-4.36295 -10.14744,-8.87131 -12.41576,-10.01857 C 281.40364,694.16461 276,688.83326 276,686.92327 276,686.41547 274.00998,686 271.57774,686 c -8.98297,0 -18.47042,-11.26565 -20.73353,-24.61954 -1.16261,-6.86017 -1.11153,-7.31556 1.40217,-12.5 4.85628,-10.01596 4.73664,-11.73167 -1.51004,-21.65319 C 244.20514,616.85384 242,612.64425 242,610.54966 c 0,-1.8599 -0.40888,-1.89287 -4.61457,-0.37207 -5.26244,1.90292 -10.88227,-0.271 -13.38561,-5.17795 -4.18416,-8.20162 -1.72326,-20.08086 4.75018,-22.93011 3.12442,-1.37519 3.25,-1.65281 3.25,-7.1849 0,-3.16494 0.44009,-6.91195 0.97798,-8.3267 0.68184,-1.79338 0.37903,-8.38597 -1,-21.7717 C 230.89009,534.22655 230,525.23892 230,524.81373 c 0,-0.4252 -1.7182,-1.64964 -3.81821,-2.72099 -12.73198,-6.49537 -17.66516,-23.31172 -10.8082,-36.84329 C 218.32737,479.42046 225.31306,473 228.70144,473 c 3.11066,0 4.01377,2.43416 5.14667,13.87188 0.58972,5.95385 1.42494,9.68656 2.29008,10.23469 2.13572,1.35314 6.67323,1.04231 10.01557,-0.68608 l 3.05444,-1.57952 -0.64259,-10.67048 c -0.36739,-6.10065 -0.24473,-11.26229 0.2864,-12.05232 1.38592,-2.06153 7.14775,-0.63821 12.81394,3.16536 10.45861,7.02061 14.54864,23.27035 8.90693,35.38737 -1.32416,2.84399 -4.31121,7.01832 -6.63788,9.27627 l -4.23031,4.10538 1.64766,14.79564 c 1.88796,16.95361 2.03603,23.02561 0.61333,25.15181 -0.8772,1.31096 -1.17323,1.27875 -2.349,-0.25557 -1.34025,-1.74896 -3.93543,-18.92702 -5.19142,-34.3631 l -0.6606,-8.11867 3.47606,-3.16314 c 12.43131,-11.31225 12.48458,-29.34214 0.11461,-38.79125 l -3.14468,-2.40214 0.51749,10.29694 c 0.47671,9.48572 0.35545,10.44229 -1.53913,12.14201 -4.60667,4.13285 -15.16386,5.90323 -20.15158,3.3793 -3.02721,-1.53185 -4.72405,-6.11376 -5.56585,-15.02922 -0.75254,-7.97014 -1.66165,-8.15116 -5.97158,-1.18904 -2.55863,4.13313 -2.99322,5.81327 -2.95395,11.41999 0.0678,9.67819 4.04052,16.35707 12.17431,20.46727 1.77119,0.89503 3.6846,2.49478 4.25202,3.555 1.04408,1.95089 3.32471,19.41911 4.58535,35.12104 0.52192,6.50082 0.26564,10.52423 -1.06169,16.66751 -1.73737,8.041 -1.73471,8.11915 0.37713,11.08495 1.16976,1.64278 2.12683,3.90334 2.12683,5.02347 0,3.24671 1.83713,3.52821 5.82084,0.89191 2.03797,-1.34867 4.66024,-2.75517 5.82726,-3.12557 2.00696,-0.63698 7.76628,0.29557 11.59719,1.87783 1.56501,0.64638 1.68073,0.21934 1.12037,-4.13434 -0.78762,-6.11929 0.61179,-4.96944 3.48513,2.86359 4.55544,12.41864 20.90597,41.97756 23.89921,43.20562 0.90039,0.3694 1.25,-0.867 1.25,-4.42059 0,-5.47564 1.48072,-7.0038 6.78638,-7.0038 4.78518,0 9.36188,4.0161 15.23957,13.37289 3.03927,4.83826 6.24409,9.19873 7.12182,9.68993 0.87773,0.4912 5.81605,1.63099 10.97405,2.53286 16.15443,2.82459 42.60165,0.7014 52.03639,-4.17749 l 3.05905,-1.5819 -10.35863,-4.72297 C 361.53454,627.21448 346.338,617.73886 322.48505,599.96225 309.34661,590.17071 302,583.20678 302,580.54424 c 0,-0.7975 1.8,-2.89651 4,-4.66448 2.2,-1.76797 4,-3.55301 4,-3.96676 0,-0.41375 -2.26397,-1.50424 -5.03104,-2.42331 -2.76707,-0.91907 -6.39905,-2.82215 -8.07108,-4.22907 C 293.05275,562.02515 293.5113,559.59718 299.40231,552 314.35828,532.71245 325,511.46967 325,500.90242 c 0,-2.07199 -1.30569,-8.86017 -2.90154,-15.08484 -8.13385,-31.72637 -8.71843,-55.30273 -2.04108,-82.31758 5.29679,-21.42945 11.51433,-25.41542 27.49552,-17.62697 16.61307,8.09639 36.48395,23.15642 48.76847,36.96134 3.75176,4.2161 7.40586,8.26616 8.12022,9.00013 1.0809,1.11058 2.68221,0.8975 9.54294,-1.2698 4.53425,-1.43237 12.35515,-3.32094 17.37978,-4.19683 15.91679,-2.77461 42.27474,-0.79975 54.73372,4.1009 1.14909,0.45199 3.2528,-1.4219 7.48817,-6.6701 17.75482,-22.00061 49.207,-46.23488 61.72059,-47.55641 4.28229,-0.45224 5.13824,-0.19309 7.84449,2.37505 7.08182,6.72043 13.50071,26.25737 15.93776,48.50919 1.54602,14.11608 0.17844,34.58769 -3.5907,53.74995 l -2.4344,12.37645 2.02553,6.0127 c 4.07515,12.09689 14.273,29.19935 27.05692,45.37619 2.66948,3.37799 4.85361,7.07296 4.85361,8.21105 0,2.69756 -2.83554,5.25988 -9.03301,8.16262 -2.75692,1.29127 -4.88982,2.68901 -4.73979,3.10607 0.15004,0.41707 1.8478,1.81331 3.7728,3.10275 1.925,1.28944 3.64217,3.32904 3.81593,4.53244 0.4113,2.84852 -5.70375,9.38256 -21.13444,22.58251 -22.95295,19.63474 -37.45734,29.64334 -56.93149,39.28494 -5.3625,2.65496 -9.75,5.11921 -9.75,5.47611 0,0.85213 12.13596,4.67417 18.5,5.8263 21.17892,3.83417 47.3136,1.11562 69.5,-7.22944 L 609.5,634.5 613.23899,623 c 2.05644,-6.325 4.68442,-13.85638 5.83996,-16.73639 l 2.10099,-5.2364 -2.0628,-3.33767 c -5.04547,-8.16375 -4.8433,-21.59719 0.48908,-32.49617 3.05309,-6.2403 12.13126,-16.19289 27.26088,-29.8867 10.12217,-9.16156 10.46474,-9.372 14.5,-8.90715 2.27309,0.26186 4.19726,0.50409 4.27591,0.53829 1.6064,0.69855 5.46391,28.78605 6.05146,44.06219 0.47329,12.3055 0.32014,14.02566 -1.73089,19.44089 -2.7308,7.21 -9.6096,14.49238 -16.00273,16.94161 l -4.46085,1.70897 -4.08139,12.28276 -4.08139,12.28276 2.64447,1.51772 c 8.61167,4.94242 8.57469,24.85485 -0.0683,36.78618 -4.19463,5.79052 -8.4087,8.17619 -13.82224,7.82507 l -4.40888,-0.28596 -9.81198,24.98914 c -10.83755,27.60105 -18.09039,43.27014 -22.38124,48.35264 -2.39324,2.83478 -3.27918,3.25019 -5.83953,2.73812 -4.96305,-0.99261 -6.6495,-3.24954 -6.6495,-8.89885 0,-5.11988 5.0141,-29.06584 9.45112,-45.13592 1.35986,-4.92518 2.30335,-9.12399 2.09664,-9.3307 -0.2067,-0.20671 -4.92633,0.77168 -10.48805,2.17419 -16.40783,4.1376 -30.42234,5.80102 -45.80978,5.43729 L 522.46273,699.5 528.63489,724 c 7.45686,29.59956 9.36549,42.17209 9.3639,61.68189 -0.002,25.64341 -3.63175,50.42251 -13.15211,89.78752 l -5.07141,20.96942 2.36236,1.49219 c 13.17418,8.32147 14.54462,21.8143 2.86237,28.18167 -3.60567,1.96526 -23.65544,1.67393 -32,-0.46497 -4.86109,-1.24601 -7.30103,-2.52246 -9.67692,-5.06248 -3.73387,-3.99181 -4.83724,-7.44 -6.90694,-21.58524 -2.74893,-18.78742 -5.43772,-36.37006 -6.51323,-42.59159 l -1.05305,-6.09159 -15.17493,0.20363 -15.17493,0.20364 -2.6895,11.88795 c -1.47923,6.53838 -3.40765,17.73796 -4.28538,24.88796 -3.78057,30.79652 -5.73142,35.14724 -17.02512,37.96883 -5.30982,1.3266 -18.80882,2.05008 -25.64177,1.37428 z m 18.70437,-7.98006 c 10.51632,-1.56411 12.15025,-3.13755 13.87672,-13.36305 0.74289,-4.4 1.64963,-10.95211 2.01497,-14.56024 l 0.66425,-6.56023 -12.80927,-1.19472 c -7.0451,-0.65709 -14.78065,-1.19249 -17.19011,-1.18976 l -4.38084,0.005 0.67906,3.75 c 0.37348,2.0625 0.94538,6.34324 1.27089,9.51276 l 0.59182,5.76277 -5.70975,5.98607 c -4.10036,4.29881 -5.61963,6.6206 -5.39004,8.23724 0.62689,4.41423 11.23367,5.86729 26.3823,3.61421 z M 523,918.71023 c 5.31211,-2.67792 2.97799,-9.59077 -4.95775,-14.68312 -4.31921,-2.77163 -5.03874,-3.68669 -5.0178,-6.38136 0.0223,-2.87332 1.25986,-9.53834 2.5801,-13.89575 0.47382,-1.56384 -0.31104,-1.75 -7.37816,-1.75 -8.54879,0 -24.26842,1.78398 -25.46187,2.88961 -1.13635,1.05272 2.98798,27.08371 4.70672,29.70685 1.3923,2.12492 4.91965,3.56319 11.52876,4.70084 5.8247,1.00263 21.61264,0.61643 24,-0.58707 z M 425.96198,871.25 c 1.43831,-7.49278 3.7923,-17.48289 5.59624,-23.75 l 1.43922,-5 20.60642,0.0622 c 16.83886,0.0508 20.75179,0.32506 21.40156,1.5 0.43733,0.79081 2.04151,8.43486 3.56483,16.98677 l 2.76967,15.54895 6.58004,-0.78318 c 3.61902,-0.43075 11.73681,-0.90277 18.03952,-1.04894 l 11.45948,-0.26577 2.78059,-12 c 7.302,-31.51274 10.19439,-56.2615 9.52493,-81.5 -0.56304,-21.22635 -1.85468,-29.183 -10.19349,-62.79275 -7.06015,-28.45605 -7.16709,-32.95541 -0.66913,-28.15126 3.83295,2.83382 19.4494,3.71361 35.30114,1.98877 10.60037,-1.15343 35.66502,-6.81198 39.67143,-8.95615 0.98445,-0.52686 2.30451,-2.63469 2.93349,-4.68408 1.01109,-3.29444 0.84715,-4.37371 -1.41497,-9.31534 -2.0381,-4.45226 -5.24458,-15.99171 -5.33559,-19.20167 -0.01,-0.33686 -3.50486,0.24835 -7.76736,1.30046 -11.75918,2.90251 -33.26692,3.53057 -46.32163,1.35267 -11.74254,-1.959 -23.86358,-5.54546 -28.59936,-8.46217 l -3.17099,-1.95298 -9.82901,3.16021 c -5.40596,1.73812 -9.93913,3.20751 -10.07372,3.2653 -0.1346,0.0578 1.12099,4.11996 2.79019,9.02704 4.46486,13.12567 12.44742,43.69032 16.04156,61.42195 2.7603,13.61793 3.1441,17.50349 3.16079,32 0.0212,18.43581 -1.42035,27.51334 -6.32242,39.81184 -11.87599,29.795 -41.79048,42.74998 -68.54502,29.6846 -8.49507,-4.1485 -18.17572,-13.81627 -23.07011,-23.0394 -7.01944,-13.22764 -11.03865,-34.90433 -9.81228,-52.92031 1.29548,-19.03128 9.19234,-57.66581 17.37828,-85.02135 1.6433,-5.49154 2.87522,-10.09721 2.73761,-10.23483 -0.13762,-0.13761 -4.83973,-1.57106 -10.44913,-3.18544 l -10.19892,-2.93522 -4.27191,2.38761 c -2.34955,1.31319 -8.75437,3.62892 -14.23292,5.14607 -9.30314,2.57627 -11.26537,2.76004 -29.71069,2.78244 -10.86233,0.0132 -19.61836,0.24899 -19.45785,0.52399 4.10529,7.03347 8.13448,17.5669 10.04969,26.2727 1.30345,5.92498 2.54719,10.94672 2.76387,11.15941 0.21668,0.21269 6.01897,0.84727 12.89397,1.41016 14.15481,1.15894 26.37374,0.2694 30.13285,-2.19366 5.42338,-3.55354 5.22359,-1.18606 -2.53709,30.06363 -8.8579,35.66779 -10.037,43.57677 -10.03158,67.28776 0.005,23.93574 1.47799,34.23381 9.25093,64.69661 l 5.68489,22.27955 16.46749,0.56275 c 9.05712,0.30951 16.66962,0.76487 16.91667,1.01192 1.65129,1.65129 3.10638,-0.2402 4.07782,-5.30083 z M 304,865.90705 c 14.11007,-2.13647 29.25268,-8.76836 42.52774,-18.62554 9.71223,-7.21166 21.49435,-19.67387 21.41702,-22.65324 -0.0304,-1.17055 -0.60554,-6.62827 -1.27812,-12.12827 -1.20583,-9.86061 -1.25733,-9.99303 -3.69476,-9.5 -6.28825,1.27196 -25.57636,0.395 -30.97188,-1.40817 -19.07518,-6.37489 -28.90023,-15.33233 -42.9066,-39.11771 -11.40257,-19.36366 -19.85067,-31.91723 -24.28412,-36.08535 -2.6635,-2.50409 -4.71287,-3.33345 -10.50191,-4.25 -9.27423,-1.46834 -17.03226,-1.46409 -17.5235,0.01 -0.21053,0.6316 0.52171,6.43384 1.6272,12.89387 2.77072,16.19095 1.42854,17.51801 -12.59968,12.45775 -10.69167,-3.8567 -10.06002,-4.62809 -9.25157,11.29845 0.62136,12.24081 0.50852,13.99036 -0.99962,15.4985 -3.47439,3.47438 -7.19357,3.03834 -20.27203,-2.37676 -1.76651,-0.73142 -3.56116,-0.98053 -3.98812,-0.55358 -0.42695,0.42696 -0.94475,7.29178 -1.15067,15.25516 l -0.37439,14.47887 3.17212,6.44349 c 4.47333,9.08662 13.37977,20.6715 22.71899,29.5513 25.12199,23.88615 55.47631,33.78674 88.3339,28.81162 z m 166.33311,-51.22712 c 13.06235,-6.45576 21.96915,-18.51098 26.84772,-36.33798 1.82359,-6.66363 2.15304,-10.62173 2.19258,-26.34195 0.0519,-20.62293 -1.00276,-27.22545 -9.82348,-61.5 -3.49541,-13.58207 -11.11717,-39.22223 -11.95088,-40.20364 -0.0951,-0.112 -3.75635,0.4348 -8.13602,1.21511 -9.70649,1.72938 -21.49071,1.85784 -34.09237,0.37165 -5.20862,-0.61429 -9.71231,-0.8748 -10.0082,-0.57892 -1.9642,1.96421 -13.71728,50.05746 -17.41259,71.25183 -7.78964,44.67733 1.51192,78.81755 24.86524,91.26474 7.90613,4.21393 12.13087,5.14457 21.87334,4.81838 7.11366,-0.23817 9.16712,-0.75785 15.64466,-3.95922 z M 186.43255,765.4626 c 2.11706,-3.23104 4.87739,-3.13338 12.70518,0.44951 3.49925,1.60165 7.42012,3.22137 8.71304,3.59937 l 2.35078,0.68726 -0.82499,-9.84937 c -1.07327,-12.81349 -0.99948,-15.43129 0.53972,-19.14725 1.84064,-4.4437 5.27148,-4.85994 14.50624,-1.75993 8.44843,2.83604 8.92899,2.93559 8.15925,1.69012 -0.29494,-0.47723 -1.24021,-4.94689 -2.1006,-9.93258 -1.38189,-8.0076 -1.39339,-9.47405 -0.0987,-12.57276 1.74081,-4.16633 4.56616,-4.98053 15.49087,-4.46408 3.92212,0.18541 7.13012,0.19556 7.12888,0.0226 -0.001,-0.17301 -1.42251,-1.52301 -3.15839,-3 -30.06743,-25.58323 -72.83773,-31.33557 -107.56535,-14.46686 -10.1335,4.92228 -10.39866,5.49868 -3.9753,8.64134 14.67342,7.17904 25.14773,24.17627 38.7011,62.8024 l 5.49569,15.66231 1.1595,-7.94971 c 0.63772,-4.37235 1.88559,-9.05789 2.77305,-10.41232 z M 592.6843,744.08585 c 3.5605,-5.90097 8.84037,-18.69406 20.37121,-49.35928 l 7.8113,-20.77343 -2.05558,-4.64698 c -5.28105,-11.93869 2.30967,-31.55072 13.66158,-35.29719 2.37888,-0.7851 3.4771,-1.93913 4.25387,-4.47007 1.13921,-3.71188 0.38506,-4.5389 -4.13899,-4.5389 -1.2368,0 -4.32812,-1.05272 -6.8696,-2.33938 l -4.62086,-2.33938 -2.15444,7.08938 c -1.18494,3.89916 -4.30518,14.51438 -6.93386,23.58938 -2.62868,9.075 -7.1007,24.15 -9.93782,33.5 -6.16179,20.30676 -14.76265,53.60121 -15.11215,58.5 -0.62458,8.75469 0.92126,9.04787 5.72534,1.08585 z M 273.79371,672.3943 C 274.29859,661.93341 267.84047,649 262.11211,649 c -7.4262,0 -3.85804,19.98733 4.88088,27.34065 4.95634,4.17049 6.45083,3.30326 6.80072,-3.94635 z m 361.00221,-0.96391 c 6.10586,-4.27671 10.50682,-22.26702 6.82266,-27.88976 -2.45094,-3.74061 -6.92287,-3.43634 -11.1155,0.75629 -7.01851,7.01851 -7.47354,23.70867 -0.7531,27.62297 2.3129,1.34714 2.44159,1.33466 5.04594,-0.4895 z m -30.55086,-17.60676 c 1.50979,-5.04176 2.59273,-9.31918 2.40654,-9.50537 -0.18619,-0.18619 -2.47362,0.45279 -5.08316,1.41996 l -4.74463,1.75848 0.63163,4.00165 c 0.82877,5.25062 2.70651,11.5029 3.45285,11.49688 0.32544,-0.003 1.82699,-4.12984 3.33677,-9.1716 z m -132.53052,-10.7272 c 5.382,-1.04696 15.41046,-3.78334 22.28546,-6.08085 29.9884,-10.02162 55.3187,-25.78908 88.58124,-55.13956 l 9.38787,-8.28374 -4.98455,-4.60655 C 584.24305,566.45213 582,563.92987 582,563.38072 c 0,-2.21546 2.83442,-4.47087 9.25,-7.36044 3.7125,-1.67211 6.74814,-3.37321 6.74587,-3.78024 -0.002,-0.40702 -4.27379,-6.59004 -9.49225,-13.74004 -5.21846,-7.15 -11.57725,-17.10961 -14.13063,-22.13248 l -4.64251,-9.13247 -6.11524,-1.86753 c -4.69247,-1.43302 -9.02348,-1.84257 -18.61524,-1.76029 -10.78313,0.0925 -13.51239,0.46767 -19.87091,2.73155 -15.98634,5.69174 -27.64075,14.50989 -36.85949,27.88922 -6.67011,9.68044 -9.41132,15.30432 -14.13022,28.98965 -4.26803,12.37775 -4.85993,15.29945 -3.66279,18.08001 2.37526,5.51694 -2.30305,14.83096 -9.519,18.95132 -3.50735,2.00272 -3.94304,2.67315 -3.94989,6.07794 -0.0111,5.51261 4.29661,9.67308 10.01538,9.67308 3.44815,0 4.72651,-0.58597 7.32692,-3.35849 1.7325,-1.84717 3.85729,-4.3983 4.72177,-5.66917 1.83557,-2.69851 3.92823,-1.93203 3.92823,1.43879 0,3.39271 -4.01447,8.74192 -8.52957,11.36551 -5.41278,3.14521 -12.8699,2.68152 -17.83991,-1.10929 l -3.51375,-2.68007 -2.68017,2.48389 c -7.09718,6.57745 -19.76057,3.6946 -24.48963,-5.57511 -1.71408,-3.35987 -1.79051,-4.01887 -0.52257,-4.50542 0.91795,-0.35225 2.97099,0.99201 5.37555,3.51972 7.26969,7.64204 17.58565,5.08924 18.89543,-4.67589 0.52671,-3.92693 0.40689,-4.14165 -3.39291,-6.08016 -4.72012,-2.40803 -11.00028,-9.1021 -11.89912,-12.68338 -0.35608,-1.41873 -0.38868,-4.17389 -0.0725,-6.12259 1.12904,-6.95747 -6.71286,-27.18792 -15.87835,-40.96281 -10.57158,-15.88809 -28.85084,-29.64955 -44.95499,-33.84415 -6.72565,-1.75181 -18.83104,-1.97982 -25.49756,-0.48026 -6.26485,1.4092 -18,6.06958 -18,7.14833 0,2.87576 -11.93643,24.89631 -18.39453,33.93458 C 307.42246,553.99825 304,559.22125 304,559.75069 c 0,0.52944 3.6,2.58503 8,4.56798 9.53298,4.29622 9.95031,5.61018 3.87523,12.20087 -4.89023,5.30527 -5.15839,4.75078 6.82155,14.10539 53.38847,41.68875 107.14453,60.61711 149.01776,52.4715 z M 388.21679,573.4393 c -7.64025,-5.35145 -7.0763,-22.87499 0.8684,-26.98335 4.13682,-2.13924 5.74864,-1.82212 9.42509,1.85433 5.97569,5.97569 5.98099,17.39845 0.0109,23.36859 -3.64865,3.64865 -6.83205,4.19251 -10.30434,1.76043 z m 120.54578,-2.00469 c -3.87001,-2.09985 -5.96596,-6.78393 -6.02898,-13.47372 -0.13549,-14.38469 12.40428,-19.57044 18.22887,-7.53845 3.57582,7.38667 2.10556,16.01909 -3.47614,20.40966 -3.20925,2.5244 -4.959,2.64525 -8.72375,0.60251 z m -226.13281,57.92567 c -1.58766,-2.93038 -2.08897,-1.67696 -0.98219,2.45581 0.39438,1.47266 0.96832,1.96802 1.57606,1.36028 0.60774,-0.60774 0.39148,-1.9974 -0.59387,-3.81609 z M 640.94742,617.25 c 1.58607,-5.71119 1.42221,-6.005 -3.99739,-7.1673 -2.77748,-0.59566 -6.4193,-1.79113 -8.09293,-2.6566 -1.67363,-0.86546 -3.15934,-1.42789 -3.30157,-1.24984 -0.46031,0.57622 -2.55553,7.09642 -2.55553,7.95264 0,1.6541 10.18753,5.9111 16.203,6.77065 0.38664,0.0553 1.17163,-1.58705 1.74442,-3.64955 z m 7.88517,-14.79293 c 6.70971,-1.99257 11.34199,-6.13178 14.2126,-12.69979 1.88335,-4.30914 2.30308,-7.06075 2.32736,-15.25728 0.0296,-10.01319 -3.23704,-39.5 -4.376,-39.5 C 660.36759,535 648,570.99947 648,572.83025 c 0,0.57175 -0.46849,2.27178 -1.0411,3.77784 -0.95691,2.51688 -1.17123,2.60815 -2.65066,1.12872 -1.47943,-1.47943 -1.46649,-2.20092 0.16011,-8.92319 1.6504,-6.82064 9.2197,-28.35067 11.66225,-33.17196 0.59675,-1.17791 -5.72922,4.60834 -14.05771,12.85834 -16.69993,16.54254 -19.88789,21.3295 -20.77379,31.19349 -0.6646,7.39985 0.81474,12.79336 4.84854,17.67724 5.44736,6.59533 12.37395,8.14838 22.68495,5.08634 z m -191.31502,-8.06054 c 1.34597,-0.88191 3.41465,-3.16882 4.59708,-5.08203 1.89405,-3.06465 1.97449,-3.65393 0.67599,-4.95244 -3.56682,-3.56681 -20.81788,-2.38192 -20.7684,1.42648 0.0462,3.55257 7.37234,10.19051 11.26294,10.20487 0.98185,0.004 2.88643,-0.71497 4.23239,-1.59688 z M 453.5,575.5 c 2.75,0 5.96403,0.35244 7.14229,0.7832 1.93999,0.70924 2.26,0.28429 3.38871,-4.5 1.90953,-8.09398 6.81233,-21.51035 10.70109,-29.2832 12.82103,-25.62668 36.18674,-42.75558 63.54389,-46.58265 8.11991,-1.13592 14.82825,-0.69725 25.78256,1.68597 2.39899,0.52192 2.53411,0.34745 2.1669,-2.798 -0.2154,-1.84505 0.86674,-10.54354 2.40475,-19.32998 3.51309,-20.06977 3.93914,-45.27156 1.0133,-59.93906 -2.52623,-12.66417 -7.32113,-27.04998 -10.08817,-30.26686 l -2.35198,-2.73434 -6.34686,2.98246 c -14.61395,6.86727 -41.56666,30.05023 -53.85648,46.32382 -6.32358,8.37339 -4.27031,8.05575 -23,3.55801 -19.35921,-4.64891 -35.46867,-3.77315 -60.8063,3.30561 l -9.3063,2.59997 -12.6937,-12.9336 c -6.98154,-7.11348 -16.33786,-15.7003 -20.79183,-19.08181 -14.40043,-10.93299 -32.81701,-21.11169 -35.9929,-19.89298 -3.95957,1.51943 -8.75572,19.85041 -10.48347,40.06799 -1.3903,16.26877 -0.0941,29.46434 5.19883,52.92484 2.21982,9.83917 3.80544,18.77118 3.5236,19.84892 -0.42461,1.62373 -0.13847,1.84974 1.66982,1.3189 14.10468,-4.14057 18.37168,-4.78448 28.62701,-4.31995 16.75026,0.75872 30.45844,6.63466 45.33285,19.4317 13.04489,11.22303 26.03767,32.24219 30.95133,50.07174 l 2.27106,8.2407 3.5,-0.7407 c 1.925,-0.40738 5.75,-0.7407 8.5,-0.7407 z M 344.14383,480.6733 c -6.16374,-7.42685 -9.64788,-35.64194 -6.74211,-54.59865 2.34267,-15.28317 4.76137,-17.86549 13.22632,-14.12104 10.74592,4.75343 23.14875,15.45425 32.78531,28.28625 4.01518,5.34659 3.09798,7.24601 -6.64453,13.76014 -9.62774,6.43739 -18.81684,14.78513 -24.7713,22.50322 -4.3534,5.6428 -5.93464,6.4824 -7.85369,4.17008 z M 369.86527,451 c 4.41979,-3.025 8.0582,-6.10288 8.08536,-6.83974 0.0272,-0.73686 -4.11613,-5.46186 -9.2073,-10.5 -9.34399,-9.24667 -19.54541,-16.33392 -22.10005,-15.35362 -0.96607,0.37072 -1.77284,4.11263 -2.6576,12.32629 -1.31895,12.24446 -0.49699,26.47949 2.13181,36.91937 l 1.16319,4.61944 7.2743,-7.83587 C 358.55585,460.02614 365.44548,454.025 369.86527,451 Z m 172.04277,15.75 c -5.54668,-5.41656 -11.45557,-9.96724 -17.20462,-13.25 -18.52425,-10.57752 -18.40827,-10.34404 -10.34624,-20.827 11.93589,-15.5201 30.22963,-29.89108 35.79978,-28.12318 5.31309,1.68631 9.39885,22.16073 8.4711,42.45018 -0.78692,17.20957 -3.51242,28 -7.07238,28 -0.65969,0 -5.00113,-3.7125 -9.64764,-8.25 z m 8.9704,-9.29085 C 551.4953,453.31169 552,446.27788 552,441.82848 c 0,-8.59716 -2.62372,-27.7482 -3.99886,-29.18846 -0.84902,-0.88922 -7.21635,3.07436 -14.92647,9.29154 C 528.88378,425.31096 517,439.30241 517,440.85719 c 0,0.3994 2.3625,1.88732 5.25,3.30649 6.69817,3.29208 20.59725,13.58706 23.79401,17.62411 1.3508,1.70585 2.73879,3.12645 3.08443,3.15688 0.34564,0.0304 1.13314,-3.33805 1.75,-7.48552 z m 69.38553,432.78776 c -6.69511,-2.76101 -12.50972,-7.43221 -19.61026,-15.754 -13.3035,-15.59163 -14.79253,-24.96951 -5.98886,-37.71777 1.41477,-2.04867 9.38144,-9.45117 17.70373,-16.45001 8.32228,-6.99883 20.24572,-17.24765 26.49653,-22.77514 C 652.53692,785.46023 656.93803,782 658.64334,782 c 0.70789,0 2.90183,1.41778 4.87544,3.15063 l 3.58837,3.15063 3.69643,-3.53239 c 4.05135,-3.87158 7.21778,-5.76887 9.6278,-5.76887 1.63988,0 9.56862,6.65402 9.56862,8.03026 0,0.43864 -2.925,3.12503 -6.5,5.96974 -3.575,2.84471 -6.5,5.53361 -6.5,5.97532 0,0.44171 0.86305,1.86546 1.91788,3.1639 l 1.91789,2.36078 8.33211,-8.0252 c 4.58267,-4.41386 10.78255,-10.18667 13.77752,-12.82845 4.47399,-3.94638 5.25763,-5.10143 4.39282,-6.4748 -1.77903,-2.82517 -4.16732,-2.47368 -8.5226,1.25428 C 694.64983,781.99159 693,782.76301 693,781.14506 693,779.88831 703.68139,770 705.03893,770 c 1.56713,0 6.69766,5.59471 7.52713,8.20814 0.46549,1.46662 0.0648,2.59005 -1.31933,3.69909 -1.09331,0.87602 -7.8865,6.70277 -15.09598,12.94833 -11.38388,9.86184 -12.97477,11.60475 -12.09426,13.25 0.55763,1.04194 1.48773,1.89444 2.06688,1.89444 0.57915,0 4.04457,-2.7 7.70094,-6 3.65636,-3.3 7.52955,-6 8.60709,-6 1.07754,0 3.22129,1.20919 4.76388,2.68709 2.16831,2.07737 2.80472,3.60541 2.80472,6.73419 0,3.69357 -0.56985,4.57902 -6.5236,10.13656 -6.36547,5.94185 -6.47677,6.13185 -4.59138,7.83811 2.68,2.42537 4.45532,7.11188 3.75344,9.9084 -0.63393,2.52577 -5.93631,7.74634 -23.15438,22.79714 -6.04125,5.28082 -15.24934,13.33195 -20.46243,17.8914 -5.21309,4.55945 -11.91586,9.90833 -14.89505,11.8864 -4.7734,3.16936 -6.26053,3.62726 -12.52166,3.85551 -4.97505,0.18137 -8.3748,-0.26467 -11.34097,-1.48789 z m 15.92453,-4.28251 c 2.3539,-0.65377 7.20579,-4.17954 13.4095,-9.74442 5.34655,-4.79599 13.42437,-11.86998 17.95071,-15.71998 9.0738,-7.71797 21.16348,-18.17168 26.20129,-22.65574 1.7875,-1.59102 3.25,-3.5266 3.25,-4.30129 0,-0.77469 -3.2625,-5.1523 -7.25,-9.72803 -3.9875,-4.57573 -11.57583,-13.49348 -16.86296,-19.81722 -5.28713,-6.32375 -10.6897,-12.48539 -12.00572,-13.69255 l -2.39276,-2.19482 -17.99044,16.03037 c -9.89473,8.8167 -22.94216,20.03281 -28.99427,24.92467 -12.96022,10.47563 -15.7,14.06081 -16.23838,21.24907 -0.47651,6.36216 1.53528,10.41077 10.4215,20.97258 11.04917,13.13262 20.2033,17.5376 30.50153,14.67736 z M 619.25184,867.25 c -4.70239,-4.8125 -9.83275,-10.50502 -11.40082,-12.65004 -2.74675,-3.75741 -3.86315,-8.12189 -1.90136,-7.43329 1.96566,0.68995 25.05034,25.86116 25.05034,27.31454 0,3.3262 -3.59367,1.11424 -11.74816,-7.23121 z M 648.5712,845.63192 C 645.38981,842.63148 643.70056,838 645.78759,838 c 1.38527,0 10.28843,9.59065 9.57005,10.30903 -1.37783,1.37783 -3.28443,0.62572 -6.78644,-2.67711 z m 10.8171,-3.97434 C 656.14458,838.86745 656.68043,836 660.44556,836 c 2.84605,0 6.11816,4.0886 5.19578,6.49228 -0.83112,2.16586 -3.11986,1.86035 -6.25304,-0.8347 z M 679,838 c -0.825,-0.53316 -2.5125,-0.97627 -3.75,-0.98469 -2.64209,-0.018 -3.09799,-3.06665 -0.75,-5.01531 0.825,-0.68469 1.5,-1.64362 1.5,-2.13097 0,-0.48734 -3.63349,-4.93856 -8.07442,-9.89159 l -8.07442,-9.00552 -2.56044,2.01404 C 655.88248,814.09368 653.90134,815 652.88819,815 c -2.80276,0 -4.98192,-4.0028 -4.05863,-7.45511 0.96611,-3.61241 3.11704,-5.02609 6.39533,-4.20329 3.18144,0.79849 28.54859,26.90768 29.38648,30.24609 1.02061,4.06646 -2.21258,6.60877 -5.61137,4.41231 z m 1.69192,-4.73665 c -0.85174,-0.85175 -2.03911,-1.16681 -2.74745,-0.72903 -0.93875,0.58018 -0.80231,1.09646 0.55136,2.08629 2.35177,1.71966 4.15719,0.60384 2.19609,-1.35726 z m -24.80203,-23.63067 c 0.8627,-1.03949 0.77523,-1.66572 -0.36482,-2.61188 C 653.52254,805.35885 651,806.44468 651,808.96862 c 0,2.36783 3.12381,2.79205 4.88989,0.66406 z M 639.2,834.8 c -0.66,-0.66 -1.2,-1.85474 -1.2,-2.65499 0,-1.15499 0.41237,-1.08179 2,0.35499 2.05439,1.8592 2.61695,3.5 1.2,3.5 -0.44,0 -1.34,-0.54 -2,-1.2 z m 9.38059,-6.90034 C 642.94272,822.74696 641.59102,820 644.6934,820 c 2.12051,0 12.61139,10.69782 11.79162,12.02423 -1.04852,1.69655 -2.18279,1.10469 -7.90443,-4.12457 z m 51.05327,-12.56286 c 5.98968,-4.90809 6.93681,-6.81691 4.91416,-9.90386 C 703.67125,804.09482 702.57104,803 702.10311,803 c -0.46793,0 -3.58652,2.44105 -6.9302,5.42456 l -6.07943,5.42457 2.02584,2.57543 c 1.11421,1.41649 2.47995,2.57544 3.03496,2.57544 0.55502,0 3.02083,-1.64844 5.47958,-3.6632 z m -20.06215,-23.50966 c 4.47933,-4.12891 4.50659,-4.19328 2.58828,-6.1116 -2.18933,-2.18932 -2.98295,-1.90929 -8.53646,3.01211 -3.51416,3.11417 -3.58134,3.29876 -1.91063,5.25 0.95237,1.11229 2.09163,2.02235 2.53168,2.02235 0.44006,0 2.83726,-1.87779 5.32713,-4.17286 z m 74.68874,-21.3091 c -1.40164,-8.8094 -2.98228,-12.17608 -8.55512,-18.22189 -5.99196,-6.50051 -10.80553,-8.66072 -26.45533,-11.87249 -2.28998,-0.46997 -3.04942,-2.81156 -1.26878,-3.91205 0.53967,-0.33354 3.74381,-0.10547 7.12032,0.5068 18.85861,3.41972 32.4692,17.24983 33.68392,34.22722 0.43997,6.14907 0.3122,6.75437 -1.42565,6.75437 -1.60241,0 -2.10008,-1.20139 -3.09936,-7.48196 z m -29.42622,1.43627 c -0.67529,-1.93713 -2.34474,-3.66603 -4.58667,-4.75 -4.47457,-2.16346 -4.65002,-3.61737 -0.48494,-4.01861 4.32805,-0.41694 9.23738,4.22666 9.23738,8.73738 0,4.09495 -2.74198,4.11551 -4.16577,0.0312 z m 14.74225,1.87885 c -0.23351,-0.73324 -0.94742,-3.03209 -1.58646,-5.10856 -2.21791,-7.20678 -8.92137,-12.70274 -17.72449,-14.53176 -4.99455,-1.03772 -5.06709,-3.58431 -0.11386,-3.99734 7.48594,-0.62424 16.43635,5.21916 20.39845,13.31741 2.65122,5.41891 2.96767,10.49865 0.70041,11.24313 -0.68721,0.22565 -1.44053,-0.18965 -1.67405,-0.92288 z M 741,682.99316 c -33.61143,-6.63715 -40.77335,-8.94211 -46.5,-14.96538 -2.86091,-3.00909 -3,-3.55812 -3,-11.84159 0,-9.74412 1.71302,-19.51532 13.61943,-77.68619 4.39039,-21.45 8.62532,-39.98254 9.41097,-41.18342 0.78565,-1.20087 3.06673,-3.43299 5.06907,-4.96025 6.77199,-5.16525 15.27278,-4.49935 59.75064,4.68048 21.81117,4.50162 26.28338,6.5089 29.55384,13.26478 3.84049,7.93339 3.41596,10.8497 -15.86029,108.95326 -3.4229,17.42031 -5.61842,22.09116 -11.95094,25.42493 -6.52602,3.43563 -16.2176,3.02793 -40.09272,-1.68662 z m 38.64691,-3.9195 c 3.95194,-2.40976 4.33782,-3.65349 9.33056,-30.07366 2.23462,-11.825 5.85409,-30.18006 8.04326,-40.78903 7.067,-34.24743 9.13712,-47.91105 7.93512,-52.37494 -2.01373,-7.47841 -4.04098,-8.39843 -31.71689,-14.39394 -20.8068,-4.50745 -43.11458,-7.94111 -46.33709,-7.13231 -3.69012,0.92616 -7.74946,5.35335 -8.77857,9.57409 -2.59497,10.64283 -22.12348,112.1244 -22.1234,114.96613 7e-5,2.44625 0.87687,4.22654 3.2501,6.59914 2.81337,2.81262 4.99653,3.66416 16.25,6.33831 10.72341,2.54819 30.95574,6.60644 42.5,8.52476 1.375,0.22848 6.1,0.47503 10.5,0.54787 6.29205,0.10417 8.67184,-0.27722 11.14691,-1.78642 z m -45.19236,-8.52821 C 729.1727,665.26361 732.70335,657 740.24187,657 c 6.95065,0 10.29852,8.55052 5.30358,13.54545 C 743.99822,672.09269 741.94837,673 740,673 c -1.94837,0 -3.99822,-0.90731 -5.54545,-2.45455 z m 7.94929,-2.85148 c 1.09791,-0.80281 1.65318,-2.2477 1.44113,-3.75 -0.2726,-1.93122 -1.01962,-2.50918 -3.56066,-2.75477 -2.7773,-0.26843 -3.30863,0.0595 -3.89746,2.40559 -0.50782,2.02333 -0.21267,3.05941 1.15682,4.0608 2.27358,1.66248 2.63518,1.66534 4.86017,0.0384 z M 751.5,655.03995 c -13.2,-2.65638 -28.65987,-5.63869 -34.35526,-6.62737 -5.69539,-0.98867 -10.56461,-2.34318 -10.8205,-3.01001 -0.25589,-0.66682 2.73737,-18.4677 6.65168,-39.55749 3.91432,-21.08979 7.99281,-43.07008 9.06332,-48.84508 2.06725,-11.15199 3.20361,-13 7.99387,-13 1.45797,0 9.13446,1.38243 17.05887,3.07207 7.92441,1.68964 20.25802,4.18352 27.40802,5.54194 19.95454,3.79115 23.3475,4.9302 24.14446,8.10556 0.36875,1.46918 0.16831,4.94581 -0.44541,7.72584 -0.61371,2.78002 -4.04846,19.32921 -7.63276,36.77596 -9.10548,44.3214 -11.91701,54.97525 -14.43873,54.71349 C 775.7824,659.89903 764.7,657.69632 751.5,655.03995 Z M 778.32891,639.75 c 6.97597,-29.08138 16.5214,-77.87457 15.3109,-78.26447 C 789.74074,560.22964 733.48753,549 731.09542,549 c -3.41425,0 -3.33585,-0.25912 -7.58121,25.0569 -2.25111,13.4239 -10.59276,58.82407 -12.11612,65.9431 l -0.53496,2.5 30.81844,6.12946 c 16.95013,3.3712 31.30686,6.1837 31.90382,6.25 0.60097,0.0667 2.71806,-6.68572 4.74352,-15.12946 z m -33.33538,-12.68434 c -13.52102,-4.11291 -20.4985,-16.93705 -16.56925,-30.45318 2.84608,-9.79018 11.11753,-16.39788 21.73146,-17.36032 13.45154,-1.21974 25.13888,8.45326 26.52175,21.95068 1.50533,14.69267 -9.31986,26.93259 -23.62383,26.71121 -3.05451,-0.0473 -6.68157,-0.42905 -8.06013,-0.84839 z m 17.10793,-5.85001 c 4.31469,-2.25402 5.86017,-3.7995 8.11419,-8.11419 4.6374,-8.87698 3.07898,-17.7714 -4.34354,-24.79013 C 761.63442,584.30417 758.20242,583 751.89506,583 c -11.30187,0 -20.23423,9.27353 -20.22323,20.99568 0.006,6.53438 2.0083,10.85934 6.81282,14.71663 7.17478,5.76023 15.6606,6.65972 23.61681,2.50334 z m -4.69667,-5.73898 c -1.49941,-5.97411 -9.5608,-7.46208 -13.26723,-2.44886 C 741.76343,616.239 740,616.18262 740,612.89553 740,609.38758 744.42352,606 749.00421,606 756.24564,606 761,609.73913 761,615.43426 c 0,3.37044 -2.75178,3.4029 -3.59521,0.0424 z M 749.5,602.80505 c -2.73717,-1.55215 -3.46677,-2.82943 -3.48469,-6.1005 -0.0179,-3.27393 3.94553,-7.70455 6.89218,-7.70455 5.42386,0 8.99577,4.13695 8.20246,9.5 -0.71965,4.86508 -6.70712,7.08527 -11.60995,4.30505 z m 6.92857,-3.37648 c 1.85909,-1.85909 1.87504,-1.99275 0.53625,-4.49431 -1.3597,-2.54063 -5.58386,-2.51461 -6.95255,0.0428 -0.84041,1.57032 -0.64191,2.39328 0.96481,4 2.43461,2.43461 3.3893,2.51368 5.45149,0.45149 z m 6.15248,-52.77457 c -6.30704,-1.47965 -7.80301,-4.26492 -1.77279,-3.30065 5.39801,0.86318 9.19174,2.35805 9.19174,3.6219 0,1.22913 -0.99391,1.18609 -7.41895,-0.32125 z M 287.06148,680.06148 c -2.33011,-2.33011 -2.50373,-3.36662 -1.0263,-6.12722 1.35703,-2.53564 5.17211,-2.46768 7.52667,0.13408 1.70907,1.8885 1.74129,2.30088 0.37061,4.74292 -1.92245,3.42508 -4.26913,3.85207 -6.87098,1.25022 z M 150.32972,639.52652 c -4.75215,-2.4136 -9.45381,-7.13882 -13.50605,-13.57375 -3.13643,-4.98063 -28.45029,-63.80425 -32.43775,-75.37792 -3.11658,-9.04591 -3.02899,-10.2322 1.03874,-14.06856 l 3.42465,-3.22987 -5.31357,-12.38821 c -7.336158,-17.10375 -8.305024,-20.5475 -6.335069,-22.51745 1.293434,-1.29344 21.187389,-9.85362 37.638649,-16.19557 4.27215,-1.6469 4.36791,-1.6375 6.18575,0.60745 1.01554,1.25413 4.39242,8.79109 7.50419,16.7488 L 154.18701,514 h 3.95195 c 5.58837,0 7.53392,2.4034 13.76147,17 2.93318,6.875 9.81676,22.78023 15.29686,35.34496 15.57598,35.71245 17.13246,40.95165 14.78568,49.76912 -2.417,9.08126 -8.76271,14.39466 -25.01867,20.9487 -13.54319,5.4603 -19.62665,6.02303 -26.63458,2.46374 z m 23.07367,-7.75853 C 189.23257,626.21413 196,619.95006 196,610.85212 196,608.18345 195.82996,606 195.62212,606 c -0.20783,0 -2.12033,0.74999 -4.25,1.66666 -2.12966,0.91666 -13.77212,5.36981 -25.87212,9.89589 l -22,8.22925 4.26656,4.0798 c 7.20199,6.88673 10.6804,7.14403 25.63683,1.89639 z M 158,614.46649 c 25.36133,-9.86955 36.01552,-14.14867 36.54448,-14.67764 C 195.29222,599.04111 192.65923,592.67243 180.98863,567 175.363,554.625 169.19,540.45 167.27085,535.5 162.83527,524.05943 160.25337,519 158.85066,519 c -5.56605,0 -49.34626,19.52198 -50.49529,22.51629 -0.5965,1.55446 -0.30266,2.30242 17.86854,45.48371 14.62396,34.75175 14.43306,34.36704 16.59368,33.44111 0.92533,-0.39655 7.75741,-3.08512 15.18241,-5.97462 z M 156.25672,595.75 c -1.66364,-2.10444 -2.0092,-4.14285 -1.113,-6.56547 1.1823,-3.196 -0.61097,-6.18453 -3.71102,-6.18453 -4.4265,0 -9.21861,-2.68476 -11.0152,-6.17122 -0.94343,-1.83083 -2.54832,-3.9168 -3.56641,-4.63548 -2.50029,-1.76499 -2.33685,-4.86296 0.33191,-6.29124 1.85264,-0.9915 2.45037,-0.8381 3.94986,1.01369 0.97178,1.20009 1.53187,2.79438 1.24465,3.54286 -0.80904,2.10831 2.34156,7.32517 4.86152,8.04987 1.24353,0.35762 3.01514,0.85925 3.9369,1.11475 1.27736,0.35405 0.34381,-2.64041 -3.92538,-12.59107 -4.72247,-11.00719 -5.88759,-12.96475 -7.42593,-12.4765 C 138.2076,555.06888 138,554.50132 138,549.56739 c 0,-6.43179 0.73823,-6.78882 6.26787,-3.03134 3.94577,2.68122 4.79447,4.46395 2.12514,4.46395 -0.88801,0 -1.38126,0.55926 -1.10245,1.25 0.27749,0.6875 2.44398,5.72637 4.81442,11.1975 l 4.3099,9.9475 1.87519,-4.30021 C 158.46495,564.10731 157.91792,560 155.07877,560 c -1.19855,0 -2.26814,-1.10448 -2.94225,-3.03823 -0.98562,-2.82735 -0.83624,-3.17385 2.15217,-4.99219 l 3.21131,-1.95396 1.73654,2.24219 c 0.95509,1.23321 1.68131,3.59219 1.61383,5.24219 -0.0675,1.65 0.18551,4.13057 0.56223,5.51239 0.48829,1.79105 -0.16208,4.19162 -2.2652,8.36109 l -2.95015,5.84869 1.78602,3.98919 c 0.9823,2.19405 2.84295,4.51613 4.13476,5.16017 3.50687,1.74836 4.71302,6.05269 2.40937,8.59819 -2.04703,2.26195 -6.74871,2.70552 -8.27068,0.78028 z m -20.96885,-73.64223 c 13.22291,-5.37799 13.76277,-5.71021 13.1751,-8.10777 -0.50683,-2.06772 -10.26322,-25.62724 -11.13366,-26.88531 -0.27306,-0.39465 -31.78411,12.31009 -34.12685,13.7594 -0.99534,0.61575 0.15481,4.20213 4.93846,15.39898 l 6.23599,14.59629 3.56155,-1.57691 c 1.95885,-0.8673 9.76608,-4.1004 17.34941,-7.18468 z M 112.6978,517.75 c -0.2839,-0.6875 -1.23906,-2.93985 -2.12259,-5.00521 l -1.60641,-3.75522 3.2656,-1.99104 c 4.85109,-2.95774 6.28105,-2.55584 8.12974,2.2849 2.20592,5.77613 2.10192,6.4242 -1.31448,8.19089 -3.58173,1.85218 -5.66354,1.94254 -6.35186,0.27568 z m 4.35966,-6.64264 C 115.87086,508.89018 114,508.25282 114,510.06574 c 0,2.30457 2.1844,5.14986 3.18528,4.14898 0.66667,-0.66667 0.62406,-1.70245 -0.12782,-3.10736 z m 12.62775,-3.64129 c -2.59075,-5.43287 -2.19597,-7.35471 1.85881,-9.04891 4.02955,-1.68365 4.92047,-1.37137 6.83641,2.39625 2.96326,5.82716 2.926,6.97677 -0.27988,8.6346 -4.64766,2.40339 -6.53622,1.95861 -8.41534,-1.98194 z M 136,506.54705 C 136,505.27122 133.56641,501 132.83948,501 c -0.98291,0 -1.09687,2.16567 -0.23249,4.41821 0.53103,1.38385 3.39301,2.33602 3.39301,1.12884 z m 134.8124,78.9014 c -0.98208,-1.5073 -4.10289,-23.4913 -3.43027,-24.16392 0.94698,-0.94698 2.41301,4.06279 3.63548,12.42334 1.17017,8.00286 1.07061,13.69873 -0.20521,11.74058 z m -20.23333,-5.89147 c -0.31849,-3.05634 -0.83645,-8.03198 -1.15103,-11.05698 -0.58419,-5.61767 0.22341,-6.82982 2.62358,-3.93781 1.71533,2.06685 1.95636,19.57006 0.27745,20.1484 -0.76171,0.2624 -1.37329,-1.53869 -1.75,-5.15361 z M 642.26913,484.7905 c -12.89084,-11.02394 -36.27747,-33.8432 -36.2726,-35.39262 0.007,-2.2787 4.65793,-7.91025 6.7861,-8.2172 1.21765,-0.17563 3.52166,0.61187 5.12001,1.75 1.59836,1.13812 4.23259,2.06932 5.85385,2.06932 3.43169,0 9.74351,-3.91259 9.74351,-6.03983 0,-0.80309 -6.18278,-7.23408 -13.73952,-14.29108 -14.67457,-13.70413 -17.37677,-16.84436 -18.81752,-21.86796 -2.01803,-7.03647 1.83611,-12.93142 24.05704,-36.79559 37.41697,-40.18395 38.30444,-40.99075 45.09996,-41.00042 2.38725,-0.003 4.91376,0.95631 7.5,2.84888 4.46538,3.26772 35.00184,31.92419 66.75584,62.646 23.70879,22.93812 25.06208,24.84985 22.82935,32.25 -1.21589,4.02993 -24.7897,30.63293 -48.18515,54.37683 -19.20049,19.48648 -20.10128,19.44309 -44.03162,-2.12075 -7.94356,-7.15803 -14.87691,-12.8699 -15.40743,-12.69306 -1.00619,0.33539 -3.50818,8.83253 -3.54166,12.02802 -0.0106,1.01257 1.55571,3.68106 3.48071,5.92999 4.18177,4.88546 4.32772,6.59183 0.91111,10.65224 -4.07628,4.84439 -6.10959,4.15704 -18.14198,-6.13277 z M 658,486.1937 c 0,-0.63796 -28.84094,-27.22284 -39.13202,-36.07095 -3.7758,-3.24637 -6.86798,-4.0664 -6.86798,-1.82134 0,0.71577 7.7625,8.51526 17.25,17.33221 26.07244,24.22969 24.96848,23.31982 26.985,22.24061 0.97075,-0.51953 1.765,-1.27577 1.765,-1.68053 z m 43.85822,-1.62038 c 4.13513,-2.13836 56.368,-57.24989 58.97542,-62.22567 0.7596,-1.44955 1.06113,-3.68623 0.70053,-5.19633 -0.6697,-2.80457 -2.8967,-5.0298 -41.18394,-41.15132 -13.11696,-12.375 -29.08233,-27.5625 -35.4786,-33.75 -14.62481,-14.14748 -14.98868,-14.21278 -25.07726,-4.5 -3.85614,3.7125 -12.24989,12.6 -18.65277,19.75 -6.40288,7.15 -16.31643,18.15673 -22.03012,24.4594 -11.66419,12.86658 -13.88762,16.75262 -12.08084,21.11457 1.40977,3.40348 13.76603,15.43963 40.46936,39.42093 11,9.8787 24.02524,21.71145 28.94499,26.295 9.33224,8.69451 20.0713,17.2101 21.70375,17.2101 0.52282,0 2.19209,-0.64201 3.70948,-1.42668 z m -9.0826,-17.33141 C 688.77403,463.50134 680.325,455.75855 674,450.0357 c -21.29258,-19.26548 -51.60891,-48.01545 -53.90202,-51.11705 -2.03532,-2.75291 -2.14153,-3.3993 -1.00813,-6.13556 1.77697,-4.29 48.53071,-50.78309 51.06779,-50.78309 1.09496,0 4.54493,2.38042 7.6666,5.28982 C 733.20665,398.90629 751,416.43354 751,419.37121 c 0,1.29458 -1.39015,4.10316 -3.08923,6.24129 -4.6411,5.8404 -43.8828,46.30216 -46.01022,47.44072 -1.53469,0.82135 -3.08709,-0.16732 -9.12493,-5.81131 z m 41.41361,-33.55036 c 12.89971,-13.68617 12.99856,-13.82691 11.16286,-15.89358 C 744.33344,416.65114 729.325,402.32686 712,385.96623 694.675,369.60561 678.26414,353.9174 675.53142,351.10355 l -4.96859,-5.11609 -6.85736,6.75627 c -3.77155,3.71595 -14.48757,14.70385 -23.81338,24.41756 l -16.95601,17.66129 24.28196,22.71831 c 13.35508,12.49507 29.90696,27.93366 36.78196,34.30797 6.875,6.37432 13.4,12.56996 14.5,13.76811 l 2,2.17844 10.33713,-10.1477 c 5.68542,-5.58124 16.19387,-16.36151 23.3521,-23.95616 z M 693,443.5 c -1.58234,-1.68433 -2.04018,-2.85982 -1.37351,-3.52649 0.66666,-0.66666 1.79117,-0.15784 3.37351,1.52649 1.58234,1.68433 2.04018,2.85982 1.37351,3.52649 C 695.70685,445.69315 694.58234,445.18433 693,443.5 Z M 675.23761,427.20225 C 664.80497,417.28849 662.28492,414 665.1204,414 c 1.70687,0 24.94544,22.08445 24.31387,23.10635 -1.18564,1.91842 -3.32869,0.42335 -14.19666,-9.9041 z m 28.71346,-18.31327 c -11.38851,-9.8018 -15.1906,-13.6924 -14.48948,-14.82683 C 689.82263,393.47797 690.48058,393 690.92369,393 692.54198,393 714,412.07802 714,413.51682 c 0,2.82734 -2.9831,1.45353 -10.04893,-4.62784 z m -20.62785,-4.70331 c -11.04083,-9.78332 -12.93943,-11.96946 -11.57774,-13.33115 0.82533,-0.82533 3.90121,1.31682 11.72035,8.16246 5.83075,5.10479 10.44562,9.74868 10.25527,10.31973 -0.82253,2.46759 -3.03932,1.36941 -10.39788,-5.15104 z M 653.5,402.40083 c -2.3112,-2.73995 -3.97579,-3.68368 -7.25,-4.11035 -4.29435,-0.5596 -5.51517,-1.86776 -2.73772,-2.93357 0.83176,-0.31917 3.5218,-0.27897 5.97788,0.0893 3.87545,0.58116 4.79122,1.2157 6.92949,4.80142 2.26118,3.79184 2.52947,5.78525 0.77133,5.73101 -0.38004,-0.0117 -2.04098,-1.62175 -3.69098,-3.57785 z m 10.63752,-1.42753 c -2.79655,-2.52872 -4.15389,-4.48824 -3.78139,-5.45899 0.9887,-2.57649 3.33721,-1.6905 7.06595,2.66569 6.30624,7.36743 3.97067,9.35368 -3.28456,2.7933 z m 34.22177,-9.76313 c -10.86481,-9.63717 -13.76658,-12.84042 -12.39807,-13.6862 1.37871,-0.85209 5.32963,2.10353 15.07625,11.27829 5.64867,5.31724 7.18527,7.31082 6.32182,8.20192 -0.86702,0.89479 -3.02638,-0.49536 -9,-5.79401 z M 677.59264,385.4393 C 672.54686,380.9379 669,376.99484 669,375.88685 669,374.84908 669.41959,374 669.93242,374 c 1.30586,0 18.56758,16.11646 18.56758,17.33567 0,2.74623 -3.09508,1.07308 -10.90736,-5.89637 z m -14.38789,-0.46317 c -2.58364,-2.40703 -2.77053,-3.54504 -0.71191,-4.33501 1.62121,-0.62212 5.74671,3.14022 5.20974,4.75113 -0.60329,1.80989 -2.27443,1.65529 -4.49783,-0.41612 z m 8.88224,-16.47767 C 667.37625,363.51755 666.37973,361 669.11888,361 c 0.55046,0 3.44942,2.31577 6.44213,5.14615 4.27067,4.03901 5.19957,5.43741 4.3177,6.5 -1.69792,2.04587 -2.17359,1.79266 -7.79172,-4.14769 z m -17.66787,91.98463 c 1.48429,-2.2653 1.55534,-2.91708 0.42963,-3.94119 -0.74181,-0.67487 -4.64874,-4.27482 -8.68206,-7.99989 l -7.33331,-6.77285 -3.16669,3.06262 c -1.74168,1.68444 -4.61807,3.67106 -6.39198,4.41471 l -3.22529,1.35209 6.13111,5.45071 c 3.37211,2.99789 8.85956,7.78448 12.19432,10.63686 l 6.0632,5.18616 1.10135,-4.33753 c 0.60574,-2.38565 1.90161,-5.5589 2.87972,-7.05169 z M 187.82774,444.52674 c -2.38026,-1.9103 -7.02774,-5.36403 -10.32774,-7.67495 -3.3,-2.31092 -6.27946,-4.61809 -6.62101,-5.12704 -0.34156,-0.50895 0.55844,-3.89903 2,-7.5335 2.18199,-5.50126 4.90047,-9.13108 16.22959,-21.67036 C 204.45275,385.53768 257.68006,333 259.54203,333 c 0.66719,0 1.77243,0.67398 2.45609,1.49773 1.08087,1.30238 1.67525,1.11823 4.55674,-1.41175 1.82255,-1.60022 4.13411,-3.16988 5.1368,-3.48812 1.0027,-0.31824 6.54476,-5.19545 12.31571,-10.83824 6.95534,-6.80088 12.46811,-11.24742 16.35248,-13.18972 l 5.85984,-2.93011 1.91861,2.43011 c 3.68402,4.66618 3.80281,5.34576 1.73985,9.95353 -2.11247,4.71836 -3.35868,5.93686 -6.09677,5.96126 -1.97551,0.0176 -1.5398,-1.91878 1.38135,-6.13906 2.80679,-4.05506 2.22399,-4.25065 -2.16234,-0.7257 -5.24322,4.21356 -6.40339,2.93491 -1.45205,-1.60034 2.11337,-1.93578 3.41706,-3.50073 2.89708,-3.47767 -2.76445,0.12256 -8.18371,4.46625 -16.3043,13.06836 l -9.07232,9.61028 4.03988,3.24654 4.03988,3.24653 7.00921,-7.60681 c 7.02935,-7.62868 9.3801,-8.97468 10.5139,-6.02005 0.41676,1.08606 -1.76709,4.00489 -6.92076,9.25 -4.59956,4.68116 -7.97314,9.06528 -8.6693,11.26618 -0.62681,1.98162 -2.2262,4.62371 -3.5542,5.8713 -2.25737,2.12068 -2.314,2.42182 -0.87,4.62565 1.45425,2.21946 1.36847,2.57779 -1.46731,6.12869 -1.65652,2.07428 -20.26446,20.89064 -41.35098,41.81413 C 208.57814,436.54656 195.97168,448 192.90629,448 c -0.41294,0 -2.69829,-1.56297 -5.07855,-3.47326 z m 7.65735,-5.47976 c 0.48096,-1.51536 -1.0965,-3.58818 -7.03944,-9.25 -4.21262,-4.01334 -7.96846,-7.41605 -8.34631,-7.56159 -1.09307,-0.42102 -3.39234,6.87579 -2.44999,7.77514 1.56144,1.49019 15.84067,10.9754 16.53326,10.98248 0.37544,0.004 0.96155,-0.87187 1.30248,-1.94603 z m 82.47043,-82.13008 c -0.50566,-0.94485 -4.86502,-5.36874 -9.68745,-9.83088 l -8.76807,-8.11299 -7.56142,7.76349 c -4.15878,4.26991 -20.92128,21.4704 -37.25,38.22331 C 198.35986,401.71274 185,415.87883 185,416.44005 c 0,0.56121 3.93172,4.9704 8.73715,9.79821 l 8.73715,8.77782 38.20031,-38.19064 C 272.0943,365.4137 278.71172,358.32986 277.95552,356.9169 Z M 284,343.90693 c 0,-1.07591 -8.78036,-9.90997 -9.84178,-9.90196 -0.36202,0.003 -2.00822,1.12 -3.65822,2.48282 l -3,2.47786 6,5.48136 6,5.48135 2.25,-2.51994 c 1.2375,-1.38597 2.25,-2.96164 2.25,-3.50149 z m 174.20323,13.88238 c -11.37049,-1.68799 -17.75217,-7.53755 -19.73103,-18.08582 L 437.77742,336 h -6.76357 c -3.71996,0 -14.31947,1.16109 -23.55447,2.58019 -9.52381,1.46349 -18.24321,2.30774 -20.14652,1.95068 -1.84559,-0.34623 -4.91614,-1.99968 -6.82345,-3.67431 -8.01217,-7.03478 -8.52174,-24.48264 -0.95628,-32.74378 l 3.30855,-3.61278 11.63956,-0.33754 c 7.55116,-0.21898 14.91093,0.22009 20.95303,1.25 5.1224,0.87315 12.24514,1.58754 15.8283,1.58754 h 6.51485 l 0.62348,-3.32344 c 1.16467,-6.2082 5.90062,-12.18773 12.02704,-15.18511 4.83579,-2.36593 6.81239,-2.74431 14.05656,-2.69083 15.38808,0.11361 35.69504,5.23475 50.66993,12.77828 5.79698,2.9202 10.19163,4.18933 20.84557,6.02001 10.46978,1.79904 13.86562,2.76907 15.12888,4.32161 2.1543,2.64764 3.24481,15.28896 1.77529,20.57948 -0.61108,2.2 -1.60523,6.32942 -2.20921,9.17648 -1.24998,5.89224 -0.86978,5.7058 -18.19496,8.92214 -4.95,0.91894 -12.22778,2.94174 -16.17284,4.4951 -17.56497,6.91618 -45.47993,11.57264 -58.12393,9.69559 z M 488.5,349.45122 c 7.15,-1.31087 17.95,-3.95086 24,-5.86664 6.05,-1.91578 16.13669,-4.40523 22.41486,-5.5321 6.27817,-1.12688 11.63423,-2.26823 11.90234,-2.53635 0.26812,-0.26811 0.53143,-6.45639 0.58514,-13.75173 l 0.0977,-13.26425 -13,-2.64116 c -7.28914,-1.48091 -15.9477,-3.98065 -19.71005,-5.69033 -21.18772,-9.62807 -47.95183,-14.5973 -59.68579,-11.08172 -5.60543,1.67943 -10.67868,6.77789 -11.53244,11.58976 -1.25286,7.06127 -1.44557,7.3232 -5.38911,7.32475 l -3.68261,0.001 -0.003,12.05385 -0.003,12.05386 3.00254,-0.15662 c 1.6514,-0.0861 3.47501,-0.11102 4.05246,-0.0553 0.57746,0.0557 1.59975,2.7633 2.27176,6.01683 1.68875,8.17616 5.83871,11.77117 16.67832,14.44808 3.17801,0.78482 13.93933,-0.33449 28,-2.91237 z m -0.96466,-15.39403 C 487.17599,333.47573 485.59305,333 484.01771,333 c -3.31439,0 -8.39843,-3.90175 -10.57931,-8.11912 C 472.00767,322.11414 471.66552,322 464.80306,322 c -5.12831,0 -7.64162,0.44891 -8.90266,1.59013 -3.4467,3.11923 -8.81065,-1.58349 -5.86057,-5.13812 C 451.39945,316.81376 456,316.46486 456,318 c 0,0.55 1.48837,1 3.3075,1 2.766,0 3.80897,-0.71144 6.37048,-4.34549 2.38476,-3.38328 4.01935,-4.58824 7.38215,-5.4418 2.37554,-0.60298 4.72673,-0.84444 5.22487,-0.53657 0.49814,0.30787 1.95744,-0.003 3.24289,-0.69107 3.08865,-1.65299 5.70069,-0.58773 5.29225,2.15833 -0.48365,3.25169 -3.29371,4.6284 -5.5116,2.70027 -2.88679,-2.50964 -8.51205,-1.26066 -12.40308,2.75387 L 465.60767,319 h 16.12284 c 14.25633,0 16.16027,-0.19307 16.44617,-1.66777 0.27216,-1.4039 0.79797,-1.24532 3.32332,1.00226 2.91968,2.59853 2.94803,2.71011 1.05887,4.16776 C 500.33669,324.21685 498,324.47198 498,323 c 0,-0.60933 -4.54272,-1 -11.62816,-1 h -11.62816 l 2.46416,3.19533 c 3.26436,4.23297 7.26516,5.59157 9.77562,3.31964 3.00638,-2.72074 5.51654,-1.58376 5.51654,2.49873 0,2.80854 -0.41907,3.54602 -2.15564,3.79349 -1.1856,0.16895 -2.44966,-0.16855 -2.80902,-0.75 z M 510,326 c -2.53838,-2.53838 -2.61562,-8.01817 -0.15583,-11.05588 3.9938,-4.93215 13.15583,-0.99241 13.15583,5.6571 0,6.01323 -8.75124,9.64754 -13,5.39878 z m 8.5,-5.39101 c 0,-3.59911 -2.63564,-5.57124 -4.91618,-3.67856 -1.62521,1.34881 -2.14248,5.17757 -0.87124,6.44881 0.39191,0.39192 1.85441,0.57942 3.25,0.41667 2.0632,-0.24061 2.53742,-0.83622 2.53742,-3.18692 z M 407.19704,333.5 c 8.37852,-1.375 16.87215,-2.5 18.87472,-2.5 h 3.64104 l 0.64003,-6.88647 c 0.35202,-3.78756 0.35547,-8.96256 0.008,-11.5 C 429.75342,308.18434 429.59576,308 426.41484,308 c -5.00775,0 -23.88721,-3.8438 -27.09359,-5.51618 C 396.02314,300.7636 392,300.53476 392,302.06739 c 0,0.58706 -0.78901,0.81696 -1.75335,0.51089 -0.96434,-0.30607 -3.24051,0.34791 -5.05814,1.45328 -8.59979,5.22984 -9.76422,23.21662 -1.90408,29.41182 3.98458,3.14056 5.10457,3.14321 23.91261,0.0566 z"
       id="path1" />
  </g>
</svg>
