<?xml version="1.0" encoding="UTF-8" standalone="no"?>
<!-- Created with Inkscape (http://www.inkscape.org/) -->

<svg
   version="1.1"
   id="svg1"
   width="1024"
   height="1024"
   viewBox="0 0 1024 1024"
   xmlns="http://www.w3.org/2000/svg"
   xmlns:svg="http://www.w3.org/2000/svg">
  <defs
     id="defs1" />
  <g
     id="g1">
    <path
       style="fill:#ffffff;fill-opacity:1"
       d="m 538,824.99869 c -12.925,-0.4025 -33.85,-0.79966 -46.5,-0.88258 -24.84963,-0.16289 -38.83625,-1.247 -47.5,-3.68174 -15.28653,-4.29591 -27.31261,-10.57888 -35.61514,-18.60696 l -4.11514,-3.97911 -8.60997,3.03894 c -14.35686,5.06734 -24.00794,6.43239 -41.15975,5.82161 -16.69936,-0.59466 -25.6591,-2.64185 -39.83399,-9.10155 -22.1106,-10.07612 -43.70892,-31.91482 -53.7941,-54.3928 -4.17314,-9.30114 -8.71849,-25.05211 -10.3643,-35.91535 -2.73699,-18.06567 -2.83958,-29.35002 -0.48909,-53.79915 3.24187,-33.72098 1.94807,-51.79579 -4.76776,-66.60723 -1.60937,-3.54939 -4.28318,-8.01479 -5.94179,-9.92311 -4.14109,-4.7645 -5.20608,-7.11703 -4.30267,-9.50438 1.70256,-4.49914 3.49177,-4.9715 18.39739,-4.85697 33.21112,0.25519 62.79098,12.0055 84.99382,33.76297 16.21209,15.88689 27.09814,37.5615 32.09493,63.90243 0.83616,4.40787 2.20956,16.53883 3.05201,26.95769 1.69107,20.91423 3.61662,33.67408 6.22772,41.2686 l 1.71906,5 0.66102,-14 C 383.33427,694.4657 389.49909,667.95434 405.9871,617 424.35992,560.22085 426,554.4391 426,546.44883 v -3.27819 l -7.25,-0.60111 c -3.9875,-0.3306 -18.5,-1.4964 -32.25,-2.59065 -30.06308,-2.39247 -47.269,-3.94218 -50.07856,-4.51049 -1.14321,-0.23124 -2.58631,-1.53483 -3.2069,-2.89687 -0.96086,-2.10887 -0.61525,-3.58694 2.32856,-9.95844 1.9013,-4.1151 3.4569,-7.89697 3.4569,-8.40416 0,-0.50719 -3.63262,0.36331 -8.07248,1.93446 -9.08537,3.21505 -13.09192,3.56838 -14.95861,1.31916 -1.92481,-2.31926 -0.59056,-28.28347 2.57582,-50.12492 l 2.63302,-18.16238 -10.08995,-12.1187 C 301.24997,425.24066 288.5015,407.07487 282.27495,396 c -8.6042,-15.30387 -16.54215,-39.16278 -16.69575,-50.18198 -0.0694,-4.97783 0.28444,-6.06184 2.85513,-8.74712 10.10637,-10.55688 43.30335,-11.69332 87.06567,-2.98053 l 15,2.9864 8.58116,-8.28838 c 19.01434,-18.36562 43.04582,-33.08662 70.4465,-43.15352 10.61012,-3.89812 11.97941,-4.67453 12.78666,-7.25025 13.63292,-43.49854 32.89135,-76.66706 47.26997,-81.41244 4.94211,-1.63104 8.98816,0.0366 18.26943,7.53021 19.01695,15.35401 37.17222,42.66558 50.56493,76.06648 3.49692,8.72118 6.97078,16.05064 7.71969,16.28769 6.78465,2.14752 50.43394,19.93495 57.81644,23.56066 10.29476,5.05599 13.03174,7.04273 13.07051,9.48777 0.0139,0.87725 -3.24859,4.61707 -7.25,8.31069 l -7.27529,6.71568 9.02749,0.0343 C 661.88105,345.00504 665,346.37101 665,350.86609 665,357.11804 646.18551,403.56487 632.74222,430.5 620.01225,456.00592 600.26099,487.86066 590,499.43445 c -9.06984,10.23024 -8.47545,8.69377 -5.5764,14.41479 9.47316,18.69438 20.21961,52.41833 24.93919,78.26286 l 2.19489,12.01926 1.83433,-5.10111 c 2.142,-5.95672 6.05835,-9.37199 12.60799,-10.99488 3.16269,-0.78366 26.78858,-1.02889 79.5,-0.8252 82.66976,0.31947 77.29047,-0.10783 81.6373,6.48476 2.98212,4.52282 2.27026,9.80205 -3.69533,27.40486 -3.05692,9.02011 -10.66171,31.47521 -16.89954,49.90021 -6.23783,18.425 -12.11933,35.525 -13.07,38 -0.95068,2.475 -1.8343,7.49724 -1.96362,11.16054 -0.26703,7.56457 -2.59106,12.33519 -7.82931,16.07157 -2.77045,1.97612 -4.76606,2.33222 -15.51164,2.76789 l -12.33213,0.5 -0.44458,6.5 c -0.91779,13.41839 -5.93835,29.73163 -14.94222,48.55154 -6.06066,12.66799 -11.3398,18.7742 -17.80718,20.597 -5.16071,1.45451 -25.642,1.62677 -53.4373,0.44944 l -21.29554,-0.90202 -3.20446,3.1008 c -6.42114,6.21343 -11.4734,7.60693 -28.20445,7.77925 -8.25,0.085 -25.575,-0.17483 -38.5,-0.57732 z m 52.24835,-11.05082 c 5.65861,-1.57147 8.49692,-4.72236 11.21301,-12.44787 9.36487,-26.63696 12.55668,-61.51256 5.62812,-61.49626 -4.99498,0.0117 -14.38152,10.0795 -19.17109,20.56241 -1.52437,3.33639 -3.48371,9.82022 -4.3541,14.40852 C 581.85146,784.00397 580.81003,786 577.81181,786 573.50315,786 572,784.18569 572,778.98514 c 0,-4.76881 -0.14335,-5.01762 -4.0343,-7.00264 -2.21886,-1.13198 -4.45665,-1.79711 -4.97287,-1.47807 -0.51621,0.31904 -1.87594,3.59856 -3.02161,7.28782 -2.44414,7.87054 -2.85635,21.32326 -0.94859,30.95775 l 1.23758,6.25 13.1199,-0.006 c 7.21594,-0.003 14.80665,-0.47401 16.86824,-1.04655 z M 548.51917,812.25 c -0.38214,-0.9625 -0.94478,-6.12042 -1.25031,-11.46204 -0.77427,-13.53686 0.94706,-23.5592 6.17271,-35.94015 0.52919,-1.2538 -1.18814,-3.07683 -7.12212,-7.56048 -29.06573,-21.96177 -44.81944,-28.25089 -67.51348,-26.95243 -8.90366,0.50943 -10.9764,0.35181 -12.26055,-0.93234 -3.47401,-3.47401 -0.99232,-7.79201 5.23673,-9.1116 4.83942,-1.02521 19.41438,-1.01358 25.46785,0.0203 l 4.75,0.81128 v -4.01422 c 0,-7.66246 1.88247,-9.67516 9.66943,-10.33839 3.03045,-0.2581 2.72348,-0.58599 -7,-7.47724 C 488.12392,687.56654 468.5519,666.95119 453.16952,645.04747 446.34452,635.32903 446.32643,630 453.11844,630 c 2.07328,0 3.25426,0.88998 4.97613,3.75 8.18792,13.60008 36.96819,47.25 40.41221,47.25 0.71262,0 2.16568,-1.47457 3.22904,-3.27681 4.56968,-7.74504 13.70598,-15.42749 22.26418,-18.72131 1.925,-0.74088 3.66444,-1.47133 3.86542,-1.62322 0.20098,-0.1519 -3.23196,-5.36173 -7.62876,-11.57742 -10.64723,-15.05181 -14.9057,-22.17118 -23.38074,-39.08817 -10.55328,-21.06536 -11.36846,-24.29803 -6.75042,-26.76953 3.47492,-1.85972 5.59107,-0.13887 9.03307,7.34567 10.09358,21.94825 20.56377,39.76399 36.14975,61.51126 13.40736,18.70741 18.60848,27.13971 22.21568,36.0171 2.62079,6.44981 3.61902,15.71725 2.14698,19.93243 -0.77844,2.22904 -0.69857,2.25 8.57423,2.25 h 9.35998 l 1.23159,-4.60476 c 1.1131,-4.16177 0.99443,-5.29216 -1.23353,-11.75 -3.58437,-10.38949 -6.3489,-32.64524 -7.57897,-61.01428 -0.9558,-22.04359 -0.90107,-25.13954 0.48176,-27.25 1.66387,-2.53939 4.4313,-3.03075 7.5797,-1.34578 1.66919,0.89333 1.93638,2.16094 1.94973,9.25 0.0147,7.78432 1.80271,37.95663 2.26678,38.25059 0.11976,0.0759 3.47653,-0.0642 7.45949,-0.3113 l 7.24173,-0.44923 3.13457,-10.13762 c 2.86825,-9.27633 3.08113,-10.89719 2.50566,-19.07789 -1.67562,-23.82008 -15.8844,-76.18107 -26.27476,-96.82551 l -2.39863,-4.76578 -6.22515,5.18979 c -14.79653,12.33557 -38.14716,18.15618 -83.54439,20.82512 -10.07557,0.59235 -24.74427,0.77341 -32.5971,0.40237 l -14.27788,-0.67463 -0.68125,6.64941 c -0.98753,9.63882 -4.98263,23.97036 -16.90406,60.6395 -23.63098,72.68659 -28.59311,96.59185 -26.69884,128.62267 1.01962,17.24109 2.97245,25.96565 8.02202,35.83956 10.41977,20.37479 26.09154,31.52369 51.45634,36.60603 5.65028,1.13215 40.3966,2.33532 79.35699,2.74792 16.16919,0.17124 17.30944,0.0641 16.66218,-1.56618 z m 135.16938,-9.6743 c 1.3364,-1.55367 2.18334,-3.46716 1.88209,-4.25221 -0.31325,-0.81631 -0.1107,-1.15727 0.47313,-0.79644 1.30595,0.80712 9.93761,-17.46945 13.23663,-28.02705 3.99051,-12.77055 6.00465,-23.16701 5.25863,-27.14366 -0.66812,-3.56139 -0.70631,-3.58521 -4.71965,-2.94345 -7.85325,1.25579 -18.32542,10.68188 -24.53825,22.08711 -5.56465,10.21531 -6.20083,10.14128 -22.98569,-2.6748 -20.12585,-15.36709 -26.5781,-19.80746 -28.79544,-19.81671 -1.88472,-0.008 -2.00733,0.69774 -2.12723,12.24158 -0.13612,13.10611 -1.77359,24.13429 -6.1974,41.73887 -1.52182,6.05608 -2.74634,11.10138 -2.72116,11.21177 0.096,0.42097 44.61805,1.48141 56.42515,1.34395 12.2677,-0.14282 12.40128,-0.1696 14.80919,-2.96896 z M 631,793.56335 c 0,-2.35641 1.11167,-7.20032 6.37455,-27.77605 2.1805,-8.52486 4.30148,-14.30252 4.69423,-12.7873 1.15282,4.44753 -0.5439,20 -2.18193,20 -1.46898,0 -2.87566,7.44525 -2.88127,15.25 L 637,796 h -3 c -2.51254,0 -3,-0.39593 -3,-2.43665 z m -246.45607,-0.39726 c 3.87416,-1.13239 8.27265,-2.52605 9.77442,-3.09703 l 2.7305,-1.03813 -2.49453,-3.76949 c -3.29826,-4.984 -7.06928,-14.39538 -9.17067,-22.88737 -1.03194,-4.17021 -2.75825,-8.09734 -4.38882,-9.98401 -4.39949,-5.0905 -8.68963,-13.36392 -11.88035,-22.91093 -2.86711,-8.57877 -4.52999,-20.01311 -6.61394,-45.47913 -1.42996,-17.4742 -5.21254,-35.83551 -9.35072,-45.39003 -1.47796,-3.41241 -2.54135,-4.23313 -8.66087,-6.68443 l -6.97605,-2.79439 -1.30269,9.07721 c -1.57686,10.98768 -3.30246,15.42092 -6.58451,16.91632 -3.559,1.62159 -6.50569,0.56103 -15.4382,-5.55644 l -7.91213,-5.41867 -3.30794,10.09998 c -4.16522,12.71752 -7.0268,16.26747 -12.98705,16.11119 -3.33118,-0.0874 -5.7264,-1.16495 -11.47978,-5.16472 l -7.27031,-5.05435 -5.75517,12.17917 c -5.37482,11.37427 -5.74511,12.62922 -5.603,18.98929 0.50543,22.62145 8.31975,47.01134 20.54012,64.1094 6.39978,8.95421 20.95812,22.37221 30.29886,27.92557 8.96879,5.33222 21.98679,10.21478 30.97978,11.61935 10.15328,1.58579 34.81605,0.5508 42.85305,-1.79836 z M 582.48243,748.5 c 1.75257,-2.75 3.93599,-5.6176 4.85203,-6.37244 0.91605,-0.75485 1.66522,-1.65485 1.66483,-2 -4e-4,-0.34516 -9.9004,-0.78019 -22,-0.96675 -20.78065,-0.32039 -22.00572,-0.2373 -22.11529,1.5 -0.1056,1.67425 -0.15702,1.68224 -0.57333,0.0892 -0.26158,-1.00098 -1.38896,-1.74048 -2.63399,-1.72776 -2.12851,0.0217 -2.12136,0.0658 0.32332,1.98949 6.03106,4.74587 25.36929,18.31399 29.21889,20.5006 l 4.22361,2.39905 1.92672,-5.20569 c 1.05969,-2.86313 3.36064,-7.45569 5.11321,-10.20569 z m 86.16122,3.7423 c 1.179,-2.05827 4.02975,-5.8798 6.33498,-8.4923 l 4.19134,-4.75 h -17.78498 c -10.90377,0 -17.41742,0.35761 -16.83499,0.92427 1.57478,1.53214 20.9115,15.97171 21.45,16.01766 0.275,0.0235 1.46464,-1.64137 2.64365,-3.69963 z m 70.51721,-26.19263 C 740.17239,724.80049 741,722.47828 741,720.88922 V 718 l -16.25,-0.0233 c -91.78186,-0.13159 -211.20754,0.14751 -211.55445,0.49441 -1.21196,1.21197 1.10919,5.28308 4.01328,7.03897 4.66173,2.8186 12.62463,3.00455 124.20203,2.90037 l 95.91087,-0.0895 z M 546.47692,705.82856 c 6.66864,-3.03843 3.69501,-16.18123 -7.57474,-33.4787 l -4.08622,-6.27178 -4.87719,1.85319 c -2.68244,1.01925 -7.11893,3.49878 -9.85886,5.51007 -5.69962,4.1839 -12.53872,12.92062 -11.74119,14.99896 1.18676,3.09265 20.30281,14.33768 29.16128,17.15415 5.12363,1.62901 5.87259,1.64854 8.97692,0.23411 z m 214.61081,-52.25341 c 13.49181,-39.96498 17.59763,-53.24934 16.76716,-54.25 -0.89532,-1.07879 -14.97367,-1.3223 -75.72733,-1.30984 -41.04516,0.008 -75.12269,0.34592 -75.72786,0.75 -2.11879,1.41476 -3.7636,5.92457 -20.09769,55.10464 -9.05183,27.25402 -16.89011,50.36041 -17.41841,51.34755 -0.92064,1.72023 2.26499,1.78414 76.68832,1.53864 L 743.22078,706.5 Z m -80.41843,13.37936 c -5.66317,-4.45465 -5.19139,-14.5329 0.93201,-19.90931 8.45708,-7.42542 19.72072,-3.29555 19.57618,7.17771 -0.14905,10.79976 -12.90042,18.71588 -20.50819,12.7316 z m -90.5494,1.975 c 1.73994,-5.48868 2.9295,-10.21345 2.64345,-10.49949 -0.28604,-0.28604 -2.6581,0.0183 -5.27125,0.67628 l -4.75117,1.19636 0.62088,6.68037 c 0.84744,9.11818 1.71945,13.08478 2.73813,12.4552 0.47104,-0.29111 2.28002,-5.02004 4.01996,-10.50872 z M 293.93571,648 c 5.16549,-17.10015 9.43506,-18.88798 22.58162,-9.45576 4.25014,3.04933 7.83623,5.41183 7.9691,5.25 0.13286,-0.16183 0.69947,-4.50304 1.25913,-9.64712 1.29139,-11.86975 2.98653,-14.51767 9.57102,-14.95052 2.53844,-0.16687 5.53066,0.18646 6.64938,0.78518 3.11585,1.66755 2.4663,0.11929 -3.00693,-7.1673 C 326.86963,596.71967 307.65865,584.18556 285.71612,578.0764 275.90909,575.34597 261.88078,573 255.36046,573 h -5.37756 l 2.92765,5.25 c 3.6027,6.46054 7.73387,19.90027 8.991,29.25 1.00479,7.47296 0.77096,34.06198 -0.38695,44 l -0.69908,6 2.0445,-3.19567 c 4.62888,-7.23519 9.35737,-7.80098 15.91519,-1.90432 4.81519,4.32972 10.49335,7.75008 11.33118,6.82557 0.36166,-0.39907 2.08485,-5.45058 3.82932,-11.22558 z M 488,532.01364 c 29.6644,-1.89007 52.44061,-6.21243 64.5,-12.24051 10.77189,-5.3845 32.74479,-29.53083 46.73225,-51.35474 C 611.1633,449.80298 627.54712,418.10562 638.73161,392 643.78117,380.21385 652,358.59604 652,357.10043 c 0,-0.95071 -2.26883,-1.37022 -14.28263,-2.64089 -7.50275,-0.79354 -11.35698,-3.775 -10.30393,-7.97067 0.71797,-2.86063 5.24679,-7.7722 11.55737,-12.53412 l 3.373,-2.54526 -15.4219,-6.66255 c -8.48205,-3.6644 -21.89915,-9.14424 -29.81577,-12.17742 l -14.39385,-5.51487 -4.72908,3.9594 c -2.60099,2.17768 -7.40941,6.82471 -10.68539,10.32673 -28.48974,30.45562 -41.68429,67.20712 -37.41863,104.22414 1.73491,15.05544 3.07506,20.17508 5.73786,21.91982 2.91774,1.91177 4.7308,8.47331 3.83469,13.87788 -0.3773,2.27556 -1.72158,6.90593 -2.98729,10.28971 l -2.30129,6.15232 2.16842,2.0167 c 3.1092,2.89164 8.5834,3.65884 12.98487,1.81979 4.95981,-2.07234 7.67511,-6.79881 7.67981,-13.36809 0.003,-4.46976 0.3659,-5.46424 2.50374,-6.86501 2.31587,-1.51741 2.68413,-1.51741 5,0 2.22854,1.4602 2.49762,2.3142 2.47804,7.86501 C 566.9274,483.6292 557.52254,493 543.16484,493 c -6.74209,0 -6.92872,0.0687 -7.4705,2.75 -0.81339,4.02556 -7.0195,10.7449 -12.27322,13.28819 -9.46595,4.58239 -22.26355,2.16871 -27.73505,-5.23095 -1.88554,-2.55 -1.90227,-2.82833 -0.31553,-5.25 2.10136,-3.20708 3.61344,-3.20143 10.23504,0.0382 4.23863,2.07377 6.11201,2.4591 9.32024,1.91707 7.45229,-1.25905 12.83722,-8.01269 11.21756,-14.06879 -0.68761,-2.5711 -1.38749,-2.96471 -7.2025,-4.0507 C 505.08151,479.80471 496,474.67664 496,469.43896 c 0,-6.30666 -29.99172,-25.48861 -50.94843,-32.58534 -23.24192,-7.87058 -50.10597,-7.98922 -76.50916,-0.33787 -15.7143,4.55382 -35.70816,13.86785 -37.00089,17.23664 -0.98681,2.57158 -4.42287,30.74616 -5.12748,42.04369 l -0.70452,11.29607 6.89524,-2.65774 c 14.95178,-5.76309 16.10076,-6.01089 18.36594,-3.96093 2.8972,2.62193 2.53364,6.70731 -1.4707,16.52652 -1.9065,4.675 -3.47393,8.55203 -3.48318,8.61563 -0.009,0.0636 3.02068,0.37085 6.73318,0.68279 3.7125,0.31193 20.025,1.70997 36.25,3.10676 16.225,1.39679 32.425,2.66453 36,2.81722 20.11636,0.85913 47.6726,0.76782 63,-0.20876 z m -54.64342,-53.32567 c -3.01326,-2.76145 -3.69458,-4.15021 -4.09853,-8.35419 -0.27467,-2.85854 0.0128,-5.97145 0.66391,-7.18797 0.99379,-1.8569 0.88315,-2.14581 -0.82168,-2.14581 -3.73076,0 -7.61215,2.12543 -12.33579,6.75504 -4.28715,4.2018 -4.99725,4.54976 -7.5,3.67504 -6.7423,-2.35644 -1.63096,-12.58217 9.09766,-18.20073 4.32452,-2.26475 6.40426,-2.69219 13.13785,-2.70018 6.72176,-0.008 9.0053,0.45315 14.2918,2.88599 11.62221,5.34854 15.92635,14.63467 8.3764,18.07197 -1.19251,0.54292 -2.18251,1.89292 -2.2,3 -0.0691,4.37197 -4.63321,7.51287 -10.91714,7.51287 -3.22511,0 -4.83799,-0.69425 -7.69448,-3.31203 z m 118.94595,-64.18862 c -4.23982,-2.96969 -4.90289,-14.54736 -1.36526,-23.83849 1.82141,-4.78372 11.98004,-14.11093 17.36203,-15.94106 5.37969,-1.82936 9.15105,-0.92965 10.01922,2.39021 0.66973,2.56108 -2.73566,6.60306 -6.20512,7.36508 -3.80811,0.83641 -9.69773,7.19158 -6.66475,7.19158 0.74837,0 1.13043,-0.6 0.84902,-1.33334 C 566.01626,389.6 566.28417,389 566.89301,389 c 0.60885,0 1.10699,0.42704 1.10699,0.94897 0,0.52194 1.67141,0.25062 3.71424,-0.60293 5.07086,-2.11874 10.75822,-1.22564 14.39734,2.26086 3.81848,3.65834 3.78294,7.34473 -0.10834,11.23601 -3.82856,3.82857 -7.92423,4.76643 -11.88059,2.72051 -1.66283,-0.85988 -3.60818,-1.56127 -4.32299,-1.55864 -1.34151,0.005 -7.15526,5.22777 -9.79966,8.80361 -2.06724,2.79539 -5.1529,3.47324 -7.69747,1.69096 z m -25.72959,53.98031 c 0.809,-1.93619 1.75433,-5.58818 2.10074,-8.11555 0.61573,-4.49227 0.57604,-4.57909 -1.77192,-3.87534 -5.87954,1.76227 -20.0391,10.69857 -18.84821,11.89537 0.90416,0.90864 11.21945,3.4789 14.24748,3.55005 2.28572,0.0537 3.07162,-0.58182 4.27191,-3.45453 z M 507.80247,454.75 c 2.61485,-1.7875 7.0346,-4.30692 9.82167,-5.5987 l 5.06741,-2.3487 -1.30996,-5.63526 c -2.20872,-9.5016 -3.66882,-28.98734 -2.92815,-39.07758 1.32986,-18.11679 9.01166,-41.97294 19.00362,-59.01652 7.84298,-13.37798 22.31426,-30.36501 34.30851,-40.27281 l 3.26557,-2.69752 -6.04131,-14.62753 C 556.14044,254.36377 545.90152,237.95372 527.98102,219.75 519.78291,211.42232 514.69858,207 513.32241,207 c -2.37335,0 -11.73316,9.64693 -14.64338,15.09257 -1.28205,2.39898 -1.35604,2.83294 -0.25,1.4663 1.51757,-1.87514 1.57097,-1.84751 1.57097,0.81286 0,2.24966 -0.39439,2.69669 -2.15365,2.44113 -1.65038,-0.23975 -2.85406,0.82237 -5.15095,4.54517 -3.79303,6.14777 -13.65055,30.61641 -18.38747,45.64197 -1.994,6.325 -4.12499,12.0549 -4.73552,12.73311 -0.61053,0.67821 -5.82659,2.62798 -11.59124,4.33281 -25.40863,7.51433 -52.58298,24.05682 -74.43304,45.31139 -5.44076,5.29248 -10.15236,9.61737 -10.47021,9.61086 -0.31786,-0.007 -5.07792,-1.13354 -10.57792,-2.50453 -29.53226,-7.36154 -70.40539,-9.31045 -83.19436,-3.96688 -4.14211,1.73069 -4.22793,3.61329 -0.74412,16.3231 3.55359,12.96441 11.59846,30.47397 20.2444,44.06172 6.6271,10.41499 28.60482,38.09842 30.24613,38.09842 0.38423,0 5.90981,-2.46744 12.27908,-5.48319 23.33132,-11.04704 47.13656,-16.22502 70.07518,-15.24233 30.45949,1.30487 54.60727,10.3376 81.42296,30.45708 5.3189,3.99071 9.79408,7.25867 9.94484,7.26214 0.15076,0.003 2.41352,-1.4562 5.02836,-3.2437 z M 328.39962,419.17452 c -13.52095,-9.79452 -30.79364,-36.69133 -33.36431,-51.95445 -1.44378,-8.57234 -0.54052,-10.80339 5.54257,-13.69 5.74085,-2.72422 28.89058,-1.72411 44.92212,1.94071 16.4181,3.75319 18.51926,5.95362 13.39724,14.0302 C 348.4729,385.93846 344.40573,394.86441 340.4436,410 c -3.31313,12.65634 -5.22598,14.11346 -12.04398,9.17452 z M 333.46052,396.5 c 2.89679,-8.34799 9.4167,-22.0583 12.69822,-26.70227 l 1.90948,-2.70227 -3.78411,-1.00333 c -5.75055,-1.52472 -21.22403,-3.24597 -23.28885,-2.59062 -1.00482,0.31891 -2.11637,0.11154 -2.47012,-0.46083 -0.83176,-1.34581 -12.20936,-1.36065 -13.03977,-0.017 -0.86158,1.39405 2.81418,12.10406 6.7705,19.72714 3.58116,6.90021 16.83348,23.62259 17.81093,22.47463 0.33973,-0.399 1.8669,-4.32545 3.39372,-8.72545 z M 543,292.95557 c -15.43183,-4.51546 -27.88399,-6.24685 -40.65461,-5.65274 -17.18781,0.7996 -17.93691,-0.32102 -12.0075,-17.9625 7.43421,-22.1186 17.18575,-39.42972 23.0387,-40.89871 10.23646,-2.56919 29.92186,22.50227 39.05028,49.7347 3.21332,9.58617 3.2964,13.20367 0.35062,15.26698 -2.61673,1.83283 -1.68865,1.87912 -9.77749,-0.48773 z M 541.47345,278.75 c -1.7953,-6.10806 -11.98443,-24.96896 -16.46648,-30.4808 -6.26102,-7.69952 -8.60047,-9.15519 -10.60422,-6.59825 C 510.74604,246.33719 500,271.33502 500,275.17515 c 0,0.45367 2.45195,0.82485 5.44878,0.82485 6.28029,0 26.61906,2.56376 31.05122,3.91409 4.93928,1.50484 5.70521,1.32556 4.97345,-1.16409 z"
       id="path1" />
  </g>
</svg>
