<?xml version="1.0" encoding="UTF-8" standalone="no"?>
<!-- Created with Inkscape (http://www.inkscape.org/) -->

<svg
   version="1.1"
   id="svg1"
   width="896"
   height="1200"
   viewBox="0 0 896 1200"
   xmlns="http://www.w3.org/2000/svg"
   xmlns:svg="http://www.w3.org/2000/svg">
  <defs
     id="defs1" />
  <g
     id="g1">
    <path
       style="fill:#ffffff;fill-opacity:1"
       d="m 626,949.95483 c -21.64743,-1.60161 -42.31978,-8.60047 -59,-19.97512 -11.22312,-7.65332 -24.34739,-22.93987 -31.10502,-36.22971 -1.60808,-3.1625 -3.20025,-5.75 -3.53817,-5.75 -0.33793,0 -2.29758,1.52064 -4.35478,3.3792 -7.75449,7.00572 -23.26683,10.94987 -41.00203,10.42514 -10.53695,-0.31176 -13.1642,-0.71959 -16.72939,-2.5969 -7.53372,-3.96701 -9.18789,-10.96727 -4.71339,-19.94643 1.40648,-2.82243 4.39292,-6.79012 6.63653,-8.81709 l 4.07931,-3.68541 -0.6086,-7.19972 c -0.42839,-5.06781 -2.68965,-13.39377 -7.63653,-28.11767 C 464.16257,819.93625 461,810.50316 461,810.47869 c 0,-0.0245 -3.11855,0.38656 -6.93011,0.91337 -4.34322,0.6003 -11.06334,0.61258 -18.00273,0.0329 L 424.99454,810.5 l -0.41438,3 c -0.70235,5.08472 -2.60376,26.30742 -3.62853,40.5 -1.63441,22.63586 -2.71819,30.68385 -4.75083,35.27895 -3.99641,9.03455 -14.17486,11.99576 -41.7008,12.13197 -16.93682,0.0838 -18.25335,-0.0462 -22.28923,-2.20126 -6.30641,-3.36746 -8.39939,-7.28618 -7.97004,-14.92247 0.42303,-7.52379 3.60801,-12.15258 11.55093,-16.78719 4.54488,-2.65188 5.14537,-3.38791 5.17492,-6.34292 0.0662,-6.62341 -4.07715,-23.27839 -10.02646,-40.30306 C 329.87362,760.56967 325.10591,724.92999 332.49862,683 c 0.82426,-4.675 1.49926,-9.01922 1.50001,-9.65382 7.8e-4,-0.65324 -2.33286,0.11046 -5.379,1.76032 -10.8412,5.87184 -31.11546,8.70517 -42.82564,5.98488 l -3.706,-0.86091 -0.68044,4.53746 c -1.47521,9.83738 1.81142,30.64514 7.48826,47.40845 4.47218,13.20602 10.69549,24.79386 27.56363,51.32362 3.14731,4.95 8.42045,14.35834 11.71809,20.90742 9.68345,19.23123 10.9412,30.6372 4.77316,43.28579 -4.21855,8.65082 -13.79201,17.2605 -25.20018,22.66319 -5.60012,2.65212 -8.97353,4.8635 -9.37191,6.1436 -1.37228,4.40944 -9.74753,15.60577 -16.29136,21.77889 -15.05254,14.1998 -38.15128,24.20952 -71.45008,30.9625 -9.61662,1.95025 -14.20904,2.25739 -33.63716,2.24967 -19.97619,-0.008 -23.48724,-0.25958 -31.30135,-2.24344 -21.00649,-5.33317 -34.79243,-14.9395 -41.95086,-29.23224 -3.01875,-6.02732 -3.24717,-7.19093 -3.23906,-16.5 0.01,-11.40078 1.46049,-15.27206 8.64148,-23.06251 2.99237,-3.24634 14.90278,-12.23294 18.64878,-14.07082 0.16444,-0.0807 -1.99379,-3.17587 -4.79607,-6.87819 -13.37647,-17.67277 -21.12332,-41.8604 -19.57388,-61.11464 2.5327,-31.47272 18.31449,-58.36828 48.75967,-83.09698 l 12.5163,-10.1662 0.5771,-14.81302 c 0.91976,-23.60842 5.49893,-37.52331 19.25987,-58.52569 l 6.62219,-10.107 -2.73767,-6.44151 c -5.61951,-13.22218 -15.7066,-23.70828 -28.36886,-29.49101 -5.96951,-2.72622 -6.53374,-2.81719 -7.68735,-1.23953 -1.04132,1.42409 -2.22333,1.58909 -7.22504,1.00858 -5.30957,-0.61624 -6.09714,-0.47527 -7.02443,1.25739 -2.29041,4.27966 -5.67436,4.54028 -22.22095,1.71139 -8.46993,-1.44806 -16.97487,-2.88716 -18.89987,-3.198 -4.256299,-0.68729 -6,-1.94833 -6,-4.33919 0,-1.88813 -2.003849,-2.47233 -17.206459,-5.01634 -3.688552,-0.61724 -7.22667,-1.74907 -7.862484,-2.51518 -1.452423,-1.75006 5.333394,-37.10995 7.546349,-39.32291 1.248272,-1.24827 3.015558,-1.10175 13.505866,1.11969 11.724669,2.48284 12.098495,2.50202 13.078378,0.67109 0.5548,-1.03664 1.79258,-1.8848 2.75064,-1.8848 4.48565,0 38.68521,8.14025 40.28602,9.58897 0.98358,0.89013 2.05519,2.83341 2.38134,4.3184 0.50704,2.30852 1.42141,2.90967 6.30668,4.1463 4.50953,1.14152 5.77787,1.89648 6.01828,3.5823 0.23592,1.65436 1.95936,2.73949 7.64361,4.81265 14.46711,5.27645 28.21431,15.56777 37.85836,28.34122 4.69055,6.21259 5.17915,5.899 6.6159,-4.24629 2.51263,-17.74233 -5.69647,-37.6205 -22.09801,-53.50994 -5.51339,-5.34124 -7.87206,-6.98556 -9.80868,-6.83799 -1.40236,0.10686 -4.39351,-0.84197 -6.64701,-2.10851 -3.30203,-1.85584 -4.49903,-2.08777 -6.16728,-1.19495 -5.16834,2.76601 -9.28141,1.00931 -29.7015,-12.68558 -9.21695,-6.18142 -10,-6.95939 -10,-9.93517 0,-2.97469 -0.72926,-3.70042 -9.27298,-9.22811 -5.10014,-3.29973 -9.53303,-6.67718 -9.85087,-7.50545 -0.33662,-0.87721 2.65224,-6.83575 7.15891,-14.2719 8.78061,-14.48827 10.13766,-16.27127 12.36993,-16.25265 0.87725,0.007 5.87001,2.88385 11.09501,6.39228 8.29932,5.57276 9.69953,6.20301 11.07874,4.9867 0.86831,-0.76575 2.27376,-1.39228 3.12323,-1.39228 2.01825,0 29.60032,18.37049 32.65049,21.74622 1.78571,1.9763 2.22767,3.37259 1.83445,5.79569 -0.46776,2.88248 -0.0794,3.50132 4.00375,6.37937 3.69342,2.60336 4.4365,3.63319 4.05637,5.6217 -0.3644,1.90623 0.31775,3.02452 3.1438,5.15383 16.35077,12.31962 29.16954,29.81492 35.75799,48.80319 2.52844,7.2871 2.77915,9.29213 2.81349,22.5 0.0346,13.31705 -0.19617,15.21346 -2.82886,23.24522 -1.5766,4.80988 -5.14141,12.68488 -7.92181,17.5 l -5.05527,8.75478 0.22128,12 c 0.43076,23.36096 -5.36717,41.77582 -20.57589,65.35127 l -5.54168,8.5903 2.16148,6.00736 c 5.15144,14.31729 16.3829,29.76209 36.94254,50.80107 7.3902,7.5625 13.76677,13.75 14.17014,13.75 0.96445,0 -1.03125,-10.2012 -5.37993,-27.5 -9.52905,-37.90601 -10.11191,-58.10014 -2.23666,-77.49293 l 2.23637,-5.50707 -2.31414,-5 c -3.55436,-7.67964 -3.33071,-19.41332 0.50917,-26.71304 1.56697,-2.97887 3.09249,-7.57597 3.39004,-10.21578 0.59964,-5.32004 2.57428,-8.48557 8.06578,-12.93021 4.26425,-3.45134 12.15641,-4.63393 18.0171,-2.69973 4.56356,1.50612 10.37992,7.95276 11.2212,12.43719 l 0.65618,3.49776 10.34664,-0.0427 10.34663,-0.0427 8.22201,-7.63841 c 4.52211,-4.20113 14.96699,-15.74156 23.21085,-25.6454 8.24386,-9.90384 15.81846,-18.93635 16.83244,-20.07224 1.83471,-2.0553 1.78935,-2.08857 -9.40716,-6.89868 C 309.57322,537.14192 274.28285,515.57061 246,492.61948 226.58926,476.86794 225.70572,475.08249 234.52868,469.4385 239.59246,466.19925 240.83284,464 237.59602,464 c -1.49714,0 -12.28061,-6.8205 -14.84602,-9.39004 -2.97524,-2.98004 -2.08884,-6.29175 3.59018,-13.41331 12.97176,-16.26673 30.70937,-45.35049 34.13498,-55.96997 l 1.70106,-5.27332 -4.06819,-14.22668 C 249.93074,337.13026 247.423,319.27921 248.31272,296 c 1.11568,-29.19109 7.09842,-53.71527 14.87036,-60.95594 7.46648,-6.95608 33.25205,4.03263 66.31692,28.26145 14.52416,10.64281 24.87179,18.92895 31.00436,24.82755 l 5.00436,4.81344 8.99564,-2.89249 c 17.35458,-5.58025 24.21919,-6.55565 45.99564,-6.53558 16.96317,0.0156 21.8221,0.37889 32,2.39237 19.4961,3.85688 17.41412,4.09351 22.66879,-2.57636 25.05514,-31.80307 59.10249,-58.67108 80.38352,-63.43356 4.68984,-1.04954 5.64411,-0.97015 8.51683,0.70857 9.94794,5.81325 21.56626,35.29066 26.59943,67.48672 2.53881,16.24018 2.31525,46.73574 -0.47214,64.40383 l -2.05092,13 2.59363,4.5 c 9.79225,16.98972 23.59967,35.21202 37.62113,49.65035 6.11176,6.29347 11.50638,12.14689 11.98806,13.0076 1.59314,2.84678 -2.62305,6.65992 -13.09377,11.84205 -5.55649,2.75 -10.13688,5.26916 -10.17864,5.59813 -0.0418,0.32896 1.83658,1.37894 4.17408,2.33328 12.73955,5.20122 12.76713,6.02961 0.59339,17.82679 -10.4677,10.14392 -22.84294,20.2268 -38.66033,31.49899 -12.19096,8.68783 -48.51274,32.83631 -50.41769,33.52012 -0.7624,0.27368 1.94654,3.78683 6.81522,8.83846 41.05476,42.59743 57.4562,85.36985 43.34346,113.0331 -2.39956,4.70352 -10.71968,12.93916 -18.24758,18.0623 -3.78477,2.57573 -5.63333,4.45886 -5.28025,5.37898 0.98584,2.56905 3.45169,18.76275 4.14079,27.19326 0.64255,7.86107 0.78633,8.2515 2.82003,7.65744 10.35251,-3.02406 23.13153,-14.49864 28.88983,-25.94085 4.58328,-9.10735 6.94614,-17.34485 10.75656,-37.5 9.74907,-51.56764 20.47342,-75.57787 44.45511,-99.52843 11.61539,-11.60031 19.85803,-17.35334 35.69538,-24.9139 13.05058,-6.2302 19.92132,-8.59368 34.16592,-11.75284 17.71449,-3.9287 50.55489,-2.78724 55.26294,1.92081 2.34131,2.34131 1.64805,4.73734 -3.1549,10.90404 -6.52401,8.37641 -11.28153,18.90429 -13.62771,30.15661 -1.87414,8.98842 -1.96096,11.5057 -1.16277,33.71371 2.27042,63.16966 -1.00047,87.38858 -15.76932,116.76237 -7.74286,15.39979 -19.10044,30.03185 -32.79811,42.25404 -20.31422,18.12604 -48.77635,29.80965 -79.0383,32.44498 -18.70734,1.62911 -39.74302,-1.7298 -55.45816,-8.85539 C 570.95808,773.46669 568,772.60434 568,773.18968 c 0,1.53353 10.68682,27.10001 14.64257,35.02998 1.98395,3.97715 3.86328,6.55028 4.60472,6.30465 0.68899,-0.22825 4.17771,-1.29133 7.75271,-2.36241 3.575,-1.07108 15.275,-5.32085 26,-9.44394 10.725,-4.1231 22.00807,-8.21084 25.07349,-9.08387 39.14927,-11.14975 74.51693,-6.5728 95.12425,12.31006 3.67325,3.36586 7.60028,7.61101 8.72674,9.43365 l 2.0481,3.3139 6.76371,-1.38463 c 11.10706,-2.27378 42.0709,-2.83502 52.76371,-0.95637 16.74537,2.94204 24.01297,6.5649 20.40572,10.17215 -1.41384,1.41384 -2.49225,1.31009 -11.48305,-1.10477 -8.42222,-2.26214 -12.56892,-2.73532 -27.42267,-3.12924 -12.55269,-0.3329 -20.27663,-0.0421 -27.32173,1.02859 -5.40194,0.82098 -9.97365,1.64791 -10.15934,1.83763 -0.18569,0.18972 0.13333,2.71817 0.70895,5.61877 0.81697,4.11685 1.40038,5.1703 2.65934,4.80188 12.28821,-3.59597 38.2895,-3.95204 53.62818,-0.73441 13.85663,2.90674 17.92151,4.42782 18.28286,6.84147 0.58883,3.93317 -1.7008,4.24292 -12.79826,1.73143 -16.42128,-3.71633 -28.87093,-4.74879 -41.07482,-3.40636 -10.81708,1.18988 -18.8059,2.48148 -19.30829,3.12168 -0.1599,0.20377 -1.03943,3.48158 -1.95451,7.28403 -4.16191,17.29404 -19.63925,30.33891 -43.66238,36.80026 -7.59775,2.04352 -10.676,2.27991 -29,2.22704 -18.23574,-0.0526 -21.8871,-0.35271 -33.05836,-2.71698 -30.05694,-6.36121 -51.14754,-16.70806 -67.65319,-33.19005 -8.06717,-8.05561 -8.33355,-8.22157 -15.15086,-9.43989 -3.81662,-0.68207 -9.74781,-2.56834 -13.18043,-4.19171 -3.43262,-1.62338 -6.47294,-2.71977 -6.75628,-2.43644 -1.15794,1.15794 2.00565,17.40039 5.33119,27.37137 10.02711,30.06425 28.27766,47.62147 58.96793,56.72775 7.14433,2.11983 11.81983,2.77521 22.6762,3.1786 21.52051,0.79963 33.75923,-1.58473 70.3238,-13.70056 11.55,-3.82715 25.9827,-7.93995 32.07266,-9.13956 9.13136,-1.79871 11.23525,-2.55125 12,-4.29225 0.74514,-1.69634 1.96053,-2.17058 6.18588,-2.41369 4.91465,-0.28277 5.35054,-0.52274 6.66534,-3.6695 0.77374,-1.85183 2.3299,-3.86098 3.45813,-4.46479 1.12822,-0.60381 10.67416,-1.77213 21.21319,-2.59627 19.78691,-1.5473 21.9048,-1.32443 21.9048,2.30511 0,1.32588 1.7026,1.43723 12.92085,0.84499 8.36644,-0.44169 13.14106,-0.32582 13.54558,0.3287 0.76018,1.23 3.52916,26.90329 3.53173,32.7453 0.001,2.30504 -0.49219,4.49631 -1.096,4.86949 -0.60381,0.37317 -6.33964,1.06972 -12.74629,1.54788 -6.40664,0.47816 -11.77884,1.26057 -11.93822,1.7387 -1.25641,3.76924 -2.57188,4.07954 -21.82767,5.14876 -20.53868,1.14045 -23.16386,0.80512 -25.85539,-3.30268 -1.38696,-2.11676 -2.13739,-2.34162 -6.43623,-1.92856 -4.08608,0.39262 -5.22792,0.10587 -7.12246,-1.78867 l -2.25626,-2.25626 -8.09529,1.73959 c -4.45242,0.95678 -17.00582,4.62582 -27.89645,8.15342 -43.55208,14.10703 -61.20773,17.23032 -86.7279,15.34218 z m 32.98606,-8.50126 c 13.57752,-2.2019 26.06981,-5.53065 50.27113,-13.39544 11.68355,-3.79684 25.4533,-7.70962 30.59944,-8.69507 l 9.35664,-1.79173 -0.46196,-4.80765 c -0.25407,-2.64421 -0.68109,-5.02679 -0.94892,-5.29463 -1.2578,-1.25779 -19.5145,3.41512 -41.30239,10.5716 -40.18422,13.19895 -56.39029,16.17603 -76.79383,14.10715 -13.15968,-1.33436 -22.36103,-3.71928 -34.43389,-8.92501 C 570.13481,912.38371 555.05996,895.32231 545.5958,867 c -3.47401,-10.39628 -6.58401,-26.05865 -6.59178,-33.19704 -0.003,-2.84286 -1.10149,-5.17429 -4.75402,-10.09077 -2.6125,-3.51654 -5.28604,-7.25287 -5.94119,-8.30295 -0.97318,-1.5598 -1.20196,-0.14412 -1.25,7.73481 -0.12688,20.80718 3.56885,41.37605 10.18208,56.66913 15.15178,35.03847 40.43854,54.94215 78.25911,61.59921 10.84524,1.90895 31.84632,1.92884 43.48606,0.0412 z m 146.6565,-14.76418 c 0.29936,-0.30158 -2.82714,-36.15124 -3.18674,-36.54031 -0.85033,-0.92005 -33.07906,2.14559 -34.23767,3.25673 -1.0272,0.98511 -1.06319,4.09651 -0.18114,15.66176 0.60539,7.93784 1.31998,15.51137 1.58796,16.83007 l 0.48725,2.39765 17.67117,-0.70826 c 9.71915,-0.38954 17.75577,-0.79348 17.85917,-0.89764 z m -606.44378,-3.18124 c 37.99064,-5.01507 69.46985,-18.87188 84.07325,-37.00815 14.89347,-18.49652 17.91155,-41.14184 8.34295,-62.599 C 284.99017,809.04516 273.69648,795.83671 248.5,773.47623 187.63692,719.46361 174.29043,688.44034 190.45776,638.55987 193.19534,630.11373 194,625.96934 194,620.31557 194,616.29201 193.58197,613 193.07104,613 c -1.41491,0 -9.86875,14.05641 -13.14834,21.86207 -5.1286,12.20644 -7.21769,23.09519 -7.22113,37.63793 -0.009,37.36894 13.23952,59.34185 60.29843,100.00734 31.81638,27.49381 41.32115,39.2083 47.86478,58.99266 12.39567,37.4777 -5.50834,60.64241 -58.70484,75.95396 -19.26994,5.54647 -28.68446,6.94783 -46.15994,6.87091 -12.51261,-0.0551 -17.0246,-0.47845 -23.41033,-2.19664 -10.10612,-2.71924 -17.83589,-6.26964 -23.17501,-10.64465 -4.53932,-3.71963 -9.42846,-12.27183 -9.3927,-16.42992 0.058,-6.74499 6.62442,-14.89849 16.60343,-20.61645 2.68104,-1.53623 5.07154,-2.94749 5.31224,-3.13614 0.2407,-0.18865 -1.52532,-2.3431 -3.92448,-4.78768 l -4.36212,-4.44467 -5.99421,3.19488 c -7.9849,4.2559 -15.17319,11.43833 -18.31425,18.2993 -2.09878,4.58436 -2.49296,6.72371 -2.1686,11.76992 1.24486,19.36658 20.42172,34.33267 49.40952,38.5604 9.62931,1.40439 30.48734,1.21592 42.61529,-0.38507 z M 762.53,915.25 C 761.18899,900.86348 761.23878,901 757.33251,901 h -3.4917 l 0.62919,6.75 c 1.34101,14.38652 1.29122,14.25 5.19749,14.25 h 3.4917 z m 62.84553,6.08656 6.87554,-0.64921 -0.65342,-9.59368 c -0.35938,-5.27652 -0.92651,-11.56984 -1.2603,-13.98516 l -0.60687,-4.39149 -10.04897,0.65855 c -5.52693,0.3622 -10.25297,0.86256 -10.50231,1.1119 -0.52292,0.52292 1.81268,25.6341 2.48919,26.76253 0.54937,0.91635 4.64539,0.94221 13.70714,0.0866 z M 814,915.125 c 0,-2.11261 3.44212,-3.125 10.625,-3.125 3.59916,0 4.375,0.32997 4.375,1.86071 0,1.49792 -1.02361,1.98366 -5.25,2.49131 -8.47202,1.01761 -9.75,0.85678 -9.75,-1.22702 z m -0.83798,-7.73344 c 0.29435,-1.53302 1.66352,-2.04835 7.22342,-2.71872 4.62495,-0.55765 7.21121,-0.47619 7.9374,0.25 1.97583,1.97583 -0.93446,3.31641 -8.35182,3.84712 -6.63715,0.47489 -7.1451,0.37206 -6.809,-1.3784 z m -0.81694,-6.93469 c -0.32569,-0.84872 -0.42406,-1.69927 -0.21862,-1.89011 0.20545,-0.19085 3.73845,-0.50894 7.85111,-0.70688 6.27881,-0.30219 7.52902,-0.10006 7.79843,1.26083 0.39533,1.99694 -2.44053,2.84724 -9.55738,2.86564 -3.84675,0.01 -5.44224,-0.40553 -5.87354,-1.52948 z M 194.5,905.88136 c 21.62129,-2.84043 47.74069,-11.39975 62,-20.31738 4.74397,-2.96683 4.95016,-2.9422 -9,-1.0752 -30.44098,4.07403 -61.82341,-0.47099 -86,-12.45512 l -12,-5.9483 -5.33589,2.44132 c -23.31014,10.66504 -20.88825,26.78725 5.2651,35.04909 12.40917,3.92006 27.07191,4.67013 45.07079,2.30559 z m 200.2233,-14.97453 c 7.76516,-1.33036 11.77439,-3.09974 13.24343,-5.84467 0.98681,-1.84387 2.40261,-13.73912 3.41239,-28.67014 l 0.4807,-7.10799 -21.01961,-0.71898 c -11.56078,-0.39544 -21.22028,-0.51831 -21.46555,-0.27304 -0.24527,0.24526 0.0991,4.53995 0.76535,9.54375 1.48647,11.16463 0.78922,13.20742 -5.18048,15.1776 -11.88606,3.92275 -15.94614,16.09421 -6.28429,18.83926 4.56898,1.2981 26.27481,0.7286 36.04806,-0.94579 z m 110.06886,0.51426 c 12.94468,-2.65166 19.30746,-6.14392 21.76525,-11.94605 1.1274,-2.66147 0.93247,-4.2678 -1.62228,-13.36816 -1.597,-5.68877 -3.19787,-13.21503 -3.55748,-16.72504 -0.7704,-7.51956 0.46484,-7.18242 -17.91566,-4.88983 -6.57909,0.82061 -13.92695,1.49561 -16.32857,1.5 -4.24593,0.008 -4.34944,0.084 -3.7464,2.75799 0.34109,1.5125 0.90632,6.85638 1.25606,11.87529 l 0.63589,9.12529 -6.02822,6.47988 c -5.68022,6.10582 -8.25845,11.33003 -6.77562,13.72931 1.94897,3.15349 20.05868,3.97238 32.31703,1.46132 z m 206.70697,-11.8734 c 17.72827,-5.28614 29.10004,-12.9612 34.29679,-23.14766 5.18757,-10.16848 4.95077,-24.5828 -0.57051,-34.72721 -5.55409,-10.20469 -19.65432,-20.02168 -34.72541,-24.17685 -8.04846,-2.21899 -29.74728,-3.05008 -40.89659,-1.56638 -10.98931,1.4624 -27.43831,6.38957 -47.60341,14.25921 -8.525,3.32697 -19.1,7.19168 -23.5,8.58824 -4.4,1.39655 -8.14621,2.65175 -8.32491,2.78932 -0.1787,0.13757 0.9069,2.11151 2.41244,4.38654 1.91097,2.88768 3.21661,3.95199 4.32491,3.52551 0.87316,-0.33599 10.58756,-3.76265 21.58756,-7.61479 34.88926,-12.21803 51.37674,-15.56978 71.5,-14.53527 17.73502,0.91173 29.4168,5.00498 39.42463,13.81422 8.15129,7.17506 10.95776,19.04557 6.70436,28.35743 -3.7854,8.28728 -15.81648,16.40621 -29.57428,19.95759 -16.17911,4.17641 -28.94651,4.17415 -50.11418,-0.009 -31.89813,-6.30352 -53.18542,-17.69857 -67.1564,-35.94871 -7.58573,-9.90916 -18.6625,-32.43657 -28.27285,-57.5 -15.12292,-39.43998 -22.98453,-53.71433 -38.4236,-69.76587 -9.34371,-9.71437 -8.92992,-9.52279 -15.36632,-7.11446 -2.19074,0.81972 -2.01716,1.15538 4.5,8.70181 17.28519,20.01507 28.14999,39.84541 40.0936,73.17852 12.1118,33.80253 15.05336,40.43804 23.43757,52.87001 9.0416,13.40675 23.21489,25.76884 38.30017,33.40578 11.33811,5.73994 34.76839,12.5712 50.4473,14.70826 3.575,0.48728 13.7,0.74218 22.5,0.56646 13.87693,-0.27711 17.19411,-0.67556 24.99913,-3.00282 z M 251,876.98182 c 16.52682,-2.76896 19.74385,-3.88251 21.93235,-7.59173 1.1282,-1.91216 2.31836,-4.54081 2.6448,-5.84144 l 0.59352,-2.3648 -7.02289,1.8438 c -11.78833,3.09493 -26.00772,4.25032 -45.51757,3.69852 -15.30037,-0.43274 -19.53497,-0.90624 -27.13021,-3.0336 -24.75805,-6.93452 -39.86132,-15.46334 -52.98815,-29.92243 C 120.35401,808.26199 116.66914,774.54486 133.70106,744 c 3.92545,-7.03985 7.40736,-11.16575 20.26929,-24.01814 L 169.5,704.46373 l -1.37044,-5.75436 c -0.9468,-3.97553 -1.71961,-5.48921 -2.5,-4.89664 -23.07744,17.52335 -35.56096,31.28994 -44.60293,49.18727 -15.98924,31.64851 -13.50924,62.07084 7.45901,91.5 17.98376,25.24039 40.14799,37.54724 77.51436,43.04041 10.55664,1.55191 34.15134,1.25903 45,-0.55859 z m 452.53632,-13.99111 c 8.56577,-2.19075 18.13973,-6.93105 21.6267,-10.70789 2.15747,-2.33681 2.18335,-2.48802 0.33698,-1.96854 -14.97446,4.21307 -44.37294,8.71619 -61.26546,9.38434 -8.396,0.33209 -15.12097,0.74828 -14.94438,0.92487 0.45827,0.45827 20.43544,4.20327 25.20984,4.72593 7.12178,0.77964 21.25421,-0.36838 29.03632,-2.35871 z M 320.04719,852.89259 c 9.05687,-8.96064 11.10519,-18.70893 6.83675,-32.53725 -3.03464,-9.83122 -8.46574,-20.12867 -20.65276,-39.15795 -18.02419,-28.14367 -25.49535,-45.04548 -30.32912,-68.61276 -1.59685,-7.78555 -1.99245,-12.84882 -1.73523,-22.20939 l 0.33317,-12.12475 -5.92404,-2.61787 c -3.25823,-1.43982 -6.07246,-2.46945 -6.25386,-2.28805 -1.32967,1.32967 -2.46198,13.74083 -1.98776,21.78777 1.53409,26.03152 9.23006,49.01939 27.05106,80.80158 6.03414,10.76135 13.11902,23.76807 15.74419,28.90384 8.23943,16.11925 9.88179,30.27572 4.57789,39.4594 -1.39157,2.4095 -2.71459,6.7452 -3.10059,10.16106 -0.37032,3.27702 -0.93354,6.99509 -1.25161,8.26237 -0.5635,2.24514 -0.42974,2.22061 5.22299,-0.95822 3.19071,-1.7943 8.35172,-5.78571 11.46892,-8.86978 z m -69.7934,6.02815 c 4.81458,-0.59049 12.91458,-2.07375 18,-3.29614 l 9.24621,-2.22251 -0.27934,-4.95105 c -0.4532,-8.03274 -7.79735,-29.46893 -10.08773,-29.44421 -0.34811,0.004 -1.71536,1.59616 -3.03832,3.53866 -7.74137,11.36662 -32.81177,23.37293 -63.09461,30.21626 -8.19951,1.85293 -8.39715,1.96306 -5.59057,3.11541 9.08199,3.72894 36.74113,5.26388 54.84436,3.04358 z M 693.5,849.57477 c 19.03491,-3.62701 35.81513,-7.52497 36.8753,-8.56593 0.90755,-0.8911 0.14868,-6.64949 -1.14001,-8.65062 -0.53367,-0.82869 -5.27443,-0.2465 -17.28889,2.12317 -43.92361,8.66325 -69.28497,9.54915 -104.1964,3.63971 -2.6125,-0.44222 -4.73879,-0.53787 -4.72509,-0.21256 0.049,1.163 12.59579,10.03504 16.49773,11.66578 6.87592,2.87367 12.32716,3.32047 36.47736,2.98983 20.43131,-0.27973 25.32815,-0.67009 37.5,-2.98938 z m -482.31879,-7.07239 c 12.39923,-3.13444 23.46214,-7.38779 31.81879,-12.23337 7.51141,-4.35548 19.01391,-15.2251 18.97016,-17.92642 -0.0164,-1.01342 -1.74487,-3.82664 -3.84101,-6.25158 l -3.81118,-4.40899 -3.60993,5.43859 c -4.49622,6.77385 -6.66364,8.81038 -14.19122,13.33425 -8.20589,4.93152 -24.43332,9.99848 -47.01682,14.68085 -10.45,2.16666 -20.74194,4.40449 -22.87097,4.97296 -4.47656,1.19526 -4.29478,1.41314 5.54153,6.64194 l 5.67056,3.01437 11.74325,-2.38584 c 6.45878,-1.31222 16.17736,-3.50676 21.59684,-4.87676 z M 413.63382,830 c 0.6236,-5.775 1.33796,-13.11567 1.58746,-16.3126 l 0.45365,-5.81259 -3.83747,-1.95773 c -3.931,-2.00545 -4.28433,-2.58898 -3.23047,-5.33529 0.77244,-2.01296 2.87772,-1.9925 10.09422,0.0981 4.57399,1.32507 10.29582,1.69628 27.08991,1.75752 17.73076,0.0646 21.44878,0.3272 22.23392,1.57011 0.51855,0.82086 3.25619,8.46748 6.08366,16.99248 2.82747,8.525 5.50993,15.90273 5.96103,16.39495 0.70362,0.76777 20.37713,-0.90356 35.68027,-3.03116 l 4.25,-0.59088 v -17.98996 -17.98997 l -6.11383,-18.64649 C 507.3406,759.18322 499.85895,739 499.00439,739 c -0.28725,0 -1.57477,2.9347 -2.86116,6.52155 -3.0872,8.60811 -10.6304,20.01549 -16.73264,25.30435 -6.32855,5.485 -17.04539,10.67228 -27.52244,13.32171 -11.08728,2.80373 -30.69706,2.26054 -41.38815,-1.14646 -20.10402,-6.40667 -33.84303,-17.90502 -42.45739,-35.5331 -8.89231,-18.19688 -11.54209,-35.31581 -9.96407,-64.37284 0.51987,-9.57263 0.80565,-17.54436 0.63506,-17.71494 -0.17059,-0.17059 -3.07727,-1.17139 -6.4593,-2.22399 l -6.14914,-1.91383 -1.60127,7.04025 c -6.64291,29.20667 -7.19211,64.55238 -1.44419,92.94586 1.9317,9.54218 15.13992,53.50012 20.81426,69.27144 l 2.87832,8 17.37386,1.11805 c 9.55562,0.61493 19.84886,1.06493 22.87386,1 L 412.5,840.5 Z m 150.90632,0.79199 c -2.20852,-3.98471 -5.06816,-7.389 -7.98483,-9.50563 -9.63862,-6.99475 -14.69546,-17.00347 -22.58939,-44.7099 -9.62201,-33.7717 -18.13614,-51.46739 -32.68537,-67.93296 -3.61903,-4.09572 -4.45756,-4.26886 -8.96694,-1.85158 l -3.18639,1.70808 4.52333,6 c 7.67308,10.178 15.64488,28.07139 25.33626,56.86937 12.54343,37.27288 19.27311,49.745 31.31711,58.04002 4.69111,3.2309 14.10814,7.43326 16.93654,7.55796 0.40725,0.018 -0.8079,-2.76095 -2.70032,-6.17536 z M 181.5,829.44812 c 35.69368,-7.46858 47.50692,-11.46768 56.40627,-19.09502 C 242.35356,806.54147 248,798.69416 248,796.32503 c 0,-0.70588 -7.7625,-7.92378 -17.25,-16.03978 -30.97625,-26.49837 -46.36294,-43.41786 -54.59639,-60.03525 -1.9757,-3.9875 -3.90551,-7.25 -4.28847,-7.25 -0.38295,0 -5.43401,4.52338 -11.22457,10.05196 -22.20262,21.19811 -30.12629,36.99689 -30.06616,59.94804 0.026,9.9144 0.41118,12.60303 2.7938,19.5 3.25472,9.42146 9.78903,20.32256 16.74164,27.92981 l 4.97897,5.4478 4.70559,-1.4362 C 162.38249,833.6515 172.15,831.40452 181.5,829.44812 Z m 500,3.09232 c 13.68571,-2.10094 36.56229,-6.47106 39,-7.45019 1.83127,-0.73554 1.70473,-0.98389 -1.5,-2.94373 -1.925,-1.17724 -6.2,-3.03023 -9.5,-4.11777 -20.61018,-6.79226 -42.43424,-4.67459 -79.94416,7.75727 -18.80849,6.23367 -18.79085,6.18683 -3.05584,8.11693 10.78115,1.32245 42.65324,0.53289 55,-1.36251 z m -378.40186,-5.96735 c -1.5528,-8.3999 -5.45522,-17.27845 -15.60869,-35.51203 -5.07217,-9.10858 -10.30186,-18.69674 -11.62153,-21.30702 l -2.39941,-4.74595 0.37532,11.24595 0.37531,11.24596 4.68801,5 c 10.13131,10.80555 18.93368,24.99173 22.64785,36.5 2.13006,6.59994 2.96818,5.28183 1.54314,-2.42691 z M 551.58654,801.75 c -1.77241,-4.5375 -4.94301,-13.09895 -7.04578,-19.02544 -2.10277,-5.92648 -4.00385,-10.5948 -4.22463,-10.37403 -0.72735,0.72736 5.43227,21.41993 8.13959,27.34406 2.66084,5.82243 5.25869,10.30541 5.97189,10.30541 0.20982,0 -1.06866,-3.7125 -2.84107,-8.25 z M 266.6651,772.56636 c -0.34561,-4.0885 -2.86542,-17.93002 -5.59958,-30.75893 -2.73416,-12.82891 -5.66742,-27.31771 -6.51836,-32.19735 -1.83401,-10.51699 -2.02471,-29.38862 -0.36945,-36.55963 l 1.17772,-5.10213 -3.87921,-3.97267 c -2.13356,-2.18497 -4.23234,-3.61953 -4.66395,-3.18792 -0.43162,0.43162 -1.73606,4.36844 -2.89876,8.74851 -1.59173,5.99626 -2.11423,10.92844 -2.11493,19.96376 -0.001,13.82583 0.69178,18.25481 6.79376,43.42921 2.45687,10.13607 5.19844,22.73607 6.09238,28 1.61371,9.50229 1.66181,9.60448 6.72031,14.2775 2.80223,2.58868 5.2735,4.72618 5.49171,4.75 0.2182,0.0238 0.11396,-3.30185 -0.23164,-7.39035 z m 183.31973,3.87568 c 10.03251,-2.36453 20.31902,-7.78937 26.51069,-13.98104 6.24187,-6.24187 12.34469,-17.97381 14.97594,-28.78945 l 1.66124,-6.82844 -4.1484,-6.3672 c -2.28162,-3.50197 -4.70132,-6.82609 -5.37711,-7.38695 -0.84574,-0.7019 -3.7651,-0.49528 -9.36628,0.66292 -6.78962,1.40394 -9.06884,1.48733 -13.75968,0.50341 -11.79405,-2.47382 -17.72321,-9.04141 -18.1217,-20.07296 -0.28743,-7.95703 2.45351,-6.61795 -29.94073,-14.62743 -12.60534,-3.11667 -27.79444,-7.02839 -33.75355,-8.6927 -5.95912,-1.66431 -11.00944,-2.85134 -11.22295,-2.63783 -1.04019,1.04018 -2.4701,29.42567 -1.90294,37.77563 1.16009,17.07922 5.65164,32.60128 12.63188,43.65372 8.16625,12.93033 23.17153,23.52012 37.88478,26.73669 8.78201,1.91991 25.89144,1.94594 33.92881,0.0516 z M 643.5,772.51857 c 16.18353,-3.26744 34.98173,-11.04764 48.7874,-20.19213 9.93431,-6.58021 25.48319,-22.37154 32.25023,-32.75309 10.8615,-16.66301 18.84518,-37.26167 21.51267,-55.50476 1.02392,-7.00268 0.97942,-8.38462 -0.31741,-9.85659 -2.06786,-2.34712 -6.73662,-12.00832 -10.73391,-22.212 -1.83143,-4.675 -3.48512,-8.69219 -3.67486,-8.9271 -0.18974,-0.2349 -1.57779,0.70523 -3.08455,2.08917 -4.27124,3.9231 -14.40301,11.37359 -17.93991,13.19229 -3.8737,1.99188 -7.66188,2.11904 -9.1652,0.30765 -1.40773,-1.6962 -6.36053,-17.75071 -8.6273,-27.9654 -1.56497,-7.05217 -1.88934,-7.66975 -3.36942,-6.41516 -21.61895,18.32536 -23.26003,19.40664 -27.74528,18.28091 -3.30723,-0.83006 -3.94664,-2.93316 -5.33945,-17.56236 -1.13878,-11.961 -2.67415,-17 -5.17983,-17 -2.21904,0 -14.504,7.13537 -18.00663,10.45864 -3.02746,2.87244 -4.33118,5.58167 -7.81704,16.24438 -2.30098,7.03834 -5.71099,20.67198 -7.5778,30.29698 -6.69896,34.53891 -8.56285,40.66506 -16.00557,52.60641 -5.00567,8.03127 -16.30455,19.24234 -22.71004,22.53355 -2.34086,1.20275 -6.7311,2.9259 -9.7561,3.82923 l -5.5,1.6424 -0.60275,6.9442 c -0.33151,3.81932 -0.94633,10.59043 -1.36628,15.04693 -0.72024,7.64341 -0.63452,8.2229 1.51232,10.22298 5.9067,5.50293 27.9266,13.87187 42.45671,16.13621 8.20836,1.27917 28.29419,0.51626 38,-1.44334 z M 553.70493,712.5 c -0.27998,-9.35 -1.04105,-19.75482 -1.69127,-23.12183 l -1.1822,-6.12182 -7.8435,3.30797 c -4.31393,1.81938 -10.96688,4.23815 -14.78435,5.37504 l -6.94085,2.06708 6.33111,6.55304 c 8.11266,8.39704 15.25701,17.94028 20.64063,27.5712 l 4.2655,7.63068 0.857,-3.13068 c 0.47134,-1.72187 0.62791,-10.78068 0.34793,-20.13068 z m -62.19238,-15.14735 c 9.3431,-4.47285 19.34995,-8.9459 22.23745,-9.9401 l 5.25,-1.80764 -0.0245,-4.55245 c -0.0327,-6.09623 -1.52747,-12.22915 -4.52465,-18.56467 -2.835,-5.99269 -9.57381,-14.07464 -12.51355,-15.00767 -2.6429,-0.83883 -22.41997,8.72992 -30.58879,14.79979 -15.46338,11.49011 -23.98486,28.75574 -18.6499,37.78711 2.63733,4.46464 6.72295,6.03836 14.81389,5.70609 6.44299,-0.2646 8.39229,-0.94852 24,-8.42046 z m 48.75271,-19.37981 c 11.66037,-4.58812 24.86806,-13.04528 30.67405,-19.64124 5.77502,-6.56076 7.57757,-12.66618 7.47884,-25.3316 -0.0626,-8.03341 -0.6,-12.02694 -2.28758,-17 -3.90782,-11.51583 -13.83291,-30.19229 -21.3476,-40.17072 -9.54424,-12.67335 -23.71747,-28.9148 -28.2489,-32.37109 l -3.60315,-2.74826 -11.71546,5.5222 c -6.4435,3.03722 -16.21546,7.21055 -21.71546,9.27408 -5.5,2.06353 -10.33608,4.05239 -10.74686,4.41969 -0.41077,0.36729 1.25988,6.35789 3.71255,13.31244 5.53434,15.69262 11.81909,38.45372 14.70144,53.24337 l 2.18663,11.21979 10.41312,-4.52574 c 10.35216,-4.49925 10.4096,-4.54338 9.81057,-7.53851 -0.72071,-3.60356 -9.63216,-22.50098 -12.5297,-26.5702 -3.31064,-4.64936 -2.05597,-8.08556 2.16113,-5.91875 2.74259,1.40919 10.26121,12.62628 15.02842,22.42104 4.30209,8.83913 4.46792,9.02892 7.11733,8.14578 3.09981,-1.03327 5.86547,0.54772 4.98265,2.84833 -0.69572,1.81303 -20.95092,13.80776 -26.3635,15.61196 -0.58314,0.19438 1.16226,2.65923 3.87866,5.47746 5.72187,5.93633 10.80123,15.88221 12.30968,24.10354 0.57961,3.15898 1.23882,6.75609 1.46491,7.99359 0.22609,1.2375 0.85937,2.25 1.40728,2.25 0.54792,0 5.60185,-1.81222 11.23095,-4.02716 z M 197.3708,673.22038 c 5.8435,-9.96742 10.19631,-20.50326 12.89848,-31.22038 2.99174,-11.86554 2.92757,-31.13026 -0.14157,-42.5 -4.53735,-16.80883 -13.26769,-30.58307 -25.40157,-40.07717 -7.13602,-5.58355 -21.14731,-13.00235 -25.68404,-13.59938 -2.17763,-0.28657 -2.5568,0.17061 -3.32522,4.00934 -1.13613,5.67562 -0.68669,6.56007 4.05554,7.98088 6.17034,1.84868 18.21245,10.22686 23.94704,16.66093 6.4265,7.21037 11.47465,16.66854 14.44844,27.07047 1.86574,6.5261 2.27154,10.37974 2.25929,21.45493 -0.0146,13.20963 -0.10669,13.77471 -4.2811,26.27214 -4.25017,12.72427 -6.076,23.88665 -4.7629,29.11846 0.3602,1.43517 0.82857,2.6094 1.04082,2.6094 0.21225,0 2.43831,-3.50083 4.94679,-7.77962 z m 249.35601,3.69244 1.16528,-3.08718 -6.69605,-3.04066 C 429.99542,665.69881 412.96569,660.5667 381,652.6442 c -16.775,-4.15758 -37.025,-9.40842 -45,-11.66854 -13.49929,-3.82569 -33.53794,-7.84615 -34.35714,-6.89326 -0.19746,0.22968 -0.15484,2.05207 0.0947,4.04975 l 0.45372,3.63215 8.65436,1.71213 c 7.89749,1.5624 20.25498,5.13976 52.15435,15.09813 11.44143,3.5718 78.11095,21.11097 81.03076,21.31728 0.84734,0.0599 2.05101,-1.27014 2.69605,-2.97902 z M 294.19072,670.25 c 1.4107,-1.5125 3.05521,-3.70548 3.65446,-4.87328 1.72333,-3.35837 3.27483,-11.42323 2.60412,-13.53646 -0.55648,-1.75332 -0.96996,-1.6026 -4.59965,1.67661 -4.12277,3.72467 -6.41737,4.12334 -8.12477,1.41161 -0.7337,-1.16527 -0.2778,-2.64694 1.76359,-5.7317 1.51918,-2.29562 2.97624,-6.14005 3.25099,-8.57766 0.44764,-3.9714 0.22213,-4.59818 -2.23317,-6.20696 -2.65275,-1.73814 -2.84977,-1.72661 -6.86869,0.40196 -5.08354,2.69244 -6.32872,2.73445 -7.12036,0.24021 -0.39324,-1.23901 0.35368,-3.41326 2.05652,-5.98642 2.51237,-3.79645 2.579,-4.18583 1.10198,-6.44003 -4.18282,-6.3838 -19.01992,-8.89222 -25.75406,-4.35408 -6.55266,4.41583 -10.05499,13.2167 -8.36712,21.0254 2.93695,13.58738 19.38414,27.83096 37.08391,32.11534 8.17353,1.97847 8.6672,1.92871 11.55225,-1.16454 z m 19.87778,1.16073 C 320.96684,669.39225 337,660.92153 337,659.29543 c 0,-0.67713 -3.7125,-2.35692 -8.25,-3.73288 -9.03164,-2.73877 -24.98438,-6.6615 -25.40008,-6.2458 -0.14374,0.14374 0.41954,2.23762 1.25172,4.65306 1.71859,4.98824 1.20733,10.02056 -1.57187,15.47181 L 301.2156,673 h 3.7107 c 2.04088,0 6.15487,-0.71517 9.1422,-1.58927 z M 458,661.82294 c 0,-2.65607 -38.1326,-18.50655 -60.5152,-25.15418 -36.87989,-10.95334 -67.44745,-16.69582 -97.24694,-18.269 l -13.02962,-0.68787 1.14414,3.65546 c 0.62928,2.01051 1.81992,3.86657 2.64588,4.12459 0.82596,0.25802 6.45174,0.91032 12.50174,1.44956 18.36293,1.6367 56.25859,9.86208 64.3232,13.96157 2.02224,1.02797 14.8632,4.63126 28.53546,8.00732 23.96793,5.91835 36.45067,9.92346 49.83049,15.9882 l 6.31085,2.86055 2.75,-2.56666 c 1.5125,-1.41166 2.75,-2.92796 2.75,-3.36954 z m 13.28004,-10.14245 c 3.61712,-2.37573 9.53384,-5.57637 13.14827,-7.11252 7.74067,-3.28983 7.64773,-2.90557 4.52521,-18.70991 -3.43925,-17.40742 -15.26235,-57.69464 -18.44105,-62.83788 -0.22405,-0.36252 -4.25494,0.59493 -8.95754,2.12766 -14.2339,4.6393 -24.62778,6.25825 -39.55493,6.16108 -7.58224,-0.0494 -17.20886,-0.77446 -21.9609,-1.65416 -4.6535,-0.86146 -8.65047,-1.37672 -8.88216,-1.14504 C 390.18562,569.48105 375,619.56232 375,621.79438 c 0,0.49648 3.9375,1.93023 8.75,3.18611 24.45137,6.38089 61.0277,20.06401 74.51854,27.87721 2.8773,1.66638 5.50224,3.05511 5.83319,3.08605 0.33095,0.0309 3.56119,-1.88753 7.17831,-4.26326 z m 276.68339,-49.26337 c -0.99269,-21.46596 -0.99799,-29.13966 -0.0256,-37 1.58699,-12.82772 6.18293,-26.67231 11.58431,-34.89607 2.92611,-4.45508 3.91859,-6.75368 3.13097,-7.25132 -0.63424,-0.40074 -7.90316,-0.67281 -16.15316,-0.60461 -13.1816,0.10897 -16.40939,0.48835 -26.62612,3.12946 -38.01104,9.82619 -61.55777,26.47435 -81.42254,57.56789 l -1.82874,2.86247 5.15545,-2.61247 c 7.49457,-3.79778 14.48495,-3.28986 17.90346,1.30087 1.80669,2.42621 3.42445,9.01768 4.68002,19.06844 l 1.13847,9.11345 11.28038,-9.04761 c 12.30496,-9.8694 15.1506,-10.87889 19.029,-6.75053 1.22335,1.3022 3.02912,5.74156 4.16932,10.25 2.21373,8.75326 6.39561,22.16056 7.14625,22.91119 0.26264,0.26264 3.60447,-1.9903 7.42629,-5.00653 C 724.14985,617.87639 730.08498,614 732.085,614 c 3.10961,0 5.82195,3.42738 9.49647,12 2.00387,4.675 4.38031,10.075 5.28097,12 l 1.63756,3.5 0.35794,-6 c 0.19687,-3.3 -0.20566,-18.18729 -0.89451,-33.08288 z M 368.02801,616.75 c 2.67116,-10.2728 8.17292,-28.21227 11.8792,-38.73425 2.21233,-6.28071 3.87994,-11.56194 3.7058,-11.73607 -0.17413,-0.17413 -5.53443,-2.06957 -11.91177,-4.21207 l -11.59516,-3.89547 -2.77059,3.66393 c -8.01326,10.59704 -30.69893,37.43079 -36.53908,43.22027 l -6.7036,6.64543 10.05755,1.21896 c 5.53166,0.67042 13.19263,1.81632 17.02439,2.54643 6.30624,1.2016 7.02078,1.17127 7.53579,-0.31985 4.9391,-14.30028 10.93602,-23.85089 13.43057,-21.38934 1.03162,1.01797 0.56438,3.30739 -2.44906,12 -2.04814,5.90812 -3.71673,11.22911 -3.70797,11.82443 0.0129,0.87974 3.34129,1.94713 10.22738,3.2799 0.3913,0.0757 1.20875,-1.7748 1.81655,-4.1123 z M 263.75088,608.5 c 4.53798,0 8.25048,-0.35795 8.25,-0.79545 -4.9e-4,-0.4375 -1.10543,-1.9 -2.45543,-3.25 -3.65699,-3.657 -9.40988,-3.39049 -14.01065,0.64904 -3.76255,3.30357 -4.77572,5.71808 -1.7848,4.2534 0.9625,-0.47135 5.46289,-0.85699 10.00088,-0.85699 z m -40.70406,-23.2671 c 10.36183,-24.89024 6.80487,-50.33669 -10.27435,-73.50261 C 208.15668,505.46952 191.52499,489 189.81837,489 188.87329,489 184,496.11541 184,497.49531 c 0,0.56707 2.43393,2.93196 5.40874,5.25532 7.24316,5.65697 16.756,17.66907 21.02999,26.55505 3.8403,7.98432 7.54337,21.88448 7.55426,28.35635 0.009,5.30984 -2.40646,17.99844 -4.27955,22.48138 -1.28421,3.07354 -1.25544,3.93669 0.2634,7.90348 0.93779,2.44921 2.03377,5.35311 2.43553,6.45311 0.71416,1.95534 0.76166,1.95763 2.12712,0.10253 0.76816,-1.0436 2.79646,-5.25994 4.50733,-9.36963 z M 132.86186,561.75 c 1.9769,-5.47549 6.32626,-31.96188 5.40051,-32.88763 -1.04685,-1.04685 -32.3886,-8.06947 -33.0522,-7.40588 -0.41493,0.41494 -7.130002,34.21815 -7.180985,36.14861 -0.0171,0.64749 6.078595,2.15337 14.720815,3.63662 18.9447,3.25147 19.11984,3.2559 20.11186,0.50828 z m 308.90583,-1.26542 c 4.39375,-0.83348 18.00638,-4.88929 30.25029,-9.01291 30.89538,-10.40526 45.5576,-17.42309 72.48202,-34.69231 22.47218,-14.41358 57.20913,-39.64677 65.86333,-47.84363 l 7.98631,-7.56427 -6.42482,-3.52042 c -6.67306,-3.65646 -9.73217,-7.30474 -8.59968,-10.25596 0.36271,-0.94521 6.33507,-4.40108 13.2719,-7.6797 l 12.61243,-5.96113 -9.85473,-10.28243 c -5.42011,-5.65533 -12.32834,-13.45444 -15.35164,-17.33136 -5.17398,-6.63484 -6.09719,-7.32092 -15.71547,-11.67888 -17.24281,-7.81256 -23.88924,-9.17517 -44.28763,-9.07954 -15.47479,0.0725 -18.60842,0.37908 -27.07796,2.64876 -34.39395,9.21695 -59.51599,35.67863 -81.41804,85.75967 -4.13335,9.45126 -4.52458,10.99668 -3.94936,15.60057 0.50997,4.08166 0.21815,5.934 -1.44998,9.20381 -2.3692,4.64402 -11.05098,13.73595 -14.01443,14.67651 -1.86131,0.59076 -1.88848,0.849 -0.50263,4.77693 2.62502,7.44009 7.41226,10.84299 15.34044,10.9044 6.1136,0.0474 9.43881,-1.70316 15.27944,-8.04369 4.6917,-5.09327 6.95299,-5.73916 8.25095,-2.35672 0.97546,2.54198 -4.55497,10.43723 -9.76501,13.94056 -8.51379,5.72483 -19.04802,5.62509 -27.79799,-0.26321 l -5.12886,-3.45147 -3.82362,3.45442 c -6.22105,5.62034 -16.47223,6.13001 -23.93696,1.19008 -6.52015,-4.31483 -9.33809,-10.64972 -5.76859,-12.9681 1.46588,-0.95209 2.40589,-0.36875 6.01499,3.73271 3.83689,4.36033 4.79585,4.91095 9.30803,5.34451 4.41524,0.42425 5.43288,0.14474 8.3211,-2.28554 6.83773,-5.75357 6.56337,-11.73762 -0.69459,-15.14961 -5.76211,-2.70879 -12.93571,-9.45113 -14.7981,-13.90846 -1.93613,-4.63382 -1.73565,-7.67754 0.71054,-10.78737 2.0727,-2.63501 2.07742,-2.76062 0.37173,-9.88486 -2.39145,-9.98854 -9.94251,-30.7059 -14.48576,-39.74368 -4.64653,-9.24322 -13.94733,-21.87921 -20.75422,-28.19651 -11.60902,-10.77403 -28.38346,-19.3506 -42.73474,-21.84976 -9.98108,-1.73813 -23.54893,-0.61272 -33.69212,2.79466 l -8.27366,2.77935 -4.5153,8.668 c -6.78929,13.03337 -15.62543,26.86463 -24.18793,37.86151 -5.51208,7.07919 -7.34243,10.11793 -6.5,10.79124 2.07896,1.6616 9.03254,4.85926 14.34567,6.59697 2.84517,0.93054 5.74141,2.37674 6.4361,3.21378 2.24498,2.70504 -2.3323,9.04088 -10.52295,14.56583 -2.2514,1.51867 10.25416,11.71228 37.45931,30.53406 26.34139,18.22418 39.46704,25.48325 66.22833,36.62721 24.08731,10.03046 44.10279,16.18276 61.72617,18.97319 6.53511,1.03475 26.48544,0.53421 33.76769,-0.84721 z M 332.19186,484.9756 c -6.88385,-4.19697 -9.32292,-16.63113 -4.90219,-24.99087 6.44236,-12.18267 20.72814,-8.84988 23.71387,5.53232 3.15559,15.20041 -7.58071,26.3059 -18.81168,19.45855 z m 151.2281,-0.86128 c -4.33723,-2.64484 -6.66996,-8.14356 -6.66996,-15.72245 0,-9.97995 5.10855,-16.53965 13.04274,-16.74769 5.65336,-0.14824 8.82206,1.94182 11.70011,7.71732 4.28075,8.59035 2.52339,19.33417 -4.00208,24.4671 -3.47829,2.73602 -9.84072,2.86522 -14.07081,0.28572 z M 149.37469,548.6506 c 2.06938,-10.60651 1.8145,-11.60045 -2.98363,-11.63529 -1.87745,-0.0136 -2.33339,1.10981 -4.15368,10.23469 -1.1246,5.6375 -1.82085,10.61286 -1.54721,11.05636 0.27364,0.4435 1.90723,0.6685 3.63019,0.5 3.12735,-0.30584 3.13593,-0.32307 5.05433,-10.15576 z M 93.570972,549.25 c 0.363878,-2.0625 1.509269,-7.96204 2.545313,-13.11008 C 97.152328,530.99188 98,526.00507 98,525.05813 c 0,-1.37094 -1.986459,-2.13976 -9.75,-3.77354 -5.3625,-1.1285 -10.040603,-1.88162 -10.395783,-1.6736 -0.747392,0.43774 -6.298202,29.29952 -5.731741,29.80254 0.51008,0.45297 15.817147,3.30414 18.582211,3.46122 1.797071,0.10209 2.327007,-0.56807 2.866285,-3.62475 z M 81,547.64076 c -4.490016,-0.96053 -5.55868,-1.58648 -5.819551,-3.40868 -0.388959,-2.7169 0.532308,-2.77623 9.927604,-0.63931 5.504165,1.25189 6.935663,1.94743 6.688855,3.25 -0.394301,2.08098 -3.668394,2.32297 -10.796908,0.79799 z m 2.219703,-9.08944 c -5.974364,-1.44664 -6.72534,-1.92416 -5.681702,-3.61281 0.506431,-0.81942 2.526543,-1.00764 6.43282,-0.59935 C 91.347472,535.11017 93,535.79977 93,538.10699 c 0,2.23367 -2.013012,2.32513 -9.780297,0.44433 z M 85.5,530.83304 c -5.505137,-1.03856 -7.845778,-2.6568 -6.647084,-4.59556 0.626667,-1.01356 2.200042,-0.99411 7.979141,0.0986 7.970803,1.50718 8.682025,1.88182 7.822866,4.12075 -0.655661,1.70863 -1.835096,1.75709 -9.154923,0.37617 z M 415.16567,503.53339 C 418.9421,500.96724 423,495.37611 423,492.73895 c 0,-2.07309 -2.24529,-2.8041 -10.60866,-3.45392 -8.04639,-0.62519 -17.22859,1.12729 -18.12333,3.45894 -0.8887,2.31591 2.08732,6.4149 7.26475,10.00603 5.61194,3.89251 8.78879,4.07506 13.63291,0.78339 z m -233.35622,-14.75032 5.30946,-8.18478 -2.30946,-1.77691 c -1.2702,-0.9773 -2.59022,-1.78691 -2.93337,-1.79914 C 181.11772,476.99521 171,492.2754 171,493.44772 c 0,1.03276 3.14651,3.48312 4.5,3.5044 0.55,0.009 3.38925,-3.66743 6.30945,-8.16905 z m -11.3432,-6.25908 c 4.7793,-7.4118 8.54206,-14.15293 8.36169,-14.98029 -0.28395,-1.30249 -26.78057,-19.98972 -27.36592,-19.30032 -1.36254,1.60476 -19.47888,30.06299 -19.25951,30.25399 2.02123,1.75983 27.59779,17.50248 28.4358,17.50254 0.62607,5e-5 5.04865,-6.06411 9.82794,-13.47592 z M 424.12016,478 c 2.73171,-8.61156 21.23056,-44.08364 27.59487,-52.91398 22.41162,-31.0956 50.43417,-46.85088 88.28497,-49.63699 13.47596,-0.99193 32.02581,2.54696 47.20889,9.00638 1.10091,0.46836 -0.0845,-2.24058 -3.33181,-7.6142 -5.73852,-9.49594 -5.58202,-7.29147 -2.36705,-33.34121 4.82207,-39.07155 -2.95667,-86.21306 -18.20195,-110.30929 -2.81984,-4.45697 -3.7162,-5.21064 -5.58359,-4.69479 -5.32504,1.47103 -21.0015,9.8779 -29.25357,15.68793 -10.37884,7.30742 -38.00911,34.41662 -46.98821,46.10208 -3.29049,4.28226 -6.92222,8.02522 -8.0705,8.3177 -1.14829,0.29247 -7.89829,-0.60055 -15,-1.98448 -33.68122,-6.56358 -56.28616,-5.66999 -84.26594,3.3311 -7.46403,2.40117 -9.77198,2.78525 -11.424,1.90111 -1.13865,-0.60938 -6.15362,-4.71172 -11.14436,-9.11631 -26.14062,-23.07037 -59.92986,-44.79747 -76.62107,-49.26873 -5.23844,-1.40328 -5.52649,-1.37788 -7.1972,0.63483 -5.11775,6.16536 -9.74618,34.11372 -9.75403,58.89885 -0.007,22.20496 2.27856,36.22704 10.57244,64.86187 1.33207,4.59902 2.42195,9.88652 2.42195,11.75 0,1.86347 0.1125,3.38232 0.25,3.37523 0.1375,-0.007 3.175,-0.94273 6.75,-2.07919 4.23165,-1.3452 10.51323,-2.26026 18,-2.62212 13.80485,-0.66725 23.60657,1.38422 36.8151,7.70526 22.14444,10.5974 36.91933,25.62512 49.20912,50.05119 4.33808,8.62199 13.23946,34.21966 14.41658,41.45776 l 0.65052,4 h 12.9593 12.95929 z M 282.10899,351.75 c -2.31945,-5.41646 -4.95244,-15.90049 -6.71809,-26.75 -2.80976,-17.26538 -0.9592,-48.43133 3.2579,-54.86744 1.35113,-2.06208 2.15176,-2.30982 6.20131,-1.91889 5.6856,0.54887 17.32836,6.25601 26.26153,12.87307 3.63641,2.69359 11.42595,9.88054 17.31009,15.971 13.63904,14.11727 13.63775,14.07005 0.61951,22.6296 -10.72198,7.04975 -25.18801,19.58197 -34.12438,29.56266 -7.50109,8.37768 -10.07572,8.88023 -12.80787,2.5 z m 16.45626,-17.54732 c 8.71587,-8.46466 19.87317,-17.62768 28.44997,-23.36477 l 2.48478,-1.66209 -6,-6.19131 c -9.27323,-9.56891 -21.16539,-18.79395 -29.86876,-23.16992 -5.97453,-3.00393 -8.10405,-3.66761 -8.69582,-2.7101 -3.35519,5.42881 -3.632,38.20246 -0.44254,52.39551 1.83683,8.17389 3.49531,14.50466 3.79566,14.48891 0.1163,-0.006 4.74082,-4.40991 10.27671,-9.78623 z m 253.7422,6.84322 c -1.7559,-1.07064 -6.53242,-4.41658 -10.6145,-7.43542 -9.27721,-6.86082 -23.24495,-15.36095 -34.67354,-21.10073 -4.82014,-2.42082 -9.05751,-5.16666 -9.41639,-6.10187 -1.98897,-5.18319 18.9037,-31.40114 34.12872,-42.8277 10.84021,-8.13571 16.55806,-11.03063 19.09997,-9.67025 7.45494,3.98977 14.1687,38.37097 12.71041,65.09007 -0.84923,15.55983 -1.84321,21.01578 -4.13385,22.69074 -2.38157,1.74144 -3.3282,1.65548 -7.10082,-0.64484 z m 2.36466,-11.7959 c 1.2083,-4.67868 0.82345,-34.34002 -0.5482,-42.25 -1.62157,-9.35128 -5.04454,-23.27212 -5.94683,-24.18513 -1.21242,-1.22684 -13.96273,8.14715 -21.77478,16.00876 -7.10405,7.14911 -19.44293,22.42953 -19.37015,23.98792 0.0177,0.37865 6.44841,4.22364 14.29049,8.54443 7.84208,4.32079 18.06511,10.69927 22.71785,14.1744 4.65273,3.47513 8.78844,6.35244 9.19046,6.39402 0.40202,0.0416 1.05054,-1.1619 1.44116,-2.6744 z M 137.21943,459.58392 c 3.79014,-5.94366 6.68358,-11.01424 6.42986,-11.26796 C 142.60806,447.27472 127.52781,438 126.87605,438 c -1.10516,0 -14.10142,20.8239 -13.71665,21.97819 0.45013,1.3504 15.06917,10.90974 16.25473,10.62892 0.50277,-0.11909 4.01516,-5.07953 7.8053,-11.02319 z m -13.91602,2.29699 c -4.1569,-2.68048 -6.01437,-4.47057 -5.64301,-5.43831 0.8272,-2.15565 2.11035,-1.80814 8.5199,2.3074 5.29759,3.40155 7.0136,6.12491 4.3197,6.85545 -0.55,0.14915 -3.78846,-1.52689 -7.19659,-3.72454 z m 3.94659,-6.57326 c -4.93214,-3.37568 -6.34271,-5.51429 -4.42061,-6.70221 1.24556,-0.76979 13.3235,7.43566 12.88474,8.75357 -0.71477,2.14694 -3.21567,1.54083 -8.46413,-2.05136 z m 4.15589,-5.43268 c -3.24824,-2.26115 -6.05964,-4.24928 -6.24755,-4.41807 -0.18792,-0.16879 0.0616,-1.02744 0.55441,-1.9081 0.77551,-1.38576 1.71349,-1.0729 6.97095,2.32516 6.98383,4.51387 7.80332,5.47696 5.96118,7.0058 -1.01973,0.8463 -2.72139,0.13997 -7.23899,-3.00479 z"
       id="path1" />
  </g>
</svg>
