<?xml version="1.0" encoding="UTF-8" standalone="no"?>
<!-- Created with Inkscape (http://www.inkscape.org/) -->

<svg
   version="1.1"
   id="svg1"
   width="896"
   height="1200"
   viewBox="0 0 896 1200"
   xmlns="http://www.w3.org/2000/svg"
   xmlns:svg="http://www.w3.org/2000/svg">
  <defs
     id="defs1" />
  <g
     id="g1">
    <path
       style="fill:#ffffff;fill-opacity:1"
       d="m 313.15575,986.46408 c -17.99584,-3.90571 -23.27443,-11.26479 -26.12406,-36.42045 -0.65147,-5.75101 -2.53697,-17.67601 -4.19,-26.5 -1.65303,-8.824 -4.46023,-24.49516 -6.23821,-34.82481 -1.77797,-10.32964 -3.65361,-18.75876 -4.16808,-18.73136 -0.51447,0.0274 -4.3737,1.8386 -8.57606,4.02491 -10.33789,5.37836 -23.59143,9.56881 -36.17281,11.43696 C 187.51951,891.41356 152.9663,879.82938 123.43996,850.5 104.59537,831.78113 94.362755,812.32324 88.787941,784.6073 86.870825,775.0761 86.568078,770.52015 86.654385,752.5 c 0.05532,-11.55 0.829234,-27.975 1.719814,-36.5 4.451115,-42.60793 0.04192,-66.63802 -15.965758,-87.01323 -6.961387,-8.86073 -5.598328,-12.03663 6.196273,-14.43717 17.066349,-3.4735 28.793716,-2.85854 48.013856,2.51776 41.47887,11.60257 73.51089,40.91872 85.69868,78.43264 4.90423,15.09516 7.79241,28.80649 9.24593,43.89402 3.41835,35.48237 4.28389,39.70783 10.87825,53.10598 5.00341,10.1657 10.62076,16.3202 20.05857,21.97662 5.8325,3.49563 18.30184,8.05487 19.29995,7.05676 0.27256,-0.27256 1.10993,-5.34157 1.86083,-11.26447 1.59312,-12.56625 3.76993,-24.01472 6.38652,-33.58847 l 1.86384,-6.81957 -3.38732,-2.9741 c -8.93738,-7.84712 -14.53775,-21.30718 -14.50646,-34.86513 0.0269,-11.65791 2.29991,-20.06258 9.35703,-34.59873 6.98762,-14.39302 13.57737,-24.71699 21.57869,-33.80673 2.8486,-3.2361 4.812,-6.19773 4.3631,-6.58141 -0.4489,-0.38367 -5.76618,-2.63667 -11.81618,-5.00667 -25.21946,-9.87935 -66.02895,-30.35234 -79.25,-39.75753 -7.79777,-5.54718 -7.97392,-7.2452 -1.59406,-15.36575 2.56077,-3.25945 4.47327,-6.04977 4.25,-6.20073 -0.22327,-0.15095 -4.34123,-1.52331 -9.15102,-3.04969 C 191.38835,584.36458 187,581.14689 187,576.83558 c 0,-1.6626 1.72744,-5.94555 3.89661,-9.66111 6.55734,-11.23203 13.0673,-24.83638 16.7468,-34.99706 C 211.43111,521.71795 218,496.23377 218,491.99875 218,490.5653 214.84132,481.67118 210.98071,472.23404 198.83413,442.54205 193.63203,418.07882 193.70632,391 c 0.0725,-26.41281 4.02654,-47.31735 10.26976,-54.29462 2.64345,-2.95425 3.32477,-3.19504 8.69604,-3.07339 16.79145,0.38029 60.64844,23.1352 90.73377,47.07663 4.34824,3.46026 8.25212,6.29138 8.67529,6.29138 0.42318,0 4.74053,-1.97291 9.59411,-4.38425 22.28704,-11.07255 56.62077,-17.27751 80.31746,-14.51538 17.56034,2.04686 15.0602,3.19668 25.05302,-11.52193 11.48448,-16.91572 21.9267,-29.63011 35.13066,-42.77494 C 478.83902,297.21554 492.13784,288 499.41311,288 c 5.3524,0 8.13716,1.76994 12.41212,7.88889 10.21704,14.62412 16.60024,32.12349 21.15527,57.99666 3.79129,21.53503 4.26301,28.89111 3.88697,60.61445 l -0.36747,31 6.97407,12 c 9.21763,15.86041 19.1392,28.78942 31.44851,40.98124 12.34113,12.22334 12.75892,13.87137 5.32742,21.01518 -2.6125,2.51137 -6.20943,5.56455 -7.99317,6.78485 -1.78374,1.2203 -3.24624,2.47337 -3.25,2.78459 -0.004,0.31122 1.79224,1.57699 3.99111,2.81283 6.72291,3.77848 10.00234,7.04515 9.99913,9.9602 -0.005,4.7586 -32.19721,43.3125 -53.67121,64.27796 -20.31626,19.83515 -42.559,36.00794 -63.21728,45.96554 -8.34567,4.02274 -10.63448,5.53457 -9.73727,6.43178 0.6451,0.64509 6.97949,9.14767 14.07644,18.89462 14.47953,19.88618 24.24532,29.84909 33.87459,34.55832 8.66317,4.23676 20.37443,6.98969 32.79302,7.70857 l 10.61536,0.61449 2.6101,-3.84111 c 5.23508,-7.70411 17.51861,-13.28026 26.56105,-12.05749 2.52897,0.34198 6.72688,1.67064 9.32868,2.95257 l 4.73054,2.33078 0.26946,-70.58746 c 0.25454,-66.68102 0.37312,-70.79608 2.14274,-74.35715 1.0303,-2.07334 3.2803,-4.77334 5,-6 L 601.5,556.5 h 99.18434 99.18433 l 3.18883,3 c 6.20206,5.83481 5.9425,1.91445 5.9425,89.75599 v 80.32023 l -2.25,4.46189 c -1.64813,3.26835 -3.45123,5.06754 -6.74063,6.72605 l -4.49063,2.26417 -97.4347,-0.0432 -97.43469,-0.0432 0.23734,5.81538 c 0.23954,5.86933 -1.18622,9.0421 -5.8632,13.04748 -2.9745,2.54737 -11.56997,6.17589 -14.65265,6.18551 -1.72103,0.005 -5.64694,1.16245 -8.72423,2.57128 -7.63203,3.49406 -20.04344,4.74059 -48.14661,4.83556 -24.83705,0.0839 -33.92535,-1.04362 -47.17459,-5.85284 l -6.49541,-2.35771 0.5326,2.15674 c 1.83221,7.41937 3.96804,35.59338 3.95394,52.15674 -0.0304,35.64546 -3.78652,58.57164 -15.41639,94.09577 -10.60372,32.3897 -10.29611,29.44979 -3.53398,33.77547 9.93926,6.35807 15.33422,16.8742 12.49021,24.34658 -0.82646,2.17144 -2.69665,4.45284 -4.52614,5.52132 -10.83059,6.32541 -42.5662,6.25693 -51.33024,-0.11075 -4.66997,-3.39306 -9.90827,-14.80774 -12.54278,-27.33174 -0.79414,-3.77523 -2.57346,-16.63638 -3.95403,-28.58035 -3.50443,-30.3183 -2.96914,-28.30209 -7.36339,-27.73482 -2.00189,0.25843 -9.77503,0.74912 -17.27365,1.09042 l -13.63385,0.62055 -2.75755,8.65377 c -3.10263,9.7367 -7.98238,29.04453 -9.94878,39.36459 l -1.30555,6.85181 2.63979,1.37941 c 6.71719,3.51005 11.42136,11.49841 11.35147,19.27646 -0.10659,11.86209 -5.79815,15.21753 -25.71168,15.15824 -6.6,-0.0196 -14.85491,-0.65534 -18.34425,-1.41265 z m 33.39916,-9.50965 c 3.77548,-3.13337 -0.0751,-12.93652 -6.31294,-16.07211 -6.36686,-3.20043 -6.56661,-3.60528 -5.85331,-11.86301 0.35724,-4.13562 0.90535,-8.68858 1.21803,-10.1177 0.55407,-2.53242 0.41022,-2.61493 -5.66579,-3.25 C 326.51205,935.29323 317.22724,935 309.308,935 h -14.39863 l 0.54279,3.25 c 0.29853,1.7875 1.20776,8.54624 2.02052,15.01942 0.81275,6.47317 1.99512,12.77317 2.62749,14 3.12508,6.06281 8.33591,8.78711 20.43556,10.68401 7.65569,1.20022 24.13151,0.56763 26.01918,-0.999 z m 107.26359,-4.49317 c 4.30537,-1.27856 5.1815,-1.92991 5.1815,-3.85212 0,-4.08177 -4.19769,-8.94572 -10.50846,-12.17636 -3.29535,-1.68698 -6.54741,-4.16198 -7.2268,-5.5 -1.66092,-3.2711 -1.57889,-8.57934 0.22444,-14.52385 0.81904,-2.69991 1.49404,-5.07955 1.5,-5.2881 0.0246,-0.86277 -34.68886,4.24551 -35.69625,5.25291 -0.79192,0.79192 2.92689,20.11943 4.87476,25.33526 2.70925,7.25456 4.6618,9.29205 10.37383,10.82516 6.99238,1.87675 24.85197,1.83512 31.27698,-0.0729 z M 339.94982,921.75 c 2.39911,-9.48503 9.19519,-30.20393 10.66044,-32.5 1.35958,-2.13049 2.07928,-2.25 13.54994,-2.25 6.66275,0 19.99014,-0.92723 29.61643,-2.06051 18.14251,-2.13588 21.05884,-1.86555 18.13099,1.68064 -0.77419,0.9377 -3.32012,2.55283 -5.65762,3.58918 -3.42952,1.52051 -4.25,2.38699 -4.25,4.48827 0,2.98174 2.95889,29.23292 3.48468,30.91606 0.24665,0.78953 3.44791,0.58551 10.99985,-0.70103 5.85858,-0.99807 15.12642,-2.35696 20.59519,-3.01977 l 9.94324,-1.2051 4.52508,-14.05302 c 5.03201,-15.62731 8.56094,-31.84508 11.01793,-50.63472 2.32133,-17.75216 1.49874,-62.87311 -1.48581,-81.5 -2.96778,-18.52227 -7.76021,-42.44707 -10.6851,-53.34233 -1.3794,-5.13828 -2.37009,-10.7596 -2.20153,-12.49181 0.39594,-4.06889 3.10471,-4.66652 5.384,-1.18788 2.92695,4.4671 8.86325,23.71102 13.83155,44.83825 0.53933,2.29344 2.00152,3.44378 7.8766,6.1967 9.31323,4.36397 20.1949,6.58386 35.46432,7.23484 l 12.25,0.52225 0.0198,-8.88501 c 0.0177,-7.93314 0.83458,-16.44126 2.50933,-26.13501 0.49974,-2.89257 0.30684,-3.25 -1.75393,-3.25 -4.00144,0 -17.0075,-4.00257 -23.71743,-7.29895 -11.81995,-5.80678 -29.22441,-24.85844 -47.85951,-52.38903 -2.30371,-3.40339 -4.61743,-6.45304 -5.14159,-6.77699 -0.52417,-0.32395 -4.99153,0.64042 -9.92748,2.14304 -9.60544,2.92414 -10.82416,4.2132 -8.89916,9.41285 1.55508,4.20046 12.73363,48.99331 14.82619,59.40908 9.02937,44.94393 7.34621,74.76086 -5.72965,101.5 -3.55018,7.25984 -6.19972,11.05339 -11.23612,16.08757 -15.40997,15.40321 -41.00505,21.85206 -59.31805,14.94558 -11.43862,-4.31391 -27.11285,-19.22212 -33.13014,-31.51102 -5.44666,-11.12355 -7.14209,-20.26978 -7.14219,-38.52957 l -8e-5,-16.50744 -12,-0.0645 c -9.27914,-0.0499 -13.39491,-0.52769 -18.15207,-2.10722 l -6.15207,-2.04268 -0.6512,3.11466 c -5.39082,25.78399 -7.69069,45.20428 -7.65205,64.61466 0.0344,17.28105 1.07935,25.98533 6.96293,58 1.66778,9.075 3.33222,18.62796 3.69876,21.22879 l 0.66643,4.7288 19.13963,0.29411 c 10.5268,0.16176 20.74207,0.3963 22.70059,0.5212 3.50928,0.2238 3.58022,0.15092 4.88887,-5.0229 z M 225.5,875.96993 c 10.8351,-1.53311 31.28576,-8.48537 39.12108,-13.29932 L 271.5,858.44425 v -13.96019 -13.96018 l -4.73661,-0.67713 c -7.78856,-1.11342 -14.32629,-3.72593 -22.00281,-8.79245 -8.16098,-5.38625 -11.72391,-8.90932 -17.63962,-17.44228 C 218.71468,791.48662 215.58016,779.14925 211.97546,744 209.10343,715.99484 207.16483,708.84082 201.05487,703.69962 197.24142,700.49082 183.73991,693 181.76978,693 c -1.13785,0 -1.61003,1.80767 -2.02436,7.75 -0.86479,12.40286 -5.2386,20.25 -11.28685,20.25 -1.24945,0 -5.92803,-2.76073 -10.39685,-6.13496 -4.46883,-3.37422 -8.42713,-5.83296 -8.79623,-5.46386 -0.36911,0.3691 -1.70966,4.98811 -2.97902,10.26446 -3.14135,13.05768 -7.53995,22.11702 -11.55903,23.80692 -4.61103,1.93879 -7.97825,0.25193 -13.6065,-6.8164 -6.867,-8.62402 -8.5528,-10.04566 -9.93599,-8.37901 -0.606,0.73018 -4.04532,8.27903 -7.64294,16.77523 -7.508493,17.73215 -7.677876,19.10477 -4.587942,37.17895 6.505002,38.05018 29.173402,67.99994 64.129882,84.72918 17.51581,8.38259 41.93497,11.90736 62.41605,9.00942 z m 170.85566,-18.56061 c 22.24354,-5.7585 35.66972,-22.17948 41.21587,-50.40932 2.15581,-10.97307 2.87122,-30.83751 1.54863,-43 -1.39349,-12.81449 -6.47313,-38.37598 -13.25995,-66.726 -5.45881,-22.80265 -4.97889,-21.96065 -10.18771,-17.87398 -1.66292,1.30468 -1.69143,1.6439 -0.31665,3.76689 1.98156,3.05998 4.64415,14.77138 4.64415,20.42726 0,9.12424 -4.84153,15.76724 -18,24.69754 -4.125,2.79953 -12.6995,10.08497 -19.05444,16.18987 -16.55818,15.90669 -29.40388,24.83714 -43.12774,29.98279 l -4.68218,1.75555 -0.68574,6.40334 c -0.8247,7.70092 0.17482,23.25796 2.11229,32.87674 3.62796,18.01145 18.55856,36.38959 33.86099,41.67965 6.42977,2.22277 17.84321,2.32386 25.93248,0.22967 z M 330.5,766.50199 c 8.44774,-2.14273 20.58465,-8.33202 30.25,-15.42617 4.5375,-3.33042 8.25,-6.35195 8.25,-6.71449 0,-0.36255 -3.74943,-5.87966 -8.33207,-12.26025 -4.58263,-6.3806 -9.83056,-13.85108 -11.66205,-16.60108 -1.83149,-2.75 -3.42535,-5.13079 -3.5419,-5.29064 -0.11656,-0.15984 -1.81516,0.65531 -3.77469,1.81146 -4.74941,2.80222 -22.49877,8.95641 -25.86786,8.9691 -2.62366,0.01 -5.82143,-2.22107 -5.82143,-4.06135 0,-2.21607 4.40243,-4.96361 11.1897,-6.98345 15.37304,-4.5749 26.45,-12.30273 29.23139,-20.39327 1.04467,-3.03875 1.03446,-4.75156 -0.056,-9.38452 -0.73363,-3.11703 -1.34091,-6.86908 -1.3495,-8.33787 -0.0165,-2.81872 -0.23095,-2.91787 -9.51562,-4.39928 -2.2,-0.35102 -9.26118,-1.94141 -15.69151,-3.5342 C 317.37817,662.30319 311.45219,661 310.63966,661 c -3.02627,0 -20.80733,24.43984 -27.64668,38 -5.76006,11.42028 -8.09561,19.6282 -8.70384,30.58825 -0.48029,8.65457 -0.25136,11.01527 1.61089,16.61134 3.86761,11.62216 11.74404,18.03855 26.15877,21.30975 7.50296,1.70268 19.4211,1.28056 28.4412,-1.00735 z m 219.09874,-1.54862 c 11.61824,-0.94343 13.14532,-1.29204 15.48692,-3.53544 2.0745,-1.9875 3.08283,-2.31329 5.00604,-1.61744 3.61401,1.3076 6.70451,0.0755 8.90584,-3.55049 2.01945,-3.32641 3.40827,-4.02044 4.50246,-2.25 0.97579,1.57886 5.19103,1.16611 7.04719,-0.69005 1.38218,-1.38217 1.57392,-2.82366 1.05253,-7.91273 -0.61939,-6.04554 -0.5523,-6.28938 2.35687,-8.56614 l 2.9944,-2.34347 -2.32033,-4.99381 C 589.68884,718.858 583.06034,714 573.49018,714 c -3.07423,0 -6.86355,0.65884 -8.42072,1.46408 -3.31097,1.71217 -8.06946,7.07223 -8.06946,9.08959 0,3.17934 -4.95059,4.84927 -14.52211,4.89862 l -9.2557,0.0477 -0.6024,5 c -0.33133,2.75 -0.60632,10.9625 -0.6111,18.25 L 532,766 h 2.35478 c 1.29513,0 8.15491,-0.47098 15.24396,-1.04663 z M 391.33357,724.84041 c 19.10222,-13.39926 22.07079,-17.84173 18.16643,-27.18617 -0.825,-1.9745 -1.5,-4.93894 -1.5,-6.58764 0,-1.98206 -1.01639,-4.03739 -3,-6.0666 -1.65,-1.68793 -3,-3.53806 -3,-4.1114 0,-1.17922 3.27118,-4.41107 10.82422,-10.69408 5.42776,-4.51509 6.59472,-7.77201 3.65802,-10.20926 -4.0007,-3.32029 -20.02215,2.29114 -32.53268,11.39439 -8.41366,6.12216 -9.99339,6.01901 -14.44715,-0.94334 -3.05267,-4.77208 -3.943,-5.51906 -6.25756,-5.25 -3.71605,0.43198 -5.20208,3.74617 -4.07945,9.09819 2.21681,10.56852 2.17552,16.12362 -0.15436,20.76804 -1.22709,2.4461 -3.32736,5.61878 -4.66726,7.0504 l -2.43618,2.60294 4.82043,6.89706 c 8.95837,12.81762 11.75997,16.70036 15.64641,21.68442 l 3.87444,4.96866 2.45913,-3.14218 c 1.35252,-1.7282 7.03402,-6.35124 12.62556,-10.27343 z m -284.25491,-5.25314 c 4.68875,-3.94533 7.42714,-3.40043 13.3814,2.66273 2.83564,2.8875 6.37939,6.825 7.875,8.75 2.55037,3.28258 2.80493,3.38742 4.09794,1.68766 0.75826,-0.99679 2.14029,-4.82179 3.07118,-8.5 4.20764,-16.62558 5.47756,-19.99451 8.49357,-22.53231 2.43259,-2.0469 3.5294,-2.36455 5.85821,-1.69666 4.14807,1.18965 7.01788,2.83621 12.52467,7.18607 2.68434,2.12038 5.23994,3.85524 5.6791,3.85524 0.90926,0 2.50523,-7.70889 3.38601,-16.35516 0.73207,-7.18653 1.66688,-9.03464 5.33934,-10.55582 3.51245,-1.4549 9.73009,0.39452 18.46492,5.49236 3.1625,1.8457 5.75,3.13372 5.75,2.86226 0,-1.53673 -7.97615,-15.99183 -12.22447,-22.1543 -17.09421,-24.79626 -50.19018,-43.45885 -83.88422,-47.30174 -7.373839,-0.841 -21.135968,-0.0763 -22.460306,1.24806 -0.343083,0.34309 0.810574,2.70856 2.563682,5.25662 4.712579,6.84949 8.929271,16.77024 11.686943,27.49624 4.007541,15.58738 4.167091,31.49574 0.732248,73.01148 l -0.537783,6.5 3.563886,-7.16273 c 1.96014,-3.93951 4.94754,-8.32701 6.63868,-9.75 z m 690.70847,14.33678 c 1.25793,-0.78323 2.60793,-2.54905 3,-3.92405 0.39208,-1.375 0.71287,-38.37502 0.71287,-82.22227 V 568.05547 L 799.22215,565.77773 796.9443,563.5 h -96.55879 -96.55879 l -2.41336,2.80576 L 599,569.11153 v 74.30208 74.30209 l 3.5,6.71481 c 1.925,3.69315 3.5,7.56738 3.5,8.6094 0,2.46933 0.47992,2.48012 106,2.38414 70.41013,-0.064 83.85854,-0.2992 85.78713,-1.5 z M 617.77444,721.1082 c -0.70094,-0.22445 -1.60505,-0.90311 -2.00913,-1.50814 -0.88469,-1.32467 -1.00196,-135.11457 -0.1213,-138.40253 0.43795,-1.63513 1.23104,-2.2148 2.73634,-2 L 620.5,579.5 l 0.5,67.99026 0.5,67.99027 78,0.10313 c 42.9,0.0567 79.18936,0.17361 80.64301,0.25974 2.87701,0.17046 4.15603,2.05472 2.84007,4.18398 -0.68557,1.10927 -15.1761,1.35859 -82.38305,1.41747 -44.85313,0.0393 -82.12465,-0.1122 -82.82559,-0.33665 z m 11.27984,-20.5428 c -0.95861,-1.15505 0.876,-5.57676 9.41495,-22.69149 8.2977,-16.63121 10.47697,-21.84238 10.01463,-23.9474 -0.67535,-3.07483 2.48262,-7.32343 6.24949,-8.4078 2.79798,-0.80546 7.26665,3.31731 7.26665,6.70417 0,1.27258 1.6875,4.37065 3.75,6.88461 2.0625,2.51395 6.82614,8.51316 10.58587,13.33158 6.63902,8.50849 6.87868,8.69962 8.32298,6.6376 0.81792,-1.16774 5.00009,-10.34941 9.29372,-20.40371 4.29362,-10.0543 8.73603,-20.1024 9.872,-22.3291 1.17773,-2.30854 1.82326,-4.97456 1.50198,-6.20314 -0.30989,-1.18503 0.002,-3.51867 0.69215,-5.18588 2.34977,-5.67284 7.54224,-6.54775 12.05822,-2.03176 1.6077,1.60769 2.92308,3.90804 2.92308,5.11189 0,1.80897 14.66959,22.02476 17.0497,23.49574 1.53667,0.94972 6.96765,-2.8254 9.10328,-6.32778 1.24186,-2.03661 6.44047,-10.11074 11.55247,-17.94251 C 763.81745,619.42866 768,612.79116 768,612.51042 768,612.22969 767.292,612 766.42668,612 c -0.95491,0 -1.44624,-0.68786 -1.25,-1.75 0.38137,-2.06417 9.05711,-6.48125 11.1515,-5.67756 1.52371,0.5847 2.67182,4.70304 2.67182,9.58394 0,3.44953 -2.69636,4.97936 -4.4791,2.54131 -1.01183,-1.38375 -2.9714,1.15735 -13.0947,16.98069 -7.9151,12.37179 -11.95651,19.63586 -12.05906,21.67509 -0.10298,2.04757 -1.19212,3.99446 -3.27648,5.85683 -4.56836,4.08183 -6.17248,3.73488 -10.21944,-2.2103 -3.38335,-4.97032 -18.83634,-24.86041 -19.7562,-25.42892 -0.42237,-0.26103 -1.71669,-0.2265 -2.87627,0.0767 -1.5227,0.39819 -3.2783,3.23197 -6.32025,10.20176 -2.31655,5.30773 -5.54121,12.57312 -7.1659,16.14531 C 693.86493,672.94003 689,684.77324 689,686.14897 689,688.45133 686.02097,692 684.08819,692 c -1.07681,0 -3.53844,-2.50777 -6.13501,-6.25 -2.38513,-3.4375 -7.72773,-10.75 -11.87245,-16.25 -4.14472,-5.5 -7.54596,-10.07276 -7.5583,-10.1617 -0.0123,-0.0889 -1.20724,0.066 -2.65533,0.3442 -2.30028,0.44197 -3.80188,2.92591 -11.88597,19.66169 -11.04025,22.85568 -12.20091,24.50577 -14.92685,21.22121 z M 386.19845,658.48722 c 17.672,-10.65363 30.18871,-12.23703 37.98047,-4.80461 l 2.67892,2.55537 7.32108,-2.19229 c 9.50791,-2.84714 27.94341,-10.9859 39.32108,-17.35917 25.83622,-14.47231 54.43398,-40.55512 85.88804,-78.33486 C 566.32462,550.02008 572,542.95155 572,542.64382 c 0,-0.30773 -2.1375,-1.77713 -4.75,-3.26534 C 552.91682,531.21363 552.74916,529.76956 565,520 c 4.95,-3.94743 9,-7.41668 9,-7.70946 0,-0.29278 -5.10165,-5.82384 -11.337,-12.29124 -6.23534,-6.4674 -13.19914,-14.6255 -15.4751,-18.1291 -2.27596,-3.50361 -4.76613,-7.27773 -5.53373,-8.38692 -1.06158,-1.53403 -3.85568,-2.46469 -11.67392,-3.88837 -26.26262,-4.78233 -48.43507,2.82538 -69.55433,23.86516 -19.66321,19.58922 -31.91158,43.19442 -38.77403,74.72577 l -2.32566,10.68585 2.44646,2.44645 c 7.04641,7.04641 1.41281,22.0443 -11.69162,31.12568 l -4.10815,2.84695 -7.30692,-3.61128 c -13.74475,-6.79302 -21.38218,-16.31769 -18.86789,-23.5302 0.9316,-2.67239 0.45568,-3.94391 -4.97892,-13.30207 -11.45827,-19.73066 -23.50164,-33.9016 -38.97487,-45.86009 -33.76239,-26.09329 -72.19072,-31.95825 -107.01057,-16.33203 -5.27053,2.36527 -5.93275,3.01087 -6.90382,6.73056 -4.57214,17.51355 -10.71675,32.43045 -19.42895,47.16652 C 200.02544,570.73937 198,574.52289 198,574.96 c 0,0.71535 13.74258,5.92778 20,7.58582 3.99714,1.05913 7,3.35164 7,5.34409 0,1.0141 -2.47249,4.94123 -5.49443,8.72695 -3.02193,3.78573 -5.49693,7.14584 -5.5,7.46692 -0.0194,2.036 49.24213,26.99157 74.49443,37.73837 14.1209,6.00953 38.8067,13.28601 53.2133,15.68536 10.11847,1.68518 10.24492,1.68143 13.61804,-0.40327 6.02832,-3.72571 14.53691,-1.9066 18.94037,4.0494 1.15742,1.5655 2.25693,2.84636 2.44334,2.84636 0.18641,0 4.45394,-2.48075 9.4834,-5.51278 z m 1.24262,-20.58257 c -1.19004,-1.92553 1.51826,-5.24847 9.29516,-11.40465 4.16878,-3.3 8.15822,-6.34569 8.86542,-6.7682 1.5909,-0.95047 21.01443,8.82534 21.84726,10.99566 1.83103,4.77159 -5.20552,5.11303 -15.12379,0.73388 -4.97341,-2.19589 -5.23837,-2.21468 -6.80583,-0.48266 -2.24741,2.48336 -12.8453,8.02132 -15.35025,8.02132 -1.12805,0 -2.35564,-0.49291 -2.72797,-1.09535 z M 318.98487,581.75 c -9.5152,-6.46629 -10.56444,-24.87731 -1.8363,-32.22156 8.84389,-7.44164 20.80751,2.02895 20.80751,16.47156 0,7.05303 -2.80845,13.32988 -7.14794,15.9756 -4.29875,2.62088 -7.73102,2.55539 -11.82327,-0.2256 z m 152.22178,-17.41867 c -1.89189,-0.93242 -4.42857,-3.56025 -5.96109,-6.17528 -2.19124,-3.73907 -2.67469,-5.81175 -2.70665,-11.6041 -0.049,-8.88215 2.41902,-14.22322 7.80987,-16.90139 4.41617,-2.19394 7.2564,-1.69511 11.71645,2.05778 9.29573,7.82184 9.14664,26.53396 -0.25709,32.26726 -3.98,2.42654 -6.24554,2.50256 -10.60149,0.35573 z m -60.77226,35.31404 c 1.96257,-2.39505 4.06499,-5.77945 4.67206,-7.52089 1.77131,-5.08118 0.12556,-6.13474 -9.47889,-6.06804 -13.54455,0.0941 -19.00868,3.24396 -15.01822,8.65753 2.32772,3.15782 11.91627,9.28603 14.52947,9.28603 0.95001,0 3.33302,-1.95958 5.29558,-4.35463 z M 394.66131,577.5 c 3.16739,-0.825 7.88244,-1.5 10.47789,-1.5 h 4.719 l 1.14016,-5.75 c 6.64913,-33.53275 20.56595,-61.501 40.75377,-81.90179 22.28775,-22.52286 46.97225,-32.57674 72.21262,-29.41186 4.60972,0.57801 8.49837,0.93386 8.64146,0.79078 0.14308,-0.14309 -1.39728,-3.60033 -3.42303,-7.68277 L 525.5,444.62175 526,434.06088 c 0.93896,-19.83245 0.47626,-57.40555 -0.81351,-66.06088 -4.61833,-30.99237 -13.04957,-56.63057 -22.48417,-68.37111 l -2.3072,-2.87112 -3.94756,2.01677 c -6.42198,3.28092 -15.19044,10.5415 -27.78649,23.00815 -16.14859,15.98269 -18.19923,18.57619 -42.76486,54.08592 l -3.0222,4.3686 -5.187,-0.52557 C 414.83415,379.42257 407.325,378.61607 401,377.9194 c -24.79431,-2.73095 -58.16969,3.9075 -80.67431,16.04634 -4.11359,2.21884 -8.26259,4.03426 -9.22,4.03426 -0.95741,0 -5.76036,-3.22794 -10.67322,-7.17319 C 284.9893,378.42522 262.49436,364.17807 244.5,355.40204 c -18.34639,-8.94773 -31.70773,-13.59431 -33.61277,-11.68927 -1.75056,1.75056 -5.72494,18.74406 -6.96129,29.7648 -2.89567,25.81188 3.02732,62.51336 14.64494,90.74648 9.94414,24.16624 10.76932,27.61617 8.49893,35.53255 -0.51161,1.78387 -0.84911,3.24317 -0.75,3.2429 0.0991,-2.8e-4 2.60393,-0.92172 5.56628,-2.04764 26.35556,-10.01715 55.68005,-8.75766 82.69087,3.55157 15.26814,6.95791 34.41906,21.14743 47.00163,34.825 6.72893,7.31452 18.98284,24.96205 23.9013,34.42157 1.50134,2.8875 2.8856,5.25 3.07612,5.25 0.19053,0 2.93791,-0.675 6.1053,-1.5 z M 237.73833,464.26335 C 233.95215,460.07967 226.63911,439.25321 223.6002,424 c -3.29446,-16.53585 -4.43874,-37.30539 -2.59186,-47.04399 1.85962,-9.8057 5.44217,-11.0115 17.32405,-5.83083 15.28346,6.6638 33.31123,18.71205 45.2797,30.26113 8.88473,8.57341 9.24161,10.33489 3.13791,15.48795 -9.70842,8.19635 -21.88439,21.47592 -31.75021,34.62798 -11.13242,14.84057 -13.67709,16.7218 -17.26146,12.76111 z m 13.70773,-23.62012 c 3.32445,-4.46563 11.11955,-13.15223 17.32245,-19.30357 l 11.278,-11.18425 -5.27326,-4.53924 c -11.64525,-10.0243 -21.82183,-16.99762 -32.55404,-22.30708 -6.20443,-3.06947 -11.56486,-5.29677 -11.91206,-4.94957 -1.46235,1.46235 -0.63679,31.19378 1.08257,38.9871 2.16387,9.80817 5.79489,22.39904 8.69457,30.14911 2.2005,5.88138 2.23285,5.91228 3.76844,3.59955 0.85188,-1.28301 4.26889,-5.98643 7.59333,-10.45205 z m 250.66385,-22.35221 c -0.76455,-0.30309 -6.83955,-4.67303 -13.5,-9.71096 C 474.17506,397.66161 466.8375,393.11048 456.90306,388.91388 448.70084,385.44901 446,383.50178 446,381.05305 c 0,-2.48374 9.45301,-18.44377 16.29134,-27.50556 7.42597,-9.84048 22.00523,-24.65193 26.56636,-26.98946 4.72557,-2.42179 7.58569,-1.36395 10.70545,3.95952 3.24247,5.53286 5.64206,13.48703 8.59249,28.48245 1.901,9.6618 2.26921,14.85672 2.30352,32.5 0.0356,18.27878 -0.18926,21.42114 -1.73484,24.25 -1.69151,3.09595 -3.48076,3.78332 -6.61441,2.54102 z M 501.86436,392.5 c 0.12062,-9.55587 -1.32227,-24.16932 -3.40643,-34.5 -2.32365,-11.51771 -5.62051,-22 -6.91938,-22 -2.48462,0 -19.50468,18.83236 -25.75734,28.5 -10.03637,15.51786 -9.82586,13.82264 -2.16184,17.40906 8.81062,4.12299 21.30584,11.83053 29.88063,18.43153 l 7,5.38871 0.63169,-2.61465 c 0.34742,-1.43806 0.67712,-6.21465 0.73267,-10.61465 z m 102.35876,142.38141 c -2.79028,-1.38116 -5.13652,-3.58387 -6.75,-6.33707 L 595,524.32428 l 0.006,-87.91214 c 0.004,-57.3879 0.36419,-89.20341 1.03843,-91.63109 1.32392,-4.76697 5.46501,-9.67796 9.62718,-11.41702 C 608.3577,332.24153 627.43384,332 713.40278,332 c 71.56796,0 105.35356,0.3359 107.28212,1.06661 3.56926,1.35236 7.05789,4.58812 9.09244,8.43339 1.41447,2.67333 1.59469,12.85464 1.65499,93.5 l 0.0677,90.5 -2.35077,3.78109 c -1.29293,2.07959 -4.0875,4.66709 -6.21016,5.75 -3.76678,1.92166 -6.38614,1.96889 -109.14923,1.96812 -105.21549,-7.9e-4 -105.29286,-0.002 -109.56672,-2.1178 z M 821.58674,526.69424 824,523.88847 V 434.5 345.11153 L 821.58607,342.30576 819.17214,339.5 H 713.49948 607.82682 l -2.41341,2.80576 L 603,345.11153 v 89.52116 89.52116 l 2.93667,2.93667 2.93667,2.93667 105.15007,-0.2636 L 819.17347,529.5 Z M 622.25,513.33772 C 621.2651,512.9403 621,496.40805 621,435.38528 c 0,-69.39654 0.16293,-77.51057 1.56722,-78.04945 0.86197,-0.33077 2.05578,-0.11283 2.65291,0.4843 0.74366,0.74366 1.14522,15.51339 1.27465,46.88278 0.10393,25.1884 0.26012,58.73459 0.34709,74.54709 L 627,508 h 4.5 4.5 v -17.80887 c 0,-12.76707 0.35759,-18.2979 1.26308,-19.53624 1.088,-1.48792 2.78601,-1.68768 12.25,-1.44113 L 660.5,469.5 l 0.27159,19.25 0.2716,19.25 h 3.9784 H 669 v -28.80887 c 0,-21.62782 0.31484,-29.23944 1.26308,-30.53624 1.088,-1.48792 2.78601,-1.68768 12.25,-1.44113 L 693.5,447.5 l 0.26466,30.25 0.26467,30.25 h 4.6216 4.62161 l -0.4692,-35.8355 c -0.25805,-19.70952 -0.0942,-36.84933 0.36423,-38.08846 0.80668,-2.18065 1.1877,-2.2421 11.87107,-1.9145 8.45223,0.25918 11.25936,0.68981 11.98419,1.83846 0.54964,0.87102 0.95297,16.70028 0.96186,37.75 L 728,508 h 3.98595 3.98596 l 0.26404,-31.75 0.26405,-31.75 10.72205,-0.89564 c 8.26694,-0.69055 11.07193,-0.60527 12.25,0.37245 1.3113,1.08828 1.52795,5.72529 1.52795,32.70313 V 508.115 l 4.25,-0.3075 4.25,-0.3075 v -47.2846 c 0,-40.94184 0.20121,-47.41205 1.5,-48.23469 2.24097,-1.41941 21.34505,-1.23566 22.8,0.21929 0.89951,0.89951 1.2,13.04444 1.2,48.5 V 508 h 5.53138 c 5.90416,0 7.86072,1.61769 5.45805,4.51273 -1.07675,1.29741 -12.8033,1.47719 -91.86187,1.40832 -49.84516,-0.0434 -91.19006,-0.30592 -91.87756,-0.58333 z M 656,491.5 V 475 h -7 -7 v 16.5 16.5 h 7 7 z M 688.76582,480.25 688.5,452.5 h -6.5 -6.5 l -0.26582,27.75 -0.26582,27.75 H 682 689.03164 Z M 722,473 v -35 h -7 -7 v 35 35 h 7 7 z m 33.50613,6.59915 c 0.40395,-15.62047 0.42877,-28.89547 0.0552,-29.5 C 755.18132,449.48436 752.04362,449 748.44098,449 H 742 v 29.5 29.5 h 6.38584 6.38583 z M 789,462.5 V 417 h -6.34005 -6.34006 l -0.65994,24.16193 c -0.85032,31.13174 -0.84685,65.31784 0.007,66.1714 0.36666,0.36667 3.51666,0.66667 7,0.66667 H 789 Z M 639.66667,452.33333 C 639.3,451.96667 639,451.11362 639,450.43768 c 0,-0.93152 60.25325,-45.0019 66.73593,-48.81193 1.22531,-0.72015 13.38628,5.59006 28.2268,14.64661 l 7.46273,4.55419 16.53727,-15.81069 C 777.85572,385.99688 780.01131,383.73861 778,384.02407 c -3.43843,0.48802 -5,-0.11027 -5,-1.91566 0,-2.12425 1.55395,-2.66071 10.59996,-3.65937 7.3293,-0.80914 7.60064,-0.43728 6.02407,8.25558 -1.58232,8.72451 -4.85045,11.1873 -5.78935,4.36273 -0.29797,-2.16581 -2.41876,-0.48419 -19.33468,15.33087 -10.45,9.76994 -19.98552,18.4362 -21.19004,19.25837 -2.04543,1.39615 -2.87085,1.11962 -12.5,-4.1877 -5.67048,-3.12541 -10.98496,-6.24427 -11.80996,-6.9308 -0.825,-0.68653 -3.82402,-2.53065 -6.66448,-4.09805 l -5.16448,-2.8498 -6.33552,4.40432 C 697.35098,414.41694 685.725,422.68388 675,430.36554 644.92988,451.90291 643.31959,453 641.77727,453 c -0.79417,0 -1.74394,-0.3 -2.1106,-0.66667 z"
       id="path1" />
  </g>
</svg>
