<?xml version="1.0" encoding="UTF-8" standalone="no"?>
<!-- Created with Inkscape (http://www.inkscape.org/) -->

<svg
   version="1.1"
   id="svg1"
   width="896"
   height="1200"
   viewBox="0 0 896 1200"
   xmlns="http://www.w3.org/2000/svg"
   xmlns:svg="http://www.w3.org/2000/svg">
  <defs
     id="defs1" />
  <g
     id="g1">
    <path
       style="fill:#ffffff;fill-opacity:1"
       d="m 275.20883,925.85659 c -22.08561,-4.15303 -38.8264,-12.59771 -49.42119,-24.92991 l -3.68634,-4.29085 -6.92067,3.33884 c -12.58086,6.06957 -20.64819,7.66769 -38.70665,7.66769 -13.31602,0 -17.32663,-0.36374 -23.90843,-2.16837 -19.34999,-5.30548 -35.79425,-14.64553 -49.5951,-28.16916 C 91.759224,866.31881 85.834054,858.2777 78.860457,844.58491 69.085809,825.3922 64.574538,805.47025 64.644088,781.80483 c 0.0535,-18.20511 1.405329,-26.44912 9.838614,-60 6.365373,-25.32393 8.489489,-37.72163 8.480905,-49.5 -0.01207,-16.56407 -5.518026,-33.95404 -14.457088,-45.66118 -7.355517,-9.63322 -4.40008,-11.8074 14.967459,-11.01087 37.829852,1.55582 69.995402,19.56093 90.798112,50.82548 12.99236,19.5263 20.1803,41.62872 22.22704,68.34657 0.59762,7.80121 -0.65759,22.60331 -3.98558,47 -3.67955,26.97394 -0.97279,48.07604 8.11242,63.2449 l 2.84801,4.7551 0.64185,-15 c 1.30163,-30.41906 8.37249,-53.19384 30.19996,-97.27209 13.45531,-27.17155 19.56084,-42.1054 22.98815,-56.22791 4.27562,-17.61804 4.24721,-16.52358 0.46845,-18.0472 -24.09121,-9.71376 -48.52372,-22.39199 -67.79841,-35.18117 -11.70213,-7.76462 -12.12032,-9.02312 -5.60274,-16.86106 l 4.49912,-5.41057 -3.57382,-0.76047 c -4.61348,-0.98171 -13.46428,-5.37628 -15.07256,-7.48378 -2.12167,-2.78025 -1.44631,-5.08076 4.33625,-14.7708 7.44746,-12.47998 12.88643,-25.35494 16.87826,-39.95368 5.41122,-19.78967 5.43264,-18.69459 -0.56811,-29.05226 -16.58005,-28.6182 -23.47548,-51.90778 -24.56789,-82.97901 -1.05459,-29.99573 3.74752,-52.4288 11.67149,-54.52338 6.25679,-1.6539 25.29651,5.23601 41.47617,15.00898 11.33954,6.84941 22.74579,15.31918 35.33241,26.23627 l 10.30857,8.94122 10.56498,-4.62689 c 13.25767,-5.80614 27.69768,-9.34145 41.60574,-10.18623 l 10.78786,-0.65525 2.13695,-5.09736 c 3.25805,-7.7716 13.99402,-28.36063 18.30122,-35.09736 12.6495,-19.78466 32.14371,-38.52035 40.05182,-38.49341 5.5629,0.0189 13.76697,9.98844 21.98603,26.71714 14.5575,29.62968 20.66973,63.65895 17.56226,97.77627 l -0.63758,7 8.95259,13.41553 c 11.11882,16.66166 20.66143,28.30983 27.68262,33.79077 2.9636,2.31346 7.75086,6.03643 10.63836,8.27325 2.8875,2.23683 5.25,4.86839 5.25,5.84792 0,2.0431 -4.84364,10.00325 -7.32921,12.04497 -2.49429,2.0489 -2.09057,2.68638 2.57921,4.07255 5.34686,1.58715 6.75,2.73089 6.75,5.50211 0,1.21122 -4.46876,11.16862 -9.93058,22.12756 -21.00851,42.1528 -43.0463,69.60618 -70.94681,88.38133 -6.69141,4.50287 -22.65657,12.42092 -27.40316,13.59083 -1.95059,0.48077 -2.63685,1.17303 -2.29914,2.31925 0.26478,0.89866 1.43513,5.45893 2.6008,10.13393 1.16566,4.675 3.20566,10.368 4.53333,12.6511 4.78638,8.2308 17.75188,17.77562 30.4324,22.40344 l 7.70202,2.81089 14.40557,-7.92603 c 11.0008,-6.05271 15.32348,-7.92761 18.28926,-7.93272 2.55159,-0.004 9.24007,2.25518 19.5,6.58769 8.58897,3.6269 35.86631,15.15888 60.61631,25.62661 24.75,10.46774 70.425,29.7668 101.5,42.88681 31.075,13.12001 58.525,24.87553 61,26.12339 7.04214,3.55053 8.1391,6.64772 7.78971,21.99389 -0.25449,11.17816 -0.53284,12.9637 -2.28971,14.68804 -1.81755,1.7839 -53.51333,30.17195 -100.77456,55.339 -17.75013,9.45211 -19.03241,9.97013 -23.5,9.49366 -3.05537,-0.32586 -11.61713,-3.68864 -24.22544,-9.51497 -36.3883,-16.81513 -96.49407,-44.45531 -97.75,-44.95121 -0.91726,-0.36219 -1.25,1.12887 -1.25,5.60146 0,13.51855 -14.26793,47.0746 -24.85723,58.46053 -6.81937,7.33239 -16.34216,8.78344 -30.64277,4.66923 -11.78618,-3.39082 -25.58899,-3.10864 -51,1.04262 -17.036,2.78308 -23.0381,3.31155 -40.5,3.56589 -14.27481,0.20792 -22.70619,-0.11627 -27.76515,-1.06756 z m 64.26515,-10.62774 c 25.99999,-4.29229 45.71869,-4.69398 57.56379,-1.17261 17.01707,5.0589 21.96805,2.14231 32.67971,-19.25141 6.46348,-12.90909 11.34159,-27.031 11.88063,-34.39388 0.5634,-7.69565 -0.74882,-10.99189 -4.9278,-12.37837 -9.5707,-3.17534 -22.59696,7.72027 -30.62681,25.61731 -4.83463,10.77547 -7.79297,10.32216 -12.58673,-1.92866 -5.77347,-14.75459 -10.4305,-22.44746 -18.5597,-30.65854 -8.22678,-8.30963 -15.20088,-12.33269 -26.38319,-15.21931 -14.59773,-3.76829 -33.66808,0.28603 -46.48418,9.88245 -3.88973,2.91255 -6.56608,3.29736 -7.42189,1.06715 -1.07909,-2.81204 1.52152,-6.16611 8.17029,-10.53742 10.05224,-6.60897 17.75985,-9.0639 30.44588,-9.69726 l 10.75,-0.5367 0.0136,-7.10838 c 0.008,-3.90962 0.21918,-8.00839 0.47037,-9.10839 0.36818,-1.6123 -1.22893,-3.06617 -8.23896,-7.5 -11.15309,-7.05434 -27.24501,-22.56691 -27.24501,-26.26416 0,-1.75921 0.67568,-2.81552 2.08764,-3.26366 1.67779,-0.53251 3.78828,0.98507 10.75,7.72997 4.7643,4.61591 10.92509,10.02384 13.69065,12.01763 7.1107,5.12634 21.55734,12.15918 31.07401,15.1273 9.09028,2.83513 26.34641,5.65292 34.61841,5.65292 h 5.46404 l 2.60805,-8.75 c 1.97941,-6.64093 2.68428,-11.46751 2.92433,-20.02427 l 0.31629,-11.27428 -4.01671,-1.00931 c -25.98159,-6.52861 -49.4196,-24.2738 -63.9828,-48.44214 -4.17786,-6.93335 -4.56094,-12 -0.9073,-12 1.57459,0 3.77265,2.46601 8.46777,9.5 6.48739,9.71908 22.19825,27.04071 23.41895,25.82 0.98373,-0.98373 -2.0246,-18.98285 -6.07044,-36.32 -1.92524,-8.25 -4.02501,-17.63102 -4.66615,-20.84671 l -1.16572,-5.84671 -4.05551,0.67834 c -12.26812,2.05198 -17.27753,2.4767 -29.42717,2.49497 -7.35442,0.0111 -18.15442,-0.67558 -24,-1.52587 -9.31688,-1.35521 -30.79936,-6.18234 -35.17699,-7.9043 -1.26668,-0.49825 -2.19473,1.99072 -5.09723,13.67056 -4.49582,18.09147 -8.21764,27.41926 -23.05432,57.77972 -23.44996,47.98589 -30.23014,70.346 -30.17105,99.5 0.0331,16.32011 2.27051,27.42252 7.87429,39.07325 6.70122,13.93241 15.01415,22.91453 27.56892,29.78817 22.0463,12.07019 50.0785,14.38892 91.42804,7.5626 z m 232.05934,-20.2954 c -0.62763,-5.02335 -0.82148,-5.29716 -4.85653,-6.85949 -2.31155,-0.895 -14.10281,-6.19696 -26.20281,-11.78213 -12.1,-5.58517 -44.05,-20.19399 -71,-32.46404 -26.95,-12.27006 -53.5,-24.44936 -59,-27.06512 -5.86101,-2.78745 -12.17297,-5.02647 -15.25,-5.40958 l -5.25,-0.65365 0.0261,4.0527 0.0262,4.05269 20.46205,9.38044 c 11.25414,5.15924 23.03325,10.22868 26.17581,11.26542 3.14256,1.03674 6.63537,2.71366 7.76179,3.7265 1.12642,1.01284 15.09804,7.82008 31.04804,15.12721 15.95,7.30712 40.25,18.45823 54,24.78023 36.66753,16.85908 41.96237,19.11509 42.35653,18.04708 0.19609,-0.53133 0.0623,-3.32055 -0.29719,-6.19826 z m 23.80443,-2.2757 c 41.18411,-22.06973 95.30655,-51.75031 96.88623,-53.13211 1.43262,-1.25316 1.75,-3.22561 1.75,-10.8758 0,-5.13975 -0.17459,-9.34501 -0.38798,-9.34501 -0.21339,0 -23.9952,14.35767 -52.84846,31.90593 -28.85326,17.54826 -55.00367,33.34121 -58.11202,35.09545 -5.50523,3.10696 -5.65154,3.30145 -5.65154,7.51229 0,4.27422 0.73831,7.48633 1.72076,7.48633 0.27873,0 7.76808,-3.89119 16.64301,-8.64708 z m -399.86377,4.94541 c 6.49654,-1.40498 21.5,-6.93195 21.5,-7.92016 0,-0.23936 -1.32197,-3.054 -2.9377,-6.25476 -1.61574,-3.20076 -3.9035,-8.80902 -5.08392,-12.46281 -1.76605,-5.46652 -3.24423,-7.75185 -8.34516,-12.90192 -16.79762,-16.95946 -21.53198,-42.61285 -15.73458,-85.25868 2.78454,-20.4831 3.58615,-36.31234 2.24501,-44.33189 -0.84337,-5.04311 -1.80933,-7.18027 -4.74583,-10.5 -4.36758,-4.93759 -12.43169,-11.64244 -14.02076,-11.65748 -0.628,-0.006 -1.851,3.96883 -2.77476,9.01803 -2.14229,11.70952 -5.14029,19.62251 -8.19196,21.62204 -2.04102,1.33733 -2.89978,1.38921 -5.45765,0.3297 -3.10783,-1.2873 -12.82311,-11.29809 -15.7513,-16.2304 -0.89793,-1.5125 -1.9074,-2.75 -2.24325,-2.75 -0.33586,0 -2.54334,4.6125 -4.90551,10.25 -2.36217,5.6375 -5.83415,13.05673 -7.71551,16.48717 -5.01995,9.15332 -8.09333,10.31344 -13.27986,5.01283 -3.18178,-3.25177 -11.057262,-17.7572 -11.057262,-20.3658 0,-3.10884 -2.34956,-0.97312 -6.796957,6.17837 -2.586674,4.15942 -7.06911,10.92168 -9.960971,15.02726 -6.14211,8.71996 -7.189717,13.43839 -7.222263,32.52918 -0.06824,40.0241 19.747835,79.38896 49.998723,99.32306 23.14328,15.25048 47.53822,20.25062 72.48147,14.85626 z m 393.19806,-21.62752 c 15.67131,-9.45733 70.31841,-42.94467 89.69617,-54.96517 12.73104,-7.89737 12.86173,-8.01564 10.32548,-9.34451 -2.55244,-1.33736 -21.76855,-9.5534 -79.21971,-33.87116 -16.5,-6.98408 -44.625,-18.90634 -62.5,-26.49392 -71.88171,-30.51236 -94.86056,-39.99605 -96.90984,-39.99605 -2.13989,0 -10.60236,3.92603 -19.02429,8.82602 l -4.43414,2.57984 2.93414,1.25197 c 4.40102,1.87787 5.92531,1.63676 11.55605,-1.82787 4.66948,-2.87316 5.49034,-3.06986 8.76503,-2.10036 1.98718,0.58833 28.81305,11.92664 59.61305,25.19625 90.17443,38.84999 102.01251,43.92162 121.5,52.05261 26.73043,11.15304 34,14.66073 34,16.40558 0,2.13818 -2.67308,3.97393 -38,26.0967 -17.325,10.84943 -36.33609,22.85753 -42.24686,26.68466 -5.91077,3.82713 -11.55529,7.01932 -12.54337,7.09375 -0.98809,0.0744 -6.727,-2.1749 -12.75315,-4.99851 -18.8823,-8.84749 -61.39022,-28.25494 -74.95662,-34.22225 -7.15,-3.145 -22.09036,-9.87892 -33.20081,-14.96426 l -20.2008,-9.24608 -8.7992,0.83597 -8.79919,0.83598 36,16.43146 c 19.8,9.0373 55.35,25.32608 79,36.19727 23.65,10.8712 43.76413,19.78954 44.69806,19.81854 0.93393,0.029 7.90893,-3.69541 15.5,-8.27646 z m -5.32014,-14.76551 2.87792,-1.7391 -7.37792,-3.40565 -7.37792,-3.40564 -6.22919,4.07254 c -3.42606,2.2399 -6.23856,4.40856 -6.25,4.81923 -0.0114,0.41067 2.79169,2.04225 6.22919,3.62573 l 6.25,2.87904 4.5,-2.55353 c 2.475,-1.40444 5.79506,-3.33612 7.37792,-4.29262 z m -178.91275,-0.83657 c 3.09487,-6.10743 11.59163,-15.4354 15.55556,-17.07732 1.68006,-0.6959 2.92274,-1.66101 2.76151,-2.14468 -0.24975,-0.74926 -27.89459,-14.2589 -33.03224,-16.1424 -1.24457,-0.45627 -1.75,-0.13593 -1.75,1.10913 0,0.96287 -0.63794,4.21001 -1.41764,7.21585 l -1.41765,5.46516 3.69393,5.53171 c 2.03167,3.04244 5.44205,9.21297 7.57862,13.71229 2.13658,4.49933 4.27081,7.94196 4.74273,7.65029 0.47192,-0.29166 1.95025,-2.68568 3.28518,-5.32003 z m 155.21511,-5.18619 c 3.47585,-2.2646 6.31972,-4.28202 6.31972,-4.48315 0,-0.51044 -9.01873,-4.99132 -11.74655,-5.83617 -1.70332,-0.52756 -3.69819,0.32247 -8.25,3.51538 -3.3019,2.31615 -6.00345,4.52651 -6.00345,4.91191 0,0.68802 10.60666,5.73745 12.43028,5.9176 0.51166,0.0505 3.77416,-1.76097 7.25,-4.02557 z m 38.50806,-3.43576 c 3.87121,-2.50427 6.87501,-4.70352 6.67511,-4.88723 -0.1999,-0.18371 -7.96161,-3.73533 -17.24825,-7.8925 l -16.88481,-7.55849 -5.80318,3.94087 c -3.19175,2.16747 -6.05051,4.34106 -6.35281,4.83019 -0.3023,0.48913 6.08229,3.91717 14.18798,7.61787 8.10569,3.7007 15.16512,7.12768 15.68762,7.61552 1.52885,1.42744 2.33138,1.12531 9.73834,-3.66623 z m -57.4047,-5.63158 6.42307,-4.18479 -6.6823,-3.36879 -6.6823,-3.3688 -5.17105,3.23375 c -9.74624,6.09485 -9.71214,5.99267 -3.02869,9.07419 3.2217,1.48542 6.50126,2.72292 7.28791,2.75 0.78666,0.0271 4.32067,-1.83392 7.85336,-4.13556 z m 79.77082,-8.42614 c 20.11252,-12.61526 21.59497,-13.67828 20.25345,-14.5232 -0.71935,-0.45307 -8.79034,-4.02439 -17.93554,-7.93628 l -16.62763,-7.11251 -5.62237,3.73304 c -3.0923,2.05318 -5.62237,3.88932 -5.62237,4.08031 0,0.19099 3.6,2.1573 8,4.36958 4.4,2.21228 8,4.40569 8,4.87425 0,0.46856 -3.7125,3.2319 -8.25,6.14076 l -8.25,5.28883 7,3.28019 c 3.85,1.8041 7.69951,3.31073 8.55446,3.34808 0.85496,0.0373 5.57996,-2.45703 10.5,-5.54305 z m -97.30446,-1.19106 c 2.0625,-1.35507 3.75,-2.77063 3.75,-3.14567 0,-0.84667 -2.9557,-2.2665 -25.5,-12.2494 -9.9,-4.38385 -23.31783,-10.49511 -29.81739,-13.58058 -11.23192,-5.33202 -11.97506,-5.54406 -15,-4.28003 -1.75044,0.73146 -6.01482,2.3036 -9.47642,3.49363 l -6.29381,2.16371 36.78508,16.6571 c 41.18259,18.64839 35.7924,17.35373 45.55254,10.94124 z m 35.43028,-2.31546 c 3.47585,-2.2646 6.31473,-4.4021 6.30863,-4.75 -0.006,-0.3479 -2.92855,-1.87862 -6.49433,-3.4016 l -6.48324,-2.76906 -6.50567,4.1087 c -3.57812,2.25979 -6.49192,4.40586 -6.47512,4.76906 0.0315,0.68006 10.73857,5.92723 12.39973,6.07667 0.51166,0.046 3.77416,-1.76917 7.25,-4.03377 z m 36.05211,-4.00078 c 3.72218,-2.26504 6.95113,-4.28606 7.17543,-4.49116 0.2243,-0.2051 -2.57513,-1.72545 -6.22096,-3.37855 l -6.62879,-3.00563 -6.43392,4.66608 -6.43392,4.66608 5.65488,2.75404 c 3.11019,1.51472 5.75946,2.78854 5.88728,2.83071 0.12781,0.0422 3.27781,-1.77654 7,-4.04157 z m -213.57667,-14.21865 0.34428,-5.83689 -9,-2.29623 c -4.95,-1.26293 -11.76206,-3.42181 -15.13792,-4.79751 l -6.13791,-2.50128 -0.60108,3.6344 c -0.33059,1.99892 -0.60603,5.7116 -0.61208,8.25041 l -0.011,4.61601 6.10078,2.22445 c 6.0677,2.2124 15.13369,7.20481 19.89126,10.95363 l 2.49204,1.96364 1.16367,-5.18687 c 0.64003,-2.85278 1.31861,-7.81347 1.50797,-11.02376 z m 159.11464,9.15329 6.16063,-4.1836 -5.9655,-2.73981 c -3.28102,-1.50689 -6.6045,-2.77427 -7.38551,-2.8164 -1.58247,-0.0854 -13.05748,7.03187 -13.07123,8.10727 -0.012,0.93488 10.0572,5.6294 12.29612,5.73279 0.99268,0.0458 4.57715,-1.79927 7.96549,-4.10025 z m 36.40992,-2.93386 c 3.47585,-2.2646 6.31972,-4.44709 6.31972,-4.84998 0,-0.40289 -2.92706,-1.97654 -6.50459,-3.49701 l -6.50459,-2.76449 -6.5252,4.25134 c -3.58887,2.33824 -6.3226,4.45395 -6.07497,4.70159 0.46987,0.46986 11.78828,6.06546 12.53963,6.19934 0.23666,0.0422 3.27416,-1.77619 6.75,-4.04079 z m -55.23651,-5.84061 5.94376,-3.9517 -6.87254,-3.0835 c -3.7799,-1.69593 -7.42266,-2.8724 -8.09502,-2.61439 -0.67237,0.25801 -3.5681,2.15427 -6.43497,4.2139 l -5.21248,3.7448 5.36374,2.7773 c 2.95006,1.52752 6.26374,2.7971 7.36374,2.8213 1.1,0.0242 4.67469,-1.73427 7.94377,-3.90771 z m 131.20239,1.0699 c 5.27733,-3.28469 5.5311,-2.93269 -5.42805,-7.52925 l -6.28188,-2.63479 -4.65641,3.2037 -4.6564,3.20369 6.93829,3.23883 c 3.81606,1.78136 7.50212,3.27644 8.19124,3.32241 0.68912,0.046 3.34107,-1.2161 5.89321,-2.80459 z m -94.88927,-4.2792 c 7.08511,-4.61613 7.19341,-4.19568 -2.14437,-8.32529 l -5.29651,-2.34237 -6.15801,4.04685 c -3.3869,2.22576 -6.158,4.39101 -6.158,4.81166 0,0.60567 11.17568,5.72908 12.93028,5.92779 0.23666,0.0268 3.30863,-1.82659 6.82661,-4.11864 z m 36.28517,-10.57784 -7.16151,-3.24819 -6.13958,4.16931 -6.13958,4.1693 6.93572,3.137 6.93572,3.13699 6.36537,-4.05811 6.36536,-4.05811 z m -92.98487,5.99521 c 3.20737,-2.0625 5.8566,-4.10632 5.88719,-4.54182 0.0306,-0.43551 -2.89913,-2.11753 -6.51049,-3.73784 l -6.5661,-2.94601 -5.9339,4.18469 c -3.26364,2.30158 -5.93389,4.4447 -5.93389,4.76248 0,0.58402 10.76742,5.74916 12.36281,5.93045 0.47454,0.0539 3.48702,-1.58945 6.69438,-3.65195 z m 129.58616,0 c 2.39419,-1.5125 4.35388,-3.03965 4.35486,-3.39366 0.002,-0.7552 -12.43347,-5.85634 -14.2766,-5.85634 -0.69154,0 -3.03394,1.20723 -5.20533,2.68273 l -3.94798,2.68272 6.94599,3.31728 c 3.8203,1.8245 7.13274,3.31727 7.36099,3.31727 0.22825,0 2.37389,-1.2375 4.76807,-2.75 z m -92.48208,-4 c 3.20168,-2.0625 5.82517,-3.98736 5.82998,-4.27748 0.005,-0.29011 -2.91419,-1.80084 -6.48667,-3.35718 l -6.49541,-2.82971 -4.92772,3.16211 c -8.02881,5.15207 -8.15098,5.68292 -1.95545,8.49653 2.9557,1.34228 6.01301,2.46644 6.79402,2.49812 0.78101,0.0317 4.03958,-1.62989 7.24125,-3.69239 z m 37,-3 c 3.20168,-2.0625 5.82172,-3.975 5.8223,-4.25 5.9e-4,-0.275 -3.01148,-1.74808 -6.69348,-3.27351 l -6.69455,-2.77352 -5.5143,3.42312 c -3.03287,1.88272 -5.63598,3.8058 -5.78469,4.27351 -0.21093,0.66341 10.7547,6.14745 12.62347,6.31316 0.23101,0.0205 3.03958,-1.65026 6.24125,-3.71276 z m -139.66127,-0.84334 c 11.34662,-1.97673 17.18961,-4.31377 22.26815,-8.90666 3.69132,-3.33832 4.50447,-4.74439 4.91571,-8.5 1.26389,-11.54246 -12.66931,-18.91158 -35.88686,-18.98019 l -6.70299,-0.0198 -1.04143,3.75 c -0.57278,2.0625 -1.05943,7.575 -1.08142,12.25 -0.0328,6.96385 -0.5648,9.83044 -2.94387,15.8617 l -2.90387,7.36171 7.68829,-0.71152 c 4.22856,-0.39133 11.28829,-1.33869 15.68829,-2.10523 z m 46.50543,-1.15382 c 3.29701,-2.06094 5.99457,-4.0353 5.99457,-4.38748 0,-1.29042 -12.81796,-6.05791 -14.68996,-5.46376 -2.01527,0.63962 -9.99128,8.31889 -9.24506,8.9011 0.79174,0.61774 10.42052,4.63145 11.19045,4.66469 0.41549,0.0179 3.45299,-1.65361 6.75,-3.71455 z m 128.89961,0.0627 4.58076,-2.6845 -7.38802,-3.35094 -7.38802,-3.35093 -3.85488,2.67144 c -2.12018,1.46925 -3.85488,2.99072 -3.85488,3.38101 0,0.68934 10.58234,5.74214 12.41214,5.92649 0.50168,0.0505 2.97349,-1.11614 5.4929,-2.59261 z m -91.63528,-3.49869 6.16001,-4.18319 -6.91344,-3.30172 c -7.70109,-3.6779 -5.99584,-3.94984 -15.85438,2.52837 l -3.83805,2.52204 6.33805,3.26033 c 3.48593,1.79317 6.70024,3.28215 7.14292,3.30884 0.44268,0.0267 3.57688,-1.83391 6.96489,-4.13467 z m 38.46786,-4.23758 c 1.78069,-1.14358 3.24319,-2.39567 3.25,-2.78244 0.0134,-0.76345 -8.01505,-4.51459 -11.57458,-5.40797 -1.51021,-0.37904 -3.99928,0.64396 -7.95128,3.26793 l -5.75287,3.8197 6.89555,3.19296 c 7.62334,3.52995 6.04175,3.7484 15.13318,-2.09018 z m 35.82536,-2.65343 c 1.27343,-1.40302 0.72024,-1.86519 -5.08689,-4.25 -3.58363,-1.47169 -7.08628,-2.6758 -7.78367,-2.6758 -0.69738,0 -2.82597,1.31124 -4.73019,2.91387 l -3.46223,2.91387 2.5,0.99403 c 1.375,0.54672 4.50645,1.90543 6.95877,3.01935 4.23245,1.92251 4.60385,1.93987 7.31709,0.34209 1.57207,-0.92576 3.50128,-2.3916 4.28712,-3.25741 z m -94.46371,-1.56794 c 3.2454,-2.00317 5.90073,-3.97754 5.90073,-4.38748 0,-0.40994 -2.88668,-1.9722 -6.41485,-3.47169 l -6.41486,-2.72635 -6.08514,3.75597 c -3.34683,2.06574 -6.08515,3.90975 -6.08515,4.09775 0,0.4754 11.30583,6.2667 12.34927,6.3258 0.4671,0.0265 3.5046,-1.59086 6.75,-3.59404 z m 37.03578,-3.02208 c 3.26508,-2.01532 5.58291,-3.99859 5.15073,-4.40725 -0.43218,-0.40867 -3.62724,-1.92767 -7.10013,-3.37555 l -6.31435,-2.63252 -6.03188,4.02794 c -5.72778,3.82486 -5.91359,4.0743 -3.68565,4.94767 1.29043,0.50586 4.37123,1.8513 6.84623,2.98987 2.475,1.13858 4.65717,2.08002 4.84927,2.0921 0.1921,0.0121 3.0207,-1.62694 6.28578,-3.64226 z m 35.23043,-1.93816 c 2.10637,-1.43131 3.44833,-2.96685 2.98214,-3.41231 -0.46619,-0.44545 -3.71408,-1.96478 -7.21752,-3.37628 l -6.36991,-2.56636 -3.85874,2.72866 c -2.12231,1.50077 -3.86595,2.95367 -3.87474,3.22867 -0.0179,0.56026 11.90255,5.78887 13.49116,5.91755 0.55982,0.0453 2.74125,-1.08862 4.84761,-2.51993 z m -89.46667,-5.27001 4.39881,-2.97275 -6.74784,-3.05962 c -5.34095,-2.4217 -7.16035,-2.83884 -8.72637,-2.00073 -1.30727,0.69963 -1.75372,1.62658 -1.31589,2.73218 0.36445,0.92032 0.88771,3.24831 1.16281,5.17331 0.87349,6.11227 0.98344,6.23639 4.0617,4.58515 1.52239,-0.81663 4.74743,-2.82253 7.16678,-4.45754 z m 35.03316,-1.76773 c 6.20798,-4.1807 5.99425,-4.70047 -3.22098,-7.83283 l -5.40485,-1.83716 -5.76422,3.82607 -5.76422,3.82607 5.86115,2.74316 c 3.22363,1.50874 6.54216,2.78179 7.3745,2.82899 0.83234,0.0472 3.94572,-1.55223 6.91862,-3.5543 z m 37.82764,-4.1387 c 0.18462,-0.55388 -2.77437,-2.22724 -6.57555,-3.71858 l -6.91123,-2.71153 -4.29,2.83899 -4.29,2.83899 6.90358,3.19847 6.90359,3.19847 3.96196,-2.31888 c 2.17908,-1.27538 4.11302,-2.77205 4.29765,-3.32593 z m -61.83835,-1.57285 c 0.86831,-0.74342 3.56132,-2.5081 5.98448,-3.92151 l 4.40575,-2.56983 -3.90575,-1.65944 c -12.09502,-5.13884 -10.58282,-5.06437 -16.95283,-0.83492 l -5.73197,3.80581 6.88953,3.19789 c 8.23152,3.82079 7.37585,3.63864 9.31079,1.982 z m 39.24524,-4.37721 4.12361,-2.72888 -7.22629,-3.27758 -7.2263,-3.27758 -3.89741,2.75646 c -2.14357,1.51605 -3.90702,3.01453 -3.91876,3.32995 -0.0209,0.56182 11.73125,5.77225 13.25009,5.87455 0.42429,0.0286 2.62707,-1.17604 4.89506,-2.67692 z m -66.1665,0.88936 c 0,-0.76093 -4.29566,-3.16052 -5.65784,-3.16052 -0.83188,0 4.02765,3.92769 4.90784,3.96673 0.4125,0.0183 0.75,-0.3445 0.75,-0.80621 z m 10.82872,-7.41052 c 2.78011,-1.7875 5.08096,-3.59317 5.11301,-4.01261 0.0573,-0.7492 -10.39468,-5.73739 -12.02175,-5.73739 -0.45715,0 -3.30169,1.73061 -6.32121,3.84579 l -5.49005,3.84579 6.19564,2.60225 c 3.4076,1.43124 6.48228,2.62563 6.83263,2.65421 0.35034,0.0286 2.91162,-1.41054 5.69173,-3.19804 z m 37.59828,-3.31353 c 2.32756,-1.71011 2.62835,-1.45 -5.69675,-4.92638 -7.13027,-2.97746 -7.83876,-2.9217 -13.15725,1.03548 -2.35422,1.75164 -2.52894,1.58398 5.427,5.20767 6.94302,3.16233 7.39038,3.11846 13.427,-1.31677 z m -67.95268,-1.38681 c 3.57204,-6.90757 -0.13628,-13.90585 -9.97432,-18.82334 -5.04808,-2.52325 -23.35661,-7.43297 -24.67634,-6.61734 -2.08369,1.28779 -4.89847,9.97426 -5.48659,16.93174 l -0.6137,7.26006 5.38831,1.10901 c 4.96808,1.02253 21.27927,2.62104 30.11264,2.95106 3.17876,0.11877 3.94781,-0.29304 5.25,-2.81119 z m 17.52568,-7.66222 c 0,-0.50956 -8.15377,-4.58339 -8.42072,-4.2072 -0.12479,0.17587 -0.0377,2.43484 0.19364,5.01993 l 0.42054,4.70018 3.90327,-2.58306 c 2.1468,-1.42068 3.90327,-2.73912 3.90327,-2.92985 z m 28.504,1.91605 3.96826,-2.6965 -6.89939,-3.17776 -6.8994,-3.17775 -3.79878,2.62426 c -2.08933,1.44334 -3.81049,2.84926 -3.82479,3.12426 -0.0237,0.4563 11.76346,5.87613 12.96797,5.96276 0.28482,0.0205 2.30358,-1.17619 4.48613,-2.65927 z m -93.15326,-4.38504 c 0.3496,-3.34486 1.71808,-8.76141 3.04107,-12.03679 l 2.40542,-5.95523 -5.77855,-2.917 c -3.1782,-1.60435 -8.80544,-5.23699 -12.50498,-8.07253 l -6.72643,-5.15553 0.75624,4.35931 c 0.41593,2.39763 1.48068,9.90593 2.36612,16.68512 l 1.60987,12.32581 5.99025,3.41168 c 3.29464,1.87643 6.48864,3.41731 7.09779,3.4242 0.62135,0.007 1.38659,-2.6572 1.7432,-6.06904 z m -281.93381,-9.00236 c 2.03239,-4.44615 5.04654,-11.75865 6.69811,-16.25 5.82468,-15.83983 7.89073,-16.44623 16.74953,-4.91609 9.10222,11.84699 11.68479,14.64655 12.84805,13.92761 1.3149,-0.81265 3.95969,-11.6258 5.30212,-21.67761 1.16406,-8.71624 3.33479,-11.578 7.56288,-9.97049 3.43925,1.3076 12.63987,7.29658 14.29482,9.30495 2.94721,3.5766 2.94274,1.3009 -0.0139,-7.08446 -6.12176,-17.36189 -15.25271,-31.94695 -27.72749,-44.28969 -18.59246,-18.39565 -40.38747,-28.18179 -67.881052,-30.47911 -4.5375,-0.37915 -8.25,-0.47204 -8.25,-0.20643 0,0.2656 1.556982,3.06855 3.45996,6.22875 10.143721,16.84532 13.432563,42.98052 8.556647,67.99648 -2.234843,11.46589 -4.614994,21.30292 -7.924138,32.75 -1.073216,3.7125 -1.779867,6.75 -1.570334,6.75 0.209532,0 2.367066,-3.0375 4.79452,-6.75 5.972571,-9.13433 9.677335,-12.49377 13.318919,-12.07746 2.135924,0.24418 3.287858,1.21761 4.529328,3.82746 0.9157,1.925 3.525,7.4375 5.79844,12.25 2.27345,4.8125 4.49912,8.75 4.94594,8.75 0.44682,0 2.47526,-3.63776 4.50765,-8.08391 z m 356.34982,4.91905 c 4.16413,-2.57357 3.49981,-3.39996 -5.07671,-6.31521 -5.42475,-1.84393 -5.42639,-1.84385 -8.55792,0.38599 -1.72266,1.22665 -3.13212,2.56635 -3.13212,2.97711 0,0.95909 8.90909,4.88631 11.38197,5.01729 1.03508,0.0548 3.45823,-0.87451 5.38478,-2.06518 z m -16.49997,-9.34439 c 1.5558,-1.05895 1.04703,-1.52557 -4.26035,-3.90738 l -6.02714,-2.70481 -3.05326,2.17411 -3.05326,2.17412 4.81361,3.29494 c 5.20678,3.56406 4.77262,3.60272 11.5804,-1.03098 z M 351.22552,667.82315 c 11.83958,-1.78462 21.92054,-5.07049 33.51628,-10.92456 12.80842,-6.46628 22.24834,-13.54356 34.68841,-26.00652 17.71775,-17.75034 29.04226,-34.1397 44.94466,-65.04603 l 8.7259,-16.95878 -4.97767,-2.19679 c -4.57375,-2.01852 -7.14912,-4.6516 -7.14912,-7.30931 0,-0.58034 2.25,-3.53968 5,-6.57633 2.75,-3.03665 4.9879,-5.85391 4.9731,-6.26059 -0.0148,-0.40667 -1.86941,-1.86441 -4.12137,-3.23941 -4.67305,-2.85327 -20.49846,-18.06407 -26.49735,-25.46827 l -4.02529,-4.96828 -6.31608,0.17507 c -12.65308,0.3507 -23.99963,9.47634 -31.90701,25.6617 -7.62822,15.61395 -11.1517,32.17561 -11.04639,51.92214 0.084,15.76015 0.93062,19.93196 4.77314,23.5214 2.69461,2.51715 3.16725,3.66589 3.16725,7.69792 0,5.98318 -3.24993,12.66044 -8.24163,16.93315 -3.05181,2.61224 -3.75837,3.89332 -3.75837,6.81439 0,4.15304 2.75278,6.71078 7.22251,6.71078 3.09979,0 5.86991,-2.34425 8.28204,-7.0088 1.18021,-2.28228 2.19706,-3.03176 3.80318,-2.80319 3.05729,0.43509 3.24971,4.37544 0.44966,9.20789 -4.09156,7.06139 -12.92326,9.62959 -19.44337,5.65399 l -3.18599,-1.94263 -3.85027,3.85027 c -6.6645,6.6645 -15.23496,7.53113 -24.02219,2.42909 -6.4894,-3.76787 -9.46149,-11.38662 -4.44194,-11.38662 1.03202,0 2.73258,0.94607 3.77902,2.10238 2.88691,3.19 6.86423,4.89762 11.40735,4.89762 7.53471,0 11.98725,-3.97337 12.33561,-11.00809 0.14513,-2.9308 -0.20287,-3.41747 -2.9709,-4.15465 -4.62524,-1.2318 -12.47242,-6.83543 -15.17622,-10.83726 -1.89701,-2.80772 -2.25312,-4.3339 -1.80041,-7.71597 0.4938,-3.68904 -0.11063,-5.56381 -4.83595,-15 -12.69105,-25.34323 -36.05564,-48.7165 -56.25204,-56.27294 -21.34843,-7.98747 -43.69353,-7.05996 -62.65681,2.60078 -18.21827,9.2812 -30.16041,21.46349 -47.62416,48.58179 -5.48321,8.51451 -5.84682,9.41528 -4.2735,10.58668 2.24857,1.67417 10.8831,4.21966 14.31344,4.21966 7.13698,0 5.9004,7.6457 -2.76615,17.10295 l -2.38532,2.60295 16.0515,9.67696 c 18.40712,11.0971 45.69878,24.56098 56.81123,28.02688 2.60133,0.81134 7.92208,2.58775 11.82389,3.94759 9.16728,3.19494 28.57694,7.53857 38.2901,8.56884 12.51173,1.32712 28.98963,1.15641 39.36723,-0.40785 z m -51.25103,-61.64177 c -4.18505,-1.66881 -6.96301,-5.01119 -8.51858,-10.24934 -2.72027,-9.16014 -1.30836,-17.00078 4.02115,-22.33029 4.51341,-4.51341 8.63193,-4.49383 12.92812,0.0615 8.29971,8.80025 7.16215,28.40662 -1.86704,32.17926 -1.92496,0.8043 -3.62688,1.43384 -3.78204,1.39897 -0.15517,-0.0349 -1.40689,-0.51189 -2.78161,-1.06006 z m 110.8483,-26.39675 c -5.67648,-3.08347 -8.87361,-16.99051 -5.78519,-25.1647 3.08681,-8.16993 11.49934,-11.04775 16.50528,-5.64626 5.25523,5.67049 6.69224,18.05792 2.93719,25.31939 -3.43566,6.64382 -8.09041,8.51549 -13.65728,5.49157 z m -28.30004,32.03716 c 3.29724,-3.49609 6.21464,-10.08689 5.00179,-11.29973 -2.22175,-2.22175 -18.67443,0.16726 -22.96994,3.33535 -1.89251,1.39579 -1.89251,1.44589 0,3.57791 3.41162,3.84341 9.65393,7.86951 12.20134,7.86951 1.53872,0 3.73022,-1.32362 5.76681,-3.48304 z m -11.04877,-18.71963 c 2.75,-0.55182 5.95323,-1.17565 7.11829,-1.38631 1.92697,-0.34842 2.0438,-0.76811 1.29355,-4.64701 -1.40074,-7.24202 -1.0167,-29.79007 0.67852,-39.83779 4.56631,-27.06498 18.87806,-51.37558 34.32639,-58.30837 3.31595,-1.48811 8.2912,-2.97358 11.05612,-3.30104 2.76492,-0.32747 5.02713,-0.7938 5.02713,-1.03631 0,-0.2425 -2.74768,-4.45263 -6.10596,-9.35584 l -6.10595,-8.91494 1.23407,-12.22937 c 3.76705,-37.3304 -8.44911,-85.57545 -27.73414,-109.5299 -4.01473,-4.98681 -4.35622,-4.91133 -13.53285,2.99124 -12.48416,10.7509 -25.3924,29.41944 -36.4794,52.75831 -4.04975,8.525 -7.72759,16.175 -8.17299,17 -0.55336,1.02499 -2.67705,1.57386 -6.70629,1.73323 -20.05582,0.7933 -37.11638,4.73134 -53.04241,12.24362 l -10.61558,5.00735 -3.28086,-2.7421 c -1.80447,-1.50815 -8.38313,-7.17997 -14.61925,-12.60404 -18.99017,-16.51732 -43.52948,-31.33616 -59.65382,-36.02382 l -5.31543,-1.5453 -1.51212,3.61901 c -3.39165,8.11737 -4.72783,18.5003 -4.73732,36.81205 -0.0167,32.2017 5.79926,53.88597 22.79796,85 3.60581,6.6 6.55787,13.125 6.56012,14.5 0.004,2.51755 -4.17472,21.77958 -5.53216,25.5 -0.43644,1.19617 1.43742,-0.0557 4.66233,-3.1148 18.91778,-17.94505 39.04755,-26.53083 62.39205,-26.61154 25.0196,-0.0865 45.68596,9.17623 65.7227,29.45711 10.64056,10.77021 23.29409,28.67147 28.29811,40.03405 2.53318,5.75207 3.2786,6.67282 4.97919,6.15031 1.1,-0.33798 4.25,-1.06599 7,-1.6178 z M 207.28891,496.05483 c -6.85212,-10.7453 -14.15557,-31.65535 -16.8423,-48.22018 -1.72576,-10.64003 -1.80201,-30.18342 -0.14215,-36.43378 1.50225,-5.65689 3.32193,-6.81782 8.32644,-5.31215 5.39613,1.62348 20.51295,10.40252 28.95977,16.81827 9.12993,6.93461 19.776,17.32276 21.83665,21.30762 2.0887,4.03908 1.33846,5.46383 -7.94616,15.09022 -7.52387,7.80082 -15.89467,19.84481 -21.54559,31 -5.8519,11.55195 -8.25121,12.64283 -12.64666,5.75 z m 7.68679,-12.46803 c 4.61643,-8.71817 15.75084,-24.73142 21.3569,-30.71499 l 5.55869,-5.93302 -4.14469,-4.56698 c -8.42928,-9.28812 -21.35907,-19.09286 -34.27262,-25.98915 l -6,-3.2042 -0.67663,6.31318 c -1.34453,12.54487 1.65566,35.05092 6.61701,49.6379 2.89919,8.52397 7.59175,19.17529 8.4479,19.17529 0.33834,0 1.73938,-2.12311 3.11344,-4.71803 z m 187.30971,-33.59669 c -1.13406,-0.6519 -5.60556,-3.76513 -9.93668,-6.91828 -9.08347,-6.61298 -23.83539,-14.43753 -33.71394,-17.88218 -3.76156,-1.31165 -7.27744,-3.19576 -7.81307,-4.18691 -3.61127,-6.68245 21.89281,-51.89254 32.31382,-57.28146 3.94301,-2.03901 5.83818,-1.23274 8.99409,3.82638 8.3115,13.32387 14.71558,37.49165 16.39964,61.88914 1.15799,16.77617 -0.9193,23.6141 -6.24386,20.55331 z m -1.66168,-22.93528 c -0.94396,-17.54991 -6.0584,-38.7293 -12.35122,-51.14758 l -2.55996,-5.05185 -2.94446,3.47472 c -8.72192,10.2926 -22.3203,33.7934 -23.02294,39.78836 -0.22767,1.94253 0.61107,2.69136 5.22883,4.66839 7.90662,3.38509 21.53143,11.05714 28.5,16.04818 3.3,2.36353 6.40695,4.33613 6.90432,4.38356 0.52695,0.0502 0.62937,-5.02567 0.24543,-12.16378 z M 653.97398,776.6673 c -8.97697,-3.5132 -72.07439,-28.14585 -80.25683,-31.33151 -6.2677,-2.44021 -11.17131,-4.96242 -11.75,-6.04372 -0.54624,-1.02067 -0.99317,-4.55081 -0.99317,-7.84477 0,-7.25912 2.31368,-10.58753 9.65932,-13.89568 2.66237,-1.19902 12.04068,-5.38709 20.84068,-9.30682 8.8,-3.91973 16.38583,-7.49308 16.8574,-7.94078 1.27512,-1.21057 -0.3614,-28.09288 -1.73226,-28.45496 -3.36496,-0.88878 -64.7396,-21.31993 -79.91382,-26.60271 -9.78378,-3.40614 -19.23378,-7.14955 -21,-8.31869 -1.76623,-1.16915 -4.33632,-4.37507 -5.71132,-7.12428 l -2.5,-4.99855 -0.30974,-113.5 c -0.31152,-114.15752 0.18053,-138.93446 2.86896,-144.46267 3.07415,-6.32137 14.3405,-10.41212 30.94078,-11.23444 l 8.5,-0.42106 45.5,15.59544 c 87.71779,30.0659 118.7786,39.51729 195.5,59.48804 43.57172,11.34182 46.39741,12.26183 50.80359,16.54106 6.54114,6.35267 6.19923,-1.01988 6.16777,132.99363 -0.0158,67.1 -0.37116,123.67425 -0.78979,125.72056 -1.17919,5.76397 -5.19958,9.61136 -15.05693,14.40904 -7.38585,3.59477 -9.98825,4.3704 -14.66354,4.3704 -5.66693,0 -47.45346,-9.50297 -72.4611,-16.4789 -6.6,-1.84108 -20.91644,-5.66172 -31.8143,-8.49032 -10.89787,-2.8286 -20.49671,-5.40476 -21.33076,-5.72482 -1.54311,-0.59214 -1.48961,4.37103 0.22928,21.27055 l 0.51634,5.0765 13.88061,5.76838 c 7.63433,3.17262 14.6795,6.65116 15.65593,7.7301 1.18598,1.31049 1.91074,4.08834 2.18324,8.36791 0.38097,5.98304 0.21873,6.59235 -2.45621,9.22452 -1.57527,1.55008 -12.73116,7.94052 -24.79087,14.20098 -16.89383,8.76996 -22.97645,11.45403 -26.5,11.69363 -2.51529,0.17104 -5.24826,0.0468 -6.07326,-0.27606 z m 2.29968,-9.97325 c -0.37715,-2.41499 -1.19193,-3.34172 -3.64275,-4.14329 -1.73631,-0.56787 -12.60693,-4.72956 -24.15693,-9.24819 -11.55,-4.51862 -30,-11.71129 -41,-15.98369 l -20,-7.76801 -0.32284,3.00414 c -0.17757,1.65227 0.0474,3.36317 0.5,3.80199 1.92503,1.86658 87.70048,34.97198 88.46558,34.14367 0.35351,-0.38271 0.42413,-2.09569 0.15694,-3.80662 z m 34.70032,-10.07562 16.5,-8.8136 0.31082,-3.75769 0.31083,-3.75768 -20.81083,10.64377 c -26.79663,13.70524 -25.31082,12.71716 -25.31082,16.83194 v 3.41423 l 6.25,-2.87368 c 3.4375,-1.58052 13.675,-6.8398 22.75,-11.68729 z m -8.48748,-9.5636 c 11.81332,-6.1875 21.46993,-11.475 21.45914,-11.75 -0.0108,-0.275 -4.58722,-2.3 -10.16985,-4.5 -5.58263,-2.2 -10.49301,-4.14039 -10.91196,-4.31198 -0.41895,-0.17159 -0.90306,1.40341 -1.07579,3.5 -0.29694,3.60418 -0.69564,4.01468 -7.31406,7.53037 -3.85,2.04511 -7.59185,3.73261 -8.31523,3.75 -1.16223,0.0279 -42.24728,-14.60887 -52.32354,-18.64059 -4.05869,-1.62397 -4.25974,-2.27235 -4.21011,-13.5778 0.004,-0.9625 -0.49794,-1.75 -1.11591,-1.75 -0.61798,0 -8.30371,3.28182 -17.07941,7.29294 -8.77569,4.01111 -17.0808,7.78662 -18.4558,8.39002 -2.4532,1.07654 -2.40641,1.13802 2.5,3.28436 4.89114,2.13966 73.07333,28.74063 79,30.82148 1.65,0.57932 3.7951,1.08883 4.76689,1.13225 0.97179,0.0434 11.43232,-4.98355 23.24563,-11.17105 z m -21.25915,-42.71515 -0.75337,-16.46515 -7.5,-2.20226 c -11.75285,-3.45104 -35.31389,-10.39368 -37.26617,-10.98108 -1.65217,-0.4971 -1.73035,0.48991 -1.21122,15.29112 0.30522,8.70239 0.78932,18.551 1.07577,21.88581 l 0.52082,6.06329 8.1904,2.69044 c 4.50472,1.47973 14.7154,5.09154 22.6904,8.02623 l 14.5,5.3358 0.25337,-6.58952 c 0.13936,-3.62424 -0.0856,-13.99885 -0.5,-23.05468 z m 14.35037,10.62571 c -1.00281,-22.78584 -1.08663,-23.16629 -5.39553,-24.48873 -1.98358,-0.60878 -3.67562,-1.00899 -3.7601,-0.88935 -0.0845,0.11964 0.19695,7.19252 0.62539,15.71752 0.42844,8.525 0.81217,18.54665 0.85274,22.27032 l 0.0738,6.77033 4.13548,-2.10977 4.13548,-2.10976 z m 131.25306,2.23951 c 2.07398,-0.72299 3.41021,-2.00808 3.89923,-3.75 0.40918,-1.45754 0.74397,-58.22507 0.74397,-126.15007 0,-97.71356 -0.26399,-123.96165 -1.26432,-125.71102 -1.61883,-2.83097 -7.91978,-4.81707 -51.49488,-16.23151 -72.74677,-19.05592 -101.45058,-28.0055 -216.45031,-67.48718 -27.56129,-9.46234 -33.95937,-10.87912 -36.31444,-8.04143 -2.25881,2.7217 -3.20346,66.25257 -2.48864,167.37074 0.65429,92.55748 0.56884,91.13603 5.67906,94.46495 5.04196,3.28445 84.53452,29.88141 126.21359,42.22908 37.47995,11.10366 152.27638,41.39474 165.61994,43.70177 1.375,0.23773 2.54535,0.49352 2.60078,0.56842 0.0554,0.0749 1.52064,-0.35879 3.25602,-0.96375 z m -52.3568,-23.34365 c -73.55823,-18.49744 -134.83541,-36.27534 -193,-55.99368 -22,-7.45821 -41.125,-14.39179 -42.5,-15.40796 -1.375,-1.01617 -3.05587,-2.9292 -3.73526,-4.25118 -1.73397,-3.37401 -1.83499,-229.55792 -0.10422,-233.35655 0.82482,-1.8103 1.9384,-2.54705 3.84978,-2.54705 2.77417,0 18.35875,5.10362 56.4897,18.49918 67.0595,23.55828 126.59629,41.5049 204.39803,61.61324 11.01281,2.84632 17.25253,4.97303 19,6.47582 l 2.60197,2.23765 0.33302,82.83706 c 0.18315,45.56038 0.0176,96.95263 -0.36795,114.205 -0.6445,28.84091 -0.85259,31.51957 -2.58302,33.25 -1.03513,1.03513 -3.11955,1.8507 -4.63205,1.81239 -1.5125,-0.0383 -19.4,-4.25657 -39.75,-9.37392 z m 40.93091,-59.93827 c 0.40098,-34.31001 0.40088,-84.48597 -2.3e-4,-111.50212 l -0.72928,-49.12027 -6.8279,-2.03343 c -3.75535,-1.1184 -16.17567,-4.45804 -27.6007,-7.42144 -70.44146,-18.27096 -111.52973,-31.0197 -213.04233,-66.10211 -13.89823,-4.80318 -25.59823,-8.40453 -26,-8.003 -0.40176,0.40154 -0.86923,51.54749 -1.03882,113.65767 l -0.30835,112.9276 4.30835,1.81728 c 14.62514,6.16896 89.20272,30.28873 130.30835,42.14415 45.04284,12.99096 131.40442,35.50046 137.60093,35.86465 l 2.60092,0.15287 z m -112.43091,-9.45639 c -5.46021,-1.76824 -8.5,-3.26794 -8.5,-4.19351 0,-2.32957 3.29685,-2.31715 11.39782,0.043 7.95647,2.318 10.79924,4.0519 9.66149,5.89283 -0.99479,1.60961 -3.11879,1.31496 -12.55931,-1.74228 z m -27.25,-7.95462 c -5.82137,-1.9632 -7.75,-3.06075 -7.75,-4.41038 0,-2.2486 2.36115,-2.30393 9.84609,-0.23071 9.16846,2.53952 11.15391,3.52839 11.15391,5.55527 0,2.59049 -3.59289,2.3426 -13.25,-0.91418 z M 577.559,610.2761 c -8.75325,-2.69568 -16.3505,-5.33675 -16.88279,-5.86904 -1.49782,-1.49782 0.0624,-4.4029 2.05992,-3.8355 14.90209,4.23298 31.85051,9.91736 33.00166,11.06851 1.56183,1.56183 0.92249,3.70781 -1.07283,3.60102 -0.65504,-0.0351 -8.35272,-2.2693 -17.10596,-4.96499 z m 54.91498,-0.8633 c -5.33947,-1.9015 -6.66025,-4.45647 -2.5,-4.8361 3.74884,-0.34209 12.5,2.96804 12.5,4.72813 0,2.14947 -4.14185,2.19419 -10,0.10797 z m -27,-7.69815 c -17.19271,-4.90414 -27.89501,-8.54608 -28.68402,-9.76104 -1.01329,-1.56033 0.0149,-2.64973 2.49304,-2.64156 2.96158,0.01 41.67747,11.57927 42.92574,12.82754 1.43771,1.43771 5.6e-4,3.17873 -2.54378,3.08162 -1.20504,-0.046 -7.59098,-1.62395 -14.19098,-3.50656 z m -71.06256,-1.71226 c -1.12573,-2.93359 -0.0127,-10.19756 1.56256,-10.19756 1.94618,0 2.18237,10.60588 0.25053,11.24982 -0.68721,0.22907 -1.5031,-0.24444 -1.81309,-1.05226 z m 95.56256,-7.25938 c -6.09975,-2.14056 -8.452,-4.42276 -6.07357,-5.89271 1.32902,-0.82138 15.13581,3.21 16.94189,4.94679 1.78468,1.7162 0.60189,3.54544 -2.17734,3.36734 -1.20504,-0.0772 -5.11598,-1.16686 -8.69098,-2.42142 z m -25.5,-7.25906 c -7.5707,-2.26779 -9.05075,-3.05192 -9.31955,-4.93752 -0.42502,-2.98147 1.926,-2.94032 12.26795,0.21473 8.86391,2.70415 12.23107,4.63525 11.14536,6.39197 -1.04692,1.69395 -4.05624,1.33754 -14.09376,-1.66918 z m -70.06611,-3.4908 c -1.09477,-2.85293 -0.0149,-9.18832 1.56611,-9.18832 1.12994,0 1.5,1.21296 1.5,4.91667 0,4.84228 -1.85528,7.42702 -3.06611,4.27165 z m 42.50642,-5.07965 c -8.74506,-2.60905 -9.94031,-3.22333 -9.94031,-5.10867 0,-2.50582 1.64321,-2.48502 10.61968,0.13443 9.15474,2.67146 12.11491,4.36796 10.93963,6.26961 -0.94044,1.52166 -2.91444,1.30158 -11.619,-1.29537 z m 154.56873,-3.96887 c -12.18717,-3.72133 -17.07985,-5.64973 -17.30537,-6.82074 -0.17292,-0.89792 0.11744,-1.89948 0.64525,-2.22569 0.87079,-0.53817 27.80072,6.94561 34.40108,9.56 3.10209,1.22873 3.87366,4.90187 1,4.76061 -0.9625,-0.0473 -9.39593,-2.4207 -18.74096,-5.27418 z m -64.94346,-2.26629 c -24.09336,-6.7461 -32.01287,-9.5882 -32.3889,-11.62351 -0.21022,-1.13778 0.31455,-1.76038 1.5,-1.77966 2.97348,-0.0484 48.70197,13.25403 50.19164,14.60074 1.65116,1.49268 0.66475,3.46066 -1.67734,3.34648 -0.93004,-0.0453 -8.86147,-2.09016 -17.6254,-4.54405 z m -73.56558,-5.72406 c -8.95618,-2.70126 -10.54698,-3.49643 -10.81955,-5.40817 -0.42566,-2.98548 1.06018,-2.89966 13.20843,0.76294 11.17112,3.36799 13.22469,4.55154 11.50101,6.62846 -1.4602,1.75943 -1.49957,1.75381 -13.88989,-1.98323 z m -58.56611,0.0389 c -1.09477,-2.85296 -0.0149,-9.18835 1.56611,-9.18835 1.12994,0 1.5,1.21296 1.5,4.91667 0,4.84228 -1.85528,7.42702 -3.06611,4.27165 z m 155.06611,-4.127 c -29.85352,-8.50324 -32.5,-9.44729 -32.5,-11.59349 0,-1.22959 0.67648,-1.96786 1.80317,-1.96786 0.99174,0 12.49154,3.15 25.55512,7 13.06357,3.85 23.95214,7 24.19683,7 0.24468,0 0.44488,0.9 0.44488,2 0,2.80038 -1.97278,2.55366 -19.5,-2.43865 z m -72.39383,-4.58117 c -8.35677,-2.51543 -11.04022,-3.99694 -11.09086,-6.12319 -0.043,-1.80542 3.72496,-1.43695 12.62236,1.23435 9.95013,2.98737 13.15421,4.81836 11.92164,6.8127 -0.95556,1.54613 -2.8027,1.28198 -13.45314,-1.92386 z m -26.94399,-7.91959 c -5.94376,-2.04468 -7.71532,-3.35658 -6.71603,-4.97346 0.93425,-1.51164 5.15143,-1.22816 11.05385,0.74304 3.77672,1.2613 5,2.15914 5,3.66983 0,2.67484 -2.71757,2.83799 -9.33782,0.56059 z m -55.49551,0.27274 c -0.36667,-0.36666 -0.66667,-2.87466 -0.66667,-5.57332 0,-4.13308 0.2759,-4.85421 1.75,-4.57397 2.28904,0.43517 3.21898,10.81396 0.96893,10.81396 -0.76208,0 -1.6856,-0.3 -2.05226,-0.66667 z m 106.89445,-1.75481 c -8.07895,-2.26964 -11.04181,-4.49783 -8.86944,-6.6702 0.8623,-0.8623 3.33704,-0.43508 9.97752,1.72248 7.03817,2.28676 8.8308,3.25828 8.8308,4.78587 0,2.67566 -0.93647,2.69091 -9.93888,0.16185 z m -30.56112,-8.88028 c -8.95962,-2.73049 -10.54688,-3.52989 -10.81955,-5.44908 -0.42382,-2.98306 0.91079,-2.88141 13.81955,1.0526 8.95962,2.73049 10.54688,3.52989 10.81955,5.44908 0.42382,2.98306 -0.91079,2.88141 -13.81955,-1.0526 z m 134.5,-7.27831 c -11.52395,-3.68886 -13.15749,-4.54708 -12.05385,-6.3328 1.11449,-1.80328 5.49603,-1.09647 17.05385,2.75105 7.48363,2.49125 11,4.14132 11,5.16182 0,2.54714 -4.49266,2.10347 -16,-1.58007 z m -211.06611,0.26839 c -0.31194,-0.8129 -0.42467,-3.20908 -0.25052,-5.32484 0.22729,-2.7615 0.82594,-3.94341 2.1218,-4.18911 1.58431,-0.30039 1.76783,0.30073 1.5,4.91308 -0.2979,5.13015 -2.18166,7.70097 -3.37128,4.60087 z m 52.56611,-0.0851 c -4.45181,-1.63024 -5.01236,-5.20599 -0.77094,-4.91785 3.85782,0.26207 8.27094,2.5714 8.27094,4.32807 0,1.94411 -3.12958,2.1902 -7.5,0.58978 z m 35.1226,-5.55708 c -8.79993,-2.66549 -11.65989,-4.36781 -10.4976,-6.24842 0.90753,-1.46842 5.79862,-0.66279 15.375,2.53247 6.68127,2.22928 9.59593,3.68902 9.82332,4.91978 0.46648,2.52479 -3.44968,2.2041 -14.70072,-1.20383 z m 97.04071,-3.05805 c -5.09328,-2.3113 -5.09915,-4.58257 -0.0111,-4.29197 5.37671,0.30709 8.84779,1.98582 8.84779,4.2791 0,2.63013 -3.05934,2.63458 -8.83669,0.0129 z m -60.91331,-2.09177 c -7.536,-2.4085 -9.25,-3.32133 -9.25,-4.92632 0,-2.6707 2.48955,-2.54973 12.9484,0.62919 9.10613,2.76777 11.0516,3.82807 11.0516,6.02322 0,2.09662 -4.4002,1.58169 -14.75,-1.72609 z m -61.25,-2.28701 c -4.125,-1.25592 -10.04981,-3.05278 -13.16624,-3.99302 -6.2805,-1.89486 -8.84172,-4.00836 -7.04039,-5.80969 0.81148,-0.81148 4.53902,-0.10736 13.90762,2.62711 14.70592,4.29231 18.04399,5.96369 16.24349,8.13316 -1.45397,1.75193 -0.85634,1.80947 -9.94448,-0.95756 z m 102.69599,-1.21519 c -7.61334,-2.45068 -10.03171,-4.45843 -7.9172,-6.57294 0.7258,-0.7258 3.4886,-0.23034 9.05776,1.62435 8.06166,2.68478 10.88337,4.58057 9.69052,6.51064 -0.89575,1.44935 -1.94653,1.29781 -10.83108,-1.56205 z m -164.55861,-2.30924 c -2.00048,-1.23637 -1.07342,-9.48495 1.11262,-9.89961 1.47813,-0.28038 1.75,0.44704 1.75,4.68236 0,5.22451 -0.72193,6.54026 -2.86262,5.21725 z m 95.86262,-2.12946 c -15.65682,-4.86626 -18,-5.91264 -18,-8.03816 0,-2.67056 1.50923,-2.44952 17,2.48984 11.02115,3.51419 13.5,4.64987 13.5,6.18503 0,2.74623 -1.9323,2.64781 -12.5,-0.63671 z m 28.5,-7.53914 c -11.55,-3.52922 -23.3625,-7.12359 -26.25,-7.9875 -3.7532,-1.12291 -5.25,-2.07319 -5.25,-3.3331 0,-0.96931 0.26023,-2.0226 0.57828,-2.34066 0.31806,-0.31805 4.25556,0.45065 8.75,1.70824 12.43894,3.48051 46.73404,14.26569 47.3632,14.89485 1.08055,1.08056 -0.65343,3.6407 -2.4101,3.55839 -0.97976,-0.0459 -11.23138,-2.97101 -22.78138,-6.50022 z m -69.98976,-5.23085 c -10.60372,-3.33988 -15.08211,-5.20088 -15.30537,-6.36017 -0.17358,-0.90135 0.1434,-1.9225 0.7044,-2.26922 0.91015,-0.5625 27.16883,6.97615 32.84073,9.4283 3.23951,1.40055 2.90867,4.02679 -0.5,3.96904 -1.5125,-0.0256 -9.49539,-2.1712 -17.73976,-4.76795 z m -54.26024,-1.88383 c -1.75321,-0.65682 -1.61066,-8.75742 0.18026,-10.24375 1.14215,-0.9479 1.64575,-0.78437 2.5,0.81181 2.18451,4.08179 0.34237,10.56434 -2.68026,9.43194 z m 76.59498,-6.91568 c -7.93624,-2.46959 -7.5773,-7.76593 0.37292,-5.50281 7.74065,2.20345 9.88804,3.32706 9.56982,5.00735 -0.40008,2.11252 -4.14626,2.2992 -9.94274,0.49546 z m 13.15502,-12.2232 c -29.49499,-8.76931 -32.52955,-9.87079 -32.81955,-11.91275 -0.22002,-1.54918 0.19165,-2.25 1.32166,-2.25 1.46033,0 47.35922,13.35995 61.49789,17.90041 4.12108,1.32344 5.5,2.24335 5.5,3.66923 0,1.04663 -0.675,1.98237 -1.5,2.07941 -0.825,0.0971 -16.125,-4.17179 -34,-9.4863 z m -36.5,4.75081 c -12.79469,-3.68479 -15.5,-4.83084 -15.5,-6.56627 0,-2.63379 2.7579,-2.48061 13.63793,0.75749 11.50351,3.42365 15.4874,5.73058 13.1666,7.62427 -0.94707,0.77277 -4.04468,0.2753 -11.30453,-1.81549 z m -53.83333,-3.58023 c -1.23985,-1.23984 -0.67673,-8.08009 0.76359,-9.27545 2.09067,-1.7351 3.83418,2.0156 3.00113,6.45613 -0.60651,3.23299 -2.17583,4.40822 -3.76472,2.81932 z m 36.83333,-17.15524 c -13.46302,-4.20596 -14.5,-4.69001 -14.5,-6.76849 0,-2.70826 2.41808,-2.40715 16,1.99237 10.88853,3.52707 13.5,4.73063 13.5,6.22181 0,2.81254 -1.98074,2.62163 -15,-1.44569 z m -36.83333,0.15524 c -0.83325,-0.83324 -0.87279,-6.63261 -0.0597,-8.75154 1.41215,-3.67996 4.39303,-1.02125 4.39303,3.91821 0,4.52818 -2.19274,6.97393 -4.33333,4.83333 z m 67.69033,-10.32491 c -2.77808,-1.12109 -5.357,-4.84285 -5.357,-7.73093 0,-3.13167 3.42054,-6.27749 6.82569,-6.27749 6.52618,0 9.65315,8.90498 4.53945,12.92742 -2.91904,2.29612 -2.97301,2.30583 -6.00814,1.081 z m -67.88459,-8.09536 c -0.94346,-2.97256 0.36681,-8.91306 1.96591,-8.91306 1.55806,0 2.56168,2.15481 2.56168,5.5 0,5.25343 -3.18213,7.65223 -4.52759,3.41306 z m 44.84296,1.07996 c -4.3609,-1.75705 -5.87534,-9.2713 -2.48663,-12.33803 4.05992,-3.67418 10.64208,-0.86435 11.77999,5.02872 0.49588,2.56806 0.11849,3.67998 -1.95153,5.75 -2.72531,2.72531 -3.85329,2.96488 -7.34183,1.55931 z m -22.81537,-7.20084 c -4.80878,-2.75783 -5.90164,-7.91057 -2.46104,-11.60362 4.19186,-4.49944 11.96104,-1.0023 11.96104,5.38402 0,5.84823 -4.73835,8.95041 -9.5,6.2196 z m -21.5,-14.21886 c 0,-4.25553 0.35016,-5.57332 1.48095,-5.57332 3.13058,0 3.38493,10.22387 0.26905,10.81477 -1.49703,0.28391 -1.75,-0.47376 -1.75,-5.24145 z m 289.5,287.55471 c 2.2,-1.49306 4.62701,-4.01602 5.39335,-5.60658 1.16568,-2.4194 1.41077,-22.67341 1.5,-123.95669 0.0587,-66.58562 -0.23229,-122.27385 -0.64656,-123.75163 l -0.75321,-2.68687 -6.07755,2.75881 -6.07756,2.75882 0.33076,31.92806 c 0.59062,57.01037 -0.2428,215.83633 -1.15035,219.22387 -0.82532,3.08064 -0.7405,3.25505 1.29908,2.67135 1.20012,-0.34346 3.98204,-1.84607 6.18204,-3.33914 z m -4.12084,-257.70131 c 3.09146,-1.41532 5.62084,-2.75376 5.62084,-2.97432 0,-1.42772 -10.45656,-4.56907 -48.04539,-14.43375 -75.66663,-19.8577 -101.75551,-27.78839 -192.32772,-58.46526 -50.69857,-17.17164 -53.41769,-17.84976 -62.00898,-15.46431 -3.84689,1.06813 -3.64743,1.15772 22,9.8815 14.23515,4.84199 41.13968,14.03454 59.78785,20.4279 52.93513,18.14835 88.22899,28.82398 144.09424,43.58539 52.1588,13.78204 57.03331,15.18458 61,17.55141 2.2,1.31269 4.05812,2.40427 4.12916,2.42573 0.071,0.0215 2.65853,-1.11897 5.75,-2.53429 z"
       id="path1" />
  </g>
</svg>
